<?xml version="1.0" encoding="UTF-8" standalone="no"?>
<!-- Created with Inkscape (http://www.inkscape.org/) -->

<svg
   xmlns:dc="http://purl.org/dc/elements/1.1/"
   xmlns:cc="http://creativecommons.org/ns#"
   xmlns:rdf="http://www.w3.org/1999/02/22-rdf-syntax-ns#"
   xmlns:svg="http://www.w3.org/2000/svg"
   xmlns="http://www.w3.org/2000/svg"
   xmlns:sodipodi="http://sodipodi.sourceforge.net/DTD/sodipodi-0.dtd"
   xmlns:inkscape="http://www.inkscape.org/namespaces/inkscape"
   width="1220mm"
   height="610mm"
   viewBox="0 0 4322.8346 2161.4173"
   id="svg8254"
   version="1.1"
   inkscape:version="0.92.3 (unknown)"
   sodipodi:docname="back.svg">
  <defs
     id="defs8256" />
  <sodipodi:namedview
     id="base"
     pagecolor="#ffffff"
     bordercolor="#666666"
     borderopacity="1.0"
     inkscape:pageopacity="0.0"
     inkscape:pageshadow="2"
     inkscape:zoom="0.86566911"
     inkscape:cx="277.82855"
     inkscape:cy="1890.7087"
     inkscape:document-units="mm"
     inkscape:current-layer="layer1"
     showgrid="false"
     inkscape:window-width="1600"
     inkscape:window-height="847"
     inkscape:window-x="0"
     inkscape:window-y="0"
     inkscape:window-maximized="1" />
  <metadata
     id="metadata8259">
    <rdf:RDF>
      <cc:Work
         rdf:about="">
        <dc:format>image/svg+xml</dc:format>
        <dc:type
           rdf:resource="http://purl.org/dc/dcmitype/StillImage" />
        <dc:title />
      </cc:Work>
    </rdf:RDF>
  </metadata>
  <g
     inkscape:label="Layer 1"
     inkscape:groupmode="layer"
     id="layer1"
     transform="translate(0,1109.0551)">
    <g
       id="g849"
       transform="matrix(0.99975364,0,0,1.1178553,-543.55188,-263.13034)">
      <path
         id="path840"
         d="m 630.31974,-202.92092 h -31.61728 v -14.17323 h 31.61728 v 14.17323"
         style="fill:none;stroke:#000000;stroke-width:1.77165365"
         inkscape:connector-curvature="0" />
      <path
         sodipodi:nodetypes="ccccc"
         inkscape:connector-curvature="0"
         id="path838"
         d="m 693.55395,-202.92092 h -31.61728 v -14.17323 h 31.61728 v 14.17323"
         style="fill:none;stroke:#000000;stroke-width:1.77165365" />
      <path
         sodipodi:nodetypes="ccccc"
         inkscape:connector-curvature="0"
         id="path836"
         d="m 756.78852,-202.92092 h -31.61728 v -14.17323 h 31.61728 v 14.17323"
         style="fill:none;stroke:#000000;stroke-width:1.77165365" />
      <path
         sodipodi:nodetypes="ccccc"
         inkscape:connector-curvature="0"
         id="path834"
         d="m 820.02274,-202.92092 h -31.61693 v -14.17323 h 31.61693 v 14.17323"
         style="fill:none;stroke:#000000;stroke-width:1.77165365" />
      <path
         sodipodi:nodetypes="ccccc"
         inkscape:connector-curvature="0"
         id="path832"
         d="m 883.25731,-202.92092 h -31.61729 v -14.17323 h 31.61729 v 14.17323"
         style="fill:none;stroke:#000000;stroke-width:1.77165365" />
      <path
         sodipodi:nodetypes="ccccc"
         inkscape:connector-curvature="0"
         id="path830"
         d="M 946.49224,-202.92092 H 914.8753 v -14.17323 h 31.61694 v 14.17323"
         style="fill:none;stroke:#000000;stroke-width:1.77165365" />
      <path
         sodipodi:nodetypes="ccccc"
         inkscape:connector-curvature="0"
         id="path828"
         d="m 1009.7261,-202.92092 h -31.61694 v -14.17323 h 31.61694 v 14.17323"
         style="fill:none;stroke:#000000;stroke-width:1.77165365" />
    </g>
    <path
       id="path816"
       d="m 54.952458,-380.01965 h 31.61728 v 14.17323 h 31.616932 v -14.17323 h 31.61728 v 14.17323 h 31.61729 v -14.17323 h 31.61728 v 14.17323 h 31.61729 v -14.17323 h 31.61693 v 14.17323 h 31.61728 v -14.17323 h 31.61729 v 14.17323 h 31.61799 v -14.17323 h 31.61694 v 14.17323 h 31.61692 v -14.17323 h 31.61693 v 14.17323 h 42.51969 v -42.51969 h -14.17323 v -29.69645 h 14.17323 v -29.69611 h -14.17323 v -29.69646 h 14.17323 v -29.6961 h -14.17323 v -29.69646 h 14.17323 v -29.69611 h -14.17323 v -29.69645 h 14.17323 v -29.6961 h -14.17323 v -29.69645 h 14.17323 v -29.6961 h -14.17323 v -29.69469 h 14.17323 v -29.69646 h -14.17323 v -29.69646 h 14.17323 v -29.69647 h -14.17323 v -29.69646 h 14.17323 v -29.69645 h -14.17323 v -29.69646 h 14.17323 v -29.69646 h -14.17323 v -29.69649 h 14.17323 v -29.6964 h -14.17323 v -29.6965 h 14.17323 v -42.5197 h -42.51969 v 14.1733 h -31.61693 v -14.1733 h -31.61692 v 14.1733 H 371.1253 v -14.1733 h -31.61799 v 14.1733 h -31.61729 v -14.1733 h -31.61728 v 14.1733 h -31.61693 v -14.1733 h -31.61729 v 14.1733 h -31.61728 v -14.1733 h -31.61729 v 14.1733 h -31.61693 v -14.1733 H 86.569738 v 14.1733 h -31.61728 v -14.1733 h -42.51969 v 42.5197 h 14.17316 v 29.6965 h -14.17316 v 29.6964 h 14.17316 v 29.69649 h -14.17316 v 29.69646 h 14.17316 v 29.69646 h -14.17316 v 29.69645 h 14.17316 v 29.69646 h -14.17316 v 29.69647 h 14.17316 v 29.69646 h -14.17316 v 29.69646 h 14.17316 l 7e-5,29.69469 h -14.17323 v 29.6961 h 14.17323 v 29.69645 h -14.17323 v 29.6961 h 14.17323 v 29.69645 h -14.17323 v 29.69611 h 14.17323 v 29.69646 h -14.17323 v 29.6961 h 14.17323 v 29.69646 h -14.17323 v 29.69611 h 14.17323 v 29.69645 h -14.17323 v 42.51969 h 42.51969 z"
       style="fill:none;stroke:#000000;stroke-width:1.77165365"
       inkscape:connector-curvature="0" />
    <rect
       style="fill:none;fill-opacity:1;stroke:#ff0000;stroke-width:1.02362168;stroke-miterlimit:4;stroke-dasharray:none;stroke-dashoffset:0;stroke-opacity:1"
       id="rect814"
       width="424.17325"
       height="495.0394"
       x="48.377651"
       y="-1026.7433"
       ry="24.502819" />
    <circle
       style="fill:none;fill-opacity:1;stroke:#ff0000;stroke-width:0.56948137;stroke-miterlimit:4;stroke-dasharray:none;stroke-dashoffset:0;stroke-opacity:1"
       id="path2607"
       cx="260.46426"
       cy="-1008.7795"
       r="3.2585664" />
  </g>
</svg>
