<?xml version="1.0" encoding="UTF-8" standalone="no"?>
<svg
   xmlns:dc="http://purl.org/dc/elements/1.1/"
   xmlns:cc="http://creativecommons.org/ns#"
   xmlns:rdf="http://www.w3.org/1999/02/22-rdf-syntax-ns#"
   xmlns:svg="http://www.w3.org/2000/svg"
   xmlns="http://www.w3.org/2000/svg"
   xmlns:sodipodi="http://sodipodi.sourceforge.net/DTD/sodipodi-0.dtd"
   xmlns:inkscape="http://www.inkscape.org/namespaces/inkscape"
   width="1220mm"
   height="610mm"
   viewBox="-1 -81 1220 610"
   version="1.1"
   id="svg6"
   sodipodi:docname="batterymodule3.svg"
   inkscape:version="0.92.4 5da689c313, 2019-01-14">
  <metadata
     id="metadata12">
    <rdf:RDF>
      <cc:Work
         rdf:about="">
        <dc:format>image/svg+xml</dc:format>
        <dc:type
           rdf:resource="http://purl.org/dc/dcmitype/StillImage" />
        <dc:title>OpenSCAD Model</dc:title>
      </cc:Work>
    </rdf:RDF>
  </metadata>
  <defs
     id="defs10" />
  <sodipodi:namedview
     pagecolor="#ffffff"
     bordercolor="#666666"
     borderopacity="1"
     objecttolerance="10"
     gridtolerance="10"
     guidetolerance="10"
     inkscape:pageopacity="0"
     inkscape:pageshadow="2"
     inkscape:window-width="1600"
     inkscape:window-height="838"
     id="namedview8"
     showgrid="false"
     inkscape:document-units="mm"
     inkscape:zoom="1.5273316"
     inkscape:cx="326.51599"
     inkscape:cy="68.411384"
     inkscape:window-x="0"
     inkscape:window-y="0"
     inkscape:window-maximized="1"
     inkscape:current-layer="svg6" />
  <title
     id="title2">OpenSCAD Model</title>
  <path
     style="fill:none;fill-opacity:1;stroke:#000000;stroke-width:0.39522216;stroke-miterlimit:4;stroke-dasharray:none;stroke-opacity:1"
     d="M 0 2248.8184 L 0 2305.5117 L 151.18164 2305.5117 L 151.18164 2248.8184 L 100.53516 2248.8184 A 11.338583 11.338583 0 0 1 89.197266 2260.1582 A 11.338583 11.338583 0 0 1 77.857422 2248.8203 L 73.322266 2248.8203 A 11.338583 11.338583 0 0 1 61.984375 2260.1582 A 11.338583 11.338583 0 0 1 50.646484 2248.8203 L 0 2248.8184 z "
     transform="matrix(0.26458333,0,0,0.26458333,-1,-81)"
     id="rect906" />
  <path
     style="fill:none;fill-opacity:1;stroke:#000000;stroke-width:0.39522216;stroke-miterlimit:4;stroke-dasharray:none;stroke-opacity:1"
     d="M 153.95312 2192.127 L 153.95312 2305.5117 L 229.54297 2305.5117 L 229.54297 2260.1582 L 216.05078 2260.1582 A 11.338583 11.338583 0 0 0 216.04883 2260.1582 A 11.338583 11.338583 0 0 1 204.71094 2248.8184 A 11.338583 11.338583 0 0 1 216.04883 2237.4805 L 216.05078 2237.4805 L 229.54297 2237.4805 L 229.54297 2192.127 L 153.95312 2192.127 z "
     transform="matrix(0.26458333,0,0,0.26458333,-1,-81)"
     id="rect920" />
  <path
     id="path858"
     d="m -1,498.12485 v 15.00011 H 39.000142 V 498.12485 H 25.599927 a 3,3 0 0 1 -2.999817,3.00033 3,3 0 0 1 -3.000334,-2.99982 h -1.199927 a 3,3 0 0 1 -2.999817,2.99982 3,3 0 0 1 -2.999817,-2.99982 z"
     style="fill:none;fill-opacity:1;stroke:#000000;stroke-width:0.1045692;stroke-miterlimit:4;stroke-dasharray:none;stroke-opacity:1"
     inkscape:connector-curvature="0" />
  <path
     id="path860"
     d="m 60.9001,499.00026 v 29.9997 h 19.999814 v -11.99978 h -3.569809 a 3,3 0 0 0 -5.15e-4,0 3,3 0 0 1 -2.999817,-3.00032 3,3 0 0 1 2.999817,-2.99982 h 5.15e-4 3.569809 v -11.99978 z"
     style="fill:none;fill-opacity:1;stroke:#000000;stroke-width:0.1045692;stroke-miterlimit:4;stroke-dasharray:none;stroke-opacity:1"
     inkscape:connector-curvature="0" />
  <g
     id="g3710"
     transform="translate(4.2333335)">
    <path
       inkscape:connector-curvature="0"
       style="fill:none;stroke:#000000;stroke-width:1;stroke-opacity:1"
       id="path832"
       d="m 94.118,526 h 5.97702 v 3 h 6.118 v -3 h 5.97701 v 3 h 6.118 v -3 h 5.978 v 3 h 6.11701 v -3 h 5.978 v 3 h 6.118 v -3 h 5.977 v 3 h 6.118 v -3 h 5.977 v 3 h 6.118 v -3 h 5.978 v 3 h 6.117 v -3 h 5.978 v 3 h 6.117 v -3 h 5.978 v 3 h 6.118 v -3 h 5.977 v 3 h 6.118 v -3 h 6 v -9 h 3 v -7.07 h -3 V 503 h 3 v -7.07 h -3 v -9 h -6 v -3 h -6.118 v 3 h -5.977 v -3 h -6.118 v 3 h -5.977 v -3 h -6.118 v 3 h -5.978 v -3 h -6.117 v 3 h -5.978 v -3 h -6.118 v 3 h -5.977 v -3 h -6.118 v 3 h -5.977 v -3 h -6.118 v 3 h -5.978 v -3 h -6.11701 v 3 h -5.978 v -3 h -6.118 v 3 h -5.97701 v -3 h -6.118 v 3 H 94.118 v -3 H 88 v 3 h -6 v 9 H 79 V 503 h 3 v 6.93 H 79 V 517 h 3 v 9 h 6 v 3 h 6.118 z" />
    <rect
       y="489.465"
       x="91"
       height="34"
       width="20"
       id="rect3706"
       style="fill:none;stroke:#000000;stroke-width:0.30100137;stroke-miterlimit:4;stroke-dasharray:none;stroke-opacity:1" />
  </g>
</svg>
