<?xml version="1.0" encoding="UTF-8" standalone="no"?>
<!-- Created with Inkscape (http://www.inkscape.org/) -->

<svg
   xmlns:dc="http://purl.org/dc/elements/1.1/"
   xmlns:cc="http://creativecommons.org/ns#"
   xmlns:rdf="http://www.w3.org/1999/02/22-rdf-syntax-ns#"
   xmlns:svg="http://www.w3.org/2000/svg"
   xmlns="http://www.w3.org/2000/svg"
   xmlns:sodipodi="http://sodipodi.sourceforge.net/DTD/sodipodi-0.dtd"
   xmlns:inkscape="http://www.inkscape.org/namespaces/inkscape"
   width="1220mm"
   height="610mm"
   viewBox="0 0 4322.8346 2161.4173"
   id="svg8254"
   version="1.1"
   inkscape:version="0.92.4 5da689c313, 2019-01-14"
   sodipodi:docname="batterybox.svg">
  <defs
     id="defs8256" />
  <sodipodi:namedview
     id="base"
     pagecolor="#ffffff"
     bordercolor="#666666"
     borderopacity="1.0"
     inkscape:pageopacity="0.0"
     inkscape:pageshadow="2"
     inkscape:zoom="0.91528738"
     inkscape:cx="70.305118"
     inkscape:cy="344.32251"
     inkscape:document-units="mm"
     inkscape:current-layer="layer1"
     showgrid="false"
     inkscape:window-width="1600"
     inkscape:window-height="838"
     inkscape:window-x="0"
     inkscape:window-y="0"
     inkscape:window-maximized="1" />
  <metadata
     id="metadata8259">
    <rdf:RDF>
      <cc:Work
         rdf:about="">
        <dc:format>image/svg+xml</dc:format>
        <dc:type
           rdf:resource="http://purl.org/dc/dcmitype/StillImage" />
        <dc:title />
      </cc:Work>
    </rdf:RDF>
  </metadata>
  <g
     inkscape:label="Layer 1"
     inkscape:groupmode="layer"
     id="layer1"
     transform="translate(0,1109.0551)">
    <path
       id="path12549"
       style="fill:none;stroke:#000000;stroke-width:0.70866144;stroke-linecap:butt;stroke-linejoin:miter;stroke-miterlimit:10;stroke-opacity:1;stroke-dasharray:none"
       d="m 0,1041.7324 h 24.80315 m 0.359867,0 c -0.19377,0 -0.35986,-0.1523 -0.35986,-0.3599 m 0,0 v 10.6299 c 0,0.1938 0.15225,0.3599 0.35986,0.3599 m 0,0 h 21.25985 c 0.19378,0 0.35986,-0.1523 0.35986,-0.3599 m 0,0 v -10.6299 c 0,0.1938 -0.15225,0.3599 -0.35986,0.3599 m 0,0 h 21.25984 m 0,0 c -0.19379,0 -0.35987,-0.1523 -0.35987,-0.3599 m 0,0 v 10.6299 c 0,0.1938 0.15225,0.3599 0.35987,0.3599 m 0,0 h 21.25984 c 0.19379,0 0.35987,-0.1523 0.35987,-0.3599 m 0,0 v -10.6299 c 0,0.1938 -0.15225,0.3599 -0.35987,0.3599 m 0,0 h 21.259843 m 0,0 c -0.19378,0 -0.35986,-0.1523 -0.35986,-0.3599 m 0,0 v 10.6299 c 0,0.1938 0.15225,0.3599 0.35986,0.3599 m 21.61971,-0.3599 v -10.6299 c 0,0.1938 -0.15225,-634.61496 -0.35986,-634.61496 m -21.25985,645.60476 h 21.25985 c 0.19378,0 0.35986,-0.1523 0.35986,-0.3599 m -0.35986,-645.24486 -21.25985,0.002 c -0.19378,10e-6 -0.35986,0.1524 -0.35986,0.3599 m 0,-4.6e-4 v 10.6299 c 0,-0.1938 0.15225,-0.3599 0.35986,-0.3599 m 0,0 H 88.942547 m 0,0 c 0.19379,0 0.35987,0.1524 0.35987,0.3599 m 0,0 v -10.6299 c 0,-0.1938 -0.15226,-0.3599 -0.35987,-0.3599 m 0,0 h -21.25984 c -0.19379,0 -0.35987,0.1524 -0.35987,0.3599 m 0,0 v 10.6299 c 0,-0.1938 0.15226,-0.3599 0.35987,-0.3599 m 0,0 h -21.25984 m 0,0 c 0.19378,0 0.35986,0.1524 0.35986,0.3599 m 0,0 v -10.6299 c 0,-0.1938 -0.15226,-0.3599 -0.35986,-0.3599 m 0,0 h -21.25985 c -0.19377,0 -0.35987,0.1524 -0.35987,0.3599 m 0,0 v 10.6299 c 0,-0.1938 0.15226,-0.3599 0.35987,-0.3599 m -0.359867,-0.002 H 0 M 0,1041.3709 V 417.74883" />
    <g
       id="g11561"
       transform="translate(0.35986821)">
      <circle
         r="3.5433073"
         cy="510.2363"
         cx="92.125984"
         id="path11005"
         style="fill:none;fill-opacity:1;stroke:#000000;stroke-width:0.90546632;stroke-linecap:butt;stroke-miterlimit:10;stroke-dasharray:none;stroke-opacity:1" />
      <circle
         style="fill:none;fill-opacity:1;stroke:#000000;stroke-width:0.90546632;stroke-linecap:butt;stroke-miterlimit:10;stroke-dasharray:none;stroke-opacity:1"
         id="circle11557"
         cx="38.976379"
         cy="510.2363"
         r="3.5433073" />
    </g>
  </g>
</svg>
