<?xml version="1.0" encoding="UTF-8" standalone="no"?>
<svg
   xmlns:dc="http://purl.org/dc/elements/1.1/"
   xmlns:cc="http://creativecommons.org/ns#"
   xmlns:rdf="http://www.w3.org/1999/02/22-rdf-syntax-ns#"
   xmlns:svg="http://www.w3.org/2000/svg"
   xmlns="http://www.w3.org/2000/svg"
   xmlns:sodipodi="http://sodipodi.sourceforge.net/DTD/sodipodi-0.dtd"
   xmlns:inkscape="http://www.inkscape.org/namespaces/inkscape"
   width="1220mm"
   height="610mm"
   viewBox="-1 -81 1220 610"
   version="1.1"
   id="svg6"
   sodipodi:docname="batterymodule2.svg"
   inkscape:version="0.92.4 5da689c313, 2019-01-14">
  <metadata
     id="metadata12">
    <rdf:RDF>
      <cc:Work
         rdf:about="">
        <dc:format>image/svg+xml</dc:format>
        <dc:type
           rdf:resource="http://purl.org/dc/dcmitype/StillImage" />
        <dc:title>OpenSCAD Model</dc:title>
      </cc:Work>
    </rdf:RDF>
  </metadata>
  <defs
     id="defs10" />
  <sodipodi:namedview
     pagecolor="#ffffff"
     bordercolor="#666666"
     borderopacity="1"
     objecttolerance="10"
     gridtolerance="10"
     guidetolerance="10"
     inkscape:pageopacity="0"
     inkscape:pageshadow="2"
     inkscape:window-width="1600"
     inkscape:window-height="838"
     id="namedview8"
     showgrid="false"
     inkscape:document-units="mm"
     inkscape:zoom="11.643583"
     inkscape:cx="71.811027"
     inkscape:cy="54.72378"
     inkscape:window-x="0"
     inkscape:window-y="0"
     inkscape:window-maximized="1"
     inkscape:current-layer="svg6" />
  <title
     id="title2">OpenSCAD Model</title>
  <path
     style="fill:none;fill-opacity:1;stroke:#000000;stroke-width:0.1045692;stroke-miterlimit:4;stroke-dasharray:none;stroke-opacity:1"
     d="m 40.804166,513.99986 v 15.0001 h 40.000141 v -15.0001 H 66.90438 v 0.006 a 2.5,2.5 0 0 1 -2.504239,2.49444 2.5,2.5 0 0 1 -2.495971,-2.5001 h -2.199867 v 0.006 a 2.4999999,2.4999999 0 0 1 -2.504239,2.49444 2.4999999,2.4999999 0 0 1 -2.495971,-2.5001 z"
     id="rect906"
     inkscape:connector-curvature="0" />
  <path
     style="fill:none;fill-opacity:1;stroke:#000000;stroke-width:0.13203382;stroke-miterlimit:4;stroke-dasharray:none;stroke-opacity:1"
     d="m 9.9999,513.27108 3,-2.75008 h 13 l 2e-4,8 H 12.9999 l -3,-2.74992 z"
     id="rect839"
     inkscape:connector-curvature="0"
     sodipodi:nodetypes="ccccccc" />
  <rect
     style="fill:none;fill-opacity:1;stroke:#000000;stroke-width:0.10192145;stroke-miterlimit:4;stroke-dasharray:none;stroke-opacity:1"
     id="rect876"
     width="38"
     height="30"
     x="-1"
     y="499" />
  <text
     xml:space="preserve"
     style="font-style:normal;font-weight:normal;font-size:10.58333302px;line-height:1.25;font-family:sans-serif;letter-spacing:0px;word-spacing:0px;fill:#000000;fill-opacity:1;stroke:none;stroke-width:0.26458332"
     x="4.4705253"
     y="508.96207"
     id="text888"><tspan
       sodipodi:role="line"
       id="tspan886"
       x="4.4705253"
       y="508.96207"
       style="stroke-width:0.26458332">5 mm</tspan></text>
  <path
     style="fill:none;fill-opacity:1;stroke:#000000;stroke-width:0.1045692;stroke-miterlimit:4;stroke-dasharray:none;stroke-opacity:1"
     d="m 82.06676,499.00026 v 29.9997 h 19.9998 v -12.52172 h -3.295911 a 2.4999999,2.4999999 0 0 1 -0.30799,0.0217 2.4999999,2.4999999 0 0 1 -2.49597,-2.50269 2.4999999,2.4999999 0 0 1 2.43241,-2.49494 v -0.009 h 3.667461 v -12.49328 z"
     id="rect920"
     inkscape:connector-curvature="0" />
  <path
     inkscape:connector-curvature="0"
     id="path955"
     d="m 40.804166,498.12485 v 15.0001 h 40.000141 v -15.0001 H 66.90438 v 0.006 a 2.5,2.5 0 0 1 -2.504239,2.49444 2.5,2.5 0 0 1 -2.495971,-2.5001 h -2.199867 v 0.006 a 2.4999999,2.4999999 0 0 1 -2.504239,2.49444 2.4999999,2.4999999 0 0 1 -2.495971,-2.5001 z"
     style="fill:none;fill-opacity:1;stroke:#000000;stroke-width:0.1045692;stroke-miterlimit:4;stroke-dasharray:none;stroke-opacity:1" />
  <path
     inkscape:connector-curvature="0"
     id="path982"
     d="m 103.23343,499.00026 v 29.9997 h 19.99981 v -12.52172 h -3.29591 a 2.4999999,2.4999999 0 0 1 -0.30799,0.0217 2.4999999,2.4999999 0 0 1 -2.49597,-2.50269 2.4999999,2.4999999 0 0 1 2.43241,-2.49494 v -0.009 h 3.66746 v -12.49328 z"
     style="fill:none;fill-opacity:1;stroke:#000000;stroke-width:0.1045692;stroke-miterlimit:4;stroke-dasharray:none;stroke-opacity:1" />
  <g
     transform="translate(-166.50719,0.28172863)"
     id="g1602">
    <path
       inkscape:connector-curvature="0"
       style="fill:none;stroke:#000000;stroke-opacity:1"
       id="path828"
       d="m 304.84085,525.035 h 6.93 v 3 h 7.07 v -3 h 6.93 v 3 h 9.07 v -9 h 3 v -17.07 h -3 v -9 h -9.07 v 3 h -6.93 v -3 h -7.07 v 3 h -6.93 v -3 h -9.07 v 9 h -3 v 17.07 h 3 v 9 h 9.07 z" />
    <path
       sodipodi:nodetypes="ccccccc"
       inkscape:connector-curvature="0"
       id="rect839-7"
       d="m 307.30575,509.25002 3,-2.75002 h 13 l 2e-4,8 h -13.0002 l -3,-2.74998 z"
       style="fill:none;fill-opacity:1;stroke:#000000;stroke-width:0.13203382;stroke-miterlimit:4;stroke-dasharray:none;stroke-opacity:1" />
  </g>
</svg>
