G04 #@! TF.GenerationSoftware,KiCad,Pcbnew,5.0.0-fee4fd1~66~ubuntu16.04.1*
G04 #@! TF.CreationDate,2018-10-27T16:37:25+02:00*
G04 #@! TF.ProjectId,balancebot,62616C616E6365626F742E6B69636164,rev?*
G04 #@! TF.SameCoordinates,Original*
G04 #@! TF.FileFunction,Soldermask,Bot*
G04 #@! TF.FilePolarity,Negative*
%FSLAX46Y46*%
G04 Gerber Fmt 4.6, Leading zero omitted, Abs format (unit mm)*
G04 Created by KiCad (PCBNEW 5.0.0-fee4fd1~66~ubuntu16.04.1) date Sat Oct 27 16:37:25 2018*
%MOMM*%
%LPD*%
G01*
G04 APERTURE LIST*
%ADD10C,0.100000*%
%ADD11C,2.100000*%
%ADD12O,2.100000X2.350000*%
%ADD13O,2.400000X2.100000*%
%ADD14O,2.350000X2.100000*%
%ADD15R,1.300000X1.300000*%
%ADD16C,1.924000*%
%ADD17C,2.900000*%
%ADD18O,2.100000X2.100000*%
%ADD19R,2.100000X2.100000*%
G04 APERTURE END LIST*
D10*
G04 #@! TO.C,J1*
G36*
X157997447Y-105760487D02*
X158027425Y-105764934D01*
X158056824Y-105772298D01*
X158085358Y-105782508D01*
X158112755Y-105795465D01*
X158138750Y-105811046D01*
X158163092Y-105829100D01*
X158185548Y-105849452D01*
X158205900Y-105871908D01*
X158223954Y-105896250D01*
X158239535Y-105922245D01*
X158252492Y-105949642D01*
X158262702Y-105978176D01*
X158270066Y-106007575D01*
X158274513Y-106037553D01*
X158276000Y-106067823D01*
X158276000Y-107800177D01*
X158274513Y-107830447D01*
X158270066Y-107860425D01*
X158262702Y-107889824D01*
X158252492Y-107918358D01*
X158239535Y-107945755D01*
X158223954Y-107971750D01*
X158205900Y-107996092D01*
X158185548Y-108018548D01*
X158163092Y-108038900D01*
X158138750Y-108056954D01*
X158112755Y-108072535D01*
X158085358Y-108085492D01*
X158056824Y-108095702D01*
X158027425Y-108103066D01*
X157997447Y-108107513D01*
X157967177Y-108109000D01*
X156484823Y-108109000D01*
X156454553Y-108107513D01*
X156424575Y-108103066D01*
X156395176Y-108095702D01*
X156366642Y-108085492D01*
X156339245Y-108072535D01*
X156313250Y-108056954D01*
X156288908Y-108038900D01*
X156266452Y-108018548D01*
X156246100Y-107996092D01*
X156228046Y-107971750D01*
X156212465Y-107945755D01*
X156199508Y-107918358D01*
X156189298Y-107889824D01*
X156181934Y-107860425D01*
X156177487Y-107830447D01*
X156176000Y-107800177D01*
X156176000Y-106067823D01*
X156177487Y-106037553D01*
X156181934Y-106007575D01*
X156189298Y-105978176D01*
X156199508Y-105949642D01*
X156212465Y-105922245D01*
X156228046Y-105896250D01*
X156246100Y-105871908D01*
X156266452Y-105849452D01*
X156288908Y-105829100D01*
X156313250Y-105811046D01*
X156339245Y-105795465D01*
X156366642Y-105782508D01*
X156395176Y-105772298D01*
X156424575Y-105764934D01*
X156454553Y-105760487D01*
X156484823Y-105759000D01*
X157967177Y-105759000D01*
X157997447Y-105760487D01*
X157997447Y-105760487D01*
G37*
D11*
X157226000Y-106934000D03*
D12*
X154726000Y-106934000D03*
X152226000Y-106934000D03*
X149726000Y-106934000D03*
G04 #@! TD*
D10*
G04 #@! TO.C,J2*
G36*
X164497447Y-67785487D02*
X164527425Y-67789934D01*
X164556824Y-67797298D01*
X164585358Y-67807508D01*
X164612755Y-67820465D01*
X164638750Y-67836046D01*
X164663092Y-67854100D01*
X164685548Y-67874452D01*
X164705900Y-67896908D01*
X164723954Y-67921250D01*
X164739535Y-67947245D01*
X164752492Y-67974642D01*
X164762702Y-68003176D01*
X164770066Y-68032575D01*
X164774513Y-68062553D01*
X164776000Y-68092823D01*
X164776000Y-69575177D01*
X164774513Y-69605447D01*
X164770066Y-69635425D01*
X164762702Y-69664824D01*
X164752492Y-69693358D01*
X164739535Y-69720755D01*
X164723954Y-69746750D01*
X164705900Y-69771092D01*
X164685548Y-69793548D01*
X164663092Y-69813900D01*
X164638750Y-69831954D01*
X164612755Y-69847535D01*
X164585358Y-69860492D01*
X164556824Y-69870702D01*
X164527425Y-69878066D01*
X164497447Y-69882513D01*
X164467177Y-69884000D01*
X162684823Y-69884000D01*
X162654553Y-69882513D01*
X162624575Y-69878066D01*
X162595176Y-69870702D01*
X162566642Y-69860492D01*
X162539245Y-69847535D01*
X162513250Y-69831954D01*
X162488908Y-69813900D01*
X162466452Y-69793548D01*
X162446100Y-69771092D01*
X162428046Y-69746750D01*
X162412465Y-69720755D01*
X162399508Y-69693358D01*
X162389298Y-69664824D01*
X162381934Y-69635425D01*
X162377487Y-69605447D01*
X162376000Y-69575177D01*
X162376000Y-68092823D01*
X162377487Y-68062553D01*
X162381934Y-68032575D01*
X162389298Y-68003176D01*
X162399508Y-67974642D01*
X162412465Y-67947245D01*
X162428046Y-67921250D01*
X162446100Y-67896908D01*
X162466452Y-67874452D01*
X162488908Y-67854100D01*
X162513250Y-67836046D01*
X162539245Y-67820465D01*
X162566642Y-67807508D01*
X162595176Y-67797298D01*
X162624575Y-67789934D01*
X162654553Y-67785487D01*
X162684823Y-67784000D01*
X164467177Y-67784000D01*
X164497447Y-67785487D01*
X164497447Y-67785487D01*
G37*
D11*
X163576000Y-68834000D03*
D13*
X163576000Y-71334000D03*
G04 #@! TD*
D10*
G04 #@! TO.C,J3*
G36*
X130311447Y-105760487D02*
X130341425Y-105764934D01*
X130370824Y-105772298D01*
X130399358Y-105782508D01*
X130426755Y-105795465D01*
X130452750Y-105811046D01*
X130477092Y-105829100D01*
X130499548Y-105849452D01*
X130519900Y-105871908D01*
X130537954Y-105896250D01*
X130553535Y-105922245D01*
X130566492Y-105949642D01*
X130576702Y-105978176D01*
X130584066Y-106007575D01*
X130588513Y-106037553D01*
X130590000Y-106067823D01*
X130590000Y-107800177D01*
X130588513Y-107830447D01*
X130584066Y-107860425D01*
X130576702Y-107889824D01*
X130566492Y-107918358D01*
X130553535Y-107945755D01*
X130537954Y-107971750D01*
X130519900Y-107996092D01*
X130499548Y-108018548D01*
X130477092Y-108038900D01*
X130452750Y-108056954D01*
X130426755Y-108072535D01*
X130399358Y-108085492D01*
X130370824Y-108095702D01*
X130341425Y-108103066D01*
X130311447Y-108107513D01*
X130281177Y-108109000D01*
X128798823Y-108109000D01*
X128768553Y-108107513D01*
X128738575Y-108103066D01*
X128709176Y-108095702D01*
X128680642Y-108085492D01*
X128653245Y-108072535D01*
X128627250Y-108056954D01*
X128602908Y-108038900D01*
X128580452Y-108018548D01*
X128560100Y-107996092D01*
X128542046Y-107971750D01*
X128526465Y-107945755D01*
X128513508Y-107918358D01*
X128503298Y-107889824D01*
X128495934Y-107860425D01*
X128491487Y-107830447D01*
X128490000Y-107800177D01*
X128490000Y-106067823D01*
X128491487Y-106037553D01*
X128495934Y-106007575D01*
X128503298Y-105978176D01*
X128513508Y-105949642D01*
X128526465Y-105922245D01*
X128542046Y-105896250D01*
X128560100Y-105871908D01*
X128580452Y-105849452D01*
X128602908Y-105829100D01*
X128627250Y-105811046D01*
X128653245Y-105795465D01*
X128680642Y-105782508D01*
X128709176Y-105772298D01*
X128738575Y-105764934D01*
X128768553Y-105760487D01*
X128798823Y-105759000D01*
X130281177Y-105759000D01*
X130311447Y-105760487D01*
X130311447Y-105760487D01*
G37*
D11*
X129540000Y-106934000D03*
D12*
X127040000Y-106934000D03*
X124540000Y-106934000D03*
G04 #@! TD*
G04 #@! TO.C,J4*
X135756000Y-106934000D03*
X138256000Y-106934000D03*
X140756000Y-106934000D03*
D10*
G36*
X144027447Y-105760487D02*
X144057425Y-105764934D01*
X144086824Y-105772298D01*
X144115358Y-105782508D01*
X144142755Y-105795465D01*
X144168750Y-105811046D01*
X144193092Y-105829100D01*
X144215548Y-105849452D01*
X144235900Y-105871908D01*
X144253954Y-105896250D01*
X144269535Y-105922245D01*
X144282492Y-105949642D01*
X144292702Y-105978176D01*
X144300066Y-106007575D01*
X144304513Y-106037553D01*
X144306000Y-106067823D01*
X144306000Y-107800177D01*
X144304513Y-107830447D01*
X144300066Y-107860425D01*
X144292702Y-107889824D01*
X144282492Y-107918358D01*
X144269535Y-107945755D01*
X144253954Y-107971750D01*
X144235900Y-107996092D01*
X144215548Y-108018548D01*
X144193092Y-108038900D01*
X144168750Y-108056954D01*
X144142755Y-108072535D01*
X144115358Y-108085492D01*
X144086824Y-108095702D01*
X144057425Y-108103066D01*
X144027447Y-108107513D01*
X143997177Y-108109000D01*
X142514823Y-108109000D01*
X142484553Y-108107513D01*
X142454575Y-108103066D01*
X142425176Y-108095702D01*
X142396642Y-108085492D01*
X142369245Y-108072535D01*
X142343250Y-108056954D01*
X142318908Y-108038900D01*
X142296452Y-108018548D01*
X142276100Y-107996092D01*
X142258046Y-107971750D01*
X142242465Y-107945755D01*
X142229508Y-107918358D01*
X142219298Y-107889824D01*
X142211934Y-107860425D01*
X142207487Y-107830447D01*
X142206000Y-107800177D01*
X142206000Y-106067823D01*
X142207487Y-106037553D01*
X142211934Y-106007575D01*
X142219298Y-105978176D01*
X142229508Y-105949642D01*
X142242465Y-105922245D01*
X142258046Y-105896250D01*
X142276100Y-105871908D01*
X142296452Y-105849452D01*
X142318908Y-105829100D01*
X142343250Y-105811046D01*
X142369245Y-105795465D01*
X142396642Y-105782508D01*
X142425176Y-105772298D01*
X142454575Y-105764934D01*
X142484553Y-105760487D01*
X142514823Y-105759000D01*
X143997177Y-105759000D01*
X144027447Y-105760487D01*
X144027447Y-105760487D01*
G37*
D11*
X143256000Y-106934000D03*
G04 #@! TD*
D10*
G04 #@! TO.C,J5*
G36*
X151772447Y-88105487D02*
X151802425Y-88109934D01*
X151831824Y-88117298D01*
X151860358Y-88127508D01*
X151887755Y-88140465D01*
X151913750Y-88156046D01*
X151938092Y-88174100D01*
X151960548Y-88194452D01*
X151980900Y-88216908D01*
X151998954Y-88241250D01*
X152014535Y-88267245D01*
X152027492Y-88294642D01*
X152037702Y-88323176D01*
X152045066Y-88352575D01*
X152049513Y-88382553D01*
X152051000Y-88412823D01*
X152051000Y-89895177D01*
X152049513Y-89925447D01*
X152045066Y-89955425D01*
X152037702Y-89984824D01*
X152027492Y-90013358D01*
X152014535Y-90040755D01*
X151998954Y-90066750D01*
X151980900Y-90091092D01*
X151960548Y-90113548D01*
X151938092Y-90133900D01*
X151913750Y-90151954D01*
X151887755Y-90167535D01*
X151860358Y-90180492D01*
X151831824Y-90190702D01*
X151802425Y-90198066D01*
X151772447Y-90202513D01*
X151742177Y-90204000D01*
X150009823Y-90204000D01*
X149979553Y-90202513D01*
X149949575Y-90198066D01*
X149920176Y-90190702D01*
X149891642Y-90180492D01*
X149864245Y-90167535D01*
X149838250Y-90151954D01*
X149813908Y-90133900D01*
X149791452Y-90113548D01*
X149771100Y-90091092D01*
X149753046Y-90066750D01*
X149737465Y-90040755D01*
X149724508Y-90013358D01*
X149714298Y-89984824D01*
X149706934Y-89955425D01*
X149702487Y-89925447D01*
X149701000Y-89895177D01*
X149701000Y-88412823D01*
X149702487Y-88382553D01*
X149706934Y-88352575D01*
X149714298Y-88323176D01*
X149724508Y-88294642D01*
X149737465Y-88267245D01*
X149753046Y-88241250D01*
X149771100Y-88216908D01*
X149791452Y-88194452D01*
X149813908Y-88174100D01*
X149838250Y-88156046D01*
X149864245Y-88140465D01*
X149891642Y-88127508D01*
X149920176Y-88117298D01*
X149949575Y-88109934D01*
X149979553Y-88105487D01*
X150009823Y-88104000D01*
X151742177Y-88104000D01*
X151772447Y-88105487D01*
X151772447Y-88105487D01*
G37*
D11*
X150876000Y-89154000D03*
D14*
X150876000Y-86654000D03*
X150876000Y-84154000D03*
X150876000Y-81654000D03*
G04 #@! TD*
D10*
G04 #@! TO.C,J6*
G36*
X125485447Y-53182487D02*
X125515425Y-53186934D01*
X125544824Y-53194298D01*
X125573358Y-53204508D01*
X125600755Y-53217465D01*
X125626750Y-53233046D01*
X125651092Y-53251100D01*
X125673548Y-53271452D01*
X125693900Y-53293908D01*
X125711954Y-53318250D01*
X125727535Y-53344245D01*
X125740492Y-53371642D01*
X125750702Y-53400176D01*
X125758066Y-53429575D01*
X125762513Y-53459553D01*
X125764000Y-53489823D01*
X125764000Y-55222177D01*
X125762513Y-55252447D01*
X125758066Y-55282425D01*
X125750702Y-55311824D01*
X125740492Y-55340358D01*
X125727535Y-55367755D01*
X125711954Y-55393750D01*
X125693900Y-55418092D01*
X125673548Y-55440548D01*
X125651092Y-55460900D01*
X125626750Y-55478954D01*
X125600755Y-55494535D01*
X125573358Y-55507492D01*
X125544824Y-55517702D01*
X125515425Y-55525066D01*
X125485447Y-55529513D01*
X125455177Y-55531000D01*
X123972823Y-55531000D01*
X123942553Y-55529513D01*
X123912575Y-55525066D01*
X123883176Y-55517702D01*
X123854642Y-55507492D01*
X123827245Y-55494535D01*
X123801250Y-55478954D01*
X123776908Y-55460900D01*
X123754452Y-55440548D01*
X123734100Y-55418092D01*
X123716046Y-55393750D01*
X123700465Y-55367755D01*
X123687508Y-55340358D01*
X123677298Y-55311824D01*
X123669934Y-55282425D01*
X123665487Y-55252447D01*
X123664000Y-55222177D01*
X123664000Y-53489823D01*
X123665487Y-53459553D01*
X123669934Y-53429575D01*
X123677298Y-53400176D01*
X123687508Y-53371642D01*
X123700465Y-53344245D01*
X123716046Y-53318250D01*
X123734100Y-53293908D01*
X123754452Y-53271452D01*
X123776908Y-53251100D01*
X123801250Y-53233046D01*
X123827245Y-53217465D01*
X123854642Y-53204508D01*
X123883176Y-53194298D01*
X123912575Y-53186934D01*
X123942553Y-53182487D01*
X123972823Y-53181000D01*
X125455177Y-53181000D01*
X125485447Y-53182487D01*
X125485447Y-53182487D01*
G37*
D11*
X124714000Y-54356000D03*
D12*
X127214000Y-54356000D03*
X129714000Y-54356000D03*
X132214000Y-54356000D03*
X134714000Y-54356000D03*
X137214000Y-54356000D03*
X139714000Y-54356000D03*
G04 #@! TD*
D15*
G04 #@! TO.C,U2*
X159396000Y-90932000D03*
X158496000Y-90932000D03*
X157596000Y-90932000D03*
G04 #@! TD*
D16*
G04 #@! TO.C,U4*
X149098000Y-75692000D03*
X149098000Y-60452000D03*
X158242000Y-60452000D03*
X158242000Y-75692000D03*
G04 #@! TD*
D17*
G04 #@! TO.C,REF\002A\002A*
X118500000Y-106000000D03*
G04 #@! TD*
G04 #@! TO.C,REF\002A\002A*
X164000000Y-106000000D03*
G04 #@! TD*
G04 #@! TO.C,REF\002A\002A*
X164000000Y-55000000D03*
G04 #@! TD*
G04 #@! TO.C,REF\002A\002A*
X118500000Y-55000000D03*
G04 #@! TD*
D18*
G04 #@! TO.C,U3*
X145288000Y-90678000D03*
X142748000Y-90678000D03*
X145288000Y-88138000D03*
X142748000Y-88138000D03*
X145288000Y-85598000D03*
X142748000Y-85598000D03*
X145288000Y-83058000D03*
X142748000Y-83058000D03*
X145288000Y-80518000D03*
X142748000Y-80518000D03*
X145288000Y-77978000D03*
X142748000Y-77978000D03*
X145288000Y-75438000D03*
X142748000Y-75438000D03*
X145288000Y-72898000D03*
X142748000Y-72898000D03*
X145288000Y-70358000D03*
X142748000Y-70358000D03*
X145288000Y-67818000D03*
X142748000Y-67818000D03*
X119888000Y-90678000D03*
X117348000Y-90678000D03*
X119888000Y-88138000D03*
X117348000Y-88138000D03*
X119888000Y-85598000D03*
X117348000Y-85598000D03*
X119888000Y-83058000D03*
X117348000Y-83058000D03*
X119888000Y-80518000D03*
X117348000Y-80518000D03*
X119888000Y-77978000D03*
X117348000Y-77978000D03*
X119888000Y-75438000D03*
X117348000Y-75438000D03*
X119888000Y-72898000D03*
X117348000Y-72898000D03*
X119888000Y-70358000D03*
X117348000Y-70358000D03*
X119888000Y-67818000D03*
D19*
X117348000Y-67818000D03*
G04 #@! TD*
M02*
