G04 #@! TF.GenerationSoftware,KiCad,Pcbnew,5.0.0-fee4fd1~66~ubuntu16.04.1*
G04 #@! TF.CreationDate,2018-10-28T11:18:26+01:00*
G04 #@! TF.ProjectId,balancebot,62616C616E6365626F742E6B69636164,rev?*
G04 #@! TF.SameCoordinates,Original*
G04 #@! TF.FileFunction,Soldermask,Top*
G04 #@! TF.FilePolarity,Negative*
%FSLAX46Y46*%
G04 Gerber Fmt 4.6, Leading zero omitted, Abs format (unit mm)*
G04 Created by KiCad (PCBNEW 5.0.0-fee4fd1~66~ubuntu16.04.1) date Sun Oct 28 11:18:26 2018*
%MOMM*%
%LPD*%
G01*
G04 APERTURE LIST*
%ADD10C,0.100000*%
%ADD11C,1.275000*%
%ADD12R,2.900000X3.900000*%
%ADD13C,2.100000*%
%ADD14O,2.100000X2.350000*%
%ADD15O,2.400000X2.100000*%
%ADD16O,2.350000X2.100000*%
%ADD17R,1.200000X0.450000*%
%ADD18R,0.450000X1.200000*%
%ADD19R,1.300000X1.300000*%
%ADD20R,0.350000X0.900000*%
%ADD21C,1.924000*%
%ADD22C,2.900000*%
%ADD23O,2.100000X2.100000*%
%ADD24R,2.100000X2.100000*%
G04 APERTURE END LIST*
D10*
G04 #@! TO.C,R4*
G36*
X139287993Y-75780535D02*
X139318935Y-75785125D01*
X139349278Y-75792725D01*
X139378730Y-75803263D01*
X139407008Y-75816638D01*
X139433838Y-75832719D01*
X139458963Y-75851353D01*
X139482140Y-75872360D01*
X139503147Y-75895537D01*
X139521781Y-75920662D01*
X139537862Y-75947492D01*
X139551237Y-75975770D01*
X139561775Y-76005222D01*
X139569375Y-76035565D01*
X139573965Y-76066507D01*
X139575500Y-76097750D01*
X139575500Y-76810250D01*
X139573965Y-76841493D01*
X139569375Y-76872435D01*
X139561775Y-76902778D01*
X139551237Y-76932230D01*
X139537862Y-76960508D01*
X139521781Y-76987338D01*
X139503147Y-77012463D01*
X139482140Y-77035640D01*
X139458963Y-77056647D01*
X139433838Y-77075281D01*
X139407008Y-77091362D01*
X139378730Y-77104737D01*
X139349278Y-77115275D01*
X139318935Y-77122875D01*
X139287993Y-77127465D01*
X139256750Y-77129000D01*
X138619250Y-77129000D01*
X138588007Y-77127465D01*
X138557065Y-77122875D01*
X138526722Y-77115275D01*
X138497270Y-77104737D01*
X138468992Y-77091362D01*
X138442162Y-77075281D01*
X138417037Y-77056647D01*
X138393860Y-77035640D01*
X138372853Y-77012463D01*
X138354219Y-76987338D01*
X138338138Y-76960508D01*
X138324763Y-76932230D01*
X138314225Y-76902778D01*
X138306625Y-76872435D01*
X138302035Y-76841493D01*
X138300500Y-76810250D01*
X138300500Y-76097750D01*
X138302035Y-76066507D01*
X138306625Y-76035565D01*
X138314225Y-76005222D01*
X138324763Y-75975770D01*
X138338138Y-75947492D01*
X138354219Y-75920662D01*
X138372853Y-75895537D01*
X138393860Y-75872360D01*
X138417037Y-75851353D01*
X138442162Y-75832719D01*
X138468992Y-75816638D01*
X138497270Y-75803263D01*
X138526722Y-75792725D01*
X138557065Y-75785125D01*
X138588007Y-75780535D01*
X138619250Y-75779000D01*
X139256750Y-75779000D01*
X139287993Y-75780535D01*
X139287993Y-75780535D01*
G37*
D11*
X138938000Y-76454000D03*
D10*
G36*
X140862993Y-75780535D02*
X140893935Y-75785125D01*
X140924278Y-75792725D01*
X140953730Y-75803263D01*
X140982008Y-75816638D01*
X141008838Y-75832719D01*
X141033963Y-75851353D01*
X141057140Y-75872360D01*
X141078147Y-75895537D01*
X141096781Y-75920662D01*
X141112862Y-75947492D01*
X141126237Y-75975770D01*
X141136775Y-76005222D01*
X141144375Y-76035565D01*
X141148965Y-76066507D01*
X141150500Y-76097750D01*
X141150500Y-76810250D01*
X141148965Y-76841493D01*
X141144375Y-76872435D01*
X141136775Y-76902778D01*
X141126237Y-76932230D01*
X141112862Y-76960508D01*
X141096781Y-76987338D01*
X141078147Y-77012463D01*
X141057140Y-77035640D01*
X141033963Y-77056647D01*
X141008838Y-77075281D01*
X140982008Y-77091362D01*
X140953730Y-77104737D01*
X140924278Y-77115275D01*
X140893935Y-77122875D01*
X140862993Y-77127465D01*
X140831750Y-77129000D01*
X140194250Y-77129000D01*
X140163007Y-77127465D01*
X140132065Y-77122875D01*
X140101722Y-77115275D01*
X140072270Y-77104737D01*
X140043992Y-77091362D01*
X140017162Y-77075281D01*
X139992037Y-77056647D01*
X139968860Y-77035640D01*
X139947853Y-77012463D01*
X139929219Y-76987338D01*
X139913138Y-76960508D01*
X139899763Y-76932230D01*
X139889225Y-76902778D01*
X139881625Y-76872435D01*
X139877035Y-76841493D01*
X139875500Y-76810250D01*
X139875500Y-76097750D01*
X139877035Y-76066507D01*
X139881625Y-76035565D01*
X139889225Y-76005222D01*
X139899763Y-75975770D01*
X139913138Y-75947492D01*
X139929219Y-75920662D01*
X139947853Y-75895537D01*
X139968860Y-75872360D01*
X139992037Y-75851353D01*
X140017162Y-75832719D01*
X140043992Y-75816638D01*
X140072270Y-75803263D01*
X140101722Y-75792725D01*
X140132065Y-75785125D01*
X140163007Y-75780535D01*
X140194250Y-75779000D01*
X140831750Y-75779000D01*
X140862993Y-75780535D01*
X140862993Y-75780535D01*
G37*
D11*
X140513000Y-76454000D03*
G04 #@! TD*
D12*
G04 #@! TO.C,C1*
X162052000Y-85292000D03*
X162052000Y-78792000D03*
G04 #@! TD*
D10*
G04 #@! TO.C,C2*
G36*
X166008993Y-87972535D02*
X166039935Y-87977125D01*
X166070278Y-87984725D01*
X166099730Y-87995263D01*
X166128008Y-88008638D01*
X166154838Y-88024719D01*
X166179963Y-88043353D01*
X166203140Y-88064360D01*
X166224147Y-88087537D01*
X166242781Y-88112662D01*
X166258862Y-88139492D01*
X166272237Y-88167770D01*
X166282775Y-88197222D01*
X166290375Y-88227565D01*
X166294965Y-88258507D01*
X166296500Y-88289750D01*
X166296500Y-89002250D01*
X166294965Y-89033493D01*
X166290375Y-89064435D01*
X166282775Y-89094778D01*
X166272237Y-89124230D01*
X166258862Y-89152508D01*
X166242781Y-89179338D01*
X166224147Y-89204463D01*
X166203140Y-89227640D01*
X166179963Y-89248647D01*
X166154838Y-89267281D01*
X166128008Y-89283362D01*
X166099730Y-89296737D01*
X166070278Y-89307275D01*
X166039935Y-89314875D01*
X166008993Y-89319465D01*
X165977750Y-89321000D01*
X165340250Y-89321000D01*
X165309007Y-89319465D01*
X165278065Y-89314875D01*
X165247722Y-89307275D01*
X165218270Y-89296737D01*
X165189992Y-89283362D01*
X165163162Y-89267281D01*
X165138037Y-89248647D01*
X165114860Y-89227640D01*
X165093853Y-89204463D01*
X165075219Y-89179338D01*
X165059138Y-89152508D01*
X165045763Y-89124230D01*
X165035225Y-89094778D01*
X165027625Y-89064435D01*
X165023035Y-89033493D01*
X165021500Y-89002250D01*
X165021500Y-88289750D01*
X165023035Y-88258507D01*
X165027625Y-88227565D01*
X165035225Y-88197222D01*
X165045763Y-88167770D01*
X165059138Y-88139492D01*
X165075219Y-88112662D01*
X165093853Y-88087537D01*
X165114860Y-88064360D01*
X165138037Y-88043353D01*
X165163162Y-88024719D01*
X165189992Y-88008638D01*
X165218270Y-87995263D01*
X165247722Y-87984725D01*
X165278065Y-87977125D01*
X165309007Y-87972535D01*
X165340250Y-87971000D01*
X165977750Y-87971000D01*
X166008993Y-87972535D01*
X166008993Y-87972535D01*
G37*
D11*
X165659000Y-88646000D03*
D10*
G36*
X164433993Y-87972535D02*
X164464935Y-87977125D01*
X164495278Y-87984725D01*
X164524730Y-87995263D01*
X164553008Y-88008638D01*
X164579838Y-88024719D01*
X164604963Y-88043353D01*
X164628140Y-88064360D01*
X164649147Y-88087537D01*
X164667781Y-88112662D01*
X164683862Y-88139492D01*
X164697237Y-88167770D01*
X164707775Y-88197222D01*
X164715375Y-88227565D01*
X164719965Y-88258507D01*
X164721500Y-88289750D01*
X164721500Y-89002250D01*
X164719965Y-89033493D01*
X164715375Y-89064435D01*
X164707775Y-89094778D01*
X164697237Y-89124230D01*
X164683862Y-89152508D01*
X164667781Y-89179338D01*
X164649147Y-89204463D01*
X164628140Y-89227640D01*
X164604963Y-89248647D01*
X164579838Y-89267281D01*
X164553008Y-89283362D01*
X164524730Y-89296737D01*
X164495278Y-89307275D01*
X164464935Y-89314875D01*
X164433993Y-89319465D01*
X164402750Y-89321000D01*
X163765250Y-89321000D01*
X163734007Y-89319465D01*
X163703065Y-89314875D01*
X163672722Y-89307275D01*
X163643270Y-89296737D01*
X163614992Y-89283362D01*
X163588162Y-89267281D01*
X163563037Y-89248647D01*
X163539860Y-89227640D01*
X163518853Y-89204463D01*
X163500219Y-89179338D01*
X163484138Y-89152508D01*
X163470763Y-89124230D01*
X163460225Y-89094778D01*
X163452625Y-89064435D01*
X163448035Y-89033493D01*
X163446500Y-89002250D01*
X163446500Y-88289750D01*
X163448035Y-88258507D01*
X163452625Y-88227565D01*
X163460225Y-88197222D01*
X163470763Y-88167770D01*
X163484138Y-88139492D01*
X163500219Y-88112662D01*
X163518853Y-88087537D01*
X163539860Y-88064360D01*
X163563037Y-88043353D01*
X163588162Y-88024719D01*
X163614992Y-88008638D01*
X163643270Y-87995263D01*
X163672722Y-87984725D01*
X163703065Y-87977125D01*
X163734007Y-87972535D01*
X163765250Y-87971000D01*
X164402750Y-87971000D01*
X164433993Y-87972535D01*
X164433993Y-87972535D01*
G37*
D11*
X164084000Y-88646000D03*
G04 #@! TD*
D10*
G04 #@! TO.C,C3*
G36*
X124555993Y-70954535D02*
X124586935Y-70959125D01*
X124617278Y-70966725D01*
X124646730Y-70977263D01*
X124675008Y-70990638D01*
X124701838Y-71006719D01*
X124726963Y-71025353D01*
X124750140Y-71046360D01*
X124771147Y-71069537D01*
X124789781Y-71094662D01*
X124805862Y-71121492D01*
X124819237Y-71149770D01*
X124829775Y-71179222D01*
X124837375Y-71209565D01*
X124841965Y-71240507D01*
X124843500Y-71271750D01*
X124843500Y-71984250D01*
X124841965Y-72015493D01*
X124837375Y-72046435D01*
X124829775Y-72076778D01*
X124819237Y-72106230D01*
X124805862Y-72134508D01*
X124789781Y-72161338D01*
X124771147Y-72186463D01*
X124750140Y-72209640D01*
X124726963Y-72230647D01*
X124701838Y-72249281D01*
X124675008Y-72265362D01*
X124646730Y-72278737D01*
X124617278Y-72289275D01*
X124586935Y-72296875D01*
X124555993Y-72301465D01*
X124524750Y-72303000D01*
X123887250Y-72303000D01*
X123856007Y-72301465D01*
X123825065Y-72296875D01*
X123794722Y-72289275D01*
X123765270Y-72278737D01*
X123736992Y-72265362D01*
X123710162Y-72249281D01*
X123685037Y-72230647D01*
X123661860Y-72209640D01*
X123640853Y-72186463D01*
X123622219Y-72161338D01*
X123606138Y-72134508D01*
X123592763Y-72106230D01*
X123582225Y-72076778D01*
X123574625Y-72046435D01*
X123570035Y-72015493D01*
X123568500Y-71984250D01*
X123568500Y-71271750D01*
X123570035Y-71240507D01*
X123574625Y-71209565D01*
X123582225Y-71179222D01*
X123592763Y-71149770D01*
X123606138Y-71121492D01*
X123622219Y-71094662D01*
X123640853Y-71069537D01*
X123661860Y-71046360D01*
X123685037Y-71025353D01*
X123710162Y-71006719D01*
X123736992Y-70990638D01*
X123765270Y-70977263D01*
X123794722Y-70966725D01*
X123825065Y-70959125D01*
X123856007Y-70954535D01*
X123887250Y-70953000D01*
X124524750Y-70953000D01*
X124555993Y-70954535D01*
X124555993Y-70954535D01*
G37*
D11*
X124206000Y-71628000D03*
D10*
G36*
X126130993Y-70954535D02*
X126161935Y-70959125D01*
X126192278Y-70966725D01*
X126221730Y-70977263D01*
X126250008Y-70990638D01*
X126276838Y-71006719D01*
X126301963Y-71025353D01*
X126325140Y-71046360D01*
X126346147Y-71069537D01*
X126364781Y-71094662D01*
X126380862Y-71121492D01*
X126394237Y-71149770D01*
X126404775Y-71179222D01*
X126412375Y-71209565D01*
X126416965Y-71240507D01*
X126418500Y-71271750D01*
X126418500Y-71984250D01*
X126416965Y-72015493D01*
X126412375Y-72046435D01*
X126404775Y-72076778D01*
X126394237Y-72106230D01*
X126380862Y-72134508D01*
X126364781Y-72161338D01*
X126346147Y-72186463D01*
X126325140Y-72209640D01*
X126301963Y-72230647D01*
X126276838Y-72249281D01*
X126250008Y-72265362D01*
X126221730Y-72278737D01*
X126192278Y-72289275D01*
X126161935Y-72296875D01*
X126130993Y-72301465D01*
X126099750Y-72303000D01*
X125462250Y-72303000D01*
X125431007Y-72301465D01*
X125400065Y-72296875D01*
X125369722Y-72289275D01*
X125340270Y-72278737D01*
X125311992Y-72265362D01*
X125285162Y-72249281D01*
X125260037Y-72230647D01*
X125236860Y-72209640D01*
X125215853Y-72186463D01*
X125197219Y-72161338D01*
X125181138Y-72134508D01*
X125167763Y-72106230D01*
X125157225Y-72076778D01*
X125149625Y-72046435D01*
X125145035Y-72015493D01*
X125143500Y-71984250D01*
X125143500Y-71271750D01*
X125145035Y-71240507D01*
X125149625Y-71209565D01*
X125157225Y-71179222D01*
X125167763Y-71149770D01*
X125181138Y-71121492D01*
X125197219Y-71094662D01*
X125215853Y-71069537D01*
X125236860Y-71046360D01*
X125260037Y-71025353D01*
X125285162Y-71006719D01*
X125311992Y-70990638D01*
X125340270Y-70977263D01*
X125369722Y-70966725D01*
X125400065Y-70959125D01*
X125431007Y-70954535D01*
X125462250Y-70953000D01*
X126099750Y-70953000D01*
X126130993Y-70954535D01*
X126130993Y-70954535D01*
G37*
D11*
X125781000Y-71628000D03*
G04 #@! TD*
D10*
G04 #@! TO.C,C4*
G36*
X129432993Y-70954535D02*
X129463935Y-70959125D01*
X129494278Y-70966725D01*
X129523730Y-70977263D01*
X129552008Y-70990638D01*
X129578838Y-71006719D01*
X129603963Y-71025353D01*
X129627140Y-71046360D01*
X129648147Y-71069537D01*
X129666781Y-71094662D01*
X129682862Y-71121492D01*
X129696237Y-71149770D01*
X129706775Y-71179222D01*
X129714375Y-71209565D01*
X129718965Y-71240507D01*
X129720500Y-71271750D01*
X129720500Y-71984250D01*
X129718965Y-72015493D01*
X129714375Y-72046435D01*
X129706775Y-72076778D01*
X129696237Y-72106230D01*
X129682862Y-72134508D01*
X129666781Y-72161338D01*
X129648147Y-72186463D01*
X129627140Y-72209640D01*
X129603963Y-72230647D01*
X129578838Y-72249281D01*
X129552008Y-72265362D01*
X129523730Y-72278737D01*
X129494278Y-72289275D01*
X129463935Y-72296875D01*
X129432993Y-72301465D01*
X129401750Y-72303000D01*
X128764250Y-72303000D01*
X128733007Y-72301465D01*
X128702065Y-72296875D01*
X128671722Y-72289275D01*
X128642270Y-72278737D01*
X128613992Y-72265362D01*
X128587162Y-72249281D01*
X128562037Y-72230647D01*
X128538860Y-72209640D01*
X128517853Y-72186463D01*
X128499219Y-72161338D01*
X128483138Y-72134508D01*
X128469763Y-72106230D01*
X128459225Y-72076778D01*
X128451625Y-72046435D01*
X128447035Y-72015493D01*
X128445500Y-71984250D01*
X128445500Y-71271750D01*
X128447035Y-71240507D01*
X128451625Y-71209565D01*
X128459225Y-71179222D01*
X128469763Y-71149770D01*
X128483138Y-71121492D01*
X128499219Y-71094662D01*
X128517853Y-71069537D01*
X128538860Y-71046360D01*
X128562037Y-71025353D01*
X128587162Y-71006719D01*
X128613992Y-70990638D01*
X128642270Y-70977263D01*
X128671722Y-70966725D01*
X128702065Y-70959125D01*
X128733007Y-70954535D01*
X128764250Y-70953000D01*
X129401750Y-70953000D01*
X129432993Y-70954535D01*
X129432993Y-70954535D01*
G37*
D11*
X129083000Y-71628000D03*
D10*
G36*
X127857993Y-70954535D02*
X127888935Y-70959125D01*
X127919278Y-70966725D01*
X127948730Y-70977263D01*
X127977008Y-70990638D01*
X128003838Y-71006719D01*
X128028963Y-71025353D01*
X128052140Y-71046360D01*
X128073147Y-71069537D01*
X128091781Y-71094662D01*
X128107862Y-71121492D01*
X128121237Y-71149770D01*
X128131775Y-71179222D01*
X128139375Y-71209565D01*
X128143965Y-71240507D01*
X128145500Y-71271750D01*
X128145500Y-71984250D01*
X128143965Y-72015493D01*
X128139375Y-72046435D01*
X128131775Y-72076778D01*
X128121237Y-72106230D01*
X128107862Y-72134508D01*
X128091781Y-72161338D01*
X128073147Y-72186463D01*
X128052140Y-72209640D01*
X128028963Y-72230647D01*
X128003838Y-72249281D01*
X127977008Y-72265362D01*
X127948730Y-72278737D01*
X127919278Y-72289275D01*
X127888935Y-72296875D01*
X127857993Y-72301465D01*
X127826750Y-72303000D01*
X127189250Y-72303000D01*
X127158007Y-72301465D01*
X127127065Y-72296875D01*
X127096722Y-72289275D01*
X127067270Y-72278737D01*
X127038992Y-72265362D01*
X127012162Y-72249281D01*
X126987037Y-72230647D01*
X126963860Y-72209640D01*
X126942853Y-72186463D01*
X126924219Y-72161338D01*
X126908138Y-72134508D01*
X126894763Y-72106230D01*
X126884225Y-72076778D01*
X126876625Y-72046435D01*
X126872035Y-72015493D01*
X126870500Y-71984250D01*
X126870500Y-71271750D01*
X126872035Y-71240507D01*
X126876625Y-71209565D01*
X126884225Y-71179222D01*
X126894763Y-71149770D01*
X126908138Y-71121492D01*
X126924219Y-71094662D01*
X126942853Y-71069537D01*
X126963860Y-71046360D01*
X126987037Y-71025353D01*
X127012162Y-71006719D01*
X127038992Y-70990638D01*
X127067270Y-70977263D01*
X127096722Y-70966725D01*
X127127065Y-70959125D01*
X127158007Y-70954535D01*
X127189250Y-70953000D01*
X127826750Y-70953000D01*
X127857993Y-70954535D01*
X127857993Y-70954535D01*
G37*
D11*
X127508000Y-71628000D03*
G04 #@! TD*
D10*
G04 #@! TO.C,C5*
G36*
X165957993Y-90766535D02*
X165988935Y-90771125D01*
X166019278Y-90778725D01*
X166048730Y-90789263D01*
X166077008Y-90802638D01*
X166103838Y-90818719D01*
X166128963Y-90837353D01*
X166152140Y-90858360D01*
X166173147Y-90881537D01*
X166191781Y-90906662D01*
X166207862Y-90933492D01*
X166221237Y-90961770D01*
X166231775Y-90991222D01*
X166239375Y-91021565D01*
X166243965Y-91052507D01*
X166245500Y-91083750D01*
X166245500Y-91796250D01*
X166243965Y-91827493D01*
X166239375Y-91858435D01*
X166231775Y-91888778D01*
X166221237Y-91918230D01*
X166207862Y-91946508D01*
X166191781Y-91973338D01*
X166173147Y-91998463D01*
X166152140Y-92021640D01*
X166128963Y-92042647D01*
X166103838Y-92061281D01*
X166077008Y-92077362D01*
X166048730Y-92090737D01*
X166019278Y-92101275D01*
X165988935Y-92108875D01*
X165957993Y-92113465D01*
X165926750Y-92115000D01*
X165289250Y-92115000D01*
X165258007Y-92113465D01*
X165227065Y-92108875D01*
X165196722Y-92101275D01*
X165167270Y-92090737D01*
X165138992Y-92077362D01*
X165112162Y-92061281D01*
X165087037Y-92042647D01*
X165063860Y-92021640D01*
X165042853Y-91998463D01*
X165024219Y-91973338D01*
X165008138Y-91946508D01*
X164994763Y-91918230D01*
X164984225Y-91888778D01*
X164976625Y-91858435D01*
X164972035Y-91827493D01*
X164970500Y-91796250D01*
X164970500Y-91083750D01*
X164972035Y-91052507D01*
X164976625Y-91021565D01*
X164984225Y-90991222D01*
X164994763Y-90961770D01*
X165008138Y-90933492D01*
X165024219Y-90906662D01*
X165042853Y-90881537D01*
X165063860Y-90858360D01*
X165087037Y-90837353D01*
X165112162Y-90818719D01*
X165138992Y-90802638D01*
X165167270Y-90789263D01*
X165196722Y-90778725D01*
X165227065Y-90771125D01*
X165258007Y-90766535D01*
X165289250Y-90765000D01*
X165926750Y-90765000D01*
X165957993Y-90766535D01*
X165957993Y-90766535D01*
G37*
D11*
X165608000Y-91440000D03*
D10*
G36*
X164382993Y-90766535D02*
X164413935Y-90771125D01*
X164444278Y-90778725D01*
X164473730Y-90789263D01*
X164502008Y-90802638D01*
X164528838Y-90818719D01*
X164553963Y-90837353D01*
X164577140Y-90858360D01*
X164598147Y-90881537D01*
X164616781Y-90906662D01*
X164632862Y-90933492D01*
X164646237Y-90961770D01*
X164656775Y-90991222D01*
X164664375Y-91021565D01*
X164668965Y-91052507D01*
X164670500Y-91083750D01*
X164670500Y-91796250D01*
X164668965Y-91827493D01*
X164664375Y-91858435D01*
X164656775Y-91888778D01*
X164646237Y-91918230D01*
X164632862Y-91946508D01*
X164616781Y-91973338D01*
X164598147Y-91998463D01*
X164577140Y-92021640D01*
X164553963Y-92042647D01*
X164528838Y-92061281D01*
X164502008Y-92077362D01*
X164473730Y-92090737D01*
X164444278Y-92101275D01*
X164413935Y-92108875D01*
X164382993Y-92113465D01*
X164351750Y-92115000D01*
X163714250Y-92115000D01*
X163683007Y-92113465D01*
X163652065Y-92108875D01*
X163621722Y-92101275D01*
X163592270Y-92090737D01*
X163563992Y-92077362D01*
X163537162Y-92061281D01*
X163512037Y-92042647D01*
X163488860Y-92021640D01*
X163467853Y-91998463D01*
X163449219Y-91973338D01*
X163433138Y-91946508D01*
X163419763Y-91918230D01*
X163409225Y-91888778D01*
X163401625Y-91858435D01*
X163397035Y-91827493D01*
X163395500Y-91796250D01*
X163395500Y-91083750D01*
X163397035Y-91052507D01*
X163401625Y-91021565D01*
X163409225Y-90991222D01*
X163419763Y-90961770D01*
X163433138Y-90933492D01*
X163449219Y-90906662D01*
X163467853Y-90881537D01*
X163488860Y-90858360D01*
X163512037Y-90837353D01*
X163537162Y-90818719D01*
X163563992Y-90802638D01*
X163592270Y-90789263D01*
X163621722Y-90778725D01*
X163652065Y-90771125D01*
X163683007Y-90766535D01*
X163714250Y-90765000D01*
X164351750Y-90765000D01*
X164382993Y-90766535D01*
X164382993Y-90766535D01*
G37*
D11*
X164033000Y-91440000D03*
G04 #@! TD*
D10*
G04 #@! TO.C,C6*
G36*
X145358493Y-63588535D02*
X145389435Y-63593125D01*
X145419778Y-63600725D01*
X145449230Y-63611263D01*
X145477508Y-63624638D01*
X145504338Y-63640719D01*
X145529463Y-63659353D01*
X145552640Y-63680360D01*
X145573647Y-63703537D01*
X145592281Y-63728662D01*
X145608362Y-63755492D01*
X145621737Y-63783770D01*
X145632275Y-63813222D01*
X145639875Y-63843565D01*
X145644465Y-63874507D01*
X145646000Y-63905750D01*
X145646000Y-64618250D01*
X145644465Y-64649493D01*
X145639875Y-64680435D01*
X145632275Y-64710778D01*
X145621737Y-64740230D01*
X145608362Y-64768508D01*
X145592281Y-64795338D01*
X145573647Y-64820463D01*
X145552640Y-64843640D01*
X145529463Y-64864647D01*
X145504338Y-64883281D01*
X145477508Y-64899362D01*
X145449230Y-64912737D01*
X145419778Y-64923275D01*
X145389435Y-64930875D01*
X145358493Y-64935465D01*
X145327250Y-64937000D01*
X144689750Y-64937000D01*
X144658507Y-64935465D01*
X144627565Y-64930875D01*
X144597222Y-64923275D01*
X144567770Y-64912737D01*
X144539492Y-64899362D01*
X144512662Y-64883281D01*
X144487537Y-64864647D01*
X144464360Y-64843640D01*
X144443353Y-64820463D01*
X144424719Y-64795338D01*
X144408638Y-64768508D01*
X144395263Y-64740230D01*
X144384725Y-64710778D01*
X144377125Y-64680435D01*
X144372535Y-64649493D01*
X144371000Y-64618250D01*
X144371000Y-63905750D01*
X144372535Y-63874507D01*
X144377125Y-63843565D01*
X144384725Y-63813222D01*
X144395263Y-63783770D01*
X144408638Y-63755492D01*
X144424719Y-63728662D01*
X144443353Y-63703537D01*
X144464360Y-63680360D01*
X144487537Y-63659353D01*
X144512662Y-63640719D01*
X144539492Y-63624638D01*
X144567770Y-63611263D01*
X144597222Y-63600725D01*
X144627565Y-63593125D01*
X144658507Y-63588535D01*
X144689750Y-63587000D01*
X145327250Y-63587000D01*
X145358493Y-63588535D01*
X145358493Y-63588535D01*
G37*
D11*
X145008500Y-64262000D03*
D10*
G36*
X146933493Y-63588535D02*
X146964435Y-63593125D01*
X146994778Y-63600725D01*
X147024230Y-63611263D01*
X147052508Y-63624638D01*
X147079338Y-63640719D01*
X147104463Y-63659353D01*
X147127640Y-63680360D01*
X147148647Y-63703537D01*
X147167281Y-63728662D01*
X147183362Y-63755492D01*
X147196737Y-63783770D01*
X147207275Y-63813222D01*
X147214875Y-63843565D01*
X147219465Y-63874507D01*
X147221000Y-63905750D01*
X147221000Y-64618250D01*
X147219465Y-64649493D01*
X147214875Y-64680435D01*
X147207275Y-64710778D01*
X147196737Y-64740230D01*
X147183362Y-64768508D01*
X147167281Y-64795338D01*
X147148647Y-64820463D01*
X147127640Y-64843640D01*
X147104463Y-64864647D01*
X147079338Y-64883281D01*
X147052508Y-64899362D01*
X147024230Y-64912737D01*
X146994778Y-64923275D01*
X146964435Y-64930875D01*
X146933493Y-64935465D01*
X146902250Y-64937000D01*
X146264750Y-64937000D01*
X146233507Y-64935465D01*
X146202565Y-64930875D01*
X146172222Y-64923275D01*
X146142770Y-64912737D01*
X146114492Y-64899362D01*
X146087662Y-64883281D01*
X146062537Y-64864647D01*
X146039360Y-64843640D01*
X146018353Y-64820463D01*
X145999719Y-64795338D01*
X145983638Y-64768508D01*
X145970263Y-64740230D01*
X145959725Y-64710778D01*
X145952125Y-64680435D01*
X145947535Y-64649493D01*
X145946000Y-64618250D01*
X145946000Y-63905750D01*
X145947535Y-63874507D01*
X145952125Y-63843565D01*
X145959725Y-63813222D01*
X145970263Y-63783770D01*
X145983638Y-63755492D01*
X145999719Y-63728662D01*
X146018353Y-63703537D01*
X146039360Y-63680360D01*
X146062537Y-63659353D01*
X146087662Y-63640719D01*
X146114492Y-63624638D01*
X146142770Y-63611263D01*
X146172222Y-63600725D01*
X146202565Y-63593125D01*
X146233507Y-63588535D01*
X146264750Y-63587000D01*
X146902250Y-63587000D01*
X146933493Y-63588535D01*
X146933493Y-63588535D01*
G37*
D11*
X146583500Y-64262000D03*
G04 #@! TD*
D10*
G04 #@! TO.C,C7*
G36*
X139833493Y-82676035D02*
X139864435Y-82680625D01*
X139894778Y-82688225D01*
X139924230Y-82698763D01*
X139952508Y-82712138D01*
X139979338Y-82728219D01*
X140004463Y-82746853D01*
X140027640Y-82767860D01*
X140048647Y-82791037D01*
X140067281Y-82816162D01*
X140083362Y-82842992D01*
X140096737Y-82871270D01*
X140107275Y-82900722D01*
X140114875Y-82931065D01*
X140119465Y-82962007D01*
X140121000Y-82993250D01*
X140121000Y-83630750D01*
X140119465Y-83661993D01*
X140114875Y-83692935D01*
X140107275Y-83723278D01*
X140096737Y-83752730D01*
X140083362Y-83781008D01*
X140067281Y-83807838D01*
X140048647Y-83832963D01*
X140027640Y-83856140D01*
X140004463Y-83877147D01*
X139979338Y-83895781D01*
X139952508Y-83911862D01*
X139924230Y-83925237D01*
X139894778Y-83935775D01*
X139864435Y-83943375D01*
X139833493Y-83947965D01*
X139802250Y-83949500D01*
X139089750Y-83949500D01*
X139058507Y-83947965D01*
X139027565Y-83943375D01*
X138997222Y-83935775D01*
X138967770Y-83925237D01*
X138939492Y-83911862D01*
X138912662Y-83895781D01*
X138887537Y-83877147D01*
X138864360Y-83856140D01*
X138843353Y-83832963D01*
X138824719Y-83807838D01*
X138808638Y-83781008D01*
X138795263Y-83752730D01*
X138784725Y-83723278D01*
X138777125Y-83692935D01*
X138772535Y-83661993D01*
X138771000Y-83630750D01*
X138771000Y-82993250D01*
X138772535Y-82962007D01*
X138777125Y-82931065D01*
X138784725Y-82900722D01*
X138795263Y-82871270D01*
X138808638Y-82842992D01*
X138824719Y-82816162D01*
X138843353Y-82791037D01*
X138864360Y-82767860D01*
X138887537Y-82746853D01*
X138912662Y-82728219D01*
X138939492Y-82712138D01*
X138967770Y-82698763D01*
X138997222Y-82688225D01*
X139027565Y-82680625D01*
X139058507Y-82676035D01*
X139089750Y-82674500D01*
X139802250Y-82674500D01*
X139833493Y-82676035D01*
X139833493Y-82676035D01*
G37*
D11*
X139446000Y-83312000D03*
D10*
G36*
X139833493Y-84251035D02*
X139864435Y-84255625D01*
X139894778Y-84263225D01*
X139924230Y-84273763D01*
X139952508Y-84287138D01*
X139979338Y-84303219D01*
X140004463Y-84321853D01*
X140027640Y-84342860D01*
X140048647Y-84366037D01*
X140067281Y-84391162D01*
X140083362Y-84417992D01*
X140096737Y-84446270D01*
X140107275Y-84475722D01*
X140114875Y-84506065D01*
X140119465Y-84537007D01*
X140121000Y-84568250D01*
X140121000Y-85205750D01*
X140119465Y-85236993D01*
X140114875Y-85267935D01*
X140107275Y-85298278D01*
X140096737Y-85327730D01*
X140083362Y-85356008D01*
X140067281Y-85382838D01*
X140048647Y-85407963D01*
X140027640Y-85431140D01*
X140004463Y-85452147D01*
X139979338Y-85470781D01*
X139952508Y-85486862D01*
X139924230Y-85500237D01*
X139894778Y-85510775D01*
X139864435Y-85518375D01*
X139833493Y-85522965D01*
X139802250Y-85524500D01*
X139089750Y-85524500D01*
X139058507Y-85522965D01*
X139027565Y-85518375D01*
X138997222Y-85510775D01*
X138967770Y-85500237D01*
X138939492Y-85486862D01*
X138912662Y-85470781D01*
X138887537Y-85452147D01*
X138864360Y-85431140D01*
X138843353Y-85407963D01*
X138824719Y-85382838D01*
X138808638Y-85356008D01*
X138795263Y-85327730D01*
X138784725Y-85298278D01*
X138777125Y-85267935D01*
X138772535Y-85236993D01*
X138771000Y-85205750D01*
X138771000Y-84568250D01*
X138772535Y-84537007D01*
X138777125Y-84506065D01*
X138784725Y-84475722D01*
X138795263Y-84446270D01*
X138808638Y-84417992D01*
X138824719Y-84391162D01*
X138843353Y-84366037D01*
X138864360Y-84342860D01*
X138887537Y-84321853D01*
X138912662Y-84303219D01*
X138939492Y-84287138D01*
X138967770Y-84273763D01*
X138997222Y-84263225D01*
X139027565Y-84255625D01*
X139058507Y-84251035D01*
X139089750Y-84249500D01*
X139802250Y-84249500D01*
X139833493Y-84251035D01*
X139833493Y-84251035D01*
G37*
D11*
X139446000Y-84887000D03*
G04 #@! TD*
D10*
G04 #@! TO.C,C8*
G36*
X139541993Y-100672535D02*
X139572935Y-100677125D01*
X139603278Y-100684725D01*
X139632730Y-100695263D01*
X139661008Y-100708638D01*
X139687838Y-100724719D01*
X139712963Y-100743353D01*
X139736140Y-100764360D01*
X139757147Y-100787537D01*
X139775781Y-100812662D01*
X139791862Y-100839492D01*
X139805237Y-100867770D01*
X139815775Y-100897222D01*
X139823375Y-100927565D01*
X139827965Y-100958507D01*
X139829500Y-100989750D01*
X139829500Y-101702250D01*
X139827965Y-101733493D01*
X139823375Y-101764435D01*
X139815775Y-101794778D01*
X139805237Y-101824230D01*
X139791862Y-101852508D01*
X139775781Y-101879338D01*
X139757147Y-101904463D01*
X139736140Y-101927640D01*
X139712963Y-101948647D01*
X139687838Y-101967281D01*
X139661008Y-101983362D01*
X139632730Y-101996737D01*
X139603278Y-102007275D01*
X139572935Y-102014875D01*
X139541993Y-102019465D01*
X139510750Y-102021000D01*
X138873250Y-102021000D01*
X138842007Y-102019465D01*
X138811065Y-102014875D01*
X138780722Y-102007275D01*
X138751270Y-101996737D01*
X138722992Y-101983362D01*
X138696162Y-101967281D01*
X138671037Y-101948647D01*
X138647860Y-101927640D01*
X138626853Y-101904463D01*
X138608219Y-101879338D01*
X138592138Y-101852508D01*
X138578763Y-101824230D01*
X138568225Y-101794778D01*
X138560625Y-101764435D01*
X138556035Y-101733493D01*
X138554500Y-101702250D01*
X138554500Y-100989750D01*
X138556035Y-100958507D01*
X138560625Y-100927565D01*
X138568225Y-100897222D01*
X138578763Y-100867770D01*
X138592138Y-100839492D01*
X138608219Y-100812662D01*
X138626853Y-100787537D01*
X138647860Y-100764360D01*
X138671037Y-100743353D01*
X138696162Y-100724719D01*
X138722992Y-100708638D01*
X138751270Y-100695263D01*
X138780722Y-100684725D01*
X138811065Y-100677125D01*
X138842007Y-100672535D01*
X138873250Y-100671000D01*
X139510750Y-100671000D01*
X139541993Y-100672535D01*
X139541993Y-100672535D01*
G37*
D11*
X139192000Y-101346000D03*
D10*
G36*
X141116993Y-100672535D02*
X141147935Y-100677125D01*
X141178278Y-100684725D01*
X141207730Y-100695263D01*
X141236008Y-100708638D01*
X141262838Y-100724719D01*
X141287963Y-100743353D01*
X141311140Y-100764360D01*
X141332147Y-100787537D01*
X141350781Y-100812662D01*
X141366862Y-100839492D01*
X141380237Y-100867770D01*
X141390775Y-100897222D01*
X141398375Y-100927565D01*
X141402965Y-100958507D01*
X141404500Y-100989750D01*
X141404500Y-101702250D01*
X141402965Y-101733493D01*
X141398375Y-101764435D01*
X141390775Y-101794778D01*
X141380237Y-101824230D01*
X141366862Y-101852508D01*
X141350781Y-101879338D01*
X141332147Y-101904463D01*
X141311140Y-101927640D01*
X141287963Y-101948647D01*
X141262838Y-101967281D01*
X141236008Y-101983362D01*
X141207730Y-101996737D01*
X141178278Y-102007275D01*
X141147935Y-102014875D01*
X141116993Y-102019465D01*
X141085750Y-102021000D01*
X140448250Y-102021000D01*
X140417007Y-102019465D01*
X140386065Y-102014875D01*
X140355722Y-102007275D01*
X140326270Y-101996737D01*
X140297992Y-101983362D01*
X140271162Y-101967281D01*
X140246037Y-101948647D01*
X140222860Y-101927640D01*
X140201853Y-101904463D01*
X140183219Y-101879338D01*
X140167138Y-101852508D01*
X140153763Y-101824230D01*
X140143225Y-101794778D01*
X140135625Y-101764435D01*
X140131035Y-101733493D01*
X140129500Y-101702250D01*
X140129500Y-100989750D01*
X140131035Y-100958507D01*
X140135625Y-100927565D01*
X140143225Y-100897222D01*
X140153763Y-100867770D01*
X140167138Y-100839492D01*
X140183219Y-100812662D01*
X140201853Y-100787537D01*
X140222860Y-100764360D01*
X140246037Y-100743353D01*
X140271162Y-100724719D01*
X140297992Y-100708638D01*
X140326270Y-100695263D01*
X140355722Y-100684725D01*
X140386065Y-100677125D01*
X140417007Y-100672535D01*
X140448250Y-100671000D01*
X141085750Y-100671000D01*
X141116993Y-100672535D01*
X141116993Y-100672535D01*
G37*
D11*
X140767000Y-101346000D03*
G04 #@! TD*
D10*
G04 #@! TO.C,C9*
G36*
X156343493Y-88746535D02*
X156374435Y-88751125D01*
X156404778Y-88758725D01*
X156434230Y-88769263D01*
X156462508Y-88782638D01*
X156489338Y-88798719D01*
X156514463Y-88817353D01*
X156537640Y-88838360D01*
X156558647Y-88861537D01*
X156577281Y-88886662D01*
X156593362Y-88913492D01*
X156606737Y-88941770D01*
X156617275Y-88971222D01*
X156624875Y-89001565D01*
X156629465Y-89032507D01*
X156631000Y-89063750D01*
X156631000Y-89701250D01*
X156629465Y-89732493D01*
X156624875Y-89763435D01*
X156617275Y-89793778D01*
X156606737Y-89823230D01*
X156593362Y-89851508D01*
X156577281Y-89878338D01*
X156558647Y-89903463D01*
X156537640Y-89926640D01*
X156514463Y-89947647D01*
X156489338Y-89966281D01*
X156462508Y-89982362D01*
X156434230Y-89995737D01*
X156404778Y-90006275D01*
X156374435Y-90013875D01*
X156343493Y-90018465D01*
X156312250Y-90020000D01*
X155599750Y-90020000D01*
X155568507Y-90018465D01*
X155537565Y-90013875D01*
X155507222Y-90006275D01*
X155477770Y-89995737D01*
X155449492Y-89982362D01*
X155422662Y-89966281D01*
X155397537Y-89947647D01*
X155374360Y-89926640D01*
X155353353Y-89903463D01*
X155334719Y-89878338D01*
X155318638Y-89851508D01*
X155305263Y-89823230D01*
X155294725Y-89793778D01*
X155287125Y-89763435D01*
X155282535Y-89732493D01*
X155281000Y-89701250D01*
X155281000Y-89063750D01*
X155282535Y-89032507D01*
X155287125Y-89001565D01*
X155294725Y-88971222D01*
X155305263Y-88941770D01*
X155318638Y-88913492D01*
X155334719Y-88886662D01*
X155353353Y-88861537D01*
X155374360Y-88838360D01*
X155397537Y-88817353D01*
X155422662Y-88798719D01*
X155449492Y-88782638D01*
X155477770Y-88769263D01*
X155507222Y-88758725D01*
X155537565Y-88751125D01*
X155568507Y-88746535D01*
X155599750Y-88745000D01*
X156312250Y-88745000D01*
X156343493Y-88746535D01*
X156343493Y-88746535D01*
G37*
D11*
X155956000Y-89382500D03*
D10*
G36*
X156343493Y-90321535D02*
X156374435Y-90326125D01*
X156404778Y-90333725D01*
X156434230Y-90344263D01*
X156462508Y-90357638D01*
X156489338Y-90373719D01*
X156514463Y-90392353D01*
X156537640Y-90413360D01*
X156558647Y-90436537D01*
X156577281Y-90461662D01*
X156593362Y-90488492D01*
X156606737Y-90516770D01*
X156617275Y-90546222D01*
X156624875Y-90576565D01*
X156629465Y-90607507D01*
X156631000Y-90638750D01*
X156631000Y-91276250D01*
X156629465Y-91307493D01*
X156624875Y-91338435D01*
X156617275Y-91368778D01*
X156606737Y-91398230D01*
X156593362Y-91426508D01*
X156577281Y-91453338D01*
X156558647Y-91478463D01*
X156537640Y-91501640D01*
X156514463Y-91522647D01*
X156489338Y-91541281D01*
X156462508Y-91557362D01*
X156434230Y-91570737D01*
X156404778Y-91581275D01*
X156374435Y-91588875D01*
X156343493Y-91593465D01*
X156312250Y-91595000D01*
X155599750Y-91595000D01*
X155568507Y-91593465D01*
X155537565Y-91588875D01*
X155507222Y-91581275D01*
X155477770Y-91570737D01*
X155449492Y-91557362D01*
X155422662Y-91541281D01*
X155397537Y-91522647D01*
X155374360Y-91501640D01*
X155353353Y-91478463D01*
X155334719Y-91453338D01*
X155318638Y-91426508D01*
X155305263Y-91398230D01*
X155294725Y-91368778D01*
X155287125Y-91338435D01*
X155282535Y-91307493D01*
X155281000Y-91276250D01*
X155281000Y-90638750D01*
X155282535Y-90607507D01*
X155287125Y-90576565D01*
X155294725Y-90546222D01*
X155305263Y-90516770D01*
X155318638Y-90488492D01*
X155334719Y-90461662D01*
X155353353Y-90436537D01*
X155374360Y-90413360D01*
X155397537Y-90392353D01*
X155422662Y-90373719D01*
X155449492Y-90357638D01*
X155477770Y-90344263D01*
X155507222Y-90333725D01*
X155537565Y-90326125D01*
X155568507Y-90321535D01*
X155599750Y-90320000D01*
X156312250Y-90320000D01*
X156343493Y-90321535D01*
X156343493Y-90321535D01*
G37*
D11*
X155956000Y-90957500D03*
G04 #@! TD*
D10*
G04 #@! TO.C,FB1*
G36*
X122815493Y-75335535D02*
X122846435Y-75340125D01*
X122876778Y-75347725D01*
X122906230Y-75358263D01*
X122934508Y-75371638D01*
X122961338Y-75387719D01*
X122986463Y-75406353D01*
X123009640Y-75427360D01*
X123030647Y-75450537D01*
X123049281Y-75475662D01*
X123065362Y-75502492D01*
X123078737Y-75530770D01*
X123089275Y-75560222D01*
X123096875Y-75590565D01*
X123101465Y-75621507D01*
X123103000Y-75652750D01*
X123103000Y-76290250D01*
X123101465Y-76321493D01*
X123096875Y-76352435D01*
X123089275Y-76382778D01*
X123078737Y-76412230D01*
X123065362Y-76440508D01*
X123049281Y-76467338D01*
X123030647Y-76492463D01*
X123009640Y-76515640D01*
X122986463Y-76536647D01*
X122961338Y-76555281D01*
X122934508Y-76571362D01*
X122906230Y-76584737D01*
X122876778Y-76595275D01*
X122846435Y-76602875D01*
X122815493Y-76607465D01*
X122784250Y-76609000D01*
X122071750Y-76609000D01*
X122040507Y-76607465D01*
X122009565Y-76602875D01*
X121979222Y-76595275D01*
X121949770Y-76584737D01*
X121921492Y-76571362D01*
X121894662Y-76555281D01*
X121869537Y-76536647D01*
X121846360Y-76515640D01*
X121825353Y-76492463D01*
X121806719Y-76467338D01*
X121790638Y-76440508D01*
X121777263Y-76412230D01*
X121766725Y-76382778D01*
X121759125Y-76352435D01*
X121754535Y-76321493D01*
X121753000Y-76290250D01*
X121753000Y-75652750D01*
X121754535Y-75621507D01*
X121759125Y-75590565D01*
X121766725Y-75560222D01*
X121777263Y-75530770D01*
X121790638Y-75502492D01*
X121806719Y-75475662D01*
X121825353Y-75450537D01*
X121846360Y-75427360D01*
X121869537Y-75406353D01*
X121894662Y-75387719D01*
X121921492Y-75371638D01*
X121949770Y-75358263D01*
X121979222Y-75347725D01*
X122009565Y-75340125D01*
X122040507Y-75335535D01*
X122071750Y-75334000D01*
X122784250Y-75334000D01*
X122815493Y-75335535D01*
X122815493Y-75335535D01*
G37*
D11*
X122428000Y-75971500D03*
D10*
G36*
X122815493Y-73760535D02*
X122846435Y-73765125D01*
X122876778Y-73772725D01*
X122906230Y-73783263D01*
X122934508Y-73796638D01*
X122961338Y-73812719D01*
X122986463Y-73831353D01*
X123009640Y-73852360D01*
X123030647Y-73875537D01*
X123049281Y-73900662D01*
X123065362Y-73927492D01*
X123078737Y-73955770D01*
X123089275Y-73985222D01*
X123096875Y-74015565D01*
X123101465Y-74046507D01*
X123103000Y-74077750D01*
X123103000Y-74715250D01*
X123101465Y-74746493D01*
X123096875Y-74777435D01*
X123089275Y-74807778D01*
X123078737Y-74837230D01*
X123065362Y-74865508D01*
X123049281Y-74892338D01*
X123030647Y-74917463D01*
X123009640Y-74940640D01*
X122986463Y-74961647D01*
X122961338Y-74980281D01*
X122934508Y-74996362D01*
X122906230Y-75009737D01*
X122876778Y-75020275D01*
X122846435Y-75027875D01*
X122815493Y-75032465D01*
X122784250Y-75034000D01*
X122071750Y-75034000D01*
X122040507Y-75032465D01*
X122009565Y-75027875D01*
X121979222Y-75020275D01*
X121949770Y-75009737D01*
X121921492Y-74996362D01*
X121894662Y-74980281D01*
X121869537Y-74961647D01*
X121846360Y-74940640D01*
X121825353Y-74917463D01*
X121806719Y-74892338D01*
X121790638Y-74865508D01*
X121777263Y-74837230D01*
X121766725Y-74807778D01*
X121759125Y-74777435D01*
X121754535Y-74746493D01*
X121753000Y-74715250D01*
X121753000Y-74077750D01*
X121754535Y-74046507D01*
X121759125Y-74015565D01*
X121766725Y-73985222D01*
X121777263Y-73955770D01*
X121790638Y-73927492D01*
X121806719Y-73900662D01*
X121825353Y-73875537D01*
X121846360Y-73852360D01*
X121869537Y-73831353D01*
X121894662Y-73812719D01*
X121921492Y-73796638D01*
X121949770Y-73783263D01*
X121979222Y-73772725D01*
X122009565Y-73765125D01*
X122040507Y-73760535D01*
X122071750Y-73759000D01*
X122784250Y-73759000D01*
X122815493Y-73760535D01*
X122815493Y-73760535D01*
G37*
D11*
X122428000Y-74396500D03*
G04 #@! TD*
D10*
G04 #@! TO.C,J1*
G36*
X157997447Y-105760487D02*
X158027425Y-105764934D01*
X158056824Y-105772298D01*
X158085358Y-105782508D01*
X158112755Y-105795465D01*
X158138750Y-105811046D01*
X158163092Y-105829100D01*
X158185548Y-105849452D01*
X158205900Y-105871908D01*
X158223954Y-105896250D01*
X158239535Y-105922245D01*
X158252492Y-105949642D01*
X158262702Y-105978176D01*
X158270066Y-106007575D01*
X158274513Y-106037553D01*
X158276000Y-106067823D01*
X158276000Y-107800177D01*
X158274513Y-107830447D01*
X158270066Y-107860425D01*
X158262702Y-107889824D01*
X158252492Y-107918358D01*
X158239535Y-107945755D01*
X158223954Y-107971750D01*
X158205900Y-107996092D01*
X158185548Y-108018548D01*
X158163092Y-108038900D01*
X158138750Y-108056954D01*
X158112755Y-108072535D01*
X158085358Y-108085492D01*
X158056824Y-108095702D01*
X158027425Y-108103066D01*
X157997447Y-108107513D01*
X157967177Y-108109000D01*
X156484823Y-108109000D01*
X156454553Y-108107513D01*
X156424575Y-108103066D01*
X156395176Y-108095702D01*
X156366642Y-108085492D01*
X156339245Y-108072535D01*
X156313250Y-108056954D01*
X156288908Y-108038900D01*
X156266452Y-108018548D01*
X156246100Y-107996092D01*
X156228046Y-107971750D01*
X156212465Y-107945755D01*
X156199508Y-107918358D01*
X156189298Y-107889824D01*
X156181934Y-107860425D01*
X156177487Y-107830447D01*
X156176000Y-107800177D01*
X156176000Y-106067823D01*
X156177487Y-106037553D01*
X156181934Y-106007575D01*
X156189298Y-105978176D01*
X156199508Y-105949642D01*
X156212465Y-105922245D01*
X156228046Y-105896250D01*
X156246100Y-105871908D01*
X156266452Y-105849452D01*
X156288908Y-105829100D01*
X156313250Y-105811046D01*
X156339245Y-105795465D01*
X156366642Y-105782508D01*
X156395176Y-105772298D01*
X156424575Y-105764934D01*
X156454553Y-105760487D01*
X156484823Y-105759000D01*
X157967177Y-105759000D01*
X157997447Y-105760487D01*
X157997447Y-105760487D01*
G37*
D13*
X157226000Y-106934000D03*
D14*
X154726000Y-106934000D03*
X152226000Y-106934000D03*
X149726000Y-106934000D03*
G04 #@! TD*
D10*
G04 #@! TO.C,J2*
G36*
X164497447Y-67785487D02*
X164527425Y-67789934D01*
X164556824Y-67797298D01*
X164585358Y-67807508D01*
X164612755Y-67820465D01*
X164638750Y-67836046D01*
X164663092Y-67854100D01*
X164685548Y-67874452D01*
X164705900Y-67896908D01*
X164723954Y-67921250D01*
X164739535Y-67947245D01*
X164752492Y-67974642D01*
X164762702Y-68003176D01*
X164770066Y-68032575D01*
X164774513Y-68062553D01*
X164776000Y-68092823D01*
X164776000Y-69575177D01*
X164774513Y-69605447D01*
X164770066Y-69635425D01*
X164762702Y-69664824D01*
X164752492Y-69693358D01*
X164739535Y-69720755D01*
X164723954Y-69746750D01*
X164705900Y-69771092D01*
X164685548Y-69793548D01*
X164663092Y-69813900D01*
X164638750Y-69831954D01*
X164612755Y-69847535D01*
X164585358Y-69860492D01*
X164556824Y-69870702D01*
X164527425Y-69878066D01*
X164497447Y-69882513D01*
X164467177Y-69884000D01*
X162684823Y-69884000D01*
X162654553Y-69882513D01*
X162624575Y-69878066D01*
X162595176Y-69870702D01*
X162566642Y-69860492D01*
X162539245Y-69847535D01*
X162513250Y-69831954D01*
X162488908Y-69813900D01*
X162466452Y-69793548D01*
X162446100Y-69771092D01*
X162428046Y-69746750D01*
X162412465Y-69720755D01*
X162399508Y-69693358D01*
X162389298Y-69664824D01*
X162381934Y-69635425D01*
X162377487Y-69605447D01*
X162376000Y-69575177D01*
X162376000Y-68092823D01*
X162377487Y-68062553D01*
X162381934Y-68032575D01*
X162389298Y-68003176D01*
X162399508Y-67974642D01*
X162412465Y-67947245D01*
X162428046Y-67921250D01*
X162446100Y-67896908D01*
X162466452Y-67874452D01*
X162488908Y-67854100D01*
X162513250Y-67836046D01*
X162539245Y-67820465D01*
X162566642Y-67807508D01*
X162595176Y-67797298D01*
X162624575Y-67789934D01*
X162654553Y-67785487D01*
X162684823Y-67784000D01*
X164467177Y-67784000D01*
X164497447Y-67785487D01*
X164497447Y-67785487D01*
G37*
D13*
X163576000Y-68834000D03*
D15*
X163576000Y-71334000D03*
G04 #@! TD*
D10*
G04 #@! TO.C,J3*
G36*
X130311447Y-105760487D02*
X130341425Y-105764934D01*
X130370824Y-105772298D01*
X130399358Y-105782508D01*
X130426755Y-105795465D01*
X130452750Y-105811046D01*
X130477092Y-105829100D01*
X130499548Y-105849452D01*
X130519900Y-105871908D01*
X130537954Y-105896250D01*
X130553535Y-105922245D01*
X130566492Y-105949642D01*
X130576702Y-105978176D01*
X130584066Y-106007575D01*
X130588513Y-106037553D01*
X130590000Y-106067823D01*
X130590000Y-107800177D01*
X130588513Y-107830447D01*
X130584066Y-107860425D01*
X130576702Y-107889824D01*
X130566492Y-107918358D01*
X130553535Y-107945755D01*
X130537954Y-107971750D01*
X130519900Y-107996092D01*
X130499548Y-108018548D01*
X130477092Y-108038900D01*
X130452750Y-108056954D01*
X130426755Y-108072535D01*
X130399358Y-108085492D01*
X130370824Y-108095702D01*
X130341425Y-108103066D01*
X130311447Y-108107513D01*
X130281177Y-108109000D01*
X128798823Y-108109000D01*
X128768553Y-108107513D01*
X128738575Y-108103066D01*
X128709176Y-108095702D01*
X128680642Y-108085492D01*
X128653245Y-108072535D01*
X128627250Y-108056954D01*
X128602908Y-108038900D01*
X128580452Y-108018548D01*
X128560100Y-107996092D01*
X128542046Y-107971750D01*
X128526465Y-107945755D01*
X128513508Y-107918358D01*
X128503298Y-107889824D01*
X128495934Y-107860425D01*
X128491487Y-107830447D01*
X128490000Y-107800177D01*
X128490000Y-106067823D01*
X128491487Y-106037553D01*
X128495934Y-106007575D01*
X128503298Y-105978176D01*
X128513508Y-105949642D01*
X128526465Y-105922245D01*
X128542046Y-105896250D01*
X128560100Y-105871908D01*
X128580452Y-105849452D01*
X128602908Y-105829100D01*
X128627250Y-105811046D01*
X128653245Y-105795465D01*
X128680642Y-105782508D01*
X128709176Y-105772298D01*
X128738575Y-105764934D01*
X128768553Y-105760487D01*
X128798823Y-105759000D01*
X130281177Y-105759000D01*
X130311447Y-105760487D01*
X130311447Y-105760487D01*
G37*
D13*
X129540000Y-106934000D03*
D14*
X127040000Y-106934000D03*
X124540000Y-106934000D03*
G04 #@! TD*
G04 #@! TO.C,J4*
X135756000Y-106934000D03*
X138256000Y-106934000D03*
X140756000Y-106934000D03*
D10*
G36*
X144027447Y-105760487D02*
X144057425Y-105764934D01*
X144086824Y-105772298D01*
X144115358Y-105782508D01*
X144142755Y-105795465D01*
X144168750Y-105811046D01*
X144193092Y-105829100D01*
X144215548Y-105849452D01*
X144235900Y-105871908D01*
X144253954Y-105896250D01*
X144269535Y-105922245D01*
X144282492Y-105949642D01*
X144292702Y-105978176D01*
X144300066Y-106007575D01*
X144304513Y-106037553D01*
X144306000Y-106067823D01*
X144306000Y-107800177D01*
X144304513Y-107830447D01*
X144300066Y-107860425D01*
X144292702Y-107889824D01*
X144282492Y-107918358D01*
X144269535Y-107945755D01*
X144253954Y-107971750D01*
X144235900Y-107996092D01*
X144215548Y-108018548D01*
X144193092Y-108038900D01*
X144168750Y-108056954D01*
X144142755Y-108072535D01*
X144115358Y-108085492D01*
X144086824Y-108095702D01*
X144057425Y-108103066D01*
X144027447Y-108107513D01*
X143997177Y-108109000D01*
X142514823Y-108109000D01*
X142484553Y-108107513D01*
X142454575Y-108103066D01*
X142425176Y-108095702D01*
X142396642Y-108085492D01*
X142369245Y-108072535D01*
X142343250Y-108056954D01*
X142318908Y-108038900D01*
X142296452Y-108018548D01*
X142276100Y-107996092D01*
X142258046Y-107971750D01*
X142242465Y-107945755D01*
X142229508Y-107918358D01*
X142219298Y-107889824D01*
X142211934Y-107860425D01*
X142207487Y-107830447D01*
X142206000Y-107800177D01*
X142206000Y-106067823D01*
X142207487Y-106037553D01*
X142211934Y-106007575D01*
X142219298Y-105978176D01*
X142229508Y-105949642D01*
X142242465Y-105922245D01*
X142258046Y-105896250D01*
X142276100Y-105871908D01*
X142296452Y-105849452D01*
X142318908Y-105829100D01*
X142343250Y-105811046D01*
X142369245Y-105795465D01*
X142396642Y-105782508D01*
X142425176Y-105772298D01*
X142454575Y-105764934D01*
X142484553Y-105760487D01*
X142514823Y-105759000D01*
X143997177Y-105759000D01*
X144027447Y-105760487D01*
X144027447Y-105760487D01*
G37*
D13*
X143256000Y-106934000D03*
G04 #@! TD*
D10*
G04 #@! TO.C,J5*
G36*
X151772447Y-88105487D02*
X151802425Y-88109934D01*
X151831824Y-88117298D01*
X151860358Y-88127508D01*
X151887755Y-88140465D01*
X151913750Y-88156046D01*
X151938092Y-88174100D01*
X151960548Y-88194452D01*
X151980900Y-88216908D01*
X151998954Y-88241250D01*
X152014535Y-88267245D01*
X152027492Y-88294642D01*
X152037702Y-88323176D01*
X152045066Y-88352575D01*
X152049513Y-88382553D01*
X152051000Y-88412823D01*
X152051000Y-89895177D01*
X152049513Y-89925447D01*
X152045066Y-89955425D01*
X152037702Y-89984824D01*
X152027492Y-90013358D01*
X152014535Y-90040755D01*
X151998954Y-90066750D01*
X151980900Y-90091092D01*
X151960548Y-90113548D01*
X151938092Y-90133900D01*
X151913750Y-90151954D01*
X151887755Y-90167535D01*
X151860358Y-90180492D01*
X151831824Y-90190702D01*
X151802425Y-90198066D01*
X151772447Y-90202513D01*
X151742177Y-90204000D01*
X150009823Y-90204000D01*
X149979553Y-90202513D01*
X149949575Y-90198066D01*
X149920176Y-90190702D01*
X149891642Y-90180492D01*
X149864245Y-90167535D01*
X149838250Y-90151954D01*
X149813908Y-90133900D01*
X149791452Y-90113548D01*
X149771100Y-90091092D01*
X149753046Y-90066750D01*
X149737465Y-90040755D01*
X149724508Y-90013358D01*
X149714298Y-89984824D01*
X149706934Y-89955425D01*
X149702487Y-89925447D01*
X149701000Y-89895177D01*
X149701000Y-88412823D01*
X149702487Y-88382553D01*
X149706934Y-88352575D01*
X149714298Y-88323176D01*
X149724508Y-88294642D01*
X149737465Y-88267245D01*
X149753046Y-88241250D01*
X149771100Y-88216908D01*
X149791452Y-88194452D01*
X149813908Y-88174100D01*
X149838250Y-88156046D01*
X149864245Y-88140465D01*
X149891642Y-88127508D01*
X149920176Y-88117298D01*
X149949575Y-88109934D01*
X149979553Y-88105487D01*
X150009823Y-88104000D01*
X151742177Y-88104000D01*
X151772447Y-88105487D01*
X151772447Y-88105487D01*
G37*
D13*
X150876000Y-89154000D03*
D16*
X150876000Y-86654000D03*
X150876000Y-84154000D03*
X150876000Y-81654000D03*
G04 #@! TD*
D10*
G04 #@! TO.C,J6*
G36*
X125485447Y-53182487D02*
X125515425Y-53186934D01*
X125544824Y-53194298D01*
X125573358Y-53204508D01*
X125600755Y-53217465D01*
X125626750Y-53233046D01*
X125651092Y-53251100D01*
X125673548Y-53271452D01*
X125693900Y-53293908D01*
X125711954Y-53318250D01*
X125727535Y-53344245D01*
X125740492Y-53371642D01*
X125750702Y-53400176D01*
X125758066Y-53429575D01*
X125762513Y-53459553D01*
X125764000Y-53489823D01*
X125764000Y-55222177D01*
X125762513Y-55252447D01*
X125758066Y-55282425D01*
X125750702Y-55311824D01*
X125740492Y-55340358D01*
X125727535Y-55367755D01*
X125711954Y-55393750D01*
X125693900Y-55418092D01*
X125673548Y-55440548D01*
X125651092Y-55460900D01*
X125626750Y-55478954D01*
X125600755Y-55494535D01*
X125573358Y-55507492D01*
X125544824Y-55517702D01*
X125515425Y-55525066D01*
X125485447Y-55529513D01*
X125455177Y-55531000D01*
X123972823Y-55531000D01*
X123942553Y-55529513D01*
X123912575Y-55525066D01*
X123883176Y-55517702D01*
X123854642Y-55507492D01*
X123827245Y-55494535D01*
X123801250Y-55478954D01*
X123776908Y-55460900D01*
X123754452Y-55440548D01*
X123734100Y-55418092D01*
X123716046Y-55393750D01*
X123700465Y-55367755D01*
X123687508Y-55340358D01*
X123677298Y-55311824D01*
X123669934Y-55282425D01*
X123665487Y-55252447D01*
X123664000Y-55222177D01*
X123664000Y-53489823D01*
X123665487Y-53459553D01*
X123669934Y-53429575D01*
X123677298Y-53400176D01*
X123687508Y-53371642D01*
X123700465Y-53344245D01*
X123716046Y-53318250D01*
X123734100Y-53293908D01*
X123754452Y-53271452D01*
X123776908Y-53251100D01*
X123801250Y-53233046D01*
X123827245Y-53217465D01*
X123854642Y-53204508D01*
X123883176Y-53194298D01*
X123912575Y-53186934D01*
X123942553Y-53182487D01*
X123972823Y-53181000D01*
X125455177Y-53181000D01*
X125485447Y-53182487D01*
X125485447Y-53182487D01*
G37*
D13*
X124714000Y-54356000D03*
D14*
X127214000Y-54356000D03*
X129714000Y-54356000D03*
X132214000Y-54356000D03*
X134714000Y-54356000D03*
X137214000Y-54356000D03*
X139714000Y-54356000D03*
G04 #@! TD*
D10*
G04 #@! TO.C,R1*
G36*
X148939993Y-77050535D02*
X148970935Y-77055125D01*
X149001278Y-77062725D01*
X149030730Y-77073263D01*
X149059008Y-77086638D01*
X149085838Y-77102719D01*
X149110963Y-77121353D01*
X149134140Y-77142360D01*
X149155147Y-77165537D01*
X149173781Y-77190662D01*
X149189862Y-77217492D01*
X149203237Y-77245770D01*
X149213775Y-77275222D01*
X149221375Y-77305565D01*
X149225965Y-77336507D01*
X149227500Y-77367750D01*
X149227500Y-78080250D01*
X149225965Y-78111493D01*
X149221375Y-78142435D01*
X149213775Y-78172778D01*
X149203237Y-78202230D01*
X149189862Y-78230508D01*
X149173781Y-78257338D01*
X149155147Y-78282463D01*
X149134140Y-78305640D01*
X149110963Y-78326647D01*
X149085838Y-78345281D01*
X149059008Y-78361362D01*
X149030730Y-78374737D01*
X149001278Y-78385275D01*
X148970935Y-78392875D01*
X148939993Y-78397465D01*
X148908750Y-78399000D01*
X148271250Y-78399000D01*
X148240007Y-78397465D01*
X148209065Y-78392875D01*
X148178722Y-78385275D01*
X148149270Y-78374737D01*
X148120992Y-78361362D01*
X148094162Y-78345281D01*
X148069037Y-78326647D01*
X148045860Y-78305640D01*
X148024853Y-78282463D01*
X148006219Y-78257338D01*
X147990138Y-78230508D01*
X147976763Y-78202230D01*
X147966225Y-78172778D01*
X147958625Y-78142435D01*
X147954035Y-78111493D01*
X147952500Y-78080250D01*
X147952500Y-77367750D01*
X147954035Y-77336507D01*
X147958625Y-77305565D01*
X147966225Y-77275222D01*
X147976763Y-77245770D01*
X147990138Y-77217492D01*
X148006219Y-77190662D01*
X148024853Y-77165537D01*
X148045860Y-77142360D01*
X148069037Y-77121353D01*
X148094162Y-77102719D01*
X148120992Y-77086638D01*
X148149270Y-77073263D01*
X148178722Y-77062725D01*
X148209065Y-77055125D01*
X148240007Y-77050535D01*
X148271250Y-77049000D01*
X148908750Y-77049000D01*
X148939993Y-77050535D01*
X148939993Y-77050535D01*
G37*
D11*
X148590000Y-77724000D03*
D10*
G36*
X150514993Y-77050535D02*
X150545935Y-77055125D01*
X150576278Y-77062725D01*
X150605730Y-77073263D01*
X150634008Y-77086638D01*
X150660838Y-77102719D01*
X150685963Y-77121353D01*
X150709140Y-77142360D01*
X150730147Y-77165537D01*
X150748781Y-77190662D01*
X150764862Y-77217492D01*
X150778237Y-77245770D01*
X150788775Y-77275222D01*
X150796375Y-77305565D01*
X150800965Y-77336507D01*
X150802500Y-77367750D01*
X150802500Y-78080250D01*
X150800965Y-78111493D01*
X150796375Y-78142435D01*
X150788775Y-78172778D01*
X150778237Y-78202230D01*
X150764862Y-78230508D01*
X150748781Y-78257338D01*
X150730147Y-78282463D01*
X150709140Y-78305640D01*
X150685963Y-78326647D01*
X150660838Y-78345281D01*
X150634008Y-78361362D01*
X150605730Y-78374737D01*
X150576278Y-78385275D01*
X150545935Y-78392875D01*
X150514993Y-78397465D01*
X150483750Y-78399000D01*
X149846250Y-78399000D01*
X149815007Y-78397465D01*
X149784065Y-78392875D01*
X149753722Y-78385275D01*
X149724270Y-78374737D01*
X149695992Y-78361362D01*
X149669162Y-78345281D01*
X149644037Y-78326647D01*
X149620860Y-78305640D01*
X149599853Y-78282463D01*
X149581219Y-78257338D01*
X149565138Y-78230508D01*
X149551763Y-78202230D01*
X149541225Y-78172778D01*
X149533625Y-78142435D01*
X149529035Y-78111493D01*
X149527500Y-78080250D01*
X149527500Y-77367750D01*
X149529035Y-77336507D01*
X149533625Y-77305565D01*
X149541225Y-77275222D01*
X149551763Y-77245770D01*
X149565138Y-77217492D01*
X149581219Y-77190662D01*
X149599853Y-77165537D01*
X149620860Y-77142360D01*
X149644037Y-77121353D01*
X149669162Y-77102719D01*
X149695992Y-77086638D01*
X149724270Y-77073263D01*
X149753722Y-77062725D01*
X149784065Y-77055125D01*
X149815007Y-77050535D01*
X149846250Y-77049000D01*
X150483750Y-77049000D01*
X150514993Y-77050535D01*
X150514993Y-77050535D01*
G37*
D11*
X150165000Y-77724000D03*
G04 #@! TD*
D10*
G04 #@! TO.C,R2*
G36*
X154578993Y-77050535D02*
X154609935Y-77055125D01*
X154640278Y-77062725D01*
X154669730Y-77073263D01*
X154698008Y-77086638D01*
X154724838Y-77102719D01*
X154749963Y-77121353D01*
X154773140Y-77142360D01*
X154794147Y-77165537D01*
X154812781Y-77190662D01*
X154828862Y-77217492D01*
X154842237Y-77245770D01*
X154852775Y-77275222D01*
X154860375Y-77305565D01*
X154864965Y-77336507D01*
X154866500Y-77367750D01*
X154866500Y-78080250D01*
X154864965Y-78111493D01*
X154860375Y-78142435D01*
X154852775Y-78172778D01*
X154842237Y-78202230D01*
X154828862Y-78230508D01*
X154812781Y-78257338D01*
X154794147Y-78282463D01*
X154773140Y-78305640D01*
X154749963Y-78326647D01*
X154724838Y-78345281D01*
X154698008Y-78361362D01*
X154669730Y-78374737D01*
X154640278Y-78385275D01*
X154609935Y-78392875D01*
X154578993Y-78397465D01*
X154547750Y-78399000D01*
X153910250Y-78399000D01*
X153879007Y-78397465D01*
X153848065Y-78392875D01*
X153817722Y-78385275D01*
X153788270Y-78374737D01*
X153759992Y-78361362D01*
X153733162Y-78345281D01*
X153708037Y-78326647D01*
X153684860Y-78305640D01*
X153663853Y-78282463D01*
X153645219Y-78257338D01*
X153629138Y-78230508D01*
X153615763Y-78202230D01*
X153605225Y-78172778D01*
X153597625Y-78142435D01*
X153593035Y-78111493D01*
X153591500Y-78080250D01*
X153591500Y-77367750D01*
X153593035Y-77336507D01*
X153597625Y-77305565D01*
X153605225Y-77275222D01*
X153615763Y-77245770D01*
X153629138Y-77217492D01*
X153645219Y-77190662D01*
X153663853Y-77165537D01*
X153684860Y-77142360D01*
X153708037Y-77121353D01*
X153733162Y-77102719D01*
X153759992Y-77086638D01*
X153788270Y-77073263D01*
X153817722Y-77062725D01*
X153848065Y-77055125D01*
X153879007Y-77050535D01*
X153910250Y-77049000D01*
X154547750Y-77049000D01*
X154578993Y-77050535D01*
X154578993Y-77050535D01*
G37*
D11*
X154229000Y-77724000D03*
D10*
G36*
X153003993Y-77050535D02*
X153034935Y-77055125D01*
X153065278Y-77062725D01*
X153094730Y-77073263D01*
X153123008Y-77086638D01*
X153149838Y-77102719D01*
X153174963Y-77121353D01*
X153198140Y-77142360D01*
X153219147Y-77165537D01*
X153237781Y-77190662D01*
X153253862Y-77217492D01*
X153267237Y-77245770D01*
X153277775Y-77275222D01*
X153285375Y-77305565D01*
X153289965Y-77336507D01*
X153291500Y-77367750D01*
X153291500Y-78080250D01*
X153289965Y-78111493D01*
X153285375Y-78142435D01*
X153277775Y-78172778D01*
X153267237Y-78202230D01*
X153253862Y-78230508D01*
X153237781Y-78257338D01*
X153219147Y-78282463D01*
X153198140Y-78305640D01*
X153174963Y-78326647D01*
X153149838Y-78345281D01*
X153123008Y-78361362D01*
X153094730Y-78374737D01*
X153065278Y-78385275D01*
X153034935Y-78392875D01*
X153003993Y-78397465D01*
X152972750Y-78399000D01*
X152335250Y-78399000D01*
X152304007Y-78397465D01*
X152273065Y-78392875D01*
X152242722Y-78385275D01*
X152213270Y-78374737D01*
X152184992Y-78361362D01*
X152158162Y-78345281D01*
X152133037Y-78326647D01*
X152109860Y-78305640D01*
X152088853Y-78282463D01*
X152070219Y-78257338D01*
X152054138Y-78230508D01*
X152040763Y-78202230D01*
X152030225Y-78172778D01*
X152022625Y-78142435D01*
X152018035Y-78111493D01*
X152016500Y-78080250D01*
X152016500Y-77367750D01*
X152018035Y-77336507D01*
X152022625Y-77305565D01*
X152030225Y-77275222D01*
X152040763Y-77245770D01*
X152054138Y-77217492D01*
X152070219Y-77190662D01*
X152088853Y-77165537D01*
X152109860Y-77142360D01*
X152133037Y-77121353D01*
X152158162Y-77102719D01*
X152184992Y-77086638D01*
X152213270Y-77073263D01*
X152242722Y-77062725D01*
X152273065Y-77055125D01*
X152304007Y-77050535D01*
X152335250Y-77049000D01*
X152972750Y-77049000D01*
X153003993Y-77050535D01*
X153003993Y-77050535D01*
G37*
D11*
X152654000Y-77724000D03*
G04 #@! TD*
D10*
G04 #@! TO.C,R3*
G36*
X127641493Y-89534035D02*
X127672435Y-89538625D01*
X127702778Y-89546225D01*
X127732230Y-89556763D01*
X127760508Y-89570138D01*
X127787338Y-89586219D01*
X127812463Y-89604853D01*
X127835640Y-89625860D01*
X127856647Y-89649037D01*
X127875281Y-89674162D01*
X127891362Y-89700992D01*
X127904737Y-89729270D01*
X127915275Y-89758722D01*
X127922875Y-89789065D01*
X127927465Y-89820007D01*
X127929000Y-89851250D01*
X127929000Y-90488750D01*
X127927465Y-90519993D01*
X127922875Y-90550935D01*
X127915275Y-90581278D01*
X127904737Y-90610730D01*
X127891362Y-90639008D01*
X127875281Y-90665838D01*
X127856647Y-90690963D01*
X127835640Y-90714140D01*
X127812463Y-90735147D01*
X127787338Y-90753781D01*
X127760508Y-90769862D01*
X127732230Y-90783237D01*
X127702778Y-90793775D01*
X127672435Y-90801375D01*
X127641493Y-90805965D01*
X127610250Y-90807500D01*
X126897750Y-90807500D01*
X126866507Y-90805965D01*
X126835565Y-90801375D01*
X126805222Y-90793775D01*
X126775770Y-90783237D01*
X126747492Y-90769862D01*
X126720662Y-90753781D01*
X126695537Y-90735147D01*
X126672360Y-90714140D01*
X126651353Y-90690963D01*
X126632719Y-90665838D01*
X126616638Y-90639008D01*
X126603263Y-90610730D01*
X126592725Y-90581278D01*
X126585125Y-90550935D01*
X126580535Y-90519993D01*
X126579000Y-90488750D01*
X126579000Y-89851250D01*
X126580535Y-89820007D01*
X126585125Y-89789065D01*
X126592725Y-89758722D01*
X126603263Y-89729270D01*
X126616638Y-89700992D01*
X126632719Y-89674162D01*
X126651353Y-89649037D01*
X126672360Y-89625860D01*
X126695537Y-89604853D01*
X126720662Y-89586219D01*
X126747492Y-89570138D01*
X126775770Y-89556763D01*
X126805222Y-89546225D01*
X126835565Y-89538625D01*
X126866507Y-89534035D01*
X126897750Y-89532500D01*
X127610250Y-89532500D01*
X127641493Y-89534035D01*
X127641493Y-89534035D01*
G37*
D11*
X127254000Y-90170000D03*
D10*
G36*
X127641493Y-91109035D02*
X127672435Y-91113625D01*
X127702778Y-91121225D01*
X127732230Y-91131763D01*
X127760508Y-91145138D01*
X127787338Y-91161219D01*
X127812463Y-91179853D01*
X127835640Y-91200860D01*
X127856647Y-91224037D01*
X127875281Y-91249162D01*
X127891362Y-91275992D01*
X127904737Y-91304270D01*
X127915275Y-91333722D01*
X127922875Y-91364065D01*
X127927465Y-91395007D01*
X127929000Y-91426250D01*
X127929000Y-92063750D01*
X127927465Y-92094993D01*
X127922875Y-92125935D01*
X127915275Y-92156278D01*
X127904737Y-92185730D01*
X127891362Y-92214008D01*
X127875281Y-92240838D01*
X127856647Y-92265963D01*
X127835640Y-92289140D01*
X127812463Y-92310147D01*
X127787338Y-92328781D01*
X127760508Y-92344862D01*
X127732230Y-92358237D01*
X127702778Y-92368775D01*
X127672435Y-92376375D01*
X127641493Y-92380965D01*
X127610250Y-92382500D01*
X126897750Y-92382500D01*
X126866507Y-92380965D01*
X126835565Y-92376375D01*
X126805222Y-92368775D01*
X126775770Y-92358237D01*
X126747492Y-92344862D01*
X126720662Y-92328781D01*
X126695537Y-92310147D01*
X126672360Y-92289140D01*
X126651353Y-92265963D01*
X126632719Y-92240838D01*
X126616638Y-92214008D01*
X126603263Y-92185730D01*
X126592725Y-92156278D01*
X126585125Y-92125935D01*
X126580535Y-92094993D01*
X126579000Y-92063750D01*
X126579000Y-91426250D01*
X126580535Y-91395007D01*
X126585125Y-91364065D01*
X126592725Y-91333722D01*
X126603263Y-91304270D01*
X126616638Y-91275992D01*
X126632719Y-91249162D01*
X126651353Y-91224037D01*
X126672360Y-91200860D01*
X126695537Y-91179853D01*
X126720662Y-91161219D01*
X126747492Y-91145138D01*
X126775770Y-91131763D01*
X126805222Y-91121225D01*
X126835565Y-91113625D01*
X126866507Y-91109035D01*
X126897750Y-91107500D01*
X127610250Y-91107500D01*
X127641493Y-91109035D01*
X127641493Y-91109035D01*
G37*
D11*
X127254000Y-91745000D03*
G04 #@! TD*
D10*
G04 #@! TO.C,R5*
G36*
X140837493Y-72224535D02*
X140868435Y-72229125D01*
X140898778Y-72236725D01*
X140928230Y-72247263D01*
X140956508Y-72260638D01*
X140983338Y-72276719D01*
X141008463Y-72295353D01*
X141031640Y-72316360D01*
X141052647Y-72339537D01*
X141071281Y-72364662D01*
X141087362Y-72391492D01*
X141100737Y-72419770D01*
X141111275Y-72449222D01*
X141118875Y-72479565D01*
X141123465Y-72510507D01*
X141125000Y-72541750D01*
X141125000Y-73254250D01*
X141123465Y-73285493D01*
X141118875Y-73316435D01*
X141111275Y-73346778D01*
X141100737Y-73376230D01*
X141087362Y-73404508D01*
X141071281Y-73431338D01*
X141052647Y-73456463D01*
X141031640Y-73479640D01*
X141008463Y-73500647D01*
X140983338Y-73519281D01*
X140956508Y-73535362D01*
X140928230Y-73548737D01*
X140898778Y-73559275D01*
X140868435Y-73566875D01*
X140837493Y-73571465D01*
X140806250Y-73573000D01*
X140168750Y-73573000D01*
X140137507Y-73571465D01*
X140106565Y-73566875D01*
X140076222Y-73559275D01*
X140046770Y-73548737D01*
X140018492Y-73535362D01*
X139991662Y-73519281D01*
X139966537Y-73500647D01*
X139943360Y-73479640D01*
X139922353Y-73456463D01*
X139903719Y-73431338D01*
X139887638Y-73404508D01*
X139874263Y-73376230D01*
X139863725Y-73346778D01*
X139856125Y-73316435D01*
X139851535Y-73285493D01*
X139850000Y-73254250D01*
X139850000Y-72541750D01*
X139851535Y-72510507D01*
X139856125Y-72479565D01*
X139863725Y-72449222D01*
X139874263Y-72419770D01*
X139887638Y-72391492D01*
X139903719Y-72364662D01*
X139922353Y-72339537D01*
X139943360Y-72316360D01*
X139966537Y-72295353D01*
X139991662Y-72276719D01*
X140018492Y-72260638D01*
X140046770Y-72247263D01*
X140076222Y-72236725D01*
X140106565Y-72229125D01*
X140137507Y-72224535D01*
X140168750Y-72223000D01*
X140806250Y-72223000D01*
X140837493Y-72224535D01*
X140837493Y-72224535D01*
G37*
D11*
X140487500Y-72898000D03*
D10*
G36*
X139262493Y-72224535D02*
X139293435Y-72229125D01*
X139323778Y-72236725D01*
X139353230Y-72247263D01*
X139381508Y-72260638D01*
X139408338Y-72276719D01*
X139433463Y-72295353D01*
X139456640Y-72316360D01*
X139477647Y-72339537D01*
X139496281Y-72364662D01*
X139512362Y-72391492D01*
X139525737Y-72419770D01*
X139536275Y-72449222D01*
X139543875Y-72479565D01*
X139548465Y-72510507D01*
X139550000Y-72541750D01*
X139550000Y-73254250D01*
X139548465Y-73285493D01*
X139543875Y-73316435D01*
X139536275Y-73346778D01*
X139525737Y-73376230D01*
X139512362Y-73404508D01*
X139496281Y-73431338D01*
X139477647Y-73456463D01*
X139456640Y-73479640D01*
X139433463Y-73500647D01*
X139408338Y-73519281D01*
X139381508Y-73535362D01*
X139353230Y-73548737D01*
X139323778Y-73559275D01*
X139293435Y-73566875D01*
X139262493Y-73571465D01*
X139231250Y-73573000D01*
X138593750Y-73573000D01*
X138562507Y-73571465D01*
X138531565Y-73566875D01*
X138501222Y-73559275D01*
X138471770Y-73548737D01*
X138443492Y-73535362D01*
X138416662Y-73519281D01*
X138391537Y-73500647D01*
X138368360Y-73479640D01*
X138347353Y-73456463D01*
X138328719Y-73431338D01*
X138312638Y-73404508D01*
X138299263Y-73376230D01*
X138288725Y-73346778D01*
X138281125Y-73316435D01*
X138276535Y-73285493D01*
X138275000Y-73254250D01*
X138275000Y-72541750D01*
X138276535Y-72510507D01*
X138281125Y-72479565D01*
X138288725Y-72449222D01*
X138299263Y-72419770D01*
X138312638Y-72391492D01*
X138328719Y-72364662D01*
X138347353Y-72339537D01*
X138368360Y-72316360D01*
X138391537Y-72295353D01*
X138416662Y-72276719D01*
X138443492Y-72260638D01*
X138471770Y-72247263D01*
X138501222Y-72236725D01*
X138531565Y-72229125D01*
X138562507Y-72224535D01*
X138593750Y-72223000D01*
X139231250Y-72223000D01*
X139262493Y-72224535D01*
X139262493Y-72224535D01*
G37*
D11*
X138912500Y-72898000D03*
G04 #@! TD*
D10*
G04 #@! TO.C,R6*
G36*
X140837493Y-74002535D02*
X140868435Y-74007125D01*
X140898778Y-74014725D01*
X140928230Y-74025263D01*
X140956508Y-74038638D01*
X140983338Y-74054719D01*
X141008463Y-74073353D01*
X141031640Y-74094360D01*
X141052647Y-74117537D01*
X141071281Y-74142662D01*
X141087362Y-74169492D01*
X141100737Y-74197770D01*
X141111275Y-74227222D01*
X141118875Y-74257565D01*
X141123465Y-74288507D01*
X141125000Y-74319750D01*
X141125000Y-75032250D01*
X141123465Y-75063493D01*
X141118875Y-75094435D01*
X141111275Y-75124778D01*
X141100737Y-75154230D01*
X141087362Y-75182508D01*
X141071281Y-75209338D01*
X141052647Y-75234463D01*
X141031640Y-75257640D01*
X141008463Y-75278647D01*
X140983338Y-75297281D01*
X140956508Y-75313362D01*
X140928230Y-75326737D01*
X140898778Y-75337275D01*
X140868435Y-75344875D01*
X140837493Y-75349465D01*
X140806250Y-75351000D01*
X140168750Y-75351000D01*
X140137507Y-75349465D01*
X140106565Y-75344875D01*
X140076222Y-75337275D01*
X140046770Y-75326737D01*
X140018492Y-75313362D01*
X139991662Y-75297281D01*
X139966537Y-75278647D01*
X139943360Y-75257640D01*
X139922353Y-75234463D01*
X139903719Y-75209338D01*
X139887638Y-75182508D01*
X139874263Y-75154230D01*
X139863725Y-75124778D01*
X139856125Y-75094435D01*
X139851535Y-75063493D01*
X139850000Y-75032250D01*
X139850000Y-74319750D01*
X139851535Y-74288507D01*
X139856125Y-74257565D01*
X139863725Y-74227222D01*
X139874263Y-74197770D01*
X139887638Y-74169492D01*
X139903719Y-74142662D01*
X139922353Y-74117537D01*
X139943360Y-74094360D01*
X139966537Y-74073353D01*
X139991662Y-74054719D01*
X140018492Y-74038638D01*
X140046770Y-74025263D01*
X140076222Y-74014725D01*
X140106565Y-74007125D01*
X140137507Y-74002535D01*
X140168750Y-74001000D01*
X140806250Y-74001000D01*
X140837493Y-74002535D01*
X140837493Y-74002535D01*
G37*
D11*
X140487500Y-74676000D03*
D10*
G36*
X139262493Y-74002535D02*
X139293435Y-74007125D01*
X139323778Y-74014725D01*
X139353230Y-74025263D01*
X139381508Y-74038638D01*
X139408338Y-74054719D01*
X139433463Y-74073353D01*
X139456640Y-74094360D01*
X139477647Y-74117537D01*
X139496281Y-74142662D01*
X139512362Y-74169492D01*
X139525737Y-74197770D01*
X139536275Y-74227222D01*
X139543875Y-74257565D01*
X139548465Y-74288507D01*
X139550000Y-74319750D01*
X139550000Y-75032250D01*
X139548465Y-75063493D01*
X139543875Y-75094435D01*
X139536275Y-75124778D01*
X139525737Y-75154230D01*
X139512362Y-75182508D01*
X139496281Y-75209338D01*
X139477647Y-75234463D01*
X139456640Y-75257640D01*
X139433463Y-75278647D01*
X139408338Y-75297281D01*
X139381508Y-75313362D01*
X139353230Y-75326737D01*
X139323778Y-75337275D01*
X139293435Y-75344875D01*
X139262493Y-75349465D01*
X139231250Y-75351000D01*
X138593750Y-75351000D01*
X138562507Y-75349465D01*
X138531565Y-75344875D01*
X138501222Y-75337275D01*
X138471770Y-75326737D01*
X138443492Y-75313362D01*
X138416662Y-75297281D01*
X138391537Y-75278647D01*
X138368360Y-75257640D01*
X138347353Y-75234463D01*
X138328719Y-75209338D01*
X138312638Y-75182508D01*
X138299263Y-75154230D01*
X138288725Y-75124778D01*
X138281125Y-75094435D01*
X138276535Y-75063493D01*
X138275000Y-75032250D01*
X138275000Y-74319750D01*
X138276535Y-74288507D01*
X138281125Y-74257565D01*
X138288725Y-74227222D01*
X138299263Y-74197770D01*
X138312638Y-74169492D01*
X138328719Y-74142662D01*
X138347353Y-74117537D01*
X138368360Y-74094360D01*
X138391537Y-74073353D01*
X138416662Y-74054719D01*
X138443492Y-74038638D01*
X138471770Y-74025263D01*
X138501222Y-74014725D01*
X138531565Y-74007125D01*
X138562507Y-74002535D01*
X138593750Y-74001000D01*
X139231250Y-74001000D01*
X139262493Y-74002535D01*
X139262493Y-74002535D01*
G37*
D11*
X138912500Y-74676000D03*
G04 #@! TD*
D10*
G04 #@! TO.C,R7*
G36*
X139262493Y-70446535D02*
X139293435Y-70451125D01*
X139323778Y-70458725D01*
X139353230Y-70469263D01*
X139381508Y-70482638D01*
X139408338Y-70498719D01*
X139433463Y-70517353D01*
X139456640Y-70538360D01*
X139477647Y-70561537D01*
X139496281Y-70586662D01*
X139512362Y-70613492D01*
X139525737Y-70641770D01*
X139536275Y-70671222D01*
X139543875Y-70701565D01*
X139548465Y-70732507D01*
X139550000Y-70763750D01*
X139550000Y-71476250D01*
X139548465Y-71507493D01*
X139543875Y-71538435D01*
X139536275Y-71568778D01*
X139525737Y-71598230D01*
X139512362Y-71626508D01*
X139496281Y-71653338D01*
X139477647Y-71678463D01*
X139456640Y-71701640D01*
X139433463Y-71722647D01*
X139408338Y-71741281D01*
X139381508Y-71757362D01*
X139353230Y-71770737D01*
X139323778Y-71781275D01*
X139293435Y-71788875D01*
X139262493Y-71793465D01*
X139231250Y-71795000D01*
X138593750Y-71795000D01*
X138562507Y-71793465D01*
X138531565Y-71788875D01*
X138501222Y-71781275D01*
X138471770Y-71770737D01*
X138443492Y-71757362D01*
X138416662Y-71741281D01*
X138391537Y-71722647D01*
X138368360Y-71701640D01*
X138347353Y-71678463D01*
X138328719Y-71653338D01*
X138312638Y-71626508D01*
X138299263Y-71598230D01*
X138288725Y-71568778D01*
X138281125Y-71538435D01*
X138276535Y-71507493D01*
X138275000Y-71476250D01*
X138275000Y-70763750D01*
X138276535Y-70732507D01*
X138281125Y-70701565D01*
X138288725Y-70671222D01*
X138299263Y-70641770D01*
X138312638Y-70613492D01*
X138328719Y-70586662D01*
X138347353Y-70561537D01*
X138368360Y-70538360D01*
X138391537Y-70517353D01*
X138416662Y-70498719D01*
X138443492Y-70482638D01*
X138471770Y-70469263D01*
X138501222Y-70458725D01*
X138531565Y-70451125D01*
X138562507Y-70446535D01*
X138593750Y-70445000D01*
X139231250Y-70445000D01*
X139262493Y-70446535D01*
X139262493Y-70446535D01*
G37*
D11*
X138912500Y-71120000D03*
D10*
G36*
X140837493Y-70446535D02*
X140868435Y-70451125D01*
X140898778Y-70458725D01*
X140928230Y-70469263D01*
X140956508Y-70482638D01*
X140983338Y-70498719D01*
X141008463Y-70517353D01*
X141031640Y-70538360D01*
X141052647Y-70561537D01*
X141071281Y-70586662D01*
X141087362Y-70613492D01*
X141100737Y-70641770D01*
X141111275Y-70671222D01*
X141118875Y-70701565D01*
X141123465Y-70732507D01*
X141125000Y-70763750D01*
X141125000Y-71476250D01*
X141123465Y-71507493D01*
X141118875Y-71538435D01*
X141111275Y-71568778D01*
X141100737Y-71598230D01*
X141087362Y-71626508D01*
X141071281Y-71653338D01*
X141052647Y-71678463D01*
X141031640Y-71701640D01*
X141008463Y-71722647D01*
X140983338Y-71741281D01*
X140956508Y-71757362D01*
X140928230Y-71770737D01*
X140898778Y-71781275D01*
X140868435Y-71788875D01*
X140837493Y-71793465D01*
X140806250Y-71795000D01*
X140168750Y-71795000D01*
X140137507Y-71793465D01*
X140106565Y-71788875D01*
X140076222Y-71781275D01*
X140046770Y-71770737D01*
X140018492Y-71757362D01*
X139991662Y-71741281D01*
X139966537Y-71722647D01*
X139943360Y-71701640D01*
X139922353Y-71678463D01*
X139903719Y-71653338D01*
X139887638Y-71626508D01*
X139874263Y-71598230D01*
X139863725Y-71568778D01*
X139856125Y-71538435D01*
X139851535Y-71507493D01*
X139850000Y-71476250D01*
X139850000Y-70763750D01*
X139851535Y-70732507D01*
X139856125Y-70701565D01*
X139863725Y-70671222D01*
X139874263Y-70641770D01*
X139887638Y-70613492D01*
X139903719Y-70586662D01*
X139922353Y-70561537D01*
X139943360Y-70538360D01*
X139966537Y-70517353D01*
X139991662Y-70498719D01*
X140018492Y-70482638D01*
X140046770Y-70469263D01*
X140076222Y-70458725D01*
X140106565Y-70451125D01*
X140137507Y-70446535D01*
X140168750Y-70445000D01*
X140806250Y-70445000D01*
X140837493Y-70446535D01*
X140837493Y-70446535D01*
G37*
D11*
X140487500Y-71120000D03*
G04 #@! TD*
D17*
G04 #@! TO.C,U1*
X124280000Y-74136000D03*
X124280000Y-74636000D03*
X124280000Y-75136000D03*
X124280000Y-75636000D03*
D18*
X125230000Y-76086000D03*
X126230000Y-76086000D03*
X125730000Y-76086000D03*
X125230000Y-73686000D03*
X126230000Y-73686000D03*
X125730000Y-73686000D03*
D17*
X127180000Y-74136000D03*
X127180000Y-74636000D03*
X127180000Y-75136000D03*
X127180000Y-75636000D03*
G04 #@! TD*
D19*
G04 #@! TO.C,U2*
X159396000Y-90932000D03*
X158496000Y-90932000D03*
D20*
X157246000Y-89882000D03*
X157746000Y-89882000D03*
X158246000Y-89882000D03*
X158746000Y-89882000D03*
X159246000Y-89882000D03*
X159746000Y-89882000D03*
X159746000Y-91982000D03*
X159246000Y-91982000D03*
X158746000Y-91982000D03*
X158246000Y-91982000D03*
X157746000Y-91982000D03*
X157246000Y-91982000D03*
D19*
X157596000Y-90932000D03*
G04 #@! TD*
D10*
G04 #@! TO.C,C10*
G36*
X156597493Y-78612035D02*
X156628435Y-78616625D01*
X156658778Y-78624225D01*
X156688230Y-78634763D01*
X156716508Y-78648138D01*
X156743338Y-78664219D01*
X156768463Y-78682853D01*
X156791640Y-78703860D01*
X156812647Y-78727037D01*
X156831281Y-78752162D01*
X156847362Y-78778992D01*
X156860737Y-78807270D01*
X156871275Y-78836722D01*
X156878875Y-78867065D01*
X156883465Y-78898007D01*
X156885000Y-78929250D01*
X156885000Y-79566750D01*
X156883465Y-79597993D01*
X156878875Y-79628935D01*
X156871275Y-79659278D01*
X156860737Y-79688730D01*
X156847362Y-79717008D01*
X156831281Y-79743838D01*
X156812647Y-79768963D01*
X156791640Y-79792140D01*
X156768463Y-79813147D01*
X156743338Y-79831781D01*
X156716508Y-79847862D01*
X156688230Y-79861237D01*
X156658778Y-79871775D01*
X156628435Y-79879375D01*
X156597493Y-79883965D01*
X156566250Y-79885500D01*
X155853750Y-79885500D01*
X155822507Y-79883965D01*
X155791565Y-79879375D01*
X155761222Y-79871775D01*
X155731770Y-79861237D01*
X155703492Y-79847862D01*
X155676662Y-79831781D01*
X155651537Y-79813147D01*
X155628360Y-79792140D01*
X155607353Y-79768963D01*
X155588719Y-79743838D01*
X155572638Y-79717008D01*
X155559263Y-79688730D01*
X155548725Y-79659278D01*
X155541125Y-79628935D01*
X155536535Y-79597993D01*
X155535000Y-79566750D01*
X155535000Y-78929250D01*
X155536535Y-78898007D01*
X155541125Y-78867065D01*
X155548725Y-78836722D01*
X155559263Y-78807270D01*
X155572638Y-78778992D01*
X155588719Y-78752162D01*
X155607353Y-78727037D01*
X155628360Y-78703860D01*
X155651537Y-78682853D01*
X155676662Y-78664219D01*
X155703492Y-78648138D01*
X155731770Y-78634763D01*
X155761222Y-78624225D01*
X155791565Y-78616625D01*
X155822507Y-78612035D01*
X155853750Y-78610500D01*
X156566250Y-78610500D01*
X156597493Y-78612035D01*
X156597493Y-78612035D01*
G37*
D11*
X156210000Y-79248000D03*
D10*
G36*
X156597493Y-77037035D02*
X156628435Y-77041625D01*
X156658778Y-77049225D01*
X156688230Y-77059763D01*
X156716508Y-77073138D01*
X156743338Y-77089219D01*
X156768463Y-77107853D01*
X156791640Y-77128860D01*
X156812647Y-77152037D01*
X156831281Y-77177162D01*
X156847362Y-77203992D01*
X156860737Y-77232270D01*
X156871275Y-77261722D01*
X156878875Y-77292065D01*
X156883465Y-77323007D01*
X156885000Y-77354250D01*
X156885000Y-77991750D01*
X156883465Y-78022993D01*
X156878875Y-78053935D01*
X156871275Y-78084278D01*
X156860737Y-78113730D01*
X156847362Y-78142008D01*
X156831281Y-78168838D01*
X156812647Y-78193963D01*
X156791640Y-78217140D01*
X156768463Y-78238147D01*
X156743338Y-78256781D01*
X156716508Y-78272862D01*
X156688230Y-78286237D01*
X156658778Y-78296775D01*
X156628435Y-78304375D01*
X156597493Y-78308965D01*
X156566250Y-78310500D01*
X155853750Y-78310500D01*
X155822507Y-78308965D01*
X155791565Y-78304375D01*
X155761222Y-78296775D01*
X155731770Y-78286237D01*
X155703492Y-78272862D01*
X155676662Y-78256781D01*
X155651537Y-78238147D01*
X155628360Y-78217140D01*
X155607353Y-78193963D01*
X155588719Y-78168838D01*
X155572638Y-78142008D01*
X155559263Y-78113730D01*
X155548725Y-78084278D01*
X155541125Y-78053935D01*
X155536535Y-78022993D01*
X155535000Y-77991750D01*
X155535000Y-77354250D01*
X155536535Y-77323007D01*
X155541125Y-77292065D01*
X155548725Y-77261722D01*
X155559263Y-77232270D01*
X155572638Y-77203992D01*
X155588719Y-77177162D01*
X155607353Y-77152037D01*
X155628360Y-77128860D01*
X155651537Y-77107853D01*
X155676662Y-77089219D01*
X155703492Y-77073138D01*
X155731770Y-77059763D01*
X155761222Y-77049225D01*
X155791565Y-77041625D01*
X155822507Y-77037035D01*
X155853750Y-77035500D01*
X156566250Y-77035500D01*
X156597493Y-77037035D01*
X156597493Y-77037035D01*
G37*
D11*
X156210000Y-77673000D03*
G04 #@! TD*
D21*
G04 #@! TO.C,U4*
X149098000Y-75692000D03*
X149098000Y-60452000D03*
X158242000Y-60452000D03*
X158242000Y-75692000D03*
G04 #@! TD*
D22*
G04 #@! TO.C,REF\002A\002A*
X118500000Y-106000000D03*
G04 #@! TD*
G04 #@! TO.C,REF\002A\002A*
X164000000Y-106000000D03*
G04 #@! TD*
G04 #@! TO.C,REF\002A\002A*
X164000000Y-55000000D03*
G04 #@! TD*
G04 #@! TO.C,REF\002A\002A*
X118500000Y-55000000D03*
G04 #@! TD*
D23*
G04 #@! TO.C,U3*
X145288000Y-90678000D03*
X142748000Y-90678000D03*
X145288000Y-88138000D03*
X142748000Y-88138000D03*
X145288000Y-85598000D03*
X142748000Y-85598000D03*
X145288000Y-83058000D03*
X142748000Y-83058000D03*
X145288000Y-80518000D03*
X142748000Y-80518000D03*
X145288000Y-77978000D03*
X142748000Y-77978000D03*
X145288000Y-75438000D03*
X142748000Y-75438000D03*
X145288000Y-72898000D03*
X142748000Y-72898000D03*
X145288000Y-70358000D03*
X142748000Y-70358000D03*
X145288000Y-67818000D03*
X142748000Y-67818000D03*
X119888000Y-90678000D03*
X117348000Y-90678000D03*
X119888000Y-88138000D03*
X117348000Y-88138000D03*
X119888000Y-85598000D03*
X117348000Y-85598000D03*
X119888000Y-83058000D03*
X117348000Y-83058000D03*
X119888000Y-80518000D03*
X117348000Y-80518000D03*
X119888000Y-77978000D03*
X117348000Y-77978000D03*
X119888000Y-75438000D03*
X117348000Y-75438000D03*
X119888000Y-72898000D03*
X117348000Y-72898000D03*
X119888000Y-70358000D03*
X117348000Y-70358000D03*
X119888000Y-67818000D03*
D24*
X117348000Y-67818000D03*
G04 #@! TD*
M02*
