G04 #@! TF.GenerationSoftware,KiCad,Pcbnew,5.0.0-fee4fd1~66~ubuntu16.04.1*
G04 #@! TF.CreationDate,2018-10-27T16:37:25+02:00*
G04 #@! TF.ProjectId,balancebot,62616C616E6365626F742E6B69636164,rev?*
G04 #@! TF.SameCoordinates,Original*
G04 #@! TF.FileFunction,Paste,Top*
G04 #@! TF.FilePolarity,Positive*
%FSLAX46Y46*%
G04 Gerber Fmt 4.6, Leading zero omitted, Abs format (unit mm)*
G04 Created by KiCad (PCBNEW 5.0.0-fee4fd1~66~ubuntu16.04.1) date Sat Oct 27 16:37:25 2018*
%MOMM*%
%LPD*%
G01*
G04 APERTURE LIST*
%ADD10C,0.100000*%
%ADD11C,0.875000*%
%ADD12R,2.500000X3.500000*%
%ADD13R,1.000000X0.250000*%
%ADD14R,0.250000X1.000000*%
%ADD15R,0.250000X0.800000*%
G04 APERTURE END LIST*
D10*
G04 #@! TO.C,R4*
G36*
X139178191Y-75980053D02*
X139199426Y-75983203D01*
X139220250Y-75988419D01*
X139240462Y-75995651D01*
X139259868Y-76004830D01*
X139278281Y-76015866D01*
X139295524Y-76028654D01*
X139311430Y-76043070D01*
X139325846Y-76058976D01*
X139338634Y-76076219D01*
X139349670Y-76094632D01*
X139358849Y-76114038D01*
X139366081Y-76134250D01*
X139371297Y-76155074D01*
X139374447Y-76176309D01*
X139375500Y-76197750D01*
X139375500Y-76710250D01*
X139374447Y-76731691D01*
X139371297Y-76752926D01*
X139366081Y-76773750D01*
X139358849Y-76793962D01*
X139349670Y-76813368D01*
X139338634Y-76831781D01*
X139325846Y-76849024D01*
X139311430Y-76864930D01*
X139295524Y-76879346D01*
X139278281Y-76892134D01*
X139259868Y-76903170D01*
X139240462Y-76912349D01*
X139220250Y-76919581D01*
X139199426Y-76924797D01*
X139178191Y-76927947D01*
X139156750Y-76929000D01*
X138719250Y-76929000D01*
X138697809Y-76927947D01*
X138676574Y-76924797D01*
X138655750Y-76919581D01*
X138635538Y-76912349D01*
X138616132Y-76903170D01*
X138597719Y-76892134D01*
X138580476Y-76879346D01*
X138564570Y-76864930D01*
X138550154Y-76849024D01*
X138537366Y-76831781D01*
X138526330Y-76813368D01*
X138517151Y-76793962D01*
X138509919Y-76773750D01*
X138504703Y-76752926D01*
X138501553Y-76731691D01*
X138500500Y-76710250D01*
X138500500Y-76197750D01*
X138501553Y-76176309D01*
X138504703Y-76155074D01*
X138509919Y-76134250D01*
X138517151Y-76114038D01*
X138526330Y-76094632D01*
X138537366Y-76076219D01*
X138550154Y-76058976D01*
X138564570Y-76043070D01*
X138580476Y-76028654D01*
X138597719Y-76015866D01*
X138616132Y-76004830D01*
X138635538Y-75995651D01*
X138655750Y-75988419D01*
X138676574Y-75983203D01*
X138697809Y-75980053D01*
X138719250Y-75979000D01*
X139156750Y-75979000D01*
X139178191Y-75980053D01*
X139178191Y-75980053D01*
G37*
D11*
X138938000Y-76454000D03*
D10*
G36*
X140753191Y-75980053D02*
X140774426Y-75983203D01*
X140795250Y-75988419D01*
X140815462Y-75995651D01*
X140834868Y-76004830D01*
X140853281Y-76015866D01*
X140870524Y-76028654D01*
X140886430Y-76043070D01*
X140900846Y-76058976D01*
X140913634Y-76076219D01*
X140924670Y-76094632D01*
X140933849Y-76114038D01*
X140941081Y-76134250D01*
X140946297Y-76155074D01*
X140949447Y-76176309D01*
X140950500Y-76197750D01*
X140950500Y-76710250D01*
X140949447Y-76731691D01*
X140946297Y-76752926D01*
X140941081Y-76773750D01*
X140933849Y-76793962D01*
X140924670Y-76813368D01*
X140913634Y-76831781D01*
X140900846Y-76849024D01*
X140886430Y-76864930D01*
X140870524Y-76879346D01*
X140853281Y-76892134D01*
X140834868Y-76903170D01*
X140815462Y-76912349D01*
X140795250Y-76919581D01*
X140774426Y-76924797D01*
X140753191Y-76927947D01*
X140731750Y-76929000D01*
X140294250Y-76929000D01*
X140272809Y-76927947D01*
X140251574Y-76924797D01*
X140230750Y-76919581D01*
X140210538Y-76912349D01*
X140191132Y-76903170D01*
X140172719Y-76892134D01*
X140155476Y-76879346D01*
X140139570Y-76864930D01*
X140125154Y-76849024D01*
X140112366Y-76831781D01*
X140101330Y-76813368D01*
X140092151Y-76793962D01*
X140084919Y-76773750D01*
X140079703Y-76752926D01*
X140076553Y-76731691D01*
X140075500Y-76710250D01*
X140075500Y-76197750D01*
X140076553Y-76176309D01*
X140079703Y-76155074D01*
X140084919Y-76134250D01*
X140092151Y-76114038D01*
X140101330Y-76094632D01*
X140112366Y-76076219D01*
X140125154Y-76058976D01*
X140139570Y-76043070D01*
X140155476Y-76028654D01*
X140172719Y-76015866D01*
X140191132Y-76004830D01*
X140210538Y-75995651D01*
X140230750Y-75988419D01*
X140251574Y-75983203D01*
X140272809Y-75980053D01*
X140294250Y-75979000D01*
X140731750Y-75979000D01*
X140753191Y-75980053D01*
X140753191Y-75980053D01*
G37*
D11*
X140513000Y-76454000D03*
G04 #@! TD*
D12*
G04 #@! TO.C,C1*
X162052000Y-85292000D03*
X162052000Y-78792000D03*
G04 #@! TD*
D10*
G04 #@! TO.C,C2*
G36*
X165899191Y-88172053D02*
X165920426Y-88175203D01*
X165941250Y-88180419D01*
X165961462Y-88187651D01*
X165980868Y-88196830D01*
X165999281Y-88207866D01*
X166016524Y-88220654D01*
X166032430Y-88235070D01*
X166046846Y-88250976D01*
X166059634Y-88268219D01*
X166070670Y-88286632D01*
X166079849Y-88306038D01*
X166087081Y-88326250D01*
X166092297Y-88347074D01*
X166095447Y-88368309D01*
X166096500Y-88389750D01*
X166096500Y-88902250D01*
X166095447Y-88923691D01*
X166092297Y-88944926D01*
X166087081Y-88965750D01*
X166079849Y-88985962D01*
X166070670Y-89005368D01*
X166059634Y-89023781D01*
X166046846Y-89041024D01*
X166032430Y-89056930D01*
X166016524Y-89071346D01*
X165999281Y-89084134D01*
X165980868Y-89095170D01*
X165961462Y-89104349D01*
X165941250Y-89111581D01*
X165920426Y-89116797D01*
X165899191Y-89119947D01*
X165877750Y-89121000D01*
X165440250Y-89121000D01*
X165418809Y-89119947D01*
X165397574Y-89116797D01*
X165376750Y-89111581D01*
X165356538Y-89104349D01*
X165337132Y-89095170D01*
X165318719Y-89084134D01*
X165301476Y-89071346D01*
X165285570Y-89056930D01*
X165271154Y-89041024D01*
X165258366Y-89023781D01*
X165247330Y-89005368D01*
X165238151Y-88985962D01*
X165230919Y-88965750D01*
X165225703Y-88944926D01*
X165222553Y-88923691D01*
X165221500Y-88902250D01*
X165221500Y-88389750D01*
X165222553Y-88368309D01*
X165225703Y-88347074D01*
X165230919Y-88326250D01*
X165238151Y-88306038D01*
X165247330Y-88286632D01*
X165258366Y-88268219D01*
X165271154Y-88250976D01*
X165285570Y-88235070D01*
X165301476Y-88220654D01*
X165318719Y-88207866D01*
X165337132Y-88196830D01*
X165356538Y-88187651D01*
X165376750Y-88180419D01*
X165397574Y-88175203D01*
X165418809Y-88172053D01*
X165440250Y-88171000D01*
X165877750Y-88171000D01*
X165899191Y-88172053D01*
X165899191Y-88172053D01*
G37*
D11*
X165659000Y-88646000D03*
D10*
G36*
X164324191Y-88172053D02*
X164345426Y-88175203D01*
X164366250Y-88180419D01*
X164386462Y-88187651D01*
X164405868Y-88196830D01*
X164424281Y-88207866D01*
X164441524Y-88220654D01*
X164457430Y-88235070D01*
X164471846Y-88250976D01*
X164484634Y-88268219D01*
X164495670Y-88286632D01*
X164504849Y-88306038D01*
X164512081Y-88326250D01*
X164517297Y-88347074D01*
X164520447Y-88368309D01*
X164521500Y-88389750D01*
X164521500Y-88902250D01*
X164520447Y-88923691D01*
X164517297Y-88944926D01*
X164512081Y-88965750D01*
X164504849Y-88985962D01*
X164495670Y-89005368D01*
X164484634Y-89023781D01*
X164471846Y-89041024D01*
X164457430Y-89056930D01*
X164441524Y-89071346D01*
X164424281Y-89084134D01*
X164405868Y-89095170D01*
X164386462Y-89104349D01*
X164366250Y-89111581D01*
X164345426Y-89116797D01*
X164324191Y-89119947D01*
X164302750Y-89121000D01*
X163865250Y-89121000D01*
X163843809Y-89119947D01*
X163822574Y-89116797D01*
X163801750Y-89111581D01*
X163781538Y-89104349D01*
X163762132Y-89095170D01*
X163743719Y-89084134D01*
X163726476Y-89071346D01*
X163710570Y-89056930D01*
X163696154Y-89041024D01*
X163683366Y-89023781D01*
X163672330Y-89005368D01*
X163663151Y-88985962D01*
X163655919Y-88965750D01*
X163650703Y-88944926D01*
X163647553Y-88923691D01*
X163646500Y-88902250D01*
X163646500Y-88389750D01*
X163647553Y-88368309D01*
X163650703Y-88347074D01*
X163655919Y-88326250D01*
X163663151Y-88306038D01*
X163672330Y-88286632D01*
X163683366Y-88268219D01*
X163696154Y-88250976D01*
X163710570Y-88235070D01*
X163726476Y-88220654D01*
X163743719Y-88207866D01*
X163762132Y-88196830D01*
X163781538Y-88187651D01*
X163801750Y-88180419D01*
X163822574Y-88175203D01*
X163843809Y-88172053D01*
X163865250Y-88171000D01*
X164302750Y-88171000D01*
X164324191Y-88172053D01*
X164324191Y-88172053D01*
G37*
D11*
X164084000Y-88646000D03*
G04 #@! TD*
D10*
G04 #@! TO.C,C3*
G36*
X124446191Y-71154053D02*
X124467426Y-71157203D01*
X124488250Y-71162419D01*
X124508462Y-71169651D01*
X124527868Y-71178830D01*
X124546281Y-71189866D01*
X124563524Y-71202654D01*
X124579430Y-71217070D01*
X124593846Y-71232976D01*
X124606634Y-71250219D01*
X124617670Y-71268632D01*
X124626849Y-71288038D01*
X124634081Y-71308250D01*
X124639297Y-71329074D01*
X124642447Y-71350309D01*
X124643500Y-71371750D01*
X124643500Y-71884250D01*
X124642447Y-71905691D01*
X124639297Y-71926926D01*
X124634081Y-71947750D01*
X124626849Y-71967962D01*
X124617670Y-71987368D01*
X124606634Y-72005781D01*
X124593846Y-72023024D01*
X124579430Y-72038930D01*
X124563524Y-72053346D01*
X124546281Y-72066134D01*
X124527868Y-72077170D01*
X124508462Y-72086349D01*
X124488250Y-72093581D01*
X124467426Y-72098797D01*
X124446191Y-72101947D01*
X124424750Y-72103000D01*
X123987250Y-72103000D01*
X123965809Y-72101947D01*
X123944574Y-72098797D01*
X123923750Y-72093581D01*
X123903538Y-72086349D01*
X123884132Y-72077170D01*
X123865719Y-72066134D01*
X123848476Y-72053346D01*
X123832570Y-72038930D01*
X123818154Y-72023024D01*
X123805366Y-72005781D01*
X123794330Y-71987368D01*
X123785151Y-71967962D01*
X123777919Y-71947750D01*
X123772703Y-71926926D01*
X123769553Y-71905691D01*
X123768500Y-71884250D01*
X123768500Y-71371750D01*
X123769553Y-71350309D01*
X123772703Y-71329074D01*
X123777919Y-71308250D01*
X123785151Y-71288038D01*
X123794330Y-71268632D01*
X123805366Y-71250219D01*
X123818154Y-71232976D01*
X123832570Y-71217070D01*
X123848476Y-71202654D01*
X123865719Y-71189866D01*
X123884132Y-71178830D01*
X123903538Y-71169651D01*
X123923750Y-71162419D01*
X123944574Y-71157203D01*
X123965809Y-71154053D01*
X123987250Y-71153000D01*
X124424750Y-71153000D01*
X124446191Y-71154053D01*
X124446191Y-71154053D01*
G37*
D11*
X124206000Y-71628000D03*
D10*
G36*
X126021191Y-71154053D02*
X126042426Y-71157203D01*
X126063250Y-71162419D01*
X126083462Y-71169651D01*
X126102868Y-71178830D01*
X126121281Y-71189866D01*
X126138524Y-71202654D01*
X126154430Y-71217070D01*
X126168846Y-71232976D01*
X126181634Y-71250219D01*
X126192670Y-71268632D01*
X126201849Y-71288038D01*
X126209081Y-71308250D01*
X126214297Y-71329074D01*
X126217447Y-71350309D01*
X126218500Y-71371750D01*
X126218500Y-71884250D01*
X126217447Y-71905691D01*
X126214297Y-71926926D01*
X126209081Y-71947750D01*
X126201849Y-71967962D01*
X126192670Y-71987368D01*
X126181634Y-72005781D01*
X126168846Y-72023024D01*
X126154430Y-72038930D01*
X126138524Y-72053346D01*
X126121281Y-72066134D01*
X126102868Y-72077170D01*
X126083462Y-72086349D01*
X126063250Y-72093581D01*
X126042426Y-72098797D01*
X126021191Y-72101947D01*
X125999750Y-72103000D01*
X125562250Y-72103000D01*
X125540809Y-72101947D01*
X125519574Y-72098797D01*
X125498750Y-72093581D01*
X125478538Y-72086349D01*
X125459132Y-72077170D01*
X125440719Y-72066134D01*
X125423476Y-72053346D01*
X125407570Y-72038930D01*
X125393154Y-72023024D01*
X125380366Y-72005781D01*
X125369330Y-71987368D01*
X125360151Y-71967962D01*
X125352919Y-71947750D01*
X125347703Y-71926926D01*
X125344553Y-71905691D01*
X125343500Y-71884250D01*
X125343500Y-71371750D01*
X125344553Y-71350309D01*
X125347703Y-71329074D01*
X125352919Y-71308250D01*
X125360151Y-71288038D01*
X125369330Y-71268632D01*
X125380366Y-71250219D01*
X125393154Y-71232976D01*
X125407570Y-71217070D01*
X125423476Y-71202654D01*
X125440719Y-71189866D01*
X125459132Y-71178830D01*
X125478538Y-71169651D01*
X125498750Y-71162419D01*
X125519574Y-71157203D01*
X125540809Y-71154053D01*
X125562250Y-71153000D01*
X125999750Y-71153000D01*
X126021191Y-71154053D01*
X126021191Y-71154053D01*
G37*
D11*
X125781000Y-71628000D03*
G04 #@! TD*
D10*
G04 #@! TO.C,C4*
G36*
X129323191Y-71154053D02*
X129344426Y-71157203D01*
X129365250Y-71162419D01*
X129385462Y-71169651D01*
X129404868Y-71178830D01*
X129423281Y-71189866D01*
X129440524Y-71202654D01*
X129456430Y-71217070D01*
X129470846Y-71232976D01*
X129483634Y-71250219D01*
X129494670Y-71268632D01*
X129503849Y-71288038D01*
X129511081Y-71308250D01*
X129516297Y-71329074D01*
X129519447Y-71350309D01*
X129520500Y-71371750D01*
X129520500Y-71884250D01*
X129519447Y-71905691D01*
X129516297Y-71926926D01*
X129511081Y-71947750D01*
X129503849Y-71967962D01*
X129494670Y-71987368D01*
X129483634Y-72005781D01*
X129470846Y-72023024D01*
X129456430Y-72038930D01*
X129440524Y-72053346D01*
X129423281Y-72066134D01*
X129404868Y-72077170D01*
X129385462Y-72086349D01*
X129365250Y-72093581D01*
X129344426Y-72098797D01*
X129323191Y-72101947D01*
X129301750Y-72103000D01*
X128864250Y-72103000D01*
X128842809Y-72101947D01*
X128821574Y-72098797D01*
X128800750Y-72093581D01*
X128780538Y-72086349D01*
X128761132Y-72077170D01*
X128742719Y-72066134D01*
X128725476Y-72053346D01*
X128709570Y-72038930D01*
X128695154Y-72023024D01*
X128682366Y-72005781D01*
X128671330Y-71987368D01*
X128662151Y-71967962D01*
X128654919Y-71947750D01*
X128649703Y-71926926D01*
X128646553Y-71905691D01*
X128645500Y-71884250D01*
X128645500Y-71371750D01*
X128646553Y-71350309D01*
X128649703Y-71329074D01*
X128654919Y-71308250D01*
X128662151Y-71288038D01*
X128671330Y-71268632D01*
X128682366Y-71250219D01*
X128695154Y-71232976D01*
X128709570Y-71217070D01*
X128725476Y-71202654D01*
X128742719Y-71189866D01*
X128761132Y-71178830D01*
X128780538Y-71169651D01*
X128800750Y-71162419D01*
X128821574Y-71157203D01*
X128842809Y-71154053D01*
X128864250Y-71153000D01*
X129301750Y-71153000D01*
X129323191Y-71154053D01*
X129323191Y-71154053D01*
G37*
D11*
X129083000Y-71628000D03*
D10*
G36*
X127748191Y-71154053D02*
X127769426Y-71157203D01*
X127790250Y-71162419D01*
X127810462Y-71169651D01*
X127829868Y-71178830D01*
X127848281Y-71189866D01*
X127865524Y-71202654D01*
X127881430Y-71217070D01*
X127895846Y-71232976D01*
X127908634Y-71250219D01*
X127919670Y-71268632D01*
X127928849Y-71288038D01*
X127936081Y-71308250D01*
X127941297Y-71329074D01*
X127944447Y-71350309D01*
X127945500Y-71371750D01*
X127945500Y-71884250D01*
X127944447Y-71905691D01*
X127941297Y-71926926D01*
X127936081Y-71947750D01*
X127928849Y-71967962D01*
X127919670Y-71987368D01*
X127908634Y-72005781D01*
X127895846Y-72023024D01*
X127881430Y-72038930D01*
X127865524Y-72053346D01*
X127848281Y-72066134D01*
X127829868Y-72077170D01*
X127810462Y-72086349D01*
X127790250Y-72093581D01*
X127769426Y-72098797D01*
X127748191Y-72101947D01*
X127726750Y-72103000D01*
X127289250Y-72103000D01*
X127267809Y-72101947D01*
X127246574Y-72098797D01*
X127225750Y-72093581D01*
X127205538Y-72086349D01*
X127186132Y-72077170D01*
X127167719Y-72066134D01*
X127150476Y-72053346D01*
X127134570Y-72038930D01*
X127120154Y-72023024D01*
X127107366Y-72005781D01*
X127096330Y-71987368D01*
X127087151Y-71967962D01*
X127079919Y-71947750D01*
X127074703Y-71926926D01*
X127071553Y-71905691D01*
X127070500Y-71884250D01*
X127070500Y-71371750D01*
X127071553Y-71350309D01*
X127074703Y-71329074D01*
X127079919Y-71308250D01*
X127087151Y-71288038D01*
X127096330Y-71268632D01*
X127107366Y-71250219D01*
X127120154Y-71232976D01*
X127134570Y-71217070D01*
X127150476Y-71202654D01*
X127167719Y-71189866D01*
X127186132Y-71178830D01*
X127205538Y-71169651D01*
X127225750Y-71162419D01*
X127246574Y-71157203D01*
X127267809Y-71154053D01*
X127289250Y-71153000D01*
X127726750Y-71153000D01*
X127748191Y-71154053D01*
X127748191Y-71154053D01*
G37*
D11*
X127508000Y-71628000D03*
G04 #@! TD*
D10*
G04 #@! TO.C,C5*
G36*
X165848191Y-90966053D02*
X165869426Y-90969203D01*
X165890250Y-90974419D01*
X165910462Y-90981651D01*
X165929868Y-90990830D01*
X165948281Y-91001866D01*
X165965524Y-91014654D01*
X165981430Y-91029070D01*
X165995846Y-91044976D01*
X166008634Y-91062219D01*
X166019670Y-91080632D01*
X166028849Y-91100038D01*
X166036081Y-91120250D01*
X166041297Y-91141074D01*
X166044447Y-91162309D01*
X166045500Y-91183750D01*
X166045500Y-91696250D01*
X166044447Y-91717691D01*
X166041297Y-91738926D01*
X166036081Y-91759750D01*
X166028849Y-91779962D01*
X166019670Y-91799368D01*
X166008634Y-91817781D01*
X165995846Y-91835024D01*
X165981430Y-91850930D01*
X165965524Y-91865346D01*
X165948281Y-91878134D01*
X165929868Y-91889170D01*
X165910462Y-91898349D01*
X165890250Y-91905581D01*
X165869426Y-91910797D01*
X165848191Y-91913947D01*
X165826750Y-91915000D01*
X165389250Y-91915000D01*
X165367809Y-91913947D01*
X165346574Y-91910797D01*
X165325750Y-91905581D01*
X165305538Y-91898349D01*
X165286132Y-91889170D01*
X165267719Y-91878134D01*
X165250476Y-91865346D01*
X165234570Y-91850930D01*
X165220154Y-91835024D01*
X165207366Y-91817781D01*
X165196330Y-91799368D01*
X165187151Y-91779962D01*
X165179919Y-91759750D01*
X165174703Y-91738926D01*
X165171553Y-91717691D01*
X165170500Y-91696250D01*
X165170500Y-91183750D01*
X165171553Y-91162309D01*
X165174703Y-91141074D01*
X165179919Y-91120250D01*
X165187151Y-91100038D01*
X165196330Y-91080632D01*
X165207366Y-91062219D01*
X165220154Y-91044976D01*
X165234570Y-91029070D01*
X165250476Y-91014654D01*
X165267719Y-91001866D01*
X165286132Y-90990830D01*
X165305538Y-90981651D01*
X165325750Y-90974419D01*
X165346574Y-90969203D01*
X165367809Y-90966053D01*
X165389250Y-90965000D01*
X165826750Y-90965000D01*
X165848191Y-90966053D01*
X165848191Y-90966053D01*
G37*
D11*
X165608000Y-91440000D03*
D10*
G36*
X164273191Y-90966053D02*
X164294426Y-90969203D01*
X164315250Y-90974419D01*
X164335462Y-90981651D01*
X164354868Y-90990830D01*
X164373281Y-91001866D01*
X164390524Y-91014654D01*
X164406430Y-91029070D01*
X164420846Y-91044976D01*
X164433634Y-91062219D01*
X164444670Y-91080632D01*
X164453849Y-91100038D01*
X164461081Y-91120250D01*
X164466297Y-91141074D01*
X164469447Y-91162309D01*
X164470500Y-91183750D01*
X164470500Y-91696250D01*
X164469447Y-91717691D01*
X164466297Y-91738926D01*
X164461081Y-91759750D01*
X164453849Y-91779962D01*
X164444670Y-91799368D01*
X164433634Y-91817781D01*
X164420846Y-91835024D01*
X164406430Y-91850930D01*
X164390524Y-91865346D01*
X164373281Y-91878134D01*
X164354868Y-91889170D01*
X164335462Y-91898349D01*
X164315250Y-91905581D01*
X164294426Y-91910797D01*
X164273191Y-91913947D01*
X164251750Y-91915000D01*
X163814250Y-91915000D01*
X163792809Y-91913947D01*
X163771574Y-91910797D01*
X163750750Y-91905581D01*
X163730538Y-91898349D01*
X163711132Y-91889170D01*
X163692719Y-91878134D01*
X163675476Y-91865346D01*
X163659570Y-91850930D01*
X163645154Y-91835024D01*
X163632366Y-91817781D01*
X163621330Y-91799368D01*
X163612151Y-91779962D01*
X163604919Y-91759750D01*
X163599703Y-91738926D01*
X163596553Y-91717691D01*
X163595500Y-91696250D01*
X163595500Y-91183750D01*
X163596553Y-91162309D01*
X163599703Y-91141074D01*
X163604919Y-91120250D01*
X163612151Y-91100038D01*
X163621330Y-91080632D01*
X163632366Y-91062219D01*
X163645154Y-91044976D01*
X163659570Y-91029070D01*
X163675476Y-91014654D01*
X163692719Y-91001866D01*
X163711132Y-90990830D01*
X163730538Y-90981651D01*
X163750750Y-90974419D01*
X163771574Y-90969203D01*
X163792809Y-90966053D01*
X163814250Y-90965000D01*
X164251750Y-90965000D01*
X164273191Y-90966053D01*
X164273191Y-90966053D01*
G37*
D11*
X164033000Y-91440000D03*
G04 #@! TD*
D10*
G04 #@! TO.C,C6*
G36*
X145248691Y-63788053D02*
X145269926Y-63791203D01*
X145290750Y-63796419D01*
X145310962Y-63803651D01*
X145330368Y-63812830D01*
X145348781Y-63823866D01*
X145366024Y-63836654D01*
X145381930Y-63851070D01*
X145396346Y-63866976D01*
X145409134Y-63884219D01*
X145420170Y-63902632D01*
X145429349Y-63922038D01*
X145436581Y-63942250D01*
X145441797Y-63963074D01*
X145444947Y-63984309D01*
X145446000Y-64005750D01*
X145446000Y-64518250D01*
X145444947Y-64539691D01*
X145441797Y-64560926D01*
X145436581Y-64581750D01*
X145429349Y-64601962D01*
X145420170Y-64621368D01*
X145409134Y-64639781D01*
X145396346Y-64657024D01*
X145381930Y-64672930D01*
X145366024Y-64687346D01*
X145348781Y-64700134D01*
X145330368Y-64711170D01*
X145310962Y-64720349D01*
X145290750Y-64727581D01*
X145269926Y-64732797D01*
X145248691Y-64735947D01*
X145227250Y-64737000D01*
X144789750Y-64737000D01*
X144768309Y-64735947D01*
X144747074Y-64732797D01*
X144726250Y-64727581D01*
X144706038Y-64720349D01*
X144686632Y-64711170D01*
X144668219Y-64700134D01*
X144650976Y-64687346D01*
X144635070Y-64672930D01*
X144620654Y-64657024D01*
X144607866Y-64639781D01*
X144596830Y-64621368D01*
X144587651Y-64601962D01*
X144580419Y-64581750D01*
X144575203Y-64560926D01*
X144572053Y-64539691D01*
X144571000Y-64518250D01*
X144571000Y-64005750D01*
X144572053Y-63984309D01*
X144575203Y-63963074D01*
X144580419Y-63942250D01*
X144587651Y-63922038D01*
X144596830Y-63902632D01*
X144607866Y-63884219D01*
X144620654Y-63866976D01*
X144635070Y-63851070D01*
X144650976Y-63836654D01*
X144668219Y-63823866D01*
X144686632Y-63812830D01*
X144706038Y-63803651D01*
X144726250Y-63796419D01*
X144747074Y-63791203D01*
X144768309Y-63788053D01*
X144789750Y-63787000D01*
X145227250Y-63787000D01*
X145248691Y-63788053D01*
X145248691Y-63788053D01*
G37*
D11*
X145008500Y-64262000D03*
D10*
G36*
X146823691Y-63788053D02*
X146844926Y-63791203D01*
X146865750Y-63796419D01*
X146885962Y-63803651D01*
X146905368Y-63812830D01*
X146923781Y-63823866D01*
X146941024Y-63836654D01*
X146956930Y-63851070D01*
X146971346Y-63866976D01*
X146984134Y-63884219D01*
X146995170Y-63902632D01*
X147004349Y-63922038D01*
X147011581Y-63942250D01*
X147016797Y-63963074D01*
X147019947Y-63984309D01*
X147021000Y-64005750D01*
X147021000Y-64518250D01*
X147019947Y-64539691D01*
X147016797Y-64560926D01*
X147011581Y-64581750D01*
X147004349Y-64601962D01*
X146995170Y-64621368D01*
X146984134Y-64639781D01*
X146971346Y-64657024D01*
X146956930Y-64672930D01*
X146941024Y-64687346D01*
X146923781Y-64700134D01*
X146905368Y-64711170D01*
X146885962Y-64720349D01*
X146865750Y-64727581D01*
X146844926Y-64732797D01*
X146823691Y-64735947D01*
X146802250Y-64737000D01*
X146364750Y-64737000D01*
X146343309Y-64735947D01*
X146322074Y-64732797D01*
X146301250Y-64727581D01*
X146281038Y-64720349D01*
X146261632Y-64711170D01*
X146243219Y-64700134D01*
X146225976Y-64687346D01*
X146210070Y-64672930D01*
X146195654Y-64657024D01*
X146182866Y-64639781D01*
X146171830Y-64621368D01*
X146162651Y-64601962D01*
X146155419Y-64581750D01*
X146150203Y-64560926D01*
X146147053Y-64539691D01*
X146146000Y-64518250D01*
X146146000Y-64005750D01*
X146147053Y-63984309D01*
X146150203Y-63963074D01*
X146155419Y-63942250D01*
X146162651Y-63922038D01*
X146171830Y-63902632D01*
X146182866Y-63884219D01*
X146195654Y-63866976D01*
X146210070Y-63851070D01*
X146225976Y-63836654D01*
X146243219Y-63823866D01*
X146261632Y-63812830D01*
X146281038Y-63803651D01*
X146301250Y-63796419D01*
X146322074Y-63791203D01*
X146343309Y-63788053D01*
X146364750Y-63787000D01*
X146802250Y-63787000D01*
X146823691Y-63788053D01*
X146823691Y-63788053D01*
G37*
D11*
X146583500Y-64262000D03*
G04 #@! TD*
D10*
G04 #@! TO.C,C7*
G36*
X139723691Y-82875553D02*
X139744926Y-82878703D01*
X139765750Y-82883919D01*
X139785962Y-82891151D01*
X139805368Y-82900330D01*
X139823781Y-82911366D01*
X139841024Y-82924154D01*
X139856930Y-82938570D01*
X139871346Y-82954476D01*
X139884134Y-82971719D01*
X139895170Y-82990132D01*
X139904349Y-83009538D01*
X139911581Y-83029750D01*
X139916797Y-83050574D01*
X139919947Y-83071809D01*
X139921000Y-83093250D01*
X139921000Y-83530750D01*
X139919947Y-83552191D01*
X139916797Y-83573426D01*
X139911581Y-83594250D01*
X139904349Y-83614462D01*
X139895170Y-83633868D01*
X139884134Y-83652281D01*
X139871346Y-83669524D01*
X139856930Y-83685430D01*
X139841024Y-83699846D01*
X139823781Y-83712634D01*
X139805368Y-83723670D01*
X139785962Y-83732849D01*
X139765750Y-83740081D01*
X139744926Y-83745297D01*
X139723691Y-83748447D01*
X139702250Y-83749500D01*
X139189750Y-83749500D01*
X139168309Y-83748447D01*
X139147074Y-83745297D01*
X139126250Y-83740081D01*
X139106038Y-83732849D01*
X139086632Y-83723670D01*
X139068219Y-83712634D01*
X139050976Y-83699846D01*
X139035070Y-83685430D01*
X139020654Y-83669524D01*
X139007866Y-83652281D01*
X138996830Y-83633868D01*
X138987651Y-83614462D01*
X138980419Y-83594250D01*
X138975203Y-83573426D01*
X138972053Y-83552191D01*
X138971000Y-83530750D01*
X138971000Y-83093250D01*
X138972053Y-83071809D01*
X138975203Y-83050574D01*
X138980419Y-83029750D01*
X138987651Y-83009538D01*
X138996830Y-82990132D01*
X139007866Y-82971719D01*
X139020654Y-82954476D01*
X139035070Y-82938570D01*
X139050976Y-82924154D01*
X139068219Y-82911366D01*
X139086632Y-82900330D01*
X139106038Y-82891151D01*
X139126250Y-82883919D01*
X139147074Y-82878703D01*
X139168309Y-82875553D01*
X139189750Y-82874500D01*
X139702250Y-82874500D01*
X139723691Y-82875553D01*
X139723691Y-82875553D01*
G37*
D11*
X139446000Y-83312000D03*
D10*
G36*
X139723691Y-84450553D02*
X139744926Y-84453703D01*
X139765750Y-84458919D01*
X139785962Y-84466151D01*
X139805368Y-84475330D01*
X139823781Y-84486366D01*
X139841024Y-84499154D01*
X139856930Y-84513570D01*
X139871346Y-84529476D01*
X139884134Y-84546719D01*
X139895170Y-84565132D01*
X139904349Y-84584538D01*
X139911581Y-84604750D01*
X139916797Y-84625574D01*
X139919947Y-84646809D01*
X139921000Y-84668250D01*
X139921000Y-85105750D01*
X139919947Y-85127191D01*
X139916797Y-85148426D01*
X139911581Y-85169250D01*
X139904349Y-85189462D01*
X139895170Y-85208868D01*
X139884134Y-85227281D01*
X139871346Y-85244524D01*
X139856930Y-85260430D01*
X139841024Y-85274846D01*
X139823781Y-85287634D01*
X139805368Y-85298670D01*
X139785962Y-85307849D01*
X139765750Y-85315081D01*
X139744926Y-85320297D01*
X139723691Y-85323447D01*
X139702250Y-85324500D01*
X139189750Y-85324500D01*
X139168309Y-85323447D01*
X139147074Y-85320297D01*
X139126250Y-85315081D01*
X139106038Y-85307849D01*
X139086632Y-85298670D01*
X139068219Y-85287634D01*
X139050976Y-85274846D01*
X139035070Y-85260430D01*
X139020654Y-85244524D01*
X139007866Y-85227281D01*
X138996830Y-85208868D01*
X138987651Y-85189462D01*
X138980419Y-85169250D01*
X138975203Y-85148426D01*
X138972053Y-85127191D01*
X138971000Y-85105750D01*
X138971000Y-84668250D01*
X138972053Y-84646809D01*
X138975203Y-84625574D01*
X138980419Y-84604750D01*
X138987651Y-84584538D01*
X138996830Y-84565132D01*
X139007866Y-84546719D01*
X139020654Y-84529476D01*
X139035070Y-84513570D01*
X139050976Y-84499154D01*
X139068219Y-84486366D01*
X139086632Y-84475330D01*
X139106038Y-84466151D01*
X139126250Y-84458919D01*
X139147074Y-84453703D01*
X139168309Y-84450553D01*
X139189750Y-84449500D01*
X139702250Y-84449500D01*
X139723691Y-84450553D01*
X139723691Y-84450553D01*
G37*
D11*
X139446000Y-84887000D03*
G04 #@! TD*
D10*
G04 #@! TO.C,C8*
G36*
X139432191Y-100872053D02*
X139453426Y-100875203D01*
X139474250Y-100880419D01*
X139494462Y-100887651D01*
X139513868Y-100896830D01*
X139532281Y-100907866D01*
X139549524Y-100920654D01*
X139565430Y-100935070D01*
X139579846Y-100950976D01*
X139592634Y-100968219D01*
X139603670Y-100986632D01*
X139612849Y-101006038D01*
X139620081Y-101026250D01*
X139625297Y-101047074D01*
X139628447Y-101068309D01*
X139629500Y-101089750D01*
X139629500Y-101602250D01*
X139628447Y-101623691D01*
X139625297Y-101644926D01*
X139620081Y-101665750D01*
X139612849Y-101685962D01*
X139603670Y-101705368D01*
X139592634Y-101723781D01*
X139579846Y-101741024D01*
X139565430Y-101756930D01*
X139549524Y-101771346D01*
X139532281Y-101784134D01*
X139513868Y-101795170D01*
X139494462Y-101804349D01*
X139474250Y-101811581D01*
X139453426Y-101816797D01*
X139432191Y-101819947D01*
X139410750Y-101821000D01*
X138973250Y-101821000D01*
X138951809Y-101819947D01*
X138930574Y-101816797D01*
X138909750Y-101811581D01*
X138889538Y-101804349D01*
X138870132Y-101795170D01*
X138851719Y-101784134D01*
X138834476Y-101771346D01*
X138818570Y-101756930D01*
X138804154Y-101741024D01*
X138791366Y-101723781D01*
X138780330Y-101705368D01*
X138771151Y-101685962D01*
X138763919Y-101665750D01*
X138758703Y-101644926D01*
X138755553Y-101623691D01*
X138754500Y-101602250D01*
X138754500Y-101089750D01*
X138755553Y-101068309D01*
X138758703Y-101047074D01*
X138763919Y-101026250D01*
X138771151Y-101006038D01*
X138780330Y-100986632D01*
X138791366Y-100968219D01*
X138804154Y-100950976D01*
X138818570Y-100935070D01*
X138834476Y-100920654D01*
X138851719Y-100907866D01*
X138870132Y-100896830D01*
X138889538Y-100887651D01*
X138909750Y-100880419D01*
X138930574Y-100875203D01*
X138951809Y-100872053D01*
X138973250Y-100871000D01*
X139410750Y-100871000D01*
X139432191Y-100872053D01*
X139432191Y-100872053D01*
G37*
D11*
X139192000Y-101346000D03*
D10*
G36*
X141007191Y-100872053D02*
X141028426Y-100875203D01*
X141049250Y-100880419D01*
X141069462Y-100887651D01*
X141088868Y-100896830D01*
X141107281Y-100907866D01*
X141124524Y-100920654D01*
X141140430Y-100935070D01*
X141154846Y-100950976D01*
X141167634Y-100968219D01*
X141178670Y-100986632D01*
X141187849Y-101006038D01*
X141195081Y-101026250D01*
X141200297Y-101047074D01*
X141203447Y-101068309D01*
X141204500Y-101089750D01*
X141204500Y-101602250D01*
X141203447Y-101623691D01*
X141200297Y-101644926D01*
X141195081Y-101665750D01*
X141187849Y-101685962D01*
X141178670Y-101705368D01*
X141167634Y-101723781D01*
X141154846Y-101741024D01*
X141140430Y-101756930D01*
X141124524Y-101771346D01*
X141107281Y-101784134D01*
X141088868Y-101795170D01*
X141069462Y-101804349D01*
X141049250Y-101811581D01*
X141028426Y-101816797D01*
X141007191Y-101819947D01*
X140985750Y-101821000D01*
X140548250Y-101821000D01*
X140526809Y-101819947D01*
X140505574Y-101816797D01*
X140484750Y-101811581D01*
X140464538Y-101804349D01*
X140445132Y-101795170D01*
X140426719Y-101784134D01*
X140409476Y-101771346D01*
X140393570Y-101756930D01*
X140379154Y-101741024D01*
X140366366Y-101723781D01*
X140355330Y-101705368D01*
X140346151Y-101685962D01*
X140338919Y-101665750D01*
X140333703Y-101644926D01*
X140330553Y-101623691D01*
X140329500Y-101602250D01*
X140329500Y-101089750D01*
X140330553Y-101068309D01*
X140333703Y-101047074D01*
X140338919Y-101026250D01*
X140346151Y-101006038D01*
X140355330Y-100986632D01*
X140366366Y-100968219D01*
X140379154Y-100950976D01*
X140393570Y-100935070D01*
X140409476Y-100920654D01*
X140426719Y-100907866D01*
X140445132Y-100896830D01*
X140464538Y-100887651D01*
X140484750Y-100880419D01*
X140505574Y-100875203D01*
X140526809Y-100872053D01*
X140548250Y-100871000D01*
X140985750Y-100871000D01*
X141007191Y-100872053D01*
X141007191Y-100872053D01*
G37*
D11*
X140767000Y-101346000D03*
G04 #@! TD*
D10*
G04 #@! TO.C,C9*
G36*
X156233691Y-88946053D02*
X156254926Y-88949203D01*
X156275750Y-88954419D01*
X156295962Y-88961651D01*
X156315368Y-88970830D01*
X156333781Y-88981866D01*
X156351024Y-88994654D01*
X156366930Y-89009070D01*
X156381346Y-89024976D01*
X156394134Y-89042219D01*
X156405170Y-89060632D01*
X156414349Y-89080038D01*
X156421581Y-89100250D01*
X156426797Y-89121074D01*
X156429947Y-89142309D01*
X156431000Y-89163750D01*
X156431000Y-89601250D01*
X156429947Y-89622691D01*
X156426797Y-89643926D01*
X156421581Y-89664750D01*
X156414349Y-89684962D01*
X156405170Y-89704368D01*
X156394134Y-89722781D01*
X156381346Y-89740024D01*
X156366930Y-89755930D01*
X156351024Y-89770346D01*
X156333781Y-89783134D01*
X156315368Y-89794170D01*
X156295962Y-89803349D01*
X156275750Y-89810581D01*
X156254926Y-89815797D01*
X156233691Y-89818947D01*
X156212250Y-89820000D01*
X155699750Y-89820000D01*
X155678309Y-89818947D01*
X155657074Y-89815797D01*
X155636250Y-89810581D01*
X155616038Y-89803349D01*
X155596632Y-89794170D01*
X155578219Y-89783134D01*
X155560976Y-89770346D01*
X155545070Y-89755930D01*
X155530654Y-89740024D01*
X155517866Y-89722781D01*
X155506830Y-89704368D01*
X155497651Y-89684962D01*
X155490419Y-89664750D01*
X155485203Y-89643926D01*
X155482053Y-89622691D01*
X155481000Y-89601250D01*
X155481000Y-89163750D01*
X155482053Y-89142309D01*
X155485203Y-89121074D01*
X155490419Y-89100250D01*
X155497651Y-89080038D01*
X155506830Y-89060632D01*
X155517866Y-89042219D01*
X155530654Y-89024976D01*
X155545070Y-89009070D01*
X155560976Y-88994654D01*
X155578219Y-88981866D01*
X155596632Y-88970830D01*
X155616038Y-88961651D01*
X155636250Y-88954419D01*
X155657074Y-88949203D01*
X155678309Y-88946053D01*
X155699750Y-88945000D01*
X156212250Y-88945000D01*
X156233691Y-88946053D01*
X156233691Y-88946053D01*
G37*
D11*
X155956000Y-89382500D03*
D10*
G36*
X156233691Y-90521053D02*
X156254926Y-90524203D01*
X156275750Y-90529419D01*
X156295962Y-90536651D01*
X156315368Y-90545830D01*
X156333781Y-90556866D01*
X156351024Y-90569654D01*
X156366930Y-90584070D01*
X156381346Y-90599976D01*
X156394134Y-90617219D01*
X156405170Y-90635632D01*
X156414349Y-90655038D01*
X156421581Y-90675250D01*
X156426797Y-90696074D01*
X156429947Y-90717309D01*
X156431000Y-90738750D01*
X156431000Y-91176250D01*
X156429947Y-91197691D01*
X156426797Y-91218926D01*
X156421581Y-91239750D01*
X156414349Y-91259962D01*
X156405170Y-91279368D01*
X156394134Y-91297781D01*
X156381346Y-91315024D01*
X156366930Y-91330930D01*
X156351024Y-91345346D01*
X156333781Y-91358134D01*
X156315368Y-91369170D01*
X156295962Y-91378349D01*
X156275750Y-91385581D01*
X156254926Y-91390797D01*
X156233691Y-91393947D01*
X156212250Y-91395000D01*
X155699750Y-91395000D01*
X155678309Y-91393947D01*
X155657074Y-91390797D01*
X155636250Y-91385581D01*
X155616038Y-91378349D01*
X155596632Y-91369170D01*
X155578219Y-91358134D01*
X155560976Y-91345346D01*
X155545070Y-91330930D01*
X155530654Y-91315024D01*
X155517866Y-91297781D01*
X155506830Y-91279368D01*
X155497651Y-91259962D01*
X155490419Y-91239750D01*
X155485203Y-91218926D01*
X155482053Y-91197691D01*
X155481000Y-91176250D01*
X155481000Y-90738750D01*
X155482053Y-90717309D01*
X155485203Y-90696074D01*
X155490419Y-90675250D01*
X155497651Y-90655038D01*
X155506830Y-90635632D01*
X155517866Y-90617219D01*
X155530654Y-90599976D01*
X155545070Y-90584070D01*
X155560976Y-90569654D01*
X155578219Y-90556866D01*
X155596632Y-90545830D01*
X155616038Y-90536651D01*
X155636250Y-90529419D01*
X155657074Y-90524203D01*
X155678309Y-90521053D01*
X155699750Y-90520000D01*
X156212250Y-90520000D01*
X156233691Y-90521053D01*
X156233691Y-90521053D01*
G37*
D11*
X155956000Y-90957500D03*
G04 #@! TD*
D10*
G04 #@! TO.C,FB1*
G36*
X122705691Y-75535053D02*
X122726926Y-75538203D01*
X122747750Y-75543419D01*
X122767962Y-75550651D01*
X122787368Y-75559830D01*
X122805781Y-75570866D01*
X122823024Y-75583654D01*
X122838930Y-75598070D01*
X122853346Y-75613976D01*
X122866134Y-75631219D01*
X122877170Y-75649632D01*
X122886349Y-75669038D01*
X122893581Y-75689250D01*
X122898797Y-75710074D01*
X122901947Y-75731309D01*
X122903000Y-75752750D01*
X122903000Y-76190250D01*
X122901947Y-76211691D01*
X122898797Y-76232926D01*
X122893581Y-76253750D01*
X122886349Y-76273962D01*
X122877170Y-76293368D01*
X122866134Y-76311781D01*
X122853346Y-76329024D01*
X122838930Y-76344930D01*
X122823024Y-76359346D01*
X122805781Y-76372134D01*
X122787368Y-76383170D01*
X122767962Y-76392349D01*
X122747750Y-76399581D01*
X122726926Y-76404797D01*
X122705691Y-76407947D01*
X122684250Y-76409000D01*
X122171750Y-76409000D01*
X122150309Y-76407947D01*
X122129074Y-76404797D01*
X122108250Y-76399581D01*
X122088038Y-76392349D01*
X122068632Y-76383170D01*
X122050219Y-76372134D01*
X122032976Y-76359346D01*
X122017070Y-76344930D01*
X122002654Y-76329024D01*
X121989866Y-76311781D01*
X121978830Y-76293368D01*
X121969651Y-76273962D01*
X121962419Y-76253750D01*
X121957203Y-76232926D01*
X121954053Y-76211691D01*
X121953000Y-76190250D01*
X121953000Y-75752750D01*
X121954053Y-75731309D01*
X121957203Y-75710074D01*
X121962419Y-75689250D01*
X121969651Y-75669038D01*
X121978830Y-75649632D01*
X121989866Y-75631219D01*
X122002654Y-75613976D01*
X122017070Y-75598070D01*
X122032976Y-75583654D01*
X122050219Y-75570866D01*
X122068632Y-75559830D01*
X122088038Y-75550651D01*
X122108250Y-75543419D01*
X122129074Y-75538203D01*
X122150309Y-75535053D01*
X122171750Y-75534000D01*
X122684250Y-75534000D01*
X122705691Y-75535053D01*
X122705691Y-75535053D01*
G37*
D11*
X122428000Y-75971500D03*
D10*
G36*
X122705691Y-73960053D02*
X122726926Y-73963203D01*
X122747750Y-73968419D01*
X122767962Y-73975651D01*
X122787368Y-73984830D01*
X122805781Y-73995866D01*
X122823024Y-74008654D01*
X122838930Y-74023070D01*
X122853346Y-74038976D01*
X122866134Y-74056219D01*
X122877170Y-74074632D01*
X122886349Y-74094038D01*
X122893581Y-74114250D01*
X122898797Y-74135074D01*
X122901947Y-74156309D01*
X122903000Y-74177750D01*
X122903000Y-74615250D01*
X122901947Y-74636691D01*
X122898797Y-74657926D01*
X122893581Y-74678750D01*
X122886349Y-74698962D01*
X122877170Y-74718368D01*
X122866134Y-74736781D01*
X122853346Y-74754024D01*
X122838930Y-74769930D01*
X122823024Y-74784346D01*
X122805781Y-74797134D01*
X122787368Y-74808170D01*
X122767962Y-74817349D01*
X122747750Y-74824581D01*
X122726926Y-74829797D01*
X122705691Y-74832947D01*
X122684250Y-74834000D01*
X122171750Y-74834000D01*
X122150309Y-74832947D01*
X122129074Y-74829797D01*
X122108250Y-74824581D01*
X122088038Y-74817349D01*
X122068632Y-74808170D01*
X122050219Y-74797134D01*
X122032976Y-74784346D01*
X122017070Y-74769930D01*
X122002654Y-74754024D01*
X121989866Y-74736781D01*
X121978830Y-74718368D01*
X121969651Y-74698962D01*
X121962419Y-74678750D01*
X121957203Y-74657926D01*
X121954053Y-74636691D01*
X121953000Y-74615250D01*
X121953000Y-74177750D01*
X121954053Y-74156309D01*
X121957203Y-74135074D01*
X121962419Y-74114250D01*
X121969651Y-74094038D01*
X121978830Y-74074632D01*
X121989866Y-74056219D01*
X122002654Y-74038976D01*
X122017070Y-74023070D01*
X122032976Y-74008654D01*
X122050219Y-73995866D01*
X122068632Y-73984830D01*
X122088038Y-73975651D01*
X122108250Y-73968419D01*
X122129074Y-73963203D01*
X122150309Y-73960053D01*
X122171750Y-73959000D01*
X122684250Y-73959000D01*
X122705691Y-73960053D01*
X122705691Y-73960053D01*
G37*
D11*
X122428000Y-74396500D03*
G04 #@! TD*
D10*
G04 #@! TO.C,R1*
G36*
X148830191Y-77250053D02*
X148851426Y-77253203D01*
X148872250Y-77258419D01*
X148892462Y-77265651D01*
X148911868Y-77274830D01*
X148930281Y-77285866D01*
X148947524Y-77298654D01*
X148963430Y-77313070D01*
X148977846Y-77328976D01*
X148990634Y-77346219D01*
X149001670Y-77364632D01*
X149010849Y-77384038D01*
X149018081Y-77404250D01*
X149023297Y-77425074D01*
X149026447Y-77446309D01*
X149027500Y-77467750D01*
X149027500Y-77980250D01*
X149026447Y-78001691D01*
X149023297Y-78022926D01*
X149018081Y-78043750D01*
X149010849Y-78063962D01*
X149001670Y-78083368D01*
X148990634Y-78101781D01*
X148977846Y-78119024D01*
X148963430Y-78134930D01*
X148947524Y-78149346D01*
X148930281Y-78162134D01*
X148911868Y-78173170D01*
X148892462Y-78182349D01*
X148872250Y-78189581D01*
X148851426Y-78194797D01*
X148830191Y-78197947D01*
X148808750Y-78199000D01*
X148371250Y-78199000D01*
X148349809Y-78197947D01*
X148328574Y-78194797D01*
X148307750Y-78189581D01*
X148287538Y-78182349D01*
X148268132Y-78173170D01*
X148249719Y-78162134D01*
X148232476Y-78149346D01*
X148216570Y-78134930D01*
X148202154Y-78119024D01*
X148189366Y-78101781D01*
X148178330Y-78083368D01*
X148169151Y-78063962D01*
X148161919Y-78043750D01*
X148156703Y-78022926D01*
X148153553Y-78001691D01*
X148152500Y-77980250D01*
X148152500Y-77467750D01*
X148153553Y-77446309D01*
X148156703Y-77425074D01*
X148161919Y-77404250D01*
X148169151Y-77384038D01*
X148178330Y-77364632D01*
X148189366Y-77346219D01*
X148202154Y-77328976D01*
X148216570Y-77313070D01*
X148232476Y-77298654D01*
X148249719Y-77285866D01*
X148268132Y-77274830D01*
X148287538Y-77265651D01*
X148307750Y-77258419D01*
X148328574Y-77253203D01*
X148349809Y-77250053D01*
X148371250Y-77249000D01*
X148808750Y-77249000D01*
X148830191Y-77250053D01*
X148830191Y-77250053D01*
G37*
D11*
X148590000Y-77724000D03*
D10*
G36*
X150405191Y-77250053D02*
X150426426Y-77253203D01*
X150447250Y-77258419D01*
X150467462Y-77265651D01*
X150486868Y-77274830D01*
X150505281Y-77285866D01*
X150522524Y-77298654D01*
X150538430Y-77313070D01*
X150552846Y-77328976D01*
X150565634Y-77346219D01*
X150576670Y-77364632D01*
X150585849Y-77384038D01*
X150593081Y-77404250D01*
X150598297Y-77425074D01*
X150601447Y-77446309D01*
X150602500Y-77467750D01*
X150602500Y-77980250D01*
X150601447Y-78001691D01*
X150598297Y-78022926D01*
X150593081Y-78043750D01*
X150585849Y-78063962D01*
X150576670Y-78083368D01*
X150565634Y-78101781D01*
X150552846Y-78119024D01*
X150538430Y-78134930D01*
X150522524Y-78149346D01*
X150505281Y-78162134D01*
X150486868Y-78173170D01*
X150467462Y-78182349D01*
X150447250Y-78189581D01*
X150426426Y-78194797D01*
X150405191Y-78197947D01*
X150383750Y-78199000D01*
X149946250Y-78199000D01*
X149924809Y-78197947D01*
X149903574Y-78194797D01*
X149882750Y-78189581D01*
X149862538Y-78182349D01*
X149843132Y-78173170D01*
X149824719Y-78162134D01*
X149807476Y-78149346D01*
X149791570Y-78134930D01*
X149777154Y-78119024D01*
X149764366Y-78101781D01*
X149753330Y-78083368D01*
X149744151Y-78063962D01*
X149736919Y-78043750D01*
X149731703Y-78022926D01*
X149728553Y-78001691D01*
X149727500Y-77980250D01*
X149727500Y-77467750D01*
X149728553Y-77446309D01*
X149731703Y-77425074D01*
X149736919Y-77404250D01*
X149744151Y-77384038D01*
X149753330Y-77364632D01*
X149764366Y-77346219D01*
X149777154Y-77328976D01*
X149791570Y-77313070D01*
X149807476Y-77298654D01*
X149824719Y-77285866D01*
X149843132Y-77274830D01*
X149862538Y-77265651D01*
X149882750Y-77258419D01*
X149903574Y-77253203D01*
X149924809Y-77250053D01*
X149946250Y-77249000D01*
X150383750Y-77249000D01*
X150405191Y-77250053D01*
X150405191Y-77250053D01*
G37*
D11*
X150165000Y-77724000D03*
G04 #@! TD*
D10*
G04 #@! TO.C,R2*
G36*
X154469191Y-77250053D02*
X154490426Y-77253203D01*
X154511250Y-77258419D01*
X154531462Y-77265651D01*
X154550868Y-77274830D01*
X154569281Y-77285866D01*
X154586524Y-77298654D01*
X154602430Y-77313070D01*
X154616846Y-77328976D01*
X154629634Y-77346219D01*
X154640670Y-77364632D01*
X154649849Y-77384038D01*
X154657081Y-77404250D01*
X154662297Y-77425074D01*
X154665447Y-77446309D01*
X154666500Y-77467750D01*
X154666500Y-77980250D01*
X154665447Y-78001691D01*
X154662297Y-78022926D01*
X154657081Y-78043750D01*
X154649849Y-78063962D01*
X154640670Y-78083368D01*
X154629634Y-78101781D01*
X154616846Y-78119024D01*
X154602430Y-78134930D01*
X154586524Y-78149346D01*
X154569281Y-78162134D01*
X154550868Y-78173170D01*
X154531462Y-78182349D01*
X154511250Y-78189581D01*
X154490426Y-78194797D01*
X154469191Y-78197947D01*
X154447750Y-78199000D01*
X154010250Y-78199000D01*
X153988809Y-78197947D01*
X153967574Y-78194797D01*
X153946750Y-78189581D01*
X153926538Y-78182349D01*
X153907132Y-78173170D01*
X153888719Y-78162134D01*
X153871476Y-78149346D01*
X153855570Y-78134930D01*
X153841154Y-78119024D01*
X153828366Y-78101781D01*
X153817330Y-78083368D01*
X153808151Y-78063962D01*
X153800919Y-78043750D01*
X153795703Y-78022926D01*
X153792553Y-78001691D01*
X153791500Y-77980250D01*
X153791500Y-77467750D01*
X153792553Y-77446309D01*
X153795703Y-77425074D01*
X153800919Y-77404250D01*
X153808151Y-77384038D01*
X153817330Y-77364632D01*
X153828366Y-77346219D01*
X153841154Y-77328976D01*
X153855570Y-77313070D01*
X153871476Y-77298654D01*
X153888719Y-77285866D01*
X153907132Y-77274830D01*
X153926538Y-77265651D01*
X153946750Y-77258419D01*
X153967574Y-77253203D01*
X153988809Y-77250053D01*
X154010250Y-77249000D01*
X154447750Y-77249000D01*
X154469191Y-77250053D01*
X154469191Y-77250053D01*
G37*
D11*
X154229000Y-77724000D03*
D10*
G36*
X152894191Y-77250053D02*
X152915426Y-77253203D01*
X152936250Y-77258419D01*
X152956462Y-77265651D01*
X152975868Y-77274830D01*
X152994281Y-77285866D01*
X153011524Y-77298654D01*
X153027430Y-77313070D01*
X153041846Y-77328976D01*
X153054634Y-77346219D01*
X153065670Y-77364632D01*
X153074849Y-77384038D01*
X153082081Y-77404250D01*
X153087297Y-77425074D01*
X153090447Y-77446309D01*
X153091500Y-77467750D01*
X153091500Y-77980250D01*
X153090447Y-78001691D01*
X153087297Y-78022926D01*
X153082081Y-78043750D01*
X153074849Y-78063962D01*
X153065670Y-78083368D01*
X153054634Y-78101781D01*
X153041846Y-78119024D01*
X153027430Y-78134930D01*
X153011524Y-78149346D01*
X152994281Y-78162134D01*
X152975868Y-78173170D01*
X152956462Y-78182349D01*
X152936250Y-78189581D01*
X152915426Y-78194797D01*
X152894191Y-78197947D01*
X152872750Y-78199000D01*
X152435250Y-78199000D01*
X152413809Y-78197947D01*
X152392574Y-78194797D01*
X152371750Y-78189581D01*
X152351538Y-78182349D01*
X152332132Y-78173170D01*
X152313719Y-78162134D01*
X152296476Y-78149346D01*
X152280570Y-78134930D01*
X152266154Y-78119024D01*
X152253366Y-78101781D01*
X152242330Y-78083368D01*
X152233151Y-78063962D01*
X152225919Y-78043750D01*
X152220703Y-78022926D01*
X152217553Y-78001691D01*
X152216500Y-77980250D01*
X152216500Y-77467750D01*
X152217553Y-77446309D01*
X152220703Y-77425074D01*
X152225919Y-77404250D01*
X152233151Y-77384038D01*
X152242330Y-77364632D01*
X152253366Y-77346219D01*
X152266154Y-77328976D01*
X152280570Y-77313070D01*
X152296476Y-77298654D01*
X152313719Y-77285866D01*
X152332132Y-77274830D01*
X152351538Y-77265651D01*
X152371750Y-77258419D01*
X152392574Y-77253203D01*
X152413809Y-77250053D01*
X152435250Y-77249000D01*
X152872750Y-77249000D01*
X152894191Y-77250053D01*
X152894191Y-77250053D01*
G37*
D11*
X152654000Y-77724000D03*
G04 #@! TD*
D10*
G04 #@! TO.C,R3*
G36*
X127531691Y-89733553D02*
X127552926Y-89736703D01*
X127573750Y-89741919D01*
X127593962Y-89749151D01*
X127613368Y-89758330D01*
X127631781Y-89769366D01*
X127649024Y-89782154D01*
X127664930Y-89796570D01*
X127679346Y-89812476D01*
X127692134Y-89829719D01*
X127703170Y-89848132D01*
X127712349Y-89867538D01*
X127719581Y-89887750D01*
X127724797Y-89908574D01*
X127727947Y-89929809D01*
X127729000Y-89951250D01*
X127729000Y-90388750D01*
X127727947Y-90410191D01*
X127724797Y-90431426D01*
X127719581Y-90452250D01*
X127712349Y-90472462D01*
X127703170Y-90491868D01*
X127692134Y-90510281D01*
X127679346Y-90527524D01*
X127664930Y-90543430D01*
X127649024Y-90557846D01*
X127631781Y-90570634D01*
X127613368Y-90581670D01*
X127593962Y-90590849D01*
X127573750Y-90598081D01*
X127552926Y-90603297D01*
X127531691Y-90606447D01*
X127510250Y-90607500D01*
X126997750Y-90607500D01*
X126976309Y-90606447D01*
X126955074Y-90603297D01*
X126934250Y-90598081D01*
X126914038Y-90590849D01*
X126894632Y-90581670D01*
X126876219Y-90570634D01*
X126858976Y-90557846D01*
X126843070Y-90543430D01*
X126828654Y-90527524D01*
X126815866Y-90510281D01*
X126804830Y-90491868D01*
X126795651Y-90472462D01*
X126788419Y-90452250D01*
X126783203Y-90431426D01*
X126780053Y-90410191D01*
X126779000Y-90388750D01*
X126779000Y-89951250D01*
X126780053Y-89929809D01*
X126783203Y-89908574D01*
X126788419Y-89887750D01*
X126795651Y-89867538D01*
X126804830Y-89848132D01*
X126815866Y-89829719D01*
X126828654Y-89812476D01*
X126843070Y-89796570D01*
X126858976Y-89782154D01*
X126876219Y-89769366D01*
X126894632Y-89758330D01*
X126914038Y-89749151D01*
X126934250Y-89741919D01*
X126955074Y-89736703D01*
X126976309Y-89733553D01*
X126997750Y-89732500D01*
X127510250Y-89732500D01*
X127531691Y-89733553D01*
X127531691Y-89733553D01*
G37*
D11*
X127254000Y-90170000D03*
D10*
G36*
X127531691Y-91308553D02*
X127552926Y-91311703D01*
X127573750Y-91316919D01*
X127593962Y-91324151D01*
X127613368Y-91333330D01*
X127631781Y-91344366D01*
X127649024Y-91357154D01*
X127664930Y-91371570D01*
X127679346Y-91387476D01*
X127692134Y-91404719D01*
X127703170Y-91423132D01*
X127712349Y-91442538D01*
X127719581Y-91462750D01*
X127724797Y-91483574D01*
X127727947Y-91504809D01*
X127729000Y-91526250D01*
X127729000Y-91963750D01*
X127727947Y-91985191D01*
X127724797Y-92006426D01*
X127719581Y-92027250D01*
X127712349Y-92047462D01*
X127703170Y-92066868D01*
X127692134Y-92085281D01*
X127679346Y-92102524D01*
X127664930Y-92118430D01*
X127649024Y-92132846D01*
X127631781Y-92145634D01*
X127613368Y-92156670D01*
X127593962Y-92165849D01*
X127573750Y-92173081D01*
X127552926Y-92178297D01*
X127531691Y-92181447D01*
X127510250Y-92182500D01*
X126997750Y-92182500D01*
X126976309Y-92181447D01*
X126955074Y-92178297D01*
X126934250Y-92173081D01*
X126914038Y-92165849D01*
X126894632Y-92156670D01*
X126876219Y-92145634D01*
X126858976Y-92132846D01*
X126843070Y-92118430D01*
X126828654Y-92102524D01*
X126815866Y-92085281D01*
X126804830Y-92066868D01*
X126795651Y-92047462D01*
X126788419Y-92027250D01*
X126783203Y-92006426D01*
X126780053Y-91985191D01*
X126779000Y-91963750D01*
X126779000Y-91526250D01*
X126780053Y-91504809D01*
X126783203Y-91483574D01*
X126788419Y-91462750D01*
X126795651Y-91442538D01*
X126804830Y-91423132D01*
X126815866Y-91404719D01*
X126828654Y-91387476D01*
X126843070Y-91371570D01*
X126858976Y-91357154D01*
X126876219Y-91344366D01*
X126894632Y-91333330D01*
X126914038Y-91324151D01*
X126934250Y-91316919D01*
X126955074Y-91311703D01*
X126976309Y-91308553D01*
X126997750Y-91307500D01*
X127510250Y-91307500D01*
X127531691Y-91308553D01*
X127531691Y-91308553D01*
G37*
D11*
X127254000Y-91745000D03*
G04 #@! TD*
D10*
G04 #@! TO.C,R5*
G36*
X140727691Y-72424053D02*
X140748926Y-72427203D01*
X140769750Y-72432419D01*
X140789962Y-72439651D01*
X140809368Y-72448830D01*
X140827781Y-72459866D01*
X140845024Y-72472654D01*
X140860930Y-72487070D01*
X140875346Y-72502976D01*
X140888134Y-72520219D01*
X140899170Y-72538632D01*
X140908349Y-72558038D01*
X140915581Y-72578250D01*
X140920797Y-72599074D01*
X140923947Y-72620309D01*
X140925000Y-72641750D01*
X140925000Y-73154250D01*
X140923947Y-73175691D01*
X140920797Y-73196926D01*
X140915581Y-73217750D01*
X140908349Y-73237962D01*
X140899170Y-73257368D01*
X140888134Y-73275781D01*
X140875346Y-73293024D01*
X140860930Y-73308930D01*
X140845024Y-73323346D01*
X140827781Y-73336134D01*
X140809368Y-73347170D01*
X140789962Y-73356349D01*
X140769750Y-73363581D01*
X140748926Y-73368797D01*
X140727691Y-73371947D01*
X140706250Y-73373000D01*
X140268750Y-73373000D01*
X140247309Y-73371947D01*
X140226074Y-73368797D01*
X140205250Y-73363581D01*
X140185038Y-73356349D01*
X140165632Y-73347170D01*
X140147219Y-73336134D01*
X140129976Y-73323346D01*
X140114070Y-73308930D01*
X140099654Y-73293024D01*
X140086866Y-73275781D01*
X140075830Y-73257368D01*
X140066651Y-73237962D01*
X140059419Y-73217750D01*
X140054203Y-73196926D01*
X140051053Y-73175691D01*
X140050000Y-73154250D01*
X140050000Y-72641750D01*
X140051053Y-72620309D01*
X140054203Y-72599074D01*
X140059419Y-72578250D01*
X140066651Y-72558038D01*
X140075830Y-72538632D01*
X140086866Y-72520219D01*
X140099654Y-72502976D01*
X140114070Y-72487070D01*
X140129976Y-72472654D01*
X140147219Y-72459866D01*
X140165632Y-72448830D01*
X140185038Y-72439651D01*
X140205250Y-72432419D01*
X140226074Y-72427203D01*
X140247309Y-72424053D01*
X140268750Y-72423000D01*
X140706250Y-72423000D01*
X140727691Y-72424053D01*
X140727691Y-72424053D01*
G37*
D11*
X140487500Y-72898000D03*
D10*
G36*
X139152691Y-72424053D02*
X139173926Y-72427203D01*
X139194750Y-72432419D01*
X139214962Y-72439651D01*
X139234368Y-72448830D01*
X139252781Y-72459866D01*
X139270024Y-72472654D01*
X139285930Y-72487070D01*
X139300346Y-72502976D01*
X139313134Y-72520219D01*
X139324170Y-72538632D01*
X139333349Y-72558038D01*
X139340581Y-72578250D01*
X139345797Y-72599074D01*
X139348947Y-72620309D01*
X139350000Y-72641750D01*
X139350000Y-73154250D01*
X139348947Y-73175691D01*
X139345797Y-73196926D01*
X139340581Y-73217750D01*
X139333349Y-73237962D01*
X139324170Y-73257368D01*
X139313134Y-73275781D01*
X139300346Y-73293024D01*
X139285930Y-73308930D01*
X139270024Y-73323346D01*
X139252781Y-73336134D01*
X139234368Y-73347170D01*
X139214962Y-73356349D01*
X139194750Y-73363581D01*
X139173926Y-73368797D01*
X139152691Y-73371947D01*
X139131250Y-73373000D01*
X138693750Y-73373000D01*
X138672309Y-73371947D01*
X138651074Y-73368797D01*
X138630250Y-73363581D01*
X138610038Y-73356349D01*
X138590632Y-73347170D01*
X138572219Y-73336134D01*
X138554976Y-73323346D01*
X138539070Y-73308930D01*
X138524654Y-73293024D01*
X138511866Y-73275781D01*
X138500830Y-73257368D01*
X138491651Y-73237962D01*
X138484419Y-73217750D01*
X138479203Y-73196926D01*
X138476053Y-73175691D01*
X138475000Y-73154250D01*
X138475000Y-72641750D01*
X138476053Y-72620309D01*
X138479203Y-72599074D01*
X138484419Y-72578250D01*
X138491651Y-72558038D01*
X138500830Y-72538632D01*
X138511866Y-72520219D01*
X138524654Y-72502976D01*
X138539070Y-72487070D01*
X138554976Y-72472654D01*
X138572219Y-72459866D01*
X138590632Y-72448830D01*
X138610038Y-72439651D01*
X138630250Y-72432419D01*
X138651074Y-72427203D01*
X138672309Y-72424053D01*
X138693750Y-72423000D01*
X139131250Y-72423000D01*
X139152691Y-72424053D01*
X139152691Y-72424053D01*
G37*
D11*
X138912500Y-72898000D03*
G04 #@! TD*
D10*
G04 #@! TO.C,R6*
G36*
X140727691Y-74202053D02*
X140748926Y-74205203D01*
X140769750Y-74210419D01*
X140789962Y-74217651D01*
X140809368Y-74226830D01*
X140827781Y-74237866D01*
X140845024Y-74250654D01*
X140860930Y-74265070D01*
X140875346Y-74280976D01*
X140888134Y-74298219D01*
X140899170Y-74316632D01*
X140908349Y-74336038D01*
X140915581Y-74356250D01*
X140920797Y-74377074D01*
X140923947Y-74398309D01*
X140925000Y-74419750D01*
X140925000Y-74932250D01*
X140923947Y-74953691D01*
X140920797Y-74974926D01*
X140915581Y-74995750D01*
X140908349Y-75015962D01*
X140899170Y-75035368D01*
X140888134Y-75053781D01*
X140875346Y-75071024D01*
X140860930Y-75086930D01*
X140845024Y-75101346D01*
X140827781Y-75114134D01*
X140809368Y-75125170D01*
X140789962Y-75134349D01*
X140769750Y-75141581D01*
X140748926Y-75146797D01*
X140727691Y-75149947D01*
X140706250Y-75151000D01*
X140268750Y-75151000D01*
X140247309Y-75149947D01*
X140226074Y-75146797D01*
X140205250Y-75141581D01*
X140185038Y-75134349D01*
X140165632Y-75125170D01*
X140147219Y-75114134D01*
X140129976Y-75101346D01*
X140114070Y-75086930D01*
X140099654Y-75071024D01*
X140086866Y-75053781D01*
X140075830Y-75035368D01*
X140066651Y-75015962D01*
X140059419Y-74995750D01*
X140054203Y-74974926D01*
X140051053Y-74953691D01*
X140050000Y-74932250D01*
X140050000Y-74419750D01*
X140051053Y-74398309D01*
X140054203Y-74377074D01*
X140059419Y-74356250D01*
X140066651Y-74336038D01*
X140075830Y-74316632D01*
X140086866Y-74298219D01*
X140099654Y-74280976D01*
X140114070Y-74265070D01*
X140129976Y-74250654D01*
X140147219Y-74237866D01*
X140165632Y-74226830D01*
X140185038Y-74217651D01*
X140205250Y-74210419D01*
X140226074Y-74205203D01*
X140247309Y-74202053D01*
X140268750Y-74201000D01*
X140706250Y-74201000D01*
X140727691Y-74202053D01*
X140727691Y-74202053D01*
G37*
D11*
X140487500Y-74676000D03*
D10*
G36*
X139152691Y-74202053D02*
X139173926Y-74205203D01*
X139194750Y-74210419D01*
X139214962Y-74217651D01*
X139234368Y-74226830D01*
X139252781Y-74237866D01*
X139270024Y-74250654D01*
X139285930Y-74265070D01*
X139300346Y-74280976D01*
X139313134Y-74298219D01*
X139324170Y-74316632D01*
X139333349Y-74336038D01*
X139340581Y-74356250D01*
X139345797Y-74377074D01*
X139348947Y-74398309D01*
X139350000Y-74419750D01*
X139350000Y-74932250D01*
X139348947Y-74953691D01*
X139345797Y-74974926D01*
X139340581Y-74995750D01*
X139333349Y-75015962D01*
X139324170Y-75035368D01*
X139313134Y-75053781D01*
X139300346Y-75071024D01*
X139285930Y-75086930D01*
X139270024Y-75101346D01*
X139252781Y-75114134D01*
X139234368Y-75125170D01*
X139214962Y-75134349D01*
X139194750Y-75141581D01*
X139173926Y-75146797D01*
X139152691Y-75149947D01*
X139131250Y-75151000D01*
X138693750Y-75151000D01*
X138672309Y-75149947D01*
X138651074Y-75146797D01*
X138630250Y-75141581D01*
X138610038Y-75134349D01*
X138590632Y-75125170D01*
X138572219Y-75114134D01*
X138554976Y-75101346D01*
X138539070Y-75086930D01*
X138524654Y-75071024D01*
X138511866Y-75053781D01*
X138500830Y-75035368D01*
X138491651Y-75015962D01*
X138484419Y-74995750D01*
X138479203Y-74974926D01*
X138476053Y-74953691D01*
X138475000Y-74932250D01*
X138475000Y-74419750D01*
X138476053Y-74398309D01*
X138479203Y-74377074D01*
X138484419Y-74356250D01*
X138491651Y-74336038D01*
X138500830Y-74316632D01*
X138511866Y-74298219D01*
X138524654Y-74280976D01*
X138539070Y-74265070D01*
X138554976Y-74250654D01*
X138572219Y-74237866D01*
X138590632Y-74226830D01*
X138610038Y-74217651D01*
X138630250Y-74210419D01*
X138651074Y-74205203D01*
X138672309Y-74202053D01*
X138693750Y-74201000D01*
X139131250Y-74201000D01*
X139152691Y-74202053D01*
X139152691Y-74202053D01*
G37*
D11*
X138912500Y-74676000D03*
G04 #@! TD*
D10*
G04 #@! TO.C,R7*
G36*
X139152691Y-70646053D02*
X139173926Y-70649203D01*
X139194750Y-70654419D01*
X139214962Y-70661651D01*
X139234368Y-70670830D01*
X139252781Y-70681866D01*
X139270024Y-70694654D01*
X139285930Y-70709070D01*
X139300346Y-70724976D01*
X139313134Y-70742219D01*
X139324170Y-70760632D01*
X139333349Y-70780038D01*
X139340581Y-70800250D01*
X139345797Y-70821074D01*
X139348947Y-70842309D01*
X139350000Y-70863750D01*
X139350000Y-71376250D01*
X139348947Y-71397691D01*
X139345797Y-71418926D01*
X139340581Y-71439750D01*
X139333349Y-71459962D01*
X139324170Y-71479368D01*
X139313134Y-71497781D01*
X139300346Y-71515024D01*
X139285930Y-71530930D01*
X139270024Y-71545346D01*
X139252781Y-71558134D01*
X139234368Y-71569170D01*
X139214962Y-71578349D01*
X139194750Y-71585581D01*
X139173926Y-71590797D01*
X139152691Y-71593947D01*
X139131250Y-71595000D01*
X138693750Y-71595000D01*
X138672309Y-71593947D01*
X138651074Y-71590797D01*
X138630250Y-71585581D01*
X138610038Y-71578349D01*
X138590632Y-71569170D01*
X138572219Y-71558134D01*
X138554976Y-71545346D01*
X138539070Y-71530930D01*
X138524654Y-71515024D01*
X138511866Y-71497781D01*
X138500830Y-71479368D01*
X138491651Y-71459962D01*
X138484419Y-71439750D01*
X138479203Y-71418926D01*
X138476053Y-71397691D01*
X138475000Y-71376250D01*
X138475000Y-70863750D01*
X138476053Y-70842309D01*
X138479203Y-70821074D01*
X138484419Y-70800250D01*
X138491651Y-70780038D01*
X138500830Y-70760632D01*
X138511866Y-70742219D01*
X138524654Y-70724976D01*
X138539070Y-70709070D01*
X138554976Y-70694654D01*
X138572219Y-70681866D01*
X138590632Y-70670830D01*
X138610038Y-70661651D01*
X138630250Y-70654419D01*
X138651074Y-70649203D01*
X138672309Y-70646053D01*
X138693750Y-70645000D01*
X139131250Y-70645000D01*
X139152691Y-70646053D01*
X139152691Y-70646053D01*
G37*
D11*
X138912500Y-71120000D03*
D10*
G36*
X140727691Y-70646053D02*
X140748926Y-70649203D01*
X140769750Y-70654419D01*
X140789962Y-70661651D01*
X140809368Y-70670830D01*
X140827781Y-70681866D01*
X140845024Y-70694654D01*
X140860930Y-70709070D01*
X140875346Y-70724976D01*
X140888134Y-70742219D01*
X140899170Y-70760632D01*
X140908349Y-70780038D01*
X140915581Y-70800250D01*
X140920797Y-70821074D01*
X140923947Y-70842309D01*
X140925000Y-70863750D01*
X140925000Y-71376250D01*
X140923947Y-71397691D01*
X140920797Y-71418926D01*
X140915581Y-71439750D01*
X140908349Y-71459962D01*
X140899170Y-71479368D01*
X140888134Y-71497781D01*
X140875346Y-71515024D01*
X140860930Y-71530930D01*
X140845024Y-71545346D01*
X140827781Y-71558134D01*
X140809368Y-71569170D01*
X140789962Y-71578349D01*
X140769750Y-71585581D01*
X140748926Y-71590797D01*
X140727691Y-71593947D01*
X140706250Y-71595000D01*
X140268750Y-71595000D01*
X140247309Y-71593947D01*
X140226074Y-71590797D01*
X140205250Y-71585581D01*
X140185038Y-71578349D01*
X140165632Y-71569170D01*
X140147219Y-71558134D01*
X140129976Y-71545346D01*
X140114070Y-71530930D01*
X140099654Y-71515024D01*
X140086866Y-71497781D01*
X140075830Y-71479368D01*
X140066651Y-71459962D01*
X140059419Y-71439750D01*
X140054203Y-71418926D01*
X140051053Y-71397691D01*
X140050000Y-71376250D01*
X140050000Y-70863750D01*
X140051053Y-70842309D01*
X140054203Y-70821074D01*
X140059419Y-70800250D01*
X140066651Y-70780038D01*
X140075830Y-70760632D01*
X140086866Y-70742219D01*
X140099654Y-70724976D01*
X140114070Y-70709070D01*
X140129976Y-70694654D01*
X140147219Y-70681866D01*
X140165632Y-70670830D01*
X140185038Y-70661651D01*
X140205250Y-70654419D01*
X140226074Y-70649203D01*
X140247309Y-70646053D01*
X140268750Y-70645000D01*
X140706250Y-70645000D01*
X140727691Y-70646053D01*
X140727691Y-70646053D01*
G37*
D11*
X140487500Y-71120000D03*
G04 #@! TD*
D13*
G04 #@! TO.C,U1*
X124280000Y-74136000D03*
X124280000Y-74636000D03*
X124280000Y-75136000D03*
X124280000Y-75636000D03*
D14*
X125230000Y-76086000D03*
X126230000Y-76086000D03*
X125730000Y-76086000D03*
X125230000Y-73686000D03*
X126230000Y-73686000D03*
X125730000Y-73686000D03*
D13*
X127180000Y-74136000D03*
X127180000Y-74636000D03*
X127180000Y-75136000D03*
X127180000Y-75636000D03*
G04 #@! TD*
D15*
G04 #@! TO.C,U2*
X157246000Y-89882000D03*
X157746000Y-89882000D03*
X158246000Y-89882000D03*
X158746000Y-89882000D03*
X159246000Y-89882000D03*
X159746000Y-89882000D03*
X159746000Y-91982000D03*
X159246000Y-91982000D03*
X158746000Y-91982000D03*
X158246000Y-91982000D03*
X157746000Y-91982000D03*
X157246000Y-91982000D03*
G04 #@! TD*
D10*
G04 #@! TO.C,C10*
G36*
X156487691Y-78811553D02*
X156508926Y-78814703D01*
X156529750Y-78819919D01*
X156549962Y-78827151D01*
X156569368Y-78836330D01*
X156587781Y-78847366D01*
X156605024Y-78860154D01*
X156620930Y-78874570D01*
X156635346Y-78890476D01*
X156648134Y-78907719D01*
X156659170Y-78926132D01*
X156668349Y-78945538D01*
X156675581Y-78965750D01*
X156680797Y-78986574D01*
X156683947Y-79007809D01*
X156685000Y-79029250D01*
X156685000Y-79466750D01*
X156683947Y-79488191D01*
X156680797Y-79509426D01*
X156675581Y-79530250D01*
X156668349Y-79550462D01*
X156659170Y-79569868D01*
X156648134Y-79588281D01*
X156635346Y-79605524D01*
X156620930Y-79621430D01*
X156605024Y-79635846D01*
X156587781Y-79648634D01*
X156569368Y-79659670D01*
X156549962Y-79668849D01*
X156529750Y-79676081D01*
X156508926Y-79681297D01*
X156487691Y-79684447D01*
X156466250Y-79685500D01*
X155953750Y-79685500D01*
X155932309Y-79684447D01*
X155911074Y-79681297D01*
X155890250Y-79676081D01*
X155870038Y-79668849D01*
X155850632Y-79659670D01*
X155832219Y-79648634D01*
X155814976Y-79635846D01*
X155799070Y-79621430D01*
X155784654Y-79605524D01*
X155771866Y-79588281D01*
X155760830Y-79569868D01*
X155751651Y-79550462D01*
X155744419Y-79530250D01*
X155739203Y-79509426D01*
X155736053Y-79488191D01*
X155735000Y-79466750D01*
X155735000Y-79029250D01*
X155736053Y-79007809D01*
X155739203Y-78986574D01*
X155744419Y-78965750D01*
X155751651Y-78945538D01*
X155760830Y-78926132D01*
X155771866Y-78907719D01*
X155784654Y-78890476D01*
X155799070Y-78874570D01*
X155814976Y-78860154D01*
X155832219Y-78847366D01*
X155850632Y-78836330D01*
X155870038Y-78827151D01*
X155890250Y-78819919D01*
X155911074Y-78814703D01*
X155932309Y-78811553D01*
X155953750Y-78810500D01*
X156466250Y-78810500D01*
X156487691Y-78811553D01*
X156487691Y-78811553D01*
G37*
D11*
X156210000Y-79248000D03*
D10*
G36*
X156487691Y-77236553D02*
X156508926Y-77239703D01*
X156529750Y-77244919D01*
X156549962Y-77252151D01*
X156569368Y-77261330D01*
X156587781Y-77272366D01*
X156605024Y-77285154D01*
X156620930Y-77299570D01*
X156635346Y-77315476D01*
X156648134Y-77332719D01*
X156659170Y-77351132D01*
X156668349Y-77370538D01*
X156675581Y-77390750D01*
X156680797Y-77411574D01*
X156683947Y-77432809D01*
X156685000Y-77454250D01*
X156685000Y-77891750D01*
X156683947Y-77913191D01*
X156680797Y-77934426D01*
X156675581Y-77955250D01*
X156668349Y-77975462D01*
X156659170Y-77994868D01*
X156648134Y-78013281D01*
X156635346Y-78030524D01*
X156620930Y-78046430D01*
X156605024Y-78060846D01*
X156587781Y-78073634D01*
X156569368Y-78084670D01*
X156549962Y-78093849D01*
X156529750Y-78101081D01*
X156508926Y-78106297D01*
X156487691Y-78109447D01*
X156466250Y-78110500D01*
X155953750Y-78110500D01*
X155932309Y-78109447D01*
X155911074Y-78106297D01*
X155890250Y-78101081D01*
X155870038Y-78093849D01*
X155850632Y-78084670D01*
X155832219Y-78073634D01*
X155814976Y-78060846D01*
X155799070Y-78046430D01*
X155784654Y-78030524D01*
X155771866Y-78013281D01*
X155760830Y-77994868D01*
X155751651Y-77975462D01*
X155744419Y-77955250D01*
X155739203Y-77934426D01*
X155736053Y-77913191D01*
X155735000Y-77891750D01*
X155735000Y-77454250D01*
X155736053Y-77432809D01*
X155739203Y-77411574D01*
X155744419Y-77390750D01*
X155751651Y-77370538D01*
X155760830Y-77351132D01*
X155771866Y-77332719D01*
X155784654Y-77315476D01*
X155799070Y-77299570D01*
X155814976Y-77285154D01*
X155832219Y-77272366D01*
X155850632Y-77261330D01*
X155870038Y-77252151D01*
X155890250Y-77244919D01*
X155911074Y-77239703D01*
X155932309Y-77236553D01*
X155953750Y-77235500D01*
X156466250Y-77235500D01*
X156487691Y-77236553D01*
X156487691Y-77236553D01*
G37*
D11*
X156210000Y-77673000D03*
G04 #@! TD*
M02*
