G04 #@! TF.GenerationSoftware,KiCad,Pcbnew,5.0.0-fee4fd1~66~ubuntu16.04.1*
G04 #@! TF.CreationDate,2018-10-28T11:18:26+01:00*
G04 #@! TF.ProjectId,balancebot,62616C616E6365626F742E6B69636164,rev?*
G04 #@! TF.SameCoordinates,Original*
G04 #@! TF.FileFunction,Legend,Top*
G04 #@! TF.FilePolarity,Positive*
%FSLAX46Y46*%
G04 Gerber Fmt 4.6, Leading zero omitted, Abs format (unit mm)*
G04 Created by KiCad (PCBNEW 5.0.0-fee4fd1~66~ubuntu16.04.1) date Sun Oct 28 11:18:26 2018*
%MOMM*%
%LPD*%
G01*
G04 APERTURE LIST*
%ADD10C,0.300000*%
%ADD11C,0.120000*%
%ADD12C,0.150000*%
%ADD13C,0.050000*%
%ADD14C,0.100000*%
%ADD15C,0.010000*%
G04 APERTURE END LIST*
D10*
X154047714Y-97936857D02*
X154262000Y-98008285D01*
X154333428Y-98079714D01*
X154404857Y-98222571D01*
X154404857Y-98436857D01*
X154333428Y-98579714D01*
X154262000Y-98651142D01*
X154119142Y-98722571D01*
X153547714Y-98722571D01*
X153547714Y-97222571D01*
X154047714Y-97222571D01*
X154190571Y-97294000D01*
X154262000Y-97365428D01*
X154333428Y-97508285D01*
X154333428Y-97651142D01*
X154262000Y-97794000D01*
X154190571Y-97865428D01*
X154047714Y-97936857D01*
X153547714Y-97936857D01*
X155690571Y-98722571D02*
X155690571Y-97936857D01*
X155619142Y-97794000D01*
X155476285Y-97722571D01*
X155190571Y-97722571D01*
X155047714Y-97794000D01*
X155690571Y-98651142D02*
X155547714Y-98722571D01*
X155190571Y-98722571D01*
X155047714Y-98651142D01*
X154976285Y-98508285D01*
X154976285Y-98365428D01*
X155047714Y-98222571D01*
X155190571Y-98151142D01*
X155547714Y-98151142D01*
X155690571Y-98079714D01*
X156619142Y-98722571D02*
X156476285Y-98651142D01*
X156404857Y-98508285D01*
X156404857Y-97222571D01*
X157833428Y-98722571D02*
X157833428Y-97936857D01*
X157762000Y-97794000D01*
X157619142Y-97722571D01*
X157333428Y-97722571D01*
X157190571Y-97794000D01*
X157833428Y-98651142D02*
X157690571Y-98722571D01*
X157333428Y-98722571D01*
X157190571Y-98651142D01*
X157119142Y-98508285D01*
X157119142Y-98365428D01*
X157190571Y-98222571D01*
X157333428Y-98151142D01*
X157690571Y-98151142D01*
X157833428Y-98079714D01*
X158547714Y-97722571D02*
X158547714Y-98722571D01*
X158547714Y-97865428D02*
X158619142Y-97794000D01*
X158762000Y-97722571D01*
X158976285Y-97722571D01*
X159119142Y-97794000D01*
X159190571Y-97936857D01*
X159190571Y-98722571D01*
X160547714Y-98651142D02*
X160404857Y-98722571D01*
X160119142Y-98722571D01*
X159976285Y-98651142D01*
X159904857Y-98579714D01*
X159833428Y-98436857D01*
X159833428Y-98008285D01*
X159904857Y-97865428D01*
X159976285Y-97794000D01*
X160119142Y-97722571D01*
X160404857Y-97722571D01*
X160547714Y-97794000D01*
X161762000Y-98651142D02*
X161619142Y-98722571D01*
X161333428Y-98722571D01*
X161190571Y-98651142D01*
X161119142Y-98508285D01*
X161119142Y-97936857D01*
X161190571Y-97794000D01*
X161333428Y-97722571D01*
X161619142Y-97722571D01*
X161762000Y-97794000D01*
X161833428Y-97936857D01*
X161833428Y-98079714D01*
X161119142Y-98222571D01*
X162976285Y-97936857D02*
X163190571Y-98008285D01*
X163262000Y-98079714D01*
X163333428Y-98222571D01*
X163333428Y-98436857D01*
X163262000Y-98579714D01*
X163190571Y-98651142D01*
X163047714Y-98722571D01*
X162476285Y-98722571D01*
X162476285Y-97222571D01*
X162976285Y-97222571D01*
X163119142Y-97294000D01*
X163190571Y-97365428D01*
X163262000Y-97508285D01*
X163262000Y-97651142D01*
X163190571Y-97794000D01*
X163119142Y-97865428D01*
X162976285Y-97936857D01*
X162476285Y-97936857D01*
X164190571Y-98722571D02*
X164047714Y-98651142D01*
X163976285Y-98579714D01*
X163904857Y-98436857D01*
X163904857Y-98008285D01*
X163976285Y-97865428D01*
X164047714Y-97794000D01*
X164190571Y-97722571D01*
X164404857Y-97722571D01*
X164547714Y-97794000D01*
X164619142Y-97865428D01*
X164690571Y-98008285D01*
X164690571Y-98436857D01*
X164619142Y-98579714D01*
X164547714Y-98651142D01*
X164404857Y-98722571D01*
X164190571Y-98722571D01*
X165119142Y-97722571D02*
X165690571Y-97722571D01*
X165333428Y-97222571D02*
X165333428Y-98508285D01*
X165404857Y-98651142D01*
X165547714Y-98722571D01*
X165690571Y-98722571D01*
D11*
G04 #@! TO.C,R4*
X139562721Y-75944000D02*
X139888279Y-75944000D01*
X139562721Y-76964000D02*
X139888279Y-76964000D01*
G04 #@! TO.C,C1*
X166312000Y-77782000D02*
X163562000Y-77782000D01*
X157792000Y-77782000D02*
X160542000Y-77782000D01*
X157792000Y-85237563D02*
X157792000Y-77782000D01*
X166312000Y-85237563D02*
X166312000Y-77782000D01*
X165247563Y-86302000D02*
X163562000Y-86302000D01*
X158856437Y-86302000D02*
X160542000Y-86302000D01*
X158856437Y-86302000D02*
X157792000Y-85237563D01*
X165247563Y-86302000D02*
X166312000Y-85237563D01*
X159542000Y-87542000D02*
X159542000Y-86542000D01*
X159042000Y-87042000D02*
X160042000Y-87042000D01*
G04 #@! TO.C,C2*
X164708721Y-89156000D02*
X165034279Y-89156000D01*
X164708721Y-88136000D02*
X165034279Y-88136000D01*
G04 #@! TO.C,C3*
X124830721Y-71118000D02*
X125156279Y-71118000D01*
X124830721Y-72138000D02*
X125156279Y-72138000D01*
G04 #@! TO.C,C4*
X128132721Y-72138000D02*
X128458279Y-72138000D01*
X128132721Y-71118000D02*
X128458279Y-71118000D01*
G04 #@! TO.C,C5*
X164983279Y-91950000D02*
X164657721Y-91950000D01*
X164983279Y-90930000D02*
X164657721Y-90930000D01*
G04 #@! TO.C,C6*
X145633221Y-63752000D02*
X145958779Y-63752000D01*
X145633221Y-64772000D02*
X145958779Y-64772000D01*
G04 #@! TO.C,C7*
X139956000Y-84262279D02*
X139956000Y-83936721D01*
X138936000Y-84262279D02*
X138936000Y-83936721D01*
G04 #@! TO.C,C8*
X139816721Y-100836000D02*
X140142279Y-100836000D01*
X139816721Y-101856000D02*
X140142279Y-101856000D01*
G04 #@! TO.C,C9*
X156466000Y-90332779D02*
X156466000Y-90007221D01*
X155446000Y-90332779D02*
X155446000Y-90007221D01*
G04 #@! TO.C,FB1*
X121918000Y-75346779D02*
X121918000Y-75021221D01*
X122938000Y-75346779D02*
X122938000Y-75021221D01*
G04 #@! TO.C,J1*
X159786000Y-109394000D02*
X159786000Y-103424000D01*
X159786000Y-103424000D02*
X147166000Y-103424000D01*
X147166000Y-103424000D02*
X147166000Y-109394000D01*
X147166000Y-109394000D02*
X159786000Y-109394000D01*
X156476000Y-109384000D02*
X156476000Y-108634000D01*
X156476000Y-108634000D02*
X150476000Y-108634000D01*
X150476000Y-108634000D02*
X150476000Y-109384000D01*
X150476000Y-109384000D02*
X156476000Y-109384000D01*
X159776000Y-109384000D02*
X159776000Y-108634000D01*
X159776000Y-108634000D02*
X157976000Y-108634000D01*
X157976000Y-108634000D02*
X157976000Y-109384000D01*
X157976000Y-109384000D02*
X159776000Y-109384000D01*
X148976000Y-109384000D02*
X148976000Y-108634000D01*
X148976000Y-108634000D02*
X147176000Y-108634000D01*
X147176000Y-108634000D02*
X147176000Y-109384000D01*
X147176000Y-109384000D02*
X148976000Y-109384000D01*
X159776000Y-107134000D02*
X159026000Y-107134000D01*
X159026000Y-107134000D02*
X159026000Y-104184000D01*
X159026000Y-104184000D02*
X153476000Y-104184000D01*
X147176000Y-107134000D02*
X147926000Y-107134000D01*
X147926000Y-107134000D02*
X147926000Y-104184000D01*
X147926000Y-104184000D02*
X153476000Y-104184000D01*
X158826000Y-109684000D02*
X160076000Y-109684000D01*
X160076000Y-109684000D02*
X160076000Y-108434000D01*
G04 #@! TO.C,J2*
X166036000Y-66274000D02*
X160066000Y-66274000D01*
X160066000Y-66274000D02*
X160066000Y-73894000D01*
X160066000Y-73894000D02*
X166036000Y-73894000D01*
X166036000Y-73894000D02*
X166036000Y-66274000D01*
X166026000Y-69584000D02*
X165276000Y-69584000D01*
X165276000Y-69584000D02*
X165276000Y-70584000D01*
X165276000Y-70584000D02*
X166026000Y-70584000D01*
X166026000Y-70584000D02*
X166026000Y-69584000D01*
X166026000Y-66284000D02*
X165276000Y-66284000D01*
X165276000Y-66284000D02*
X165276000Y-68084000D01*
X165276000Y-68084000D02*
X166026000Y-68084000D01*
X166026000Y-68084000D02*
X166026000Y-66284000D01*
X166026000Y-72084000D02*
X165276000Y-72084000D01*
X165276000Y-72084000D02*
X165276000Y-73884000D01*
X165276000Y-73884000D02*
X166026000Y-73884000D01*
X166026000Y-73884000D02*
X166026000Y-72084000D01*
X163776000Y-66284000D02*
X163776000Y-67034000D01*
X163776000Y-67034000D02*
X160826000Y-67034000D01*
X160826000Y-67034000D02*
X160826000Y-70084000D01*
X163776000Y-73884000D02*
X163776000Y-73134000D01*
X163776000Y-73134000D02*
X160826000Y-73134000D01*
X160826000Y-73134000D02*
X160826000Y-70084000D01*
X166326000Y-67234000D02*
X166326000Y-65984000D01*
X166326000Y-65984000D02*
X165076000Y-65984000D01*
G04 #@! TO.C,J3*
X132100000Y-109394000D02*
X132100000Y-103424000D01*
X132100000Y-103424000D02*
X121980000Y-103424000D01*
X121980000Y-103424000D02*
X121980000Y-109394000D01*
X121980000Y-109394000D02*
X132100000Y-109394000D01*
X128790000Y-109384000D02*
X128790000Y-108634000D01*
X128790000Y-108634000D02*
X125290000Y-108634000D01*
X125290000Y-108634000D02*
X125290000Y-109384000D01*
X125290000Y-109384000D02*
X128790000Y-109384000D01*
X132090000Y-109384000D02*
X132090000Y-108634000D01*
X132090000Y-108634000D02*
X130290000Y-108634000D01*
X130290000Y-108634000D02*
X130290000Y-109384000D01*
X130290000Y-109384000D02*
X132090000Y-109384000D01*
X123790000Y-109384000D02*
X123790000Y-108634000D01*
X123790000Y-108634000D02*
X121990000Y-108634000D01*
X121990000Y-108634000D02*
X121990000Y-109384000D01*
X121990000Y-109384000D02*
X123790000Y-109384000D01*
X132090000Y-107134000D02*
X131340000Y-107134000D01*
X131340000Y-107134000D02*
X131340000Y-104184000D01*
X131340000Y-104184000D02*
X127040000Y-104184000D01*
X121990000Y-107134000D02*
X122740000Y-107134000D01*
X122740000Y-107134000D02*
X122740000Y-104184000D01*
X122740000Y-104184000D02*
X127040000Y-104184000D01*
X131140000Y-109684000D02*
X132390000Y-109684000D01*
X132390000Y-109684000D02*
X132390000Y-108434000D01*
G04 #@! TO.C,J4*
X146106000Y-109684000D02*
X146106000Y-108434000D01*
X144856000Y-109684000D02*
X146106000Y-109684000D01*
X133956000Y-104184000D02*
X139506000Y-104184000D01*
X133956000Y-107134000D02*
X133956000Y-104184000D01*
X133206000Y-107134000D02*
X133956000Y-107134000D01*
X145056000Y-104184000D02*
X139506000Y-104184000D01*
X145056000Y-107134000D02*
X145056000Y-104184000D01*
X145806000Y-107134000D02*
X145056000Y-107134000D01*
X133206000Y-109384000D02*
X135006000Y-109384000D01*
X133206000Y-108634000D02*
X133206000Y-109384000D01*
X135006000Y-108634000D02*
X133206000Y-108634000D01*
X135006000Y-109384000D02*
X135006000Y-108634000D01*
X144006000Y-109384000D02*
X145806000Y-109384000D01*
X144006000Y-108634000D02*
X144006000Y-109384000D01*
X145806000Y-108634000D02*
X144006000Y-108634000D01*
X145806000Y-109384000D02*
X145806000Y-108634000D01*
X136506000Y-109384000D02*
X142506000Y-109384000D01*
X136506000Y-108634000D02*
X136506000Y-109384000D01*
X142506000Y-108634000D02*
X136506000Y-108634000D01*
X142506000Y-109384000D02*
X142506000Y-108634000D01*
X133196000Y-109394000D02*
X145816000Y-109394000D01*
X133196000Y-103424000D02*
X133196000Y-109394000D01*
X145816000Y-103424000D02*
X133196000Y-103424000D01*
X145816000Y-109394000D02*
X145816000Y-103424000D01*
G04 #@! TO.C,J5*
X148416000Y-91714000D02*
X154386000Y-91714000D01*
X154386000Y-91714000D02*
X154386000Y-79094000D01*
X154386000Y-79094000D02*
X148416000Y-79094000D01*
X148416000Y-79094000D02*
X148416000Y-91714000D01*
X148426000Y-88404000D02*
X149176000Y-88404000D01*
X149176000Y-88404000D02*
X149176000Y-82404000D01*
X149176000Y-82404000D02*
X148426000Y-82404000D01*
X148426000Y-82404000D02*
X148426000Y-88404000D01*
X148426000Y-91704000D02*
X149176000Y-91704000D01*
X149176000Y-91704000D02*
X149176000Y-89904000D01*
X149176000Y-89904000D02*
X148426000Y-89904000D01*
X148426000Y-89904000D02*
X148426000Y-91704000D01*
X148426000Y-80904000D02*
X149176000Y-80904000D01*
X149176000Y-80904000D02*
X149176000Y-79104000D01*
X149176000Y-79104000D02*
X148426000Y-79104000D01*
X148426000Y-79104000D02*
X148426000Y-80904000D01*
X150676000Y-91704000D02*
X150676000Y-90954000D01*
X150676000Y-90954000D02*
X153626000Y-90954000D01*
X153626000Y-90954000D02*
X153626000Y-85404000D01*
X150676000Y-79104000D02*
X150676000Y-79854000D01*
X150676000Y-79854000D02*
X153626000Y-79854000D01*
X153626000Y-79854000D02*
X153626000Y-85404000D01*
X148126000Y-90754000D02*
X148126000Y-92004000D01*
X148126000Y-92004000D02*
X149376000Y-92004000D01*
G04 #@! TO.C,J6*
X122154000Y-51896000D02*
X122154000Y-57866000D01*
X122154000Y-57866000D02*
X142274000Y-57866000D01*
X142274000Y-57866000D02*
X142274000Y-51896000D01*
X142274000Y-51896000D02*
X122154000Y-51896000D01*
X125464000Y-51906000D02*
X125464000Y-52656000D01*
X125464000Y-52656000D02*
X138964000Y-52656000D01*
X138964000Y-52656000D02*
X138964000Y-51906000D01*
X138964000Y-51906000D02*
X125464000Y-51906000D01*
X122164000Y-51906000D02*
X122164000Y-52656000D01*
X122164000Y-52656000D02*
X123964000Y-52656000D01*
X123964000Y-52656000D02*
X123964000Y-51906000D01*
X123964000Y-51906000D02*
X122164000Y-51906000D01*
X140464000Y-51906000D02*
X140464000Y-52656000D01*
X140464000Y-52656000D02*
X142264000Y-52656000D01*
X142264000Y-52656000D02*
X142264000Y-51906000D01*
X142264000Y-51906000D02*
X140464000Y-51906000D01*
X122164000Y-54156000D02*
X122914000Y-54156000D01*
X122914000Y-54156000D02*
X122914000Y-57106000D01*
X122914000Y-57106000D02*
X132214000Y-57106000D01*
X142264000Y-54156000D02*
X141514000Y-54156000D01*
X141514000Y-54156000D02*
X141514000Y-57106000D01*
X141514000Y-57106000D02*
X132214000Y-57106000D01*
X123114000Y-51606000D02*
X121864000Y-51606000D01*
X121864000Y-51606000D02*
X121864000Y-52856000D01*
G04 #@! TO.C,R1*
X149214721Y-77214000D02*
X149540279Y-77214000D01*
X149214721Y-78234000D02*
X149540279Y-78234000D01*
G04 #@! TO.C,R2*
X153278721Y-78234000D02*
X153604279Y-78234000D01*
X153278721Y-77214000D02*
X153604279Y-77214000D01*
G04 #@! TO.C,R3*
X127764000Y-90794721D02*
X127764000Y-91120279D01*
X126744000Y-90794721D02*
X126744000Y-91120279D01*
G04 #@! TO.C,R5*
X139862779Y-73408000D02*
X139537221Y-73408000D01*
X139862779Y-72388000D02*
X139537221Y-72388000D01*
G04 #@! TO.C,R6*
X139537221Y-75186000D02*
X139862779Y-75186000D01*
X139537221Y-74166000D02*
X139862779Y-74166000D01*
G04 #@! TO.C,R7*
X139862779Y-70610000D02*
X139537221Y-70610000D01*
X139862779Y-71630000D02*
X139537221Y-71630000D01*
G04 #@! TO.C,C10*
X155700000Y-78623279D02*
X155700000Y-78297721D01*
X156720000Y-78623279D02*
X156720000Y-78297721D01*
D12*
G04 #@! TO.C,U4*
X148082000Y-76708000D02*
X149098000Y-76708000D01*
X149098000Y-59436000D02*
X148082000Y-59436000D01*
X159258000Y-59436000D02*
X158242000Y-59436000D01*
X158242000Y-76708000D02*
X159258000Y-76708000D01*
X159258000Y-59436000D02*
X159258000Y-76708000D01*
X148082000Y-76708000D02*
X148082000Y-59436000D01*
X149098000Y-59436000D02*
X158242000Y-59436000D01*
X158242000Y-76708000D02*
X149098000Y-76708000D01*
D13*
G04 #@! TO.C,U3*
X147098000Y-58398000D02*
X115548000Y-58398000D01*
X115548000Y-102628000D02*
X147098000Y-102628000D01*
X115548000Y-58398000D02*
X115548000Y-102628000D01*
D11*
X116018000Y-66488000D02*
X117348000Y-66488000D01*
X116018000Y-67818000D02*
X116018000Y-66488000D01*
X118618000Y-66488000D02*
X121218000Y-66488000D01*
X118618000Y-69088000D02*
X118618000Y-66488000D01*
X116018000Y-69088000D02*
X118618000Y-69088000D01*
X121218000Y-66488000D02*
X121218000Y-92008000D01*
X116018000Y-69088000D02*
X116018000Y-92008000D01*
X116018000Y-92008000D02*
X121218000Y-92008000D01*
D13*
X147098000Y-58398000D02*
X147098000Y-102628000D01*
D14*
X146558000Y-66488000D02*
X146558000Y-91948000D01*
X141418000Y-66488000D02*
X141418000Y-92008000D01*
D11*
X141418000Y-92008000D02*
X146558000Y-92008000D01*
X141418000Y-66488000D02*
X146558000Y-66488000D01*
D15*
G04 #@! TO.C,REF\002A\002A*
G36*
X153138910Y-52487348D02*
X153217454Y-52487778D01*
X153274298Y-52488942D01*
X153313105Y-52491207D01*
X153337538Y-52494940D01*
X153351262Y-52500506D01*
X153357940Y-52508273D01*
X153361236Y-52518605D01*
X153361556Y-52519943D01*
X153366562Y-52544079D01*
X153375829Y-52591701D01*
X153388392Y-52657741D01*
X153403287Y-52737128D01*
X153419551Y-52824796D01*
X153420119Y-52827875D01*
X153436410Y-52913789D01*
X153451652Y-52989696D01*
X153464861Y-53051045D01*
X153475054Y-53093282D01*
X153481248Y-53111855D01*
X153481543Y-53112184D01*
X153499788Y-53121253D01*
X153537405Y-53136367D01*
X153586271Y-53154262D01*
X153586543Y-53154358D01*
X153648093Y-53177493D01*
X153720657Y-53206965D01*
X153789057Y-53236597D01*
X153792294Y-53238062D01*
X153903702Y-53288626D01*
X154150399Y-53120160D01*
X154226077Y-53068803D01*
X154294631Y-53022889D01*
X154352088Y-52985030D01*
X154394476Y-52957837D01*
X154417825Y-52943921D01*
X154420042Y-52942889D01*
X154437010Y-52947484D01*
X154468701Y-52969655D01*
X154516352Y-53010447D01*
X154581198Y-53070905D01*
X154647397Y-53135227D01*
X154711214Y-53198612D01*
X154768329Y-53256451D01*
X154815305Y-53305175D01*
X154848703Y-53341210D01*
X154865085Y-53360984D01*
X154865694Y-53362002D01*
X154867505Y-53375572D01*
X154860683Y-53397733D01*
X154843540Y-53431478D01*
X154814393Y-53479800D01*
X154771555Y-53545692D01*
X154714448Y-53630517D01*
X154663766Y-53705177D01*
X154618461Y-53772140D01*
X154581150Y-53827516D01*
X154554452Y-53867420D01*
X154540985Y-53887962D01*
X154540137Y-53889356D01*
X154541781Y-53909038D01*
X154554245Y-53947293D01*
X154575048Y-53996889D01*
X154582462Y-54012728D01*
X154614814Y-54083290D01*
X154649328Y-54163353D01*
X154677365Y-54232629D01*
X154697568Y-54284045D01*
X154713615Y-54323119D01*
X154722888Y-54343541D01*
X154724041Y-54345114D01*
X154741096Y-54347721D01*
X154781298Y-54354863D01*
X154839302Y-54365523D01*
X154909763Y-54378685D01*
X154987335Y-54393333D01*
X155066672Y-54408449D01*
X155142431Y-54423018D01*
X155209264Y-54436022D01*
X155261828Y-54446445D01*
X155294776Y-54453270D01*
X155302857Y-54455199D01*
X155311205Y-54459962D01*
X155317506Y-54470718D01*
X155322045Y-54491098D01*
X155325104Y-54524734D01*
X155326967Y-54575255D01*
X155327918Y-54646292D01*
X155328240Y-54741476D01*
X155328257Y-54780492D01*
X155328257Y-55097799D01*
X155252057Y-55112839D01*
X155209663Y-55120995D01*
X155146400Y-55132899D01*
X155069962Y-55147116D01*
X154988043Y-55162210D01*
X154965400Y-55166355D01*
X154889806Y-55181053D01*
X154823953Y-55195505D01*
X154773366Y-55208375D01*
X154743574Y-55218322D01*
X154738612Y-55221287D01*
X154726426Y-55242283D01*
X154708953Y-55282967D01*
X154689577Y-55335322D01*
X154685734Y-55346600D01*
X154660339Y-55416523D01*
X154628817Y-55495418D01*
X154597969Y-55566266D01*
X154597817Y-55566595D01*
X154546447Y-55677733D01*
X154715399Y-55926253D01*
X154884352Y-56174772D01*
X154667429Y-56392058D01*
X154601819Y-56456726D01*
X154541979Y-56513733D01*
X154491267Y-56560033D01*
X154453046Y-56592584D01*
X154430675Y-56608343D01*
X154427466Y-56609343D01*
X154408626Y-56601469D01*
X154370180Y-56579578D01*
X154316330Y-56546267D01*
X154251276Y-56504131D01*
X154180940Y-56456943D01*
X154109555Y-56408810D01*
X154045908Y-56366928D01*
X153994041Y-56333871D01*
X153957995Y-56312218D01*
X153941867Y-56304543D01*
X153922189Y-56311037D01*
X153884875Y-56328150D01*
X153837621Y-56352326D01*
X153832612Y-56355013D01*
X153768977Y-56386927D01*
X153725341Y-56402579D01*
X153698202Y-56402745D01*
X153684057Y-56388204D01*
X153683975Y-56388000D01*
X153676905Y-56370779D01*
X153660042Y-56329899D01*
X153634695Y-56268525D01*
X153602171Y-56189819D01*
X153563778Y-56096947D01*
X153520822Y-55993072D01*
X153479222Y-55892502D01*
X153433504Y-55781516D01*
X153391526Y-55678703D01*
X153354548Y-55587215D01*
X153323827Y-55510201D01*
X153300622Y-55450815D01*
X153286190Y-55412209D01*
X153281743Y-55397800D01*
X153292896Y-55381272D01*
X153322069Y-55354930D01*
X153360971Y-55325887D01*
X153471757Y-55234039D01*
X153558351Y-55128759D01*
X153619716Y-55012266D01*
X153654815Y-54886776D01*
X153662608Y-54754507D01*
X153656943Y-54693457D01*
X153626078Y-54566795D01*
X153572920Y-54454941D01*
X153500767Y-54359001D01*
X153412917Y-54280076D01*
X153312665Y-54219270D01*
X153203310Y-54177687D01*
X153088147Y-54156428D01*
X152970475Y-54156599D01*
X152853590Y-54179301D01*
X152740789Y-54225638D01*
X152635369Y-54296713D01*
X152591368Y-54336911D01*
X152506979Y-54440129D01*
X152448222Y-54552925D01*
X152414704Y-54672010D01*
X152406035Y-54794095D01*
X152421823Y-54915893D01*
X152461678Y-55034116D01*
X152525207Y-55145475D01*
X152612021Y-55246684D01*
X152709029Y-55325887D01*
X152749437Y-55356162D01*
X152777982Y-55382219D01*
X152788257Y-55397825D01*
X152782877Y-55414843D01*
X152767575Y-55455500D01*
X152743612Y-55516642D01*
X152712244Y-55595119D01*
X152674732Y-55687780D01*
X152632333Y-55791472D01*
X152590663Y-55892526D01*
X152544690Y-56003607D01*
X152502107Y-56106541D01*
X152464221Y-56198165D01*
X152432340Y-56275316D01*
X152407771Y-56334831D01*
X152391820Y-56373544D01*
X152385910Y-56388000D01*
X152371948Y-56402685D01*
X152344940Y-56402642D01*
X152301413Y-56387099D01*
X152237890Y-56355284D01*
X152237388Y-56355013D01*
X152189560Y-56330323D01*
X152150897Y-56312338D01*
X152129095Y-56304614D01*
X152128133Y-56304543D01*
X152111721Y-56312378D01*
X152075487Y-56334165D01*
X152023474Y-56367328D01*
X151959725Y-56409291D01*
X151889060Y-56456943D01*
X151817116Y-56505191D01*
X151752274Y-56547151D01*
X151698735Y-56580227D01*
X151660697Y-56601821D01*
X151642533Y-56609343D01*
X151625808Y-56599457D01*
X151592180Y-56571826D01*
X151545010Y-56529495D01*
X151487658Y-56475505D01*
X151423484Y-56412899D01*
X151402497Y-56391983D01*
X151185499Y-56174623D01*
X151350668Y-55932220D01*
X151400864Y-55857781D01*
X151444919Y-55790972D01*
X151480362Y-55735665D01*
X151504719Y-55695729D01*
X151515522Y-55675036D01*
X151515838Y-55673563D01*
X151510143Y-55654058D01*
X151494826Y-55614822D01*
X151472537Y-55562430D01*
X151456893Y-55527355D01*
X151427641Y-55460201D01*
X151400094Y-55392358D01*
X151378737Y-55335034D01*
X151372935Y-55317572D01*
X151356452Y-55270938D01*
X151340340Y-55234905D01*
X151331490Y-55221287D01*
X151311960Y-55212952D01*
X151269334Y-55201137D01*
X151209145Y-55187181D01*
X151136922Y-55172422D01*
X151104600Y-55166355D01*
X151022522Y-55151273D01*
X150943795Y-55136669D01*
X150876109Y-55123980D01*
X150827160Y-55114642D01*
X150817943Y-55112839D01*
X150741743Y-55097799D01*
X150741743Y-54780492D01*
X150741914Y-54676154D01*
X150742616Y-54597213D01*
X150744134Y-54540038D01*
X150746749Y-54500999D01*
X150750746Y-54476465D01*
X150756409Y-54462805D01*
X150764020Y-54456389D01*
X150767143Y-54455199D01*
X150785978Y-54450980D01*
X150827588Y-54442562D01*
X150886630Y-54430961D01*
X150957757Y-54417195D01*
X151035625Y-54402280D01*
X151114887Y-54387232D01*
X151190198Y-54373069D01*
X151256213Y-54360806D01*
X151307587Y-54351461D01*
X151338975Y-54346050D01*
X151345959Y-54345114D01*
X151352285Y-54332596D01*
X151366290Y-54299246D01*
X151385355Y-54251377D01*
X151392634Y-54232629D01*
X151421996Y-54160195D01*
X151456571Y-54080170D01*
X151487537Y-54012728D01*
X151510323Y-53961159D01*
X151525482Y-53918785D01*
X151530542Y-53892834D01*
X151529736Y-53889356D01*
X151519041Y-53872936D01*
X151494620Y-53836417D01*
X151459095Y-53783687D01*
X151415087Y-53718635D01*
X151365217Y-53645151D01*
X151355356Y-53630645D01*
X151297492Y-53544704D01*
X151254956Y-53479261D01*
X151226054Y-53431304D01*
X151209090Y-53397820D01*
X151202367Y-53375795D01*
X151204190Y-53362217D01*
X151204236Y-53362131D01*
X151218586Y-53344297D01*
X151250323Y-53309817D01*
X151296010Y-53262268D01*
X151352204Y-53205222D01*
X151415468Y-53142255D01*
X151422602Y-53135227D01*
X151502330Y-53058020D01*
X151563857Y-53001330D01*
X151608421Y-52964110D01*
X151637257Y-52945315D01*
X151649958Y-52942889D01*
X151668494Y-52953471D01*
X151706961Y-52977916D01*
X151761386Y-53013612D01*
X151827798Y-53057947D01*
X151902225Y-53108311D01*
X151919601Y-53120160D01*
X152166297Y-53288626D01*
X152277706Y-53238062D01*
X152345457Y-53208595D01*
X152418183Y-53178959D01*
X152480703Y-53155330D01*
X152483457Y-53154358D01*
X152532360Y-53136457D01*
X152570057Y-53121320D01*
X152588425Y-53112210D01*
X152588456Y-53112184D01*
X152594285Y-53095717D01*
X152604192Y-53055219D01*
X152617195Y-52995242D01*
X152632309Y-52920340D01*
X152648552Y-52835064D01*
X152649881Y-52827875D01*
X152666175Y-52740014D01*
X152681133Y-52660260D01*
X152693791Y-52593681D01*
X152703186Y-52545347D01*
X152708354Y-52520325D01*
X152708444Y-52519943D01*
X152711589Y-52509299D01*
X152717704Y-52501262D01*
X152730453Y-52495467D01*
X152753500Y-52491547D01*
X152790509Y-52489135D01*
X152845144Y-52487865D01*
X152921067Y-52487371D01*
X153021944Y-52487286D01*
X153035000Y-52487286D01*
X153138910Y-52487348D01*
X153138910Y-52487348D01*
G37*
X153138910Y-52487348D02*
X153217454Y-52487778D01*
X153274298Y-52488942D01*
X153313105Y-52491207D01*
X153337538Y-52494940D01*
X153351262Y-52500506D01*
X153357940Y-52508273D01*
X153361236Y-52518605D01*
X153361556Y-52519943D01*
X153366562Y-52544079D01*
X153375829Y-52591701D01*
X153388392Y-52657741D01*
X153403287Y-52737128D01*
X153419551Y-52824796D01*
X153420119Y-52827875D01*
X153436410Y-52913789D01*
X153451652Y-52989696D01*
X153464861Y-53051045D01*
X153475054Y-53093282D01*
X153481248Y-53111855D01*
X153481543Y-53112184D01*
X153499788Y-53121253D01*
X153537405Y-53136367D01*
X153586271Y-53154262D01*
X153586543Y-53154358D01*
X153648093Y-53177493D01*
X153720657Y-53206965D01*
X153789057Y-53236597D01*
X153792294Y-53238062D01*
X153903702Y-53288626D01*
X154150399Y-53120160D01*
X154226077Y-53068803D01*
X154294631Y-53022889D01*
X154352088Y-52985030D01*
X154394476Y-52957837D01*
X154417825Y-52943921D01*
X154420042Y-52942889D01*
X154437010Y-52947484D01*
X154468701Y-52969655D01*
X154516352Y-53010447D01*
X154581198Y-53070905D01*
X154647397Y-53135227D01*
X154711214Y-53198612D01*
X154768329Y-53256451D01*
X154815305Y-53305175D01*
X154848703Y-53341210D01*
X154865085Y-53360984D01*
X154865694Y-53362002D01*
X154867505Y-53375572D01*
X154860683Y-53397733D01*
X154843540Y-53431478D01*
X154814393Y-53479800D01*
X154771555Y-53545692D01*
X154714448Y-53630517D01*
X154663766Y-53705177D01*
X154618461Y-53772140D01*
X154581150Y-53827516D01*
X154554452Y-53867420D01*
X154540985Y-53887962D01*
X154540137Y-53889356D01*
X154541781Y-53909038D01*
X154554245Y-53947293D01*
X154575048Y-53996889D01*
X154582462Y-54012728D01*
X154614814Y-54083290D01*
X154649328Y-54163353D01*
X154677365Y-54232629D01*
X154697568Y-54284045D01*
X154713615Y-54323119D01*
X154722888Y-54343541D01*
X154724041Y-54345114D01*
X154741096Y-54347721D01*
X154781298Y-54354863D01*
X154839302Y-54365523D01*
X154909763Y-54378685D01*
X154987335Y-54393333D01*
X155066672Y-54408449D01*
X155142431Y-54423018D01*
X155209264Y-54436022D01*
X155261828Y-54446445D01*
X155294776Y-54453270D01*
X155302857Y-54455199D01*
X155311205Y-54459962D01*
X155317506Y-54470718D01*
X155322045Y-54491098D01*
X155325104Y-54524734D01*
X155326967Y-54575255D01*
X155327918Y-54646292D01*
X155328240Y-54741476D01*
X155328257Y-54780492D01*
X155328257Y-55097799D01*
X155252057Y-55112839D01*
X155209663Y-55120995D01*
X155146400Y-55132899D01*
X155069962Y-55147116D01*
X154988043Y-55162210D01*
X154965400Y-55166355D01*
X154889806Y-55181053D01*
X154823953Y-55195505D01*
X154773366Y-55208375D01*
X154743574Y-55218322D01*
X154738612Y-55221287D01*
X154726426Y-55242283D01*
X154708953Y-55282967D01*
X154689577Y-55335322D01*
X154685734Y-55346600D01*
X154660339Y-55416523D01*
X154628817Y-55495418D01*
X154597969Y-55566266D01*
X154597817Y-55566595D01*
X154546447Y-55677733D01*
X154715399Y-55926253D01*
X154884352Y-56174772D01*
X154667429Y-56392058D01*
X154601819Y-56456726D01*
X154541979Y-56513733D01*
X154491267Y-56560033D01*
X154453046Y-56592584D01*
X154430675Y-56608343D01*
X154427466Y-56609343D01*
X154408626Y-56601469D01*
X154370180Y-56579578D01*
X154316330Y-56546267D01*
X154251276Y-56504131D01*
X154180940Y-56456943D01*
X154109555Y-56408810D01*
X154045908Y-56366928D01*
X153994041Y-56333871D01*
X153957995Y-56312218D01*
X153941867Y-56304543D01*
X153922189Y-56311037D01*
X153884875Y-56328150D01*
X153837621Y-56352326D01*
X153832612Y-56355013D01*
X153768977Y-56386927D01*
X153725341Y-56402579D01*
X153698202Y-56402745D01*
X153684057Y-56388204D01*
X153683975Y-56388000D01*
X153676905Y-56370779D01*
X153660042Y-56329899D01*
X153634695Y-56268525D01*
X153602171Y-56189819D01*
X153563778Y-56096947D01*
X153520822Y-55993072D01*
X153479222Y-55892502D01*
X153433504Y-55781516D01*
X153391526Y-55678703D01*
X153354548Y-55587215D01*
X153323827Y-55510201D01*
X153300622Y-55450815D01*
X153286190Y-55412209D01*
X153281743Y-55397800D01*
X153292896Y-55381272D01*
X153322069Y-55354930D01*
X153360971Y-55325887D01*
X153471757Y-55234039D01*
X153558351Y-55128759D01*
X153619716Y-55012266D01*
X153654815Y-54886776D01*
X153662608Y-54754507D01*
X153656943Y-54693457D01*
X153626078Y-54566795D01*
X153572920Y-54454941D01*
X153500767Y-54359001D01*
X153412917Y-54280076D01*
X153312665Y-54219270D01*
X153203310Y-54177687D01*
X153088147Y-54156428D01*
X152970475Y-54156599D01*
X152853590Y-54179301D01*
X152740789Y-54225638D01*
X152635369Y-54296713D01*
X152591368Y-54336911D01*
X152506979Y-54440129D01*
X152448222Y-54552925D01*
X152414704Y-54672010D01*
X152406035Y-54794095D01*
X152421823Y-54915893D01*
X152461678Y-55034116D01*
X152525207Y-55145475D01*
X152612021Y-55246684D01*
X152709029Y-55325887D01*
X152749437Y-55356162D01*
X152777982Y-55382219D01*
X152788257Y-55397825D01*
X152782877Y-55414843D01*
X152767575Y-55455500D01*
X152743612Y-55516642D01*
X152712244Y-55595119D01*
X152674732Y-55687780D01*
X152632333Y-55791472D01*
X152590663Y-55892526D01*
X152544690Y-56003607D01*
X152502107Y-56106541D01*
X152464221Y-56198165D01*
X152432340Y-56275316D01*
X152407771Y-56334831D01*
X152391820Y-56373544D01*
X152385910Y-56388000D01*
X152371948Y-56402685D01*
X152344940Y-56402642D01*
X152301413Y-56387099D01*
X152237890Y-56355284D01*
X152237388Y-56355013D01*
X152189560Y-56330323D01*
X152150897Y-56312338D01*
X152129095Y-56304614D01*
X152128133Y-56304543D01*
X152111721Y-56312378D01*
X152075487Y-56334165D01*
X152023474Y-56367328D01*
X151959725Y-56409291D01*
X151889060Y-56456943D01*
X151817116Y-56505191D01*
X151752274Y-56547151D01*
X151698735Y-56580227D01*
X151660697Y-56601821D01*
X151642533Y-56609343D01*
X151625808Y-56599457D01*
X151592180Y-56571826D01*
X151545010Y-56529495D01*
X151487658Y-56475505D01*
X151423484Y-56412899D01*
X151402497Y-56391983D01*
X151185499Y-56174623D01*
X151350668Y-55932220D01*
X151400864Y-55857781D01*
X151444919Y-55790972D01*
X151480362Y-55735665D01*
X151504719Y-55695729D01*
X151515522Y-55675036D01*
X151515838Y-55673563D01*
X151510143Y-55654058D01*
X151494826Y-55614822D01*
X151472537Y-55562430D01*
X151456893Y-55527355D01*
X151427641Y-55460201D01*
X151400094Y-55392358D01*
X151378737Y-55335034D01*
X151372935Y-55317572D01*
X151356452Y-55270938D01*
X151340340Y-55234905D01*
X151331490Y-55221287D01*
X151311960Y-55212952D01*
X151269334Y-55201137D01*
X151209145Y-55187181D01*
X151136922Y-55172422D01*
X151104600Y-55166355D01*
X151022522Y-55151273D01*
X150943795Y-55136669D01*
X150876109Y-55123980D01*
X150827160Y-55114642D01*
X150817943Y-55112839D01*
X150741743Y-55097799D01*
X150741743Y-54780492D01*
X150741914Y-54676154D01*
X150742616Y-54597213D01*
X150744134Y-54540038D01*
X150746749Y-54500999D01*
X150750746Y-54476465D01*
X150756409Y-54462805D01*
X150764020Y-54456389D01*
X150767143Y-54455199D01*
X150785978Y-54450980D01*
X150827588Y-54442562D01*
X150886630Y-54430961D01*
X150957757Y-54417195D01*
X151035625Y-54402280D01*
X151114887Y-54387232D01*
X151190198Y-54373069D01*
X151256213Y-54360806D01*
X151307587Y-54351461D01*
X151338975Y-54346050D01*
X151345959Y-54345114D01*
X151352285Y-54332596D01*
X151366290Y-54299246D01*
X151385355Y-54251377D01*
X151392634Y-54232629D01*
X151421996Y-54160195D01*
X151456571Y-54080170D01*
X151487537Y-54012728D01*
X151510323Y-53961159D01*
X151525482Y-53918785D01*
X151530542Y-53892834D01*
X151529736Y-53889356D01*
X151519041Y-53872936D01*
X151494620Y-53836417D01*
X151459095Y-53783687D01*
X151415087Y-53718635D01*
X151365217Y-53645151D01*
X151355356Y-53630645D01*
X151297492Y-53544704D01*
X151254956Y-53479261D01*
X151226054Y-53431304D01*
X151209090Y-53397820D01*
X151202367Y-53375795D01*
X151204190Y-53362217D01*
X151204236Y-53362131D01*
X151218586Y-53344297D01*
X151250323Y-53309817D01*
X151296010Y-53262268D01*
X151352204Y-53205222D01*
X151415468Y-53142255D01*
X151422602Y-53135227D01*
X151502330Y-53058020D01*
X151563857Y-53001330D01*
X151608421Y-52964110D01*
X151637257Y-52945315D01*
X151649958Y-52942889D01*
X151668494Y-52953471D01*
X151706961Y-52977916D01*
X151761386Y-53013612D01*
X151827798Y-53057947D01*
X151902225Y-53108311D01*
X151919601Y-53120160D01*
X152166297Y-53288626D01*
X152277706Y-53238062D01*
X152345457Y-53208595D01*
X152418183Y-53178959D01*
X152480703Y-53155330D01*
X152483457Y-53154358D01*
X152532360Y-53136457D01*
X152570057Y-53121320D01*
X152588425Y-53112210D01*
X152588456Y-53112184D01*
X152594285Y-53095717D01*
X152604192Y-53055219D01*
X152617195Y-52995242D01*
X152632309Y-52920340D01*
X152648552Y-52835064D01*
X152649881Y-52827875D01*
X152666175Y-52740014D01*
X152681133Y-52660260D01*
X152693791Y-52593681D01*
X152703186Y-52545347D01*
X152708354Y-52520325D01*
X152708444Y-52519943D01*
X152711589Y-52509299D01*
X152717704Y-52501262D01*
X152730453Y-52495467D01*
X152753500Y-52491547D01*
X152790509Y-52489135D01*
X152845144Y-52487865D01*
X152921067Y-52487371D01*
X153021944Y-52487286D01*
X153035000Y-52487286D01*
X153138910Y-52487348D01*
G36*
X156188595Y-57211966D02*
X156246021Y-57249497D01*
X156273719Y-57283096D01*
X156295662Y-57344064D01*
X156297405Y-57392308D01*
X156293457Y-57456816D01*
X156144686Y-57521934D01*
X156072349Y-57555202D01*
X156025084Y-57581964D01*
X156000507Y-57605144D01*
X155996237Y-57627667D01*
X156009889Y-57652455D01*
X156024943Y-57668886D01*
X156068746Y-57695235D01*
X156116389Y-57697081D01*
X156160145Y-57676546D01*
X156192289Y-57635752D01*
X156198038Y-57621347D01*
X156225576Y-57576356D01*
X156257258Y-57557182D01*
X156300714Y-57540779D01*
X156300714Y-57602966D01*
X156296872Y-57645283D01*
X156281823Y-57680969D01*
X156250280Y-57721943D01*
X156245592Y-57727267D01*
X156210506Y-57763720D01*
X156180347Y-57783283D01*
X156142615Y-57792283D01*
X156111335Y-57795230D01*
X156055385Y-57795965D01*
X156015555Y-57786660D01*
X155990708Y-57772846D01*
X155951656Y-57742467D01*
X155924625Y-57709613D01*
X155907517Y-57668294D01*
X155898238Y-57612521D01*
X155894693Y-57536305D01*
X155894410Y-57497622D01*
X155895372Y-57451247D01*
X155983007Y-57451247D01*
X155984023Y-57476126D01*
X155986556Y-57480200D01*
X156003274Y-57474665D01*
X156039249Y-57460017D01*
X156087331Y-57439190D01*
X156097386Y-57434714D01*
X156158152Y-57403814D01*
X156191632Y-57376657D01*
X156198990Y-57351220D01*
X156181391Y-57325481D01*
X156166856Y-57314109D01*
X156114410Y-57291364D01*
X156065322Y-57295122D01*
X156024227Y-57322884D01*
X155995758Y-57372152D01*
X155986631Y-57411257D01*
X155983007Y-57451247D01*
X155895372Y-57451247D01*
X155896285Y-57407249D01*
X155903196Y-57340384D01*
X155916884Y-57291695D01*
X155939096Y-57255849D01*
X155971574Y-57227513D01*
X155985733Y-57218355D01*
X156050053Y-57194507D01*
X156120473Y-57193006D01*
X156188595Y-57211966D01*
X156188595Y-57211966D01*
G37*
X156188595Y-57211966D02*
X156246021Y-57249497D01*
X156273719Y-57283096D01*
X156295662Y-57344064D01*
X156297405Y-57392308D01*
X156293457Y-57456816D01*
X156144686Y-57521934D01*
X156072349Y-57555202D01*
X156025084Y-57581964D01*
X156000507Y-57605144D01*
X155996237Y-57627667D01*
X156009889Y-57652455D01*
X156024943Y-57668886D01*
X156068746Y-57695235D01*
X156116389Y-57697081D01*
X156160145Y-57676546D01*
X156192289Y-57635752D01*
X156198038Y-57621347D01*
X156225576Y-57576356D01*
X156257258Y-57557182D01*
X156300714Y-57540779D01*
X156300714Y-57602966D01*
X156296872Y-57645283D01*
X156281823Y-57680969D01*
X156250280Y-57721943D01*
X156245592Y-57727267D01*
X156210506Y-57763720D01*
X156180347Y-57783283D01*
X156142615Y-57792283D01*
X156111335Y-57795230D01*
X156055385Y-57795965D01*
X156015555Y-57786660D01*
X155990708Y-57772846D01*
X155951656Y-57742467D01*
X155924625Y-57709613D01*
X155907517Y-57668294D01*
X155898238Y-57612521D01*
X155894693Y-57536305D01*
X155894410Y-57497622D01*
X155895372Y-57451247D01*
X155983007Y-57451247D01*
X155984023Y-57476126D01*
X155986556Y-57480200D01*
X156003274Y-57474665D01*
X156039249Y-57460017D01*
X156087331Y-57439190D01*
X156097386Y-57434714D01*
X156158152Y-57403814D01*
X156191632Y-57376657D01*
X156198990Y-57351220D01*
X156181391Y-57325481D01*
X156166856Y-57314109D01*
X156114410Y-57291364D01*
X156065322Y-57295122D01*
X156024227Y-57322884D01*
X155995758Y-57372152D01*
X155986631Y-57411257D01*
X155983007Y-57451247D01*
X155895372Y-57451247D01*
X155896285Y-57407249D01*
X155903196Y-57340384D01*
X155916884Y-57291695D01*
X155939096Y-57255849D01*
X155971574Y-57227513D01*
X155985733Y-57218355D01*
X156050053Y-57194507D01*
X156120473Y-57193006D01*
X156188595Y-57211966D01*
G36*
X155687600Y-57203752D02*
X155704948Y-57211334D01*
X155746356Y-57244128D01*
X155781765Y-57291547D01*
X155803664Y-57342151D01*
X155807229Y-57367098D01*
X155795279Y-57401927D01*
X155769067Y-57420357D01*
X155740964Y-57431516D01*
X155728095Y-57433572D01*
X155721829Y-57418649D01*
X155709456Y-57386175D01*
X155704028Y-57371502D01*
X155673590Y-57320744D01*
X155629520Y-57295427D01*
X155573010Y-57296206D01*
X155568825Y-57297203D01*
X155538655Y-57311507D01*
X155516476Y-57339393D01*
X155501327Y-57384287D01*
X155492250Y-57449615D01*
X155488286Y-57538804D01*
X155487914Y-57586261D01*
X155487730Y-57661071D01*
X155486522Y-57712069D01*
X155483309Y-57744471D01*
X155477109Y-57763495D01*
X155466940Y-57774356D01*
X155451819Y-57782272D01*
X155450946Y-57782670D01*
X155421828Y-57794981D01*
X155407403Y-57799514D01*
X155405186Y-57785809D01*
X155403289Y-57747925D01*
X155401847Y-57690715D01*
X155400998Y-57619027D01*
X155400829Y-57566565D01*
X155401692Y-57465047D01*
X155405070Y-57388032D01*
X155412142Y-57331023D01*
X155424088Y-57289526D01*
X155442090Y-57259043D01*
X155467327Y-57235080D01*
X155492247Y-57218355D01*
X155552171Y-57196097D01*
X155621911Y-57191076D01*
X155687600Y-57203752D01*
X155687600Y-57203752D01*
G37*
X155687600Y-57203752D02*
X155704948Y-57211334D01*
X155746356Y-57244128D01*
X155781765Y-57291547D01*
X155803664Y-57342151D01*
X155807229Y-57367098D01*
X155795279Y-57401927D01*
X155769067Y-57420357D01*
X155740964Y-57431516D01*
X155728095Y-57433572D01*
X155721829Y-57418649D01*
X155709456Y-57386175D01*
X155704028Y-57371502D01*
X155673590Y-57320744D01*
X155629520Y-57295427D01*
X155573010Y-57296206D01*
X155568825Y-57297203D01*
X155538655Y-57311507D01*
X155516476Y-57339393D01*
X155501327Y-57384287D01*
X155492250Y-57449615D01*
X155488286Y-57538804D01*
X155487914Y-57586261D01*
X155487730Y-57661071D01*
X155486522Y-57712069D01*
X155483309Y-57744471D01*
X155477109Y-57763495D01*
X155466940Y-57774356D01*
X155451819Y-57782272D01*
X155450946Y-57782670D01*
X155421828Y-57794981D01*
X155407403Y-57799514D01*
X155405186Y-57785809D01*
X155403289Y-57747925D01*
X155401847Y-57690715D01*
X155400998Y-57619027D01*
X155400829Y-57566565D01*
X155401692Y-57465047D01*
X155405070Y-57388032D01*
X155412142Y-57331023D01*
X155424088Y-57289526D01*
X155442090Y-57259043D01*
X155467327Y-57235080D01*
X155492247Y-57218355D01*
X155552171Y-57196097D01*
X155621911Y-57191076D01*
X155687600Y-57203752D01*
G36*
X155179876Y-57201335D02*
X155221667Y-57220344D01*
X155254469Y-57243378D01*
X155278503Y-57269133D01*
X155295097Y-57302358D01*
X155305577Y-57347800D01*
X155311271Y-57410207D01*
X155313507Y-57494327D01*
X155313743Y-57549721D01*
X155313743Y-57765826D01*
X155276774Y-57782670D01*
X155247656Y-57794981D01*
X155233231Y-57799514D01*
X155230472Y-57786025D01*
X155228282Y-57749653D01*
X155226942Y-57696542D01*
X155226657Y-57654372D01*
X155225434Y-57593447D01*
X155222136Y-57545115D01*
X155217321Y-57515518D01*
X155213496Y-57509229D01*
X155187783Y-57515652D01*
X155147418Y-57532125D01*
X155100679Y-57554458D01*
X155055845Y-57578457D01*
X155021193Y-57599930D01*
X155005002Y-57614685D01*
X155004938Y-57614845D01*
X155006330Y-57642152D01*
X155018818Y-57668219D01*
X155040743Y-57689392D01*
X155072743Y-57696474D01*
X155100092Y-57695649D01*
X155138826Y-57695042D01*
X155159158Y-57704116D01*
X155171369Y-57728092D01*
X155172909Y-57732613D01*
X155178203Y-57766806D01*
X155164047Y-57787568D01*
X155127148Y-57797462D01*
X155087289Y-57799292D01*
X155015562Y-57785727D01*
X154978432Y-57766355D01*
X154932576Y-57720845D01*
X154908256Y-57664983D01*
X154906073Y-57605957D01*
X154926629Y-57550953D01*
X154957549Y-57516486D01*
X154988420Y-57497189D01*
X155036942Y-57472759D01*
X155093485Y-57447985D01*
X155102910Y-57444199D01*
X155165019Y-57416791D01*
X155200822Y-57392634D01*
X155212337Y-57368619D01*
X155201580Y-57341635D01*
X155183114Y-57320543D01*
X155139469Y-57294572D01*
X155091446Y-57292624D01*
X155047406Y-57312637D01*
X155015709Y-57352551D01*
X155011549Y-57362848D01*
X154987327Y-57400724D01*
X154951965Y-57428842D01*
X154907343Y-57451917D01*
X154907343Y-57386485D01*
X154909969Y-57346506D01*
X154921230Y-57314997D01*
X154946199Y-57281378D01*
X154970169Y-57255484D01*
X155007441Y-57218817D01*
X155036401Y-57199121D01*
X155067505Y-57191220D01*
X155102713Y-57189914D01*
X155179876Y-57201335D01*
X155179876Y-57201335D01*
G37*
X155179876Y-57201335D02*
X155221667Y-57220344D01*
X155254469Y-57243378D01*
X155278503Y-57269133D01*
X155295097Y-57302358D01*
X155305577Y-57347800D01*
X155311271Y-57410207D01*
X155313507Y-57494327D01*
X155313743Y-57549721D01*
X155313743Y-57765826D01*
X155276774Y-57782670D01*
X155247656Y-57794981D01*
X155233231Y-57799514D01*
X155230472Y-57786025D01*
X155228282Y-57749653D01*
X155226942Y-57696542D01*
X155226657Y-57654372D01*
X155225434Y-57593447D01*
X155222136Y-57545115D01*
X155217321Y-57515518D01*
X155213496Y-57509229D01*
X155187783Y-57515652D01*
X155147418Y-57532125D01*
X155100679Y-57554458D01*
X155055845Y-57578457D01*
X155021193Y-57599930D01*
X155005002Y-57614685D01*
X155004938Y-57614845D01*
X155006330Y-57642152D01*
X155018818Y-57668219D01*
X155040743Y-57689392D01*
X155072743Y-57696474D01*
X155100092Y-57695649D01*
X155138826Y-57695042D01*
X155159158Y-57704116D01*
X155171369Y-57728092D01*
X155172909Y-57732613D01*
X155178203Y-57766806D01*
X155164047Y-57787568D01*
X155127148Y-57797462D01*
X155087289Y-57799292D01*
X155015562Y-57785727D01*
X154978432Y-57766355D01*
X154932576Y-57720845D01*
X154908256Y-57664983D01*
X154906073Y-57605957D01*
X154926629Y-57550953D01*
X154957549Y-57516486D01*
X154988420Y-57497189D01*
X155036942Y-57472759D01*
X155093485Y-57447985D01*
X155102910Y-57444199D01*
X155165019Y-57416791D01*
X155200822Y-57392634D01*
X155212337Y-57368619D01*
X155201580Y-57341635D01*
X155183114Y-57320543D01*
X155139469Y-57294572D01*
X155091446Y-57292624D01*
X155047406Y-57312637D01*
X155015709Y-57352551D01*
X155011549Y-57362848D01*
X154987327Y-57400724D01*
X154951965Y-57428842D01*
X154907343Y-57451917D01*
X154907343Y-57386485D01*
X154909969Y-57346506D01*
X154921230Y-57314997D01*
X154946199Y-57281378D01*
X154970169Y-57255484D01*
X155007441Y-57218817D01*
X155036401Y-57199121D01*
X155067505Y-57191220D01*
X155102713Y-57189914D01*
X155179876Y-57201335D01*
G36*
X154814833Y-57203663D02*
X154817048Y-57241850D01*
X154818784Y-57299886D01*
X154819899Y-57373180D01*
X154820257Y-57450055D01*
X154820257Y-57710196D01*
X154774326Y-57756127D01*
X154742675Y-57784429D01*
X154714890Y-57795893D01*
X154676915Y-57795168D01*
X154661840Y-57793321D01*
X154614726Y-57787948D01*
X154575756Y-57784869D01*
X154566257Y-57784585D01*
X154534233Y-57786445D01*
X154488432Y-57791114D01*
X154470674Y-57793321D01*
X154427057Y-57796735D01*
X154397745Y-57789320D01*
X154368680Y-57766427D01*
X154358188Y-57756127D01*
X154312257Y-57710196D01*
X154312257Y-57223602D01*
X154349226Y-57206758D01*
X154381059Y-57194282D01*
X154399683Y-57189914D01*
X154404458Y-57203718D01*
X154408921Y-57242286D01*
X154412775Y-57301356D01*
X154415722Y-57376663D01*
X154417143Y-57440286D01*
X154421114Y-57690657D01*
X154455759Y-57695556D01*
X154487268Y-57692131D01*
X154502708Y-57681041D01*
X154507023Y-57660308D01*
X154510708Y-57616145D01*
X154513469Y-57554146D01*
X154515012Y-57479909D01*
X154515235Y-57441706D01*
X154515457Y-57221783D01*
X154561166Y-57205849D01*
X154593518Y-57195015D01*
X154611115Y-57189962D01*
X154611623Y-57189914D01*
X154613388Y-57203648D01*
X154615329Y-57241730D01*
X154617282Y-57299482D01*
X154619084Y-57372227D01*
X154620343Y-57440286D01*
X154624314Y-57690657D01*
X154711400Y-57690657D01*
X154715396Y-57462240D01*
X154719392Y-57233822D01*
X154761847Y-57211868D01*
X154793192Y-57196793D01*
X154811744Y-57189951D01*
X154812279Y-57189914D01*
X154814833Y-57203663D01*
X154814833Y-57203663D01*
G37*
X154814833Y-57203663D02*
X154817048Y-57241850D01*
X154818784Y-57299886D01*
X154819899Y-57373180D01*
X154820257Y-57450055D01*
X154820257Y-57710196D01*
X154774326Y-57756127D01*
X154742675Y-57784429D01*
X154714890Y-57795893D01*
X154676915Y-57795168D01*
X154661840Y-57793321D01*
X154614726Y-57787948D01*
X154575756Y-57784869D01*
X154566257Y-57784585D01*
X154534233Y-57786445D01*
X154488432Y-57791114D01*
X154470674Y-57793321D01*
X154427057Y-57796735D01*
X154397745Y-57789320D01*
X154368680Y-57766427D01*
X154358188Y-57756127D01*
X154312257Y-57710196D01*
X154312257Y-57223602D01*
X154349226Y-57206758D01*
X154381059Y-57194282D01*
X154399683Y-57189914D01*
X154404458Y-57203718D01*
X154408921Y-57242286D01*
X154412775Y-57301356D01*
X154415722Y-57376663D01*
X154417143Y-57440286D01*
X154421114Y-57690657D01*
X154455759Y-57695556D01*
X154487268Y-57692131D01*
X154502708Y-57681041D01*
X154507023Y-57660308D01*
X154510708Y-57616145D01*
X154513469Y-57554146D01*
X154515012Y-57479909D01*
X154515235Y-57441706D01*
X154515457Y-57221783D01*
X154561166Y-57205849D01*
X154593518Y-57195015D01*
X154611115Y-57189962D01*
X154611623Y-57189914D01*
X154613388Y-57203648D01*
X154615329Y-57241730D01*
X154617282Y-57299482D01*
X154619084Y-57372227D01*
X154620343Y-57440286D01*
X154624314Y-57690657D01*
X154711400Y-57690657D01*
X154715396Y-57462240D01*
X154719392Y-57233822D01*
X154761847Y-57211868D01*
X154793192Y-57196793D01*
X154811744Y-57189951D01*
X154812279Y-57189914D01*
X154814833Y-57203663D01*
G36*
X154225117Y-57310358D02*
X154224933Y-57418837D01*
X154224219Y-57502287D01*
X154222675Y-57564704D01*
X154220001Y-57610085D01*
X154215894Y-57642429D01*
X154210055Y-57665733D01*
X154202182Y-57683995D01*
X154196221Y-57694418D01*
X154146855Y-57750945D01*
X154084264Y-57786377D01*
X154015013Y-57799090D01*
X153945668Y-57787463D01*
X153904375Y-57766568D01*
X153861025Y-57730422D01*
X153831481Y-57686276D01*
X153813655Y-57628462D01*
X153805463Y-57551313D01*
X153804302Y-57494714D01*
X153804458Y-57490647D01*
X153905857Y-57490647D01*
X153906476Y-57555550D01*
X153909314Y-57598514D01*
X153915840Y-57626622D01*
X153927523Y-57646953D01*
X153941483Y-57662288D01*
X153988365Y-57691890D01*
X154038701Y-57694419D01*
X154086276Y-57669705D01*
X154089979Y-57666356D01*
X154105783Y-57648935D01*
X154115693Y-57628209D01*
X154121058Y-57597362D01*
X154123228Y-57549577D01*
X154123571Y-57496748D01*
X154122827Y-57430381D01*
X154119748Y-57386106D01*
X154113061Y-57357009D01*
X154101496Y-57336173D01*
X154092013Y-57325107D01*
X154047960Y-57297198D01*
X153997224Y-57293843D01*
X153948796Y-57315159D01*
X153939450Y-57323073D01*
X153923540Y-57340647D01*
X153913610Y-57361587D01*
X153908278Y-57392782D01*
X153906163Y-57441122D01*
X153905857Y-57490647D01*
X153804458Y-57490647D01*
X153807810Y-57403568D01*
X153819726Y-57335086D01*
X153842135Y-57283600D01*
X153877124Y-57243443D01*
X153904375Y-57222861D01*
X153953907Y-57200625D01*
X154011316Y-57190304D01*
X154064682Y-57193067D01*
X154094543Y-57204212D01*
X154106261Y-57207383D01*
X154114037Y-57195557D01*
X154119465Y-57163866D01*
X154123571Y-57115593D01*
X154128067Y-57061829D01*
X154134313Y-57029482D01*
X154145676Y-57010985D01*
X154165528Y-56998770D01*
X154178000Y-56993362D01*
X154225171Y-56973601D01*
X154225117Y-57310358D01*
X154225117Y-57310358D01*
G37*
X154225117Y-57310358D02*
X154224933Y-57418837D01*
X154224219Y-57502287D01*
X154222675Y-57564704D01*
X154220001Y-57610085D01*
X154215894Y-57642429D01*
X154210055Y-57665733D01*
X154202182Y-57683995D01*
X154196221Y-57694418D01*
X154146855Y-57750945D01*
X154084264Y-57786377D01*
X154015013Y-57799090D01*
X153945668Y-57787463D01*
X153904375Y-57766568D01*
X153861025Y-57730422D01*
X153831481Y-57686276D01*
X153813655Y-57628462D01*
X153805463Y-57551313D01*
X153804302Y-57494714D01*
X153804458Y-57490647D01*
X153905857Y-57490647D01*
X153906476Y-57555550D01*
X153909314Y-57598514D01*
X153915840Y-57626622D01*
X153927523Y-57646953D01*
X153941483Y-57662288D01*
X153988365Y-57691890D01*
X154038701Y-57694419D01*
X154086276Y-57669705D01*
X154089979Y-57666356D01*
X154105783Y-57648935D01*
X154115693Y-57628209D01*
X154121058Y-57597362D01*
X154123228Y-57549577D01*
X154123571Y-57496748D01*
X154122827Y-57430381D01*
X154119748Y-57386106D01*
X154113061Y-57357009D01*
X154101496Y-57336173D01*
X154092013Y-57325107D01*
X154047960Y-57297198D01*
X153997224Y-57293843D01*
X153948796Y-57315159D01*
X153939450Y-57323073D01*
X153923540Y-57340647D01*
X153913610Y-57361587D01*
X153908278Y-57392782D01*
X153906163Y-57441122D01*
X153905857Y-57490647D01*
X153804458Y-57490647D01*
X153807810Y-57403568D01*
X153819726Y-57335086D01*
X153842135Y-57283600D01*
X153877124Y-57243443D01*
X153904375Y-57222861D01*
X153953907Y-57200625D01*
X154011316Y-57190304D01*
X154064682Y-57193067D01*
X154094543Y-57204212D01*
X154106261Y-57207383D01*
X154114037Y-57195557D01*
X154119465Y-57163866D01*
X154123571Y-57115593D01*
X154128067Y-57061829D01*
X154134313Y-57029482D01*
X154145676Y-57010985D01*
X154165528Y-56998770D01*
X154178000Y-56993362D01*
X154225171Y-56973601D01*
X154225117Y-57310358D01*
G36*
X153564926Y-57194755D02*
X153630858Y-57219084D01*
X153684273Y-57262117D01*
X153705164Y-57292409D01*
X153727939Y-57347994D01*
X153727466Y-57388186D01*
X153703562Y-57415217D01*
X153694717Y-57419813D01*
X153656530Y-57434144D01*
X153637028Y-57430472D01*
X153630422Y-57406407D01*
X153630086Y-57393114D01*
X153617992Y-57344210D01*
X153586471Y-57309999D01*
X153542659Y-57293476D01*
X153493695Y-57297634D01*
X153453894Y-57319227D01*
X153440450Y-57331544D01*
X153430921Y-57346487D01*
X153424485Y-57369075D01*
X153420317Y-57404328D01*
X153417597Y-57457266D01*
X153415502Y-57532907D01*
X153414960Y-57556857D01*
X153412981Y-57638790D01*
X153410731Y-57696455D01*
X153407357Y-57734608D01*
X153402006Y-57758004D01*
X153393824Y-57771398D01*
X153381959Y-57779545D01*
X153374362Y-57783144D01*
X153342102Y-57795452D01*
X153323111Y-57799514D01*
X153316836Y-57785948D01*
X153313006Y-57744934D01*
X153311600Y-57675999D01*
X153312598Y-57578669D01*
X153312908Y-57563657D01*
X153315101Y-57474859D01*
X153317693Y-57410019D01*
X153321382Y-57364067D01*
X153326864Y-57331935D01*
X153334835Y-57308553D01*
X153345993Y-57288852D01*
X153351830Y-57280410D01*
X153385296Y-57243057D01*
X153422727Y-57214003D01*
X153427309Y-57211467D01*
X153494426Y-57191443D01*
X153564926Y-57194755D01*
X153564926Y-57194755D01*
G37*
X153564926Y-57194755D02*
X153630858Y-57219084D01*
X153684273Y-57262117D01*
X153705164Y-57292409D01*
X153727939Y-57347994D01*
X153727466Y-57388186D01*
X153703562Y-57415217D01*
X153694717Y-57419813D01*
X153656530Y-57434144D01*
X153637028Y-57430472D01*
X153630422Y-57406407D01*
X153630086Y-57393114D01*
X153617992Y-57344210D01*
X153586471Y-57309999D01*
X153542659Y-57293476D01*
X153493695Y-57297634D01*
X153453894Y-57319227D01*
X153440450Y-57331544D01*
X153430921Y-57346487D01*
X153424485Y-57369075D01*
X153420317Y-57404328D01*
X153417597Y-57457266D01*
X153415502Y-57532907D01*
X153414960Y-57556857D01*
X153412981Y-57638790D01*
X153410731Y-57696455D01*
X153407357Y-57734608D01*
X153402006Y-57758004D01*
X153393824Y-57771398D01*
X153381959Y-57779545D01*
X153374362Y-57783144D01*
X153342102Y-57795452D01*
X153323111Y-57799514D01*
X153316836Y-57785948D01*
X153313006Y-57744934D01*
X153311600Y-57675999D01*
X153312598Y-57578669D01*
X153312908Y-57563657D01*
X153315101Y-57474859D01*
X153317693Y-57410019D01*
X153321382Y-57364067D01*
X153326864Y-57331935D01*
X153334835Y-57308553D01*
X153345993Y-57288852D01*
X153351830Y-57280410D01*
X153385296Y-57243057D01*
X153422727Y-57214003D01*
X153427309Y-57211467D01*
X153494426Y-57191443D01*
X153564926Y-57194755D01*
G36*
X153074744Y-57195968D02*
X153131616Y-57217087D01*
X153132267Y-57217493D01*
X153167440Y-57243380D01*
X153193407Y-57273633D01*
X153211670Y-57313058D01*
X153223732Y-57366462D01*
X153231096Y-57438651D01*
X153235264Y-57534432D01*
X153235629Y-57548078D01*
X153240876Y-57753842D01*
X153196716Y-57776678D01*
X153164763Y-57792110D01*
X153145470Y-57799423D01*
X153144578Y-57799514D01*
X153141239Y-57786022D01*
X153138587Y-57749626D01*
X153136956Y-57696452D01*
X153136600Y-57653393D01*
X153136592Y-57583641D01*
X153133403Y-57539837D01*
X153122288Y-57518944D01*
X153098501Y-57517925D01*
X153057296Y-57533741D01*
X152995086Y-57562815D01*
X152949341Y-57586963D01*
X152925813Y-57607913D01*
X152918896Y-57630747D01*
X152918886Y-57631877D01*
X152930299Y-57671212D01*
X152964092Y-57692462D01*
X153015809Y-57695539D01*
X153053061Y-57695006D01*
X153072703Y-57705735D01*
X153084952Y-57731505D01*
X153092002Y-57764337D01*
X153081842Y-57782966D01*
X153078017Y-57785632D01*
X153042001Y-57796340D01*
X152991566Y-57797856D01*
X152939626Y-57790759D01*
X152902822Y-57777788D01*
X152851938Y-57734585D01*
X152823014Y-57674446D01*
X152817286Y-57627462D01*
X152821657Y-57585082D01*
X152837475Y-57550488D01*
X152868797Y-57519763D01*
X152919678Y-57488990D01*
X152994176Y-57454252D01*
X152998714Y-57452288D01*
X153065821Y-57421287D01*
X153107232Y-57395862D01*
X153124981Y-57373014D01*
X153121107Y-57349745D01*
X153097643Y-57323056D01*
X153090627Y-57316914D01*
X153043630Y-57293100D01*
X152994933Y-57294103D01*
X152952522Y-57317451D01*
X152924384Y-57360675D01*
X152921769Y-57369160D01*
X152896308Y-57410308D01*
X152864001Y-57430128D01*
X152817286Y-57449770D01*
X152817286Y-57398950D01*
X152831496Y-57325082D01*
X152873675Y-57257327D01*
X152895624Y-57234661D01*
X152945517Y-57205569D01*
X153008967Y-57192400D01*
X153074744Y-57195968D01*
X153074744Y-57195968D01*
G37*
X153074744Y-57195968D02*
X153131616Y-57217087D01*
X153132267Y-57217493D01*
X153167440Y-57243380D01*
X153193407Y-57273633D01*
X153211670Y-57313058D01*
X153223732Y-57366462D01*
X153231096Y-57438651D01*
X153235264Y-57534432D01*
X153235629Y-57548078D01*
X153240876Y-57753842D01*
X153196716Y-57776678D01*
X153164763Y-57792110D01*
X153145470Y-57799423D01*
X153144578Y-57799514D01*
X153141239Y-57786022D01*
X153138587Y-57749626D01*
X153136956Y-57696452D01*
X153136600Y-57653393D01*
X153136592Y-57583641D01*
X153133403Y-57539837D01*
X153122288Y-57518944D01*
X153098501Y-57517925D01*
X153057296Y-57533741D01*
X152995086Y-57562815D01*
X152949341Y-57586963D01*
X152925813Y-57607913D01*
X152918896Y-57630747D01*
X152918886Y-57631877D01*
X152930299Y-57671212D01*
X152964092Y-57692462D01*
X153015809Y-57695539D01*
X153053061Y-57695006D01*
X153072703Y-57705735D01*
X153084952Y-57731505D01*
X153092002Y-57764337D01*
X153081842Y-57782966D01*
X153078017Y-57785632D01*
X153042001Y-57796340D01*
X152991566Y-57797856D01*
X152939626Y-57790759D01*
X152902822Y-57777788D01*
X152851938Y-57734585D01*
X152823014Y-57674446D01*
X152817286Y-57627462D01*
X152821657Y-57585082D01*
X152837475Y-57550488D01*
X152868797Y-57519763D01*
X152919678Y-57488990D01*
X152994176Y-57454252D01*
X152998714Y-57452288D01*
X153065821Y-57421287D01*
X153107232Y-57395862D01*
X153124981Y-57373014D01*
X153121107Y-57349745D01*
X153097643Y-57323056D01*
X153090627Y-57316914D01*
X153043630Y-57293100D01*
X152994933Y-57294103D01*
X152952522Y-57317451D01*
X152924384Y-57360675D01*
X152921769Y-57369160D01*
X152896308Y-57410308D01*
X152864001Y-57430128D01*
X152817286Y-57449770D01*
X152817286Y-57398950D01*
X152831496Y-57325082D01*
X152873675Y-57257327D01*
X152895624Y-57234661D01*
X152945517Y-57205569D01*
X153008967Y-57192400D01*
X153074744Y-57195968D01*
G36*
X152410886Y-57096289D02*
X152415139Y-57155613D01*
X152420025Y-57190572D01*
X152426795Y-57205820D01*
X152436702Y-57206015D01*
X152439914Y-57204195D01*
X152482644Y-57191015D01*
X152538227Y-57191785D01*
X152594737Y-57205333D01*
X152630082Y-57222861D01*
X152666321Y-57250861D01*
X152692813Y-57282549D01*
X152710999Y-57322813D01*
X152722322Y-57376543D01*
X152728222Y-57448626D01*
X152730143Y-57543951D01*
X152730177Y-57562237D01*
X152730200Y-57767646D01*
X152684491Y-57783580D01*
X152652027Y-57794420D01*
X152634215Y-57799468D01*
X152633691Y-57799514D01*
X152631937Y-57785828D01*
X152630444Y-57748076D01*
X152629326Y-57691224D01*
X152628697Y-57620234D01*
X152628600Y-57577073D01*
X152628398Y-57491973D01*
X152627358Y-57430981D01*
X152624831Y-57389177D01*
X152620164Y-57361642D01*
X152612707Y-57343456D01*
X152601811Y-57329698D01*
X152595007Y-57323073D01*
X152548272Y-57296375D01*
X152497272Y-57294375D01*
X152451001Y-57316955D01*
X152442444Y-57325107D01*
X152429893Y-57340436D01*
X152421188Y-57358618D01*
X152415631Y-57384909D01*
X152412526Y-57424562D01*
X152411176Y-57482832D01*
X152410886Y-57563173D01*
X152410886Y-57767646D01*
X152365177Y-57783580D01*
X152332713Y-57794420D01*
X152314901Y-57799468D01*
X152314377Y-57799514D01*
X152313037Y-57785623D01*
X152311828Y-57746439D01*
X152310801Y-57685700D01*
X152310002Y-57607141D01*
X152309481Y-57514498D01*
X152309286Y-57411509D01*
X152309286Y-57014342D01*
X152356457Y-56994444D01*
X152403629Y-56974547D01*
X152410886Y-57096289D01*
X152410886Y-57096289D01*
G37*
X152410886Y-57096289D02*
X152415139Y-57155613D01*
X152420025Y-57190572D01*
X152426795Y-57205820D01*
X152436702Y-57206015D01*
X152439914Y-57204195D01*
X152482644Y-57191015D01*
X152538227Y-57191785D01*
X152594737Y-57205333D01*
X152630082Y-57222861D01*
X152666321Y-57250861D01*
X152692813Y-57282549D01*
X152710999Y-57322813D01*
X152722322Y-57376543D01*
X152728222Y-57448626D01*
X152730143Y-57543951D01*
X152730177Y-57562237D01*
X152730200Y-57767646D01*
X152684491Y-57783580D01*
X152652027Y-57794420D01*
X152634215Y-57799468D01*
X152633691Y-57799514D01*
X152631937Y-57785828D01*
X152630444Y-57748076D01*
X152629326Y-57691224D01*
X152628697Y-57620234D01*
X152628600Y-57577073D01*
X152628398Y-57491973D01*
X152627358Y-57430981D01*
X152624831Y-57389177D01*
X152620164Y-57361642D01*
X152612707Y-57343456D01*
X152601811Y-57329698D01*
X152595007Y-57323073D01*
X152548272Y-57296375D01*
X152497272Y-57294375D01*
X152451001Y-57316955D01*
X152442444Y-57325107D01*
X152429893Y-57340436D01*
X152421188Y-57358618D01*
X152415631Y-57384909D01*
X152412526Y-57424562D01*
X152411176Y-57482832D01*
X152410886Y-57563173D01*
X152410886Y-57767646D01*
X152365177Y-57783580D01*
X152332713Y-57794420D01*
X152314901Y-57799468D01*
X152314377Y-57799514D01*
X152313037Y-57785623D01*
X152311828Y-57746439D01*
X152310801Y-57685700D01*
X152310002Y-57607141D01*
X152309481Y-57514498D01*
X152309286Y-57411509D01*
X152309286Y-57014342D01*
X152356457Y-56994444D01*
X152403629Y-56974547D01*
X152410886Y-57096289D01*
G36*
X151203303Y-57176239D02*
X151260527Y-57214735D01*
X151304749Y-57270335D01*
X151331167Y-57341086D01*
X151336510Y-57393162D01*
X151335903Y-57414893D01*
X151330822Y-57431531D01*
X151316855Y-57446437D01*
X151289589Y-57462973D01*
X151244612Y-57484498D01*
X151177511Y-57514374D01*
X151177171Y-57514524D01*
X151115407Y-57542813D01*
X151064759Y-57567933D01*
X151030404Y-57587179D01*
X151017518Y-57597848D01*
X151017514Y-57597934D01*
X151028872Y-57621166D01*
X151055431Y-57646774D01*
X151085923Y-57665221D01*
X151101370Y-57668886D01*
X151143515Y-57656212D01*
X151179808Y-57624471D01*
X151197517Y-57589572D01*
X151214552Y-57563845D01*
X151247922Y-57534546D01*
X151287149Y-57509235D01*
X151321756Y-57495471D01*
X151328993Y-57494714D01*
X151337139Y-57507160D01*
X151337630Y-57538972D01*
X151331643Y-57581866D01*
X151320357Y-57627558D01*
X151304950Y-57667761D01*
X151304171Y-57669322D01*
X151257804Y-57734062D01*
X151197711Y-57778097D01*
X151129465Y-57799711D01*
X151058638Y-57797185D01*
X150990804Y-57768804D01*
X150987788Y-57766808D01*
X150934427Y-57718448D01*
X150899340Y-57655352D01*
X150879922Y-57572387D01*
X150877316Y-57549078D01*
X150872701Y-57439055D01*
X150878233Y-57387748D01*
X151017514Y-57387748D01*
X151019324Y-57419753D01*
X151029222Y-57429093D01*
X151053898Y-57422105D01*
X151092795Y-57405587D01*
X151136275Y-57384881D01*
X151137356Y-57384333D01*
X151174209Y-57364949D01*
X151189000Y-57352013D01*
X151185353Y-57338451D01*
X151169995Y-57320632D01*
X151130923Y-57294845D01*
X151088846Y-57292950D01*
X151051103Y-57311717D01*
X151025034Y-57347915D01*
X151017514Y-57387748D01*
X150878233Y-57387748D01*
X150882194Y-57351027D01*
X150906550Y-57281212D01*
X150940456Y-57232302D01*
X151001653Y-57182878D01*
X151069063Y-57158359D01*
X151137880Y-57156797D01*
X151203303Y-57176239D01*
X151203303Y-57176239D01*
G37*
X151203303Y-57176239D02*
X151260527Y-57214735D01*
X151304749Y-57270335D01*
X151331167Y-57341086D01*
X151336510Y-57393162D01*
X151335903Y-57414893D01*
X151330822Y-57431531D01*
X151316855Y-57446437D01*
X151289589Y-57462973D01*
X151244612Y-57484498D01*
X151177511Y-57514374D01*
X151177171Y-57514524D01*
X151115407Y-57542813D01*
X151064759Y-57567933D01*
X151030404Y-57587179D01*
X151017518Y-57597848D01*
X151017514Y-57597934D01*
X151028872Y-57621166D01*
X151055431Y-57646774D01*
X151085923Y-57665221D01*
X151101370Y-57668886D01*
X151143515Y-57656212D01*
X151179808Y-57624471D01*
X151197517Y-57589572D01*
X151214552Y-57563845D01*
X151247922Y-57534546D01*
X151287149Y-57509235D01*
X151321756Y-57495471D01*
X151328993Y-57494714D01*
X151337139Y-57507160D01*
X151337630Y-57538972D01*
X151331643Y-57581866D01*
X151320357Y-57627558D01*
X151304950Y-57667761D01*
X151304171Y-57669322D01*
X151257804Y-57734062D01*
X151197711Y-57778097D01*
X151129465Y-57799711D01*
X151058638Y-57797185D01*
X150990804Y-57768804D01*
X150987788Y-57766808D01*
X150934427Y-57718448D01*
X150899340Y-57655352D01*
X150879922Y-57572387D01*
X150877316Y-57549078D01*
X150872701Y-57439055D01*
X150878233Y-57387748D01*
X151017514Y-57387748D01*
X151019324Y-57419753D01*
X151029222Y-57429093D01*
X151053898Y-57422105D01*
X151092795Y-57405587D01*
X151136275Y-57384881D01*
X151137356Y-57384333D01*
X151174209Y-57364949D01*
X151189000Y-57352013D01*
X151185353Y-57338451D01*
X151169995Y-57320632D01*
X151130923Y-57294845D01*
X151088846Y-57292950D01*
X151051103Y-57311717D01*
X151025034Y-57347915D01*
X151017514Y-57387748D01*
X150878233Y-57387748D01*
X150882194Y-57351027D01*
X150906550Y-57281212D01*
X150940456Y-57232302D01*
X151001653Y-57182878D01*
X151069063Y-57158359D01*
X151137880Y-57156797D01*
X151203303Y-57176239D01*
G36*
X150076115Y-57166962D02*
X150144145Y-57202733D01*
X150194351Y-57260301D01*
X150212185Y-57297312D01*
X150226063Y-57352882D01*
X150233167Y-57423096D01*
X150233840Y-57499727D01*
X150228427Y-57574552D01*
X150217270Y-57639342D01*
X150200714Y-57685873D01*
X150195626Y-57693887D01*
X150135355Y-57753707D01*
X150063769Y-57789535D01*
X149986092Y-57800020D01*
X149907548Y-57783810D01*
X149885689Y-57774092D01*
X149843122Y-57744143D01*
X149805763Y-57704433D01*
X149802232Y-57699397D01*
X149787881Y-57675124D01*
X149778394Y-57649178D01*
X149772790Y-57615022D01*
X149770086Y-57566119D01*
X149769299Y-57495935D01*
X149769286Y-57480200D01*
X149769322Y-57475192D01*
X149914429Y-57475192D01*
X149915273Y-57541430D01*
X149918596Y-57585386D01*
X149925583Y-57613779D01*
X149937416Y-57633325D01*
X149943457Y-57639857D01*
X149978186Y-57664680D01*
X150011903Y-57663548D01*
X150045995Y-57642016D01*
X150066329Y-57619029D01*
X150078371Y-57585478D01*
X150085134Y-57532569D01*
X150085598Y-57526399D01*
X150086752Y-57430513D01*
X150074688Y-57359299D01*
X150049570Y-57313194D01*
X150011560Y-57292635D01*
X149997992Y-57291514D01*
X149962364Y-57297152D01*
X149937994Y-57316686D01*
X149923093Y-57354042D01*
X149915875Y-57413150D01*
X149914429Y-57475192D01*
X149769322Y-57475192D01*
X149769826Y-57405413D01*
X149772096Y-57353159D01*
X149777068Y-57316949D01*
X149785713Y-57290299D01*
X149799005Y-57266722D01*
X149801943Y-57262338D01*
X149851313Y-57203249D01*
X149905109Y-57168947D01*
X149970602Y-57155331D01*
X149992842Y-57154665D01*
X150076115Y-57166962D01*
X150076115Y-57166962D01*
G37*
X150076115Y-57166962D02*
X150144145Y-57202733D01*
X150194351Y-57260301D01*
X150212185Y-57297312D01*
X150226063Y-57352882D01*
X150233167Y-57423096D01*
X150233840Y-57499727D01*
X150228427Y-57574552D01*
X150217270Y-57639342D01*
X150200714Y-57685873D01*
X150195626Y-57693887D01*
X150135355Y-57753707D01*
X150063769Y-57789535D01*
X149986092Y-57800020D01*
X149907548Y-57783810D01*
X149885689Y-57774092D01*
X149843122Y-57744143D01*
X149805763Y-57704433D01*
X149802232Y-57699397D01*
X149787881Y-57675124D01*
X149778394Y-57649178D01*
X149772790Y-57615022D01*
X149770086Y-57566119D01*
X149769299Y-57495935D01*
X149769286Y-57480200D01*
X149769322Y-57475192D01*
X149914429Y-57475192D01*
X149915273Y-57541430D01*
X149918596Y-57585386D01*
X149925583Y-57613779D01*
X149937416Y-57633325D01*
X149943457Y-57639857D01*
X149978186Y-57664680D01*
X150011903Y-57663548D01*
X150045995Y-57642016D01*
X150066329Y-57619029D01*
X150078371Y-57585478D01*
X150085134Y-57532569D01*
X150085598Y-57526399D01*
X150086752Y-57430513D01*
X150074688Y-57359299D01*
X150049570Y-57313194D01*
X150011560Y-57292635D01*
X149997992Y-57291514D01*
X149962364Y-57297152D01*
X149937994Y-57316686D01*
X149923093Y-57354042D01*
X149915875Y-57413150D01*
X149914429Y-57475192D01*
X149769322Y-57475192D01*
X149769826Y-57405413D01*
X149772096Y-57353159D01*
X149777068Y-57316949D01*
X149785713Y-57290299D01*
X149799005Y-57266722D01*
X149801943Y-57262338D01*
X149851313Y-57203249D01*
X149905109Y-57168947D01*
X149970602Y-57155331D01*
X149992842Y-57154665D01*
X150076115Y-57166962D01*
G36*
X151751093Y-57172780D02*
X151797672Y-57199723D01*
X151830057Y-57226466D01*
X151853742Y-57254484D01*
X151870059Y-57288748D01*
X151880339Y-57334227D01*
X151885914Y-57395892D01*
X151888116Y-57478711D01*
X151888371Y-57538246D01*
X151888371Y-57757391D01*
X151826686Y-57785044D01*
X151765000Y-57812697D01*
X151757743Y-57572670D01*
X151754744Y-57483028D01*
X151751598Y-57417962D01*
X151747701Y-57373026D01*
X151742447Y-57343770D01*
X151735231Y-57325748D01*
X151725450Y-57314511D01*
X151722312Y-57312079D01*
X151674761Y-57293083D01*
X151626697Y-57300600D01*
X151598086Y-57320543D01*
X151586447Y-57334675D01*
X151578391Y-57353220D01*
X151573271Y-57381334D01*
X151570441Y-57424173D01*
X151569256Y-57486895D01*
X151569057Y-57552261D01*
X151569018Y-57634268D01*
X151567614Y-57692316D01*
X151562914Y-57731465D01*
X151552987Y-57756780D01*
X151535903Y-57773323D01*
X151509732Y-57786156D01*
X151474775Y-57799491D01*
X151436596Y-57814007D01*
X151441141Y-57556389D01*
X151442971Y-57463519D01*
X151445112Y-57394889D01*
X151448181Y-57345711D01*
X151452794Y-57311198D01*
X151459568Y-57286562D01*
X151469119Y-57267016D01*
X151480634Y-57249770D01*
X151536190Y-57194680D01*
X151603980Y-57162822D01*
X151677713Y-57155191D01*
X151751093Y-57172780D01*
X151751093Y-57172780D01*
G37*
X151751093Y-57172780D02*
X151797672Y-57199723D01*
X151830057Y-57226466D01*
X151853742Y-57254484D01*
X151870059Y-57288748D01*
X151880339Y-57334227D01*
X151885914Y-57395892D01*
X151888116Y-57478711D01*
X151888371Y-57538246D01*
X151888371Y-57757391D01*
X151826686Y-57785044D01*
X151765000Y-57812697D01*
X151757743Y-57572670D01*
X151754744Y-57483028D01*
X151751598Y-57417962D01*
X151747701Y-57373026D01*
X151742447Y-57343770D01*
X151735231Y-57325748D01*
X151725450Y-57314511D01*
X151722312Y-57312079D01*
X151674761Y-57293083D01*
X151626697Y-57300600D01*
X151598086Y-57320543D01*
X151586447Y-57334675D01*
X151578391Y-57353220D01*
X151573271Y-57381334D01*
X151570441Y-57424173D01*
X151569256Y-57486895D01*
X151569057Y-57552261D01*
X151569018Y-57634268D01*
X151567614Y-57692316D01*
X151562914Y-57731465D01*
X151552987Y-57756780D01*
X151535903Y-57773323D01*
X151509732Y-57786156D01*
X151474775Y-57799491D01*
X151436596Y-57814007D01*
X151441141Y-57556389D01*
X151442971Y-57463519D01*
X151445112Y-57394889D01*
X151448181Y-57345711D01*
X151452794Y-57311198D01*
X151459568Y-57286562D01*
X151469119Y-57267016D01*
X151480634Y-57249770D01*
X151536190Y-57194680D01*
X151603980Y-57162822D01*
X151677713Y-57155191D01*
X151751093Y-57172780D01*
G36*
X150634744Y-57164918D02*
X150690201Y-57192568D01*
X150739148Y-57243480D01*
X150752629Y-57262338D01*
X150767314Y-57287015D01*
X150776842Y-57313816D01*
X150782293Y-57349587D01*
X150784747Y-57401169D01*
X150785286Y-57469267D01*
X150782852Y-57562588D01*
X150774394Y-57632657D01*
X150758174Y-57684931D01*
X150732454Y-57724869D01*
X150695497Y-57757929D01*
X150692782Y-57759886D01*
X150656360Y-57779908D01*
X150612502Y-57789815D01*
X150556724Y-57792257D01*
X150466048Y-57792257D01*
X150466010Y-57880283D01*
X150465166Y-57929308D01*
X150460024Y-57958065D01*
X150446587Y-57975311D01*
X150420858Y-57989808D01*
X150414679Y-57992769D01*
X150385764Y-58006648D01*
X150363376Y-58015414D01*
X150346729Y-58016171D01*
X150335036Y-58006023D01*
X150327510Y-57982073D01*
X150323366Y-57941426D01*
X150321815Y-57881186D01*
X150322071Y-57798455D01*
X150323349Y-57690339D01*
X150323748Y-57658000D01*
X150325185Y-57546524D01*
X150326472Y-57473603D01*
X150465971Y-57473603D01*
X150466755Y-57535499D01*
X150470240Y-57575997D01*
X150478124Y-57602708D01*
X150492105Y-57623244D01*
X150501597Y-57633260D01*
X150540404Y-57662567D01*
X150574763Y-57664952D01*
X150610216Y-57640750D01*
X150611114Y-57639857D01*
X150625539Y-57621153D01*
X150634313Y-57595732D01*
X150638739Y-57556584D01*
X150640118Y-57496697D01*
X150640143Y-57483430D01*
X150636812Y-57400901D01*
X150625969Y-57343691D01*
X150606340Y-57308766D01*
X150576650Y-57293094D01*
X150559491Y-57291514D01*
X150518766Y-57298926D01*
X150490832Y-57323330D01*
X150474017Y-57367980D01*
X150466650Y-57436130D01*
X150465971Y-57473603D01*
X150326472Y-57473603D01*
X150326708Y-57460245D01*
X150328677Y-57395333D01*
X150331450Y-57347958D01*
X150335388Y-57314290D01*
X150340849Y-57290498D01*
X150348192Y-57272753D01*
X150357777Y-57257224D01*
X150361887Y-57251381D01*
X150416405Y-57196185D01*
X150485336Y-57164890D01*
X150565072Y-57156165D01*
X150634744Y-57164918D01*
X150634744Y-57164918D01*
G37*
X150634744Y-57164918D02*
X150690201Y-57192568D01*
X150739148Y-57243480D01*
X150752629Y-57262338D01*
X150767314Y-57287015D01*
X150776842Y-57313816D01*
X150782293Y-57349587D01*
X150784747Y-57401169D01*
X150785286Y-57469267D01*
X150782852Y-57562588D01*
X150774394Y-57632657D01*
X150758174Y-57684931D01*
X150732454Y-57724869D01*
X150695497Y-57757929D01*
X150692782Y-57759886D01*
X150656360Y-57779908D01*
X150612502Y-57789815D01*
X150556724Y-57792257D01*
X150466048Y-57792257D01*
X150466010Y-57880283D01*
X150465166Y-57929308D01*
X150460024Y-57958065D01*
X150446587Y-57975311D01*
X150420858Y-57989808D01*
X150414679Y-57992769D01*
X150385764Y-58006648D01*
X150363376Y-58015414D01*
X150346729Y-58016171D01*
X150335036Y-58006023D01*
X150327510Y-57982073D01*
X150323366Y-57941426D01*
X150321815Y-57881186D01*
X150322071Y-57798455D01*
X150323349Y-57690339D01*
X150323748Y-57658000D01*
X150325185Y-57546524D01*
X150326472Y-57473603D01*
X150465971Y-57473603D01*
X150466755Y-57535499D01*
X150470240Y-57575997D01*
X150478124Y-57602708D01*
X150492105Y-57623244D01*
X150501597Y-57633260D01*
X150540404Y-57662567D01*
X150574763Y-57664952D01*
X150610216Y-57640750D01*
X150611114Y-57639857D01*
X150625539Y-57621153D01*
X150634313Y-57595732D01*
X150638739Y-57556584D01*
X150640118Y-57496697D01*
X150640143Y-57483430D01*
X150636812Y-57400901D01*
X150625969Y-57343691D01*
X150606340Y-57308766D01*
X150576650Y-57293094D01*
X150559491Y-57291514D01*
X150518766Y-57298926D01*
X150490832Y-57323330D01*
X150474017Y-57367980D01*
X150466650Y-57436130D01*
X150465971Y-57473603D01*
X150326472Y-57473603D01*
X150326708Y-57460245D01*
X150328677Y-57395333D01*
X150331450Y-57347958D01*
X150335388Y-57314290D01*
X150340849Y-57290498D01*
X150348192Y-57272753D01*
X150357777Y-57257224D01*
X150361887Y-57251381D01*
X150416405Y-57196185D01*
X150485336Y-57164890D01*
X150565072Y-57156165D01*
X150634744Y-57164918D01*
G04 #@! TO.C,R4*
D12*
X136739333Y-76906380D02*
X136406000Y-76430190D01*
X136167904Y-76906380D02*
X136167904Y-75906380D01*
X136548857Y-75906380D01*
X136644095Y-75954000D01*
X136691714Y-76001619D01*
X136739333Y-76096857D01*
X136739333Y-76239714D01*
X136691714Y-76334952D01*
X136644095Y-76382571D01*
X136548857Y-76430190D01*
X136167904Y-76430190D01*
X137596476Y-76239714D02*
X137596476Y-76906380D01*
X137358380Y-75858761D02*
X137120285Y-76573047D01*
X137739333Y-76573047D01*
G04 #@! TO.C,C1*
X165711142Y-76874666D02*
X165758761Y-76922285D01*
X165806380Y-77065142D01*
X165806380Y-77160380D01*
X165758761Y-77303238D01*
X165663523Y-77398476D01*
X165568285Y-77446095D01*
X165377809Y-77493714D01*
X165234952Y-77493714D01*
X165044476Y-77446095D01*
X164949238Y-77398476D01*
X164854000Y-77303238D01*
X164806380Y-77160380D01*
X164806380Y-77065142D01*
X164854000Y-76922285D01*
X164901619Y-76874666D01*
X165806380Y-75922285D02*
X165806380Y-76493714D01*
X165806380Y-76208000D02*
X164806380Y-76208000D01*
X164949238Y-76303238D01*
X165044476Y-76398476D01*
X165092095Y-76493714D01*
G04 #@! TO.C,C2*
X164704833Y-87573142D02*
X164657214Y-87620761D01*
X164514357Y-87668380D01*
X164419119Y-87668380D01*
X164276261Y-87620761D01*
X164181023Y-87525523D01*
X164133404Y-87430285D01*
X164085785Y-87239809D01*
X164085785Y-87096952D01*
X164133404Y-86906476D01*
X164181023Y-86811238D01*
X164276261Y-86716000D01*
X164419119Y-86668380D01*
X164514357Y-86668380D01*
X164657214Y-86716000D01*
X164704833Y-86763619D01*
X165085785Y-86763619D02*
X165133404Y-86716000D01*
X165228642Y-86668380D01*
X165466738Y-86668380D01*
X165561976Y-86716000D01*
X165609595Y-86763619D01*
X165657214Y-86858857D01*
X165657214Y-86954095D01*
X165609595Y-87096952D01*
X165038166Y-87668380D01*
X165657214Y-87668380D01*
G04 #@! TO.C,C3*
X124826833Y-70555142D02*
X124779214Y-70602761D01*
X124636357Y-70650380D01*
X124541119Y-70650380D01*
X124398261Y-70602761D01*
X124303023Y-70507523D01*
X124255404Y-70412285D01*
X124207785Y-70221809D01*
X124207785Y-70078952D01*
X124255404Y-69888476D01*
X124303023Y-69793238D01*
X124398261Y-69698000D01*
X124541119Y-69650380D01*
X124636357Y-69650380D01*
X124779214Y-69698000D01*
X124826833Y-69745619D01*
X125160166Y-69650380D02*
X125779214Y-69650380D01*
X125445880Y-70031333D01*
X125588738Y-70031333D01*
X125683976Y-70078952D01*
X125731595Y-70126571D01*
X125779214Y-70221809D01*
X125779214Y-70459904D01*
X125731595Y-70555142D01*
X125683976Y-70602761D01*
X125588738Y-70650380D01*
X125303023Y-70650380D01*
X125207785Y-70602761D01*
X125160166Y-70555142D01*
G04 #@! TO.C,C4*
X128128833Y-70555142D02*
X128081214Y-70602761D01*
X127938357Y-70650380D01*
X127843119Y-70650380D01*
X127700261Y-70602761D01*
X127605023Y-70507523D01*
X127557404Y-70412285D01*
X127509785Y-70221809D01*
X127509785Y-70078952D01*
X127557404Y-69888476D01*
X127605023Y-69793238D01*
X127700261Y-69698000D01*
X127843119Y-69650380D01*
X127938357Y-69650380D01*
X128081214Y-69698000D01*
X128128833Y-69745619D01*
X128985976Y-69983714D02*
X128985976Y-70650380D01*
X128747880Y-69602761D02*
X128509785Y-70317047D01*
X129128833Y-70317047D01*
G04 #@! TO.C,C5*
X164653833Y-93227142D02*
X164606214Y-93274761D01*
X164463357Y-93322380D01*
X164368119Y-93322380D01*
X164225261Y-93274761D01*
X164130023Y-93179523D01*
X164082404Y-93084285D01*
X164034785Y-92893809D01*
X164034785Y-92750952D01*
X164082404Y-92560476D01*
X164130023Y-92465238D01*
X164225261Y-92370000D01*
X164368119Y-92322380D01*
X164463357Y-92322380D01*
X164606214Y-92370000D01*
X164653833Y-92417619D01*
X165558595Y-92322380D02*
X165082404Y-92322380D01*
X165034785Y-92798571D01*
X165082404Y-92750952D01*
X165177642Y-92703333D01*
X165415738Y-92703333D01*
X165510976Y-92750952D01*
X165558595Y-92798571D01*
X165606214Y-92893809D01*
X165606214Y-93131904D01*
X165558595Y-93227142D01*
X165510976Y-93274761D01*
X165415738Y-93322380D01*
X165177642Y-93322380D01*
X165082404Y-93274761D01*
X165034785Y-93227142D01*
G04 #@! TO.C,C6*
X145629333Y-63189142D02*
X145581714Y-63236761D01*
X145438857Y-63284380D01*
X145343619Y-63284380D01*
X145200761Y-63236761D01*
X145105523Y-63141523D01*
X145057904Y-63046285D01*
X145010285Y-62855809D01*
X145010285Y-62712952D01*
X145057904Y-62522476D01*
X145105523Y-62427238D01*
X145200761Y-62332000D01*
X145343619Y-62284380D01*
X145438857Y-62284380D01*
X145581714Y-62332000D01*
X145629333Y-62379619D01*
X146486476Y-62284380D02*
X146296000Y-62284380D01*
X146200761Y-62332000D01*
X146153142Y-62379619D01*
X146057904Y-62522476D01*
X146010285Y-62712952D01*
X146010285Y-63093904D01*
X146057904Y-63189142D01*
X146105523Y-63236761D01*
X146200761Y-63284380D01*
X146391238Y-63284380D01*
X146486476Y-63236761D01*
X146534095Y-63189142D01*
X146581714Y-63093904D01*
X146581714Y-62855809D01*
X146534095Y-62760571D01*
X146486476Y-62712952D01*
X146391238Y-62665333D01*
X146200761Y-62665333D01*
X146105523Y-62712952D01*
X146057904Y-62760571D01*
X146010285Y-62855809D01*
G04 #@! TO.C,C7*
X138373142Y-84266166D02*
X138420761Y-84313785D01*
X138468380Y-84456642D01*
X138468380Y-84551880D01*
X138420761Y-84694738D01*
X138325523Y-84789976D01*
X138230285Y-84837595D01*
X138039809Y-84885214D01*
X137896952Y-84885214D01*
X137706476Y-84837595D01*
X137611238Y-84789976D01*
X137516000Y-84694738D01*
X137468380Y-84551880D01*
X137468380Y-84456642D01*
X137516000Y-84313785D01*
X137563619Y-84266166D01*
X137468380Y-83932833D02*
X137468380Y-83266166D01*
X138468380Y-83694738D01*
G04 #@! TO.C,C8*
X139812833Y-100273142D02*
X139765214Y-100320761D01*
X139622357Y-100368380D01*
X139527119Y-100368380D01*
X139384261Y-100320761D01*
X139289023Y-100225523D01*
X139241404Y-100130285D01*
X139193785Y-99939809D01*
X139193785Y-99796952D01*
X139241404Y-99606476D01*
X139289023Y-99511238D01*
X139384261Y-99416000D01*
X139527119Y-99368380D01*
X139622357Y-99368380D01*
X139765214Y-99416000D01*
X139812833Y-99463619D01*
X140384261Y-99796952D02*
X140289023Y-99749333D01*
X140241404Y-99701714D01*
X140193785Y-99606476D01*
X140193785Y-99558857D01*
X140241404Y-99463619D01*
X140289023Y-99416000D01*
X140384261Y-99368380D01*
X140574738Y-99368380D01*
X140669976Y-99416000D01*
X140717595Y-99463619D01*
X140765214Y-99558857D01*
X140765214Y-99606476D01*
X140717595Y-99701714D01*
X140669976Y-99749333D01*
X140574738Y-99796952D01*
X140384261Y-99796952D01*
X140289023Y-99844571D01*
X140241404Y-99892190D01*
X140193785Y-99987428D01*
X140193785Y-100177904D01*
X140241404Y-100273142D01*
X140289023Y-100320761D01*
X140384261Y-100368380D01*
X140574738Y-100368380D01*
X140669976Y-100320761D01*
X140717595Y-100273142D01*
X140765214Y-100177904D01*
X140765214Y-99987428D01*
X140717595Y-99892190D01*
X140669976Y-99844571D01*
X140574738Y-99796952D01*
G04 #@! TO.C,C9*
X156313142Y-88050666D02*
X156360761Y-88098285D01*
X156408380Y-88241142D01*
X156408380Y-88336380D01*
X156360761Y-88479238D01*
X156265523Y-88574476D01*
X156170285Y-88622095D01*
X155979809Y-88669714D01*
X155836952Y-88669714D01*
X155646476Y-88622095D01*
X155551238Y-88574476D01*
X155456000Y-88479238D01*
X155408380Y-88336380D01*
X155408380Y-88241142D01*
X155456000Y-88098285D01*
X155503619Y-88050666D01*
X156408380Y-87574476D02*
X156408380Y-87384000D01*
X156360761Y-87288761D01*
X156313142Y-87241142D01*
X156170285Y-87145904D01*
X155979809Y-87098285D01*
X155598857Y-87098285D01*
X155503619Y-87145904D01*
X155456000Y-87193523D01*
X155408380Y-87288761D01*
X155408380Y-87479238D01*
X155456000Y-87574476D01*
X155503619Y-87622095D01*
X155598857Y-87669714D01*
X155836952Y-87669714D01*
X155932190Y-87622095D01*
X155979809Y-87574476D01*
X156027428Y-87479238D01*
X156027428Y-87288761D01*
X155979809Y-87193523D01*
X155932190Y-87145904D01*
X155836952Y-87098285D01*
G04 #@! TO.C,FB1*
X122102571Y-78811333D02*
X122102571Y-79144666D01*
X122626380Y-79144666D02*
X121626380Y-79144666D01*
X121626380Y-78668476D01*
X122102571Y-77954190D02*
X122150190Y-77811333D01*
X122197809Y-77763714D01*
X122293047Y-77716095D01*
X122435904Y-77716095D01*
X122531142Y-77763714D01*
X122578761Y-77811333D01*
X122626380Y-77906571D01*
X122626380Y-78287523D01*
X121626380Y-78287523D01*
X121626380Y-77954190D01*
X121674000Y-77858952D01*
X121721619Y-77811333D01*
X121816857Y-77763714D01*
X121912095Y-77763714D01*
X122007333Y-77811333D01*
X122054952Y-77858952D01*
X122102571Y-77954190D01*
X122102571Y-78287523D01*
X122626380Y-76763714D02*
X122626380Y-77335142D01*
X122626380Y-77049428D02*
X121626380Y-77049428D01*
X121769238Y-77144666D01*
X121864476Y-77239904D01*
X121912095Y-77335142D01*
G04 #@! TO.C,J1*
X148002666Y-101560380D02*
X148002666Y-102274666D01*
X147955047Y-102417523D01*
X147859809Y-102512761D01*
X147716952Y-102560380D01*
X147621714Y-102560380D01*
X149002666Y-102560380D02*
X148431238Y-102560380D01*
X148716952Y-102560380D02*
X148716952Y-101560380D01*
X148621714Y-101703238D01*
X148526476Y-101798476D01*
X148431238Y-101846095D01*
G04 #@! TO.C,J2*
X165060380Y-65103333D02*
X165774666Y-65103333D01*
X165917523Y-65150952D01*
X166012761Y-65246190D01*
X166060380Y-65389047D01*
X166060380Y-65484285D01*
X165155619Y-64674761D02*
X165108000Y-64627142D01*
X165060380Y-64531904D01*
X165060380Y-64293809D01*
X165108000Y-64198571D01*
X165155619Y-64150952D01*
X165250857Y-64103333D01*
X165346095Y-64103333D01*
X165488952Y-64150952D01*
X166060380Y-64722380D01*
X166060380Y-64103333D01*
G04 #@! TO.C,J3*
X120570666Y-102576380D02*
X120570666Y-103290666D01*
X120523047Y-103433523D01*
X120427809Y-103528761D01*
X120284952Y-103576380D01*
X120189714Y-103576380D01*
X120951619Y-102576380D02*
X121570666Y-102576380D01*
X121237333Y-102957333D01*
X121380190Y-102957333D01*
X121475428Y-103004952D01*
X121523047Y-103052571D01*
X121570666Y-103147809D01*
X121570666Y-103385904D01*
X121523047Y-103481142D01*
X121475428Y-103528761D01*
X121380190Y-103576380D01*
X121094476Y-103576380D01*
X120999238Y-103528761D01*
X120951619Y-103481142D01*
G04 #@! TO.C,J4*
X134540666Y-101560380D02*
X134540666Y-102274666D01*
X134493047Y-102417523D01*
X134397809Y-102512761D01*
X134254952Y-102560380D01*
X134159714Y-102560380D01*
X135445428Y-101893714D02*
X135445428Y-102560380D01*
X135207333Y-101512761D02*
X134969238Y-102227047D01*
X135588285Y-102227047D01*
G04 #@! TO.C,J5*
X154900380Y-84661333D02*
X155614666Y-84661333D01*
X155757523Y-84708952D01*
X155852761Y-84804190D01*
X155900380Y-84947047D01*
X155900380Y-85042285D01*
X154900380Y-83708952D02*
X154900380Y-84185142D01*
X155376571Y-84232761D01*
X155328952Y-84185142D01*
X155281333Y-84089904D01*
X155281333Y-83851809D01*
X155328952Y-83756571D01*
X155376571Y-83708952D01*
X155471809Y-83661333D01*
X155709904Y-83661333D01*
X155805142Y-83708952D01*
X155852761Y-83756571D01*
X155900380Y-83851809D01*
X155900380Y-84089904D01*
X155852761Y-84185142D01*
X155805142Y-84232761D01*
G04 #@! TO.C,J6*
X143684666Y-52284380D02*
X143684666Y-52998666D01*
X143637047Y-53141523D01*
X143541809Y-53236761D01*
X143398952Y-53284380D01*
X143303714Y-53284380D01*
X144589428Y-52284380D02*
X144398952Y-52284380D01*
X144303714Y-52332000D01*
X144256095Y-52379619D01*
X144160857Y-52522476D01*
X144113238Y-52712952D01*
X144113238Y-53093904D01*
X144160857Y-53189142D01*
X144208476Y-53236761D01*
X144303714Y-53284380D01*
X144494190Y-53284380D01*
X144589428Y-53236761D01*
X144637047Y-53189142D01*
X144684666Y-53093904D01*
X144684666Y-52855809D01*
X144637047Y-52760571D01*
X144589428Y-52712952D01*
X144494190Y-52665333D01*
X144303714Y-52665333D01*
X144208476Y-52712952D01*
X144160857Y-52760571D01*
X144113238Y-52855809D01*
G04 #@! TO.C,R1*
X150709333Y-76652380D02*
X150376000Y-76176190D01*
X150137904Y-76652380D02*
X150137904Y-75652380D01*
X150518857Y-75652380D01*
X150614095Y-75700000D01*
X150661714Y-75747619D01*
X150709333Y-75842857D01*
X150709333Y-75985714D01*
X150661714Y-76080952D01*
X150614095Y-76128571D01*
X150518857Y-76176190D01*
X150137904Y-76176190D01*
X151661714Y-76652380D02*
X151090285Y-76652380D01*
X151376000Y-76652380D02*
X151376000Y-75652380D01*
X151280761Y-75795238D01*
X151185523Y-75890476D01*
X151090285Y-75938095D01*
G04 #@! TO.C,R2*
X153274833Y-76398380D02*
X152941500Y-75922190D01*
X152703404Y-76398380D02*
X152703404Y-75398380D01*
X153084357Y-75398380D01*
X153179595Y-75446000D01*
X153227214Y-75493619D01*
X153274833Y-75588857D01*
X153274833Y-75731714D01*
X153227214Y-75826952D01*
X153179595Y-75874571D01*
X153084357Y-75922190D01*
X152703404Y-75922190D01*
X153655785Y-75493619D02*
X153703404Y-75446000D01*
X153798642Y-75398380D01*
X154036738Y-75398380D01*
X154131976Y-75446000D01*
X154179595Y-75493619D01*
X154227214Y-75588857D01*
X154227214Y-75684095D01*
X154179595Y-75826952D01*
X153608166Y-76398380D01*
X154227214Y-76398380D01*
G04 #@! TO.C,R3*
X129136380Y-91124166D02*
X128660190Y-91457500D01*
X129136380Y-91695595D02*
X128136380Y-91695595D01*
X128136380Y-91314642D01*
X128184000Y-91219404D01*
X128231619Y-91171785D01*
X128326857Y-91124166D01*
X128469714Y-91124166D01*
X128564952Y-91171785D01*
X128612571Y-91219404D01*
X128660190Y-91314642D01*
X128660190Y-91695595D01*
X128136380Y-90790833D02*
X128136380Y-90171785D01*
X128517333Y-90505119D01*
X128517333Y-90362261D01*
X128564952Y-90267023D01*
X128612571Y-90219404D01*
X128707809Y-90171785D01*
X128945904Y-90171785D01*
X129041142Y-90219404D01*
X129088761Y-90267023D01*
X129136380Y-90362261D01*
X129136380Y-90647976D01*
X129088761Y-90743214D01*
X129041142Y-90790833D01*
G04 #@! TO.C,R5*
X136739333Y-73350380D02*
X136406000Y-72874190D01*
X136167904Y-73350380D02*
X136167904Y-72350380D01*
X136548857Y-72350380D01*
X136644095Y-72398000D01*
X136691714Y-72445619D01*
X136739333Y-72540857D01*
X136739333Y-72683714D01*
X136691714Y-72778952D01*
X136644095Y-72826571D01*
X136548857Y-72874190D01*
X136167904Y-72874190D01*
X137644095Y-72350380D02*
X137167904Y-72350380D01*
X137120285Y-72826571D01*
X137167904Y-72778952D01*
X137263142Y-72731333D01*
X137501238Y-72731333D01*
X137596476Y-72778952D01*
X137644095Y-72826571D01*
X137691714Y-72921809D01*
X137691714Y-73159904D01*
X137644095Y-73255142D01*
X137596476Y-73302761D01*
X137501238Y-73350380D01*
X137263142Y-73350380D01*
X137167904Y-73302761D01*
X137120285Y-73255142D01*
G04 #@! TO.C,R6*
X136739333Y-75128380D02*
X136406000Y-74652190D01*
X136167904Y-75128380D02*
X136167904Y-74128380D01*
X136548857Y-74128380D01*
X136644095Y-74176000D01*
X136691714Y-74223619D01*
X136739333Y-74318857D01*
X136739333Y-74461714D01*
X136691714Y-74556952D01*
X136644095Y-74604571D01*
X136548857Y-74652190D01*
X136167904Y-74652190D01*
X137596476Y-74128380D02*
X137406000Y-74128380D01*
X137310761Y-74176000D01*
X137263142Y-74223619D01*
X137167904Y-74366476D01*
X137120285Y-74556952D01*
X137120285Y-74937904D01*
X137167904Y-75033142D01*
X137215523Y-75080761D01*
X137310761Y-75128380D01*
X137501238Y-75128380D01*
X137596476Y-75080761D01*
X137644095Y-75033142D01*
X137691714Y-74937904D01*
X137691714Y-74699809D01*
X137644095Y-74604571D01*
X137596476Y-74556952D01*
X137501238Y-74509333D01*
X137310761Y-74509333D01*
X137215523Y-74556952D01*
X137167904Y-74604571D01*
X137120285Y-74699809D01*
G04 #@! TO.C,R7*
X136739333Y-71572380D02*
X136406000Y-71096190D01*
X136167904Y-71572380D02*
X136167904Y-70572380D01*
X136548857Y-70572380D01*
X136644095Y-70620000D01*
X136691714Y-70667619D01*
X136739333Y-70762857D01*
X136739333Y-70905714D01*
X136691714Y-71000952D01*
X136644095Y-71048571D01*
X136548857Y-71096190D01*
X136167904Y-71096190D01*
X137072666Y-70572380D02*
X137739333Y-70572380D01*
X137310761Y-71572380D01*
G04 #@! TO.C,U1*
X124968095Y-76888380D02*
X124968095Y-77697904D01*
X125015714Y-77793142D01*
X125063333Y-77840761D01*
X125158571Y-77888380D01*
X125349047Y-77888380D01*
X125444285Y-77840761D01*
X125491904Y-77793142D01*
X125539523Y-77697904D01*
X125539523Y-76888380D01*
X126539523Y-77888380D02*
X125968095Y-77888380D01*
X126253809Y-77888380D02*
X126253809Y-76888380D01*
X126158571Y-77031238D01*
X126063333Y-77126476D01*
X125968095Y-77174095D01*
G04 #@! TO.C,U2*
X160234380Y-91693904D02*
X161043904Y-91693904D01*
X161139142Y-91646285D01*
X161186761Y-91598666D01*
X161234380Y-91503428D01*
X161234380Y-91312952D01*
X161186761Y-91217714D01*
X161139142Y-91170095D01*
X161043904Y-91122476D01*
X160234380Y-91122476D01*
X160329619Y-90693904D02*
X160282000Y-90646285D01*
X160234380Y-90551047D01*
X160234380Y-90312952D01*
X160282000Y-90217714D01*
X160329619Y-90170095D01*
X160424857Y-90122476D01*
X160520095Y-90122476D01*
X160662952Y-90170095D01*
X161234380Y-90741523D01*
X161234380Y-90122476D01*
G04 #@! TO.C,C10*
X156567142Y-76080857D02*
X156614761Y-76128476D01*
X156662380Y-76271333D01*
X156662380Y-76366571D01*
X156614761Y-76509428D01*
X156519523Y-76604666D01*
X156424285Y-76652285D01*
X156233809Y-76699904D01*
X156090952Y-76699904D01*
X155900476Y-76652285D01*
X155805238Y-76604666D01*
X155710000Y-76509428D01*
X155662380Y-76366571D01*
X155662380Y-76271333D01*
X155710000Y-76128476D01*
X155757619Y-76080857D01*
X156662380Y-75128476D02*
X156662380Y-75699904D01*
X156662380Y-75414190D02*
X155662380Y-75414190D01*
X155805238Y-75509428D01*
X155900476Y-75604666D01*
X155948095Y-75699904D01*
X155662380Y-74509428D02*
X155662380Y-74414190D01*
X155710000Y-74318952D01*
X155757619Y-74271333D01*
X155852857Y-74223714D01*
X156043333Y-74176095D01*
X156281428Y-74176095D01*
X156471904Y-74223714D01*
X156567142Y-74271333D01*
X156614761Y-74318952D01*
X156662380Y-74414190D01*
X156662380Y-74509428D01*
X156614761Y-74604666D01*
X156567142Y-74652285D01*
X156471904Y-74699904D01*
X156281428Y-74747523D01*
X156043333Y-74747523D01*
X155852857Y-74699904D01*
X155757619Y-74652285D01*
X155710000Y-74604666D01*
X155662380Y-74509428D01*
G04 #@! TO.C,U4*
X159980380Y-61213904D02*
X160789904Y-61213904D01*
X160885142Y-61166285D01*
X160932761Y-61118666D01*
X160980380Y-61023428D01*
X160980380Y-60832952D01*
X160932761Y-60737714D01*
X160885142Y-60690095D01*
X160789904Y-60642476D01*
X159980380Y-60642476D01*
X160313714Y-59737714D02*
X160980380Y-59737714D01*
X159932761Y-59975809D02*
X160647047Y-60213904D01*
X160647047Y-59594857D01*
G04 #@! TO.C,U3*
X117856095Y-64940380D02*
X117856095Y-65749904D01*
X117903714Y-65845142D01*
X117951333Y-65892761D01*
X118046571Y-65940380D01*
X118237047Y-65940380D01*
X118332285Y-65892761D01*
X118379904Y-65845142D01*
X118427523Y-65749904D01*
X118427523Y-64940380D01*
X118808476Y-64940380D02*
X119427523Y-64940380D01*
X119094190Y-65321333D01*
X119237047Y-65321333D01*
X119332285Y-65368952D01*
X119379904Y-65416571D01*
X119427523Y-65511809D01*
X119427523Y-65749904D01*
X119379904Y-65845142D01*
X119332285Y-65892761D01*
X119237047Y-65940380D01*
X118951333Y-65940380D01*
X118856095Y-65892761D01*
X118808476Y-65845142D01*
G04 #@! TD*
M02*
