G04 #@! TF.GenerationSoftware,KiCad,Pcbnew,5.0.0-fee4fd1~66~ubuntu16.04.1*
G04 #@! TF.CreationDate,2018-10-27T16:37:25+02:00*
G04 #@! TF.ProjectId,balancebot,62616C616E6365626F742E6B69636164,rev?*
G04 #@! TF.SameCoordinates,Original*
G04 #@! TF.FileFunction,Copper,L1,Top,Signal*
G04 #@! TF.FilePolarity,Positive*
%FSLAX46Y46*%
G04 Gerber Fmt 4.6, Leading zero omitted, Abs format (unit mm)*
G04 Created by KiCad (PCBNEW 5.0.0-fee4fd1~66~ubuntu16.04.1) date Sat Oct 27 16:37:25 2018*
%MOMM*%
%LPD*%
G01*
G04 APERTURE LIST*
G04 #@! TA.AperFunction,Conductor*
%ADD10C,0.100000*%
G04 #@! TD*
G04 #@! TA.AperFunction,SMDPad,CuDef*
%ADD11C,0.875000*%
G04 #@! TD*
G04 #@! TA.AperFunction,SMDPad,CuDef*
%ADD12R,2.500000X3.500000*%
G04 #@! TD*
G04 #@! TA.AperFunction,ComponentPad*
%ADD13C,1.700000*%
G04 #@! TD*
G04 #@! TA.AperFunction,ComponentPad*
%ADD14O,1.700000X1.950000*%
G04 #@! TD*
G04 #@! TA.AperFunction,ComponentPad*
%ADD15O,2.000000X1.700000*%
G04 #@! TD*
G04 #@! TA.AperFunction,ComponentPad*
%ADD16O,1.950000X1.700000*%
G04 #@! TD*
G04 #@! TA.AperFunction,SMDPad,CuDef*
%ADD17R,1.000000X0.250000*%
G04 #@! TD*
G04 #@! TA.AperFunction,SMDPad,CuDef*
%ADD18R,0.250000X1.000000*%
G04 #@! TD*
G04 #@! TA.AperFunction,ComponentPad*
%ADD19R,0.900000X0.900000*%
G04 #@! TD*
G04 #@! TA.AperFunction,SMDPad,CuDef*
%ADD20R,0.250000X0.800000*%
G04 #@! TD*
G04 #@! TA.AperFunction,ComponentPad*
%ADD21C,1.524000*%
G04 #@! TD*
G04 #@! TA.AperFunction,ComponentPad*
%ADD22O,1.700000X1.700000*%
G04 #@! TD*
G04 #@! TA.AperFunction,ComponentPad*
%ADD23R,1.700000X1.700000*%
G04 #@! TD*
G04 #@! TA.AperFunction,ViaPad*
%ADD24C,0.800000*%
G04 #@! TD*
G04 #@! TA.AperFunction,Conductor*
%ADD25C,0.250000*%
G04 #@! TD*
G04 #@! TA.AperFunction,Conductor*
%ADD26C,0.500000*%
G04 #@! TD*
G04 #@! TA.AperFunction,Conductor*
%ADD27C,0.254000*%
G04 #@! TD*
G04 APERTURE END LIST*
D10*
G04 #@! TO.N,+3V3*
G04 #@! TO.C,R4*
G36*
X139178191Y-75980053D02*
X139199426Y-75983203D01*
X139220250Y-75988419D01*
X139240462Y-75995651D01*
X139259868Y-76004830D01*
X139278281Y-76015866D01*
X139295524Y-76028654D01*
X139311430Y-76043070D01*
X139325846Y-76058976D01*
X139338634Y-76076219D01*
X139349670Y-76094632D01*
X139358849Y-76114038D01*
X139366081Y-76134250D01*
X139371297Y-76155074D01*
X139374447Y-76176309D01*
X139375500Y-76197750D01*
X139375500Y-76710250D01*
X139374447Y-76731691D01*
X139371297Y-76752926D01*
X139366081Y-76773750D01*
X139358849Y-76793962D01*
X139349670Y-76813368D01*
X139338634Y-76831781D01*
X139325846Y-76849024D01*
X139311430Y-76864930D01*
X139295524Y-76879346D01*
X139278281Y-76892134D01*
X139259868Y-76903170D01*
X139240462Y-76912349D01*
X139220250Y-76919581D01*
X139199426Y-76924797D01*
X139178191Y-76927947D01*
X139156750Y-76929000D01*
X138719250Y-76929000D01*
X138697809Y-76927947D01*
X138676574Y-76924797D01*
X138655750Y-76919581D01*
X138635538Y-76912349D01*
X138616132Y-76903170D01*
X138597719Y-76892134D01*
X138580476Y-76879346D01*
X138564570Y-76864930D01*
X138550154Y-76849024D01*
X138537366Y-76831781D01*
X138526330Y-76813368D01*
X138517151Y-76793962D01*
X138509919Y-76773750D01*
X138504703Y-76752926D01*
X138501553Y-76731691D01*
X138500500Y-76710250D01*
X138500500Y-76197750D01*
X138501553Y-76176309D01*
X138504703Y-76155074D01*
X138509919Y-76134250D01*
X138517151Y-76114038D01*
X138526330Y-76094632D01*
X138537366Y-76076219D01*
X138550154Y-76058976D01*
X138564570Y-76043070D01*
X138580476Y-76028654D01*
X138597719Y-76015866D01*
X138616132Y-76004830D01*
X138635538Y-75995651D01*
X138655750Y-75988419D01*
X138676574Y-75983203D01*
X138697809Y-75980053D01*
X138719250Y-75979000D01*
X139156750Y-75979000D01*
X139178191Y-75980053D01*
X139178191Y-75980053D01*
G37*
D11*
G04 #@! TD*
G04 #@! TO.P,R4,1*
G04 #@! TO.N,+3V3*
X138938000Y-76454000D03*
D10*
G04 #@! TO.N,APHASE*
G04 #@! TO.C,R4*
G36*
X140753191Y-75980053D02*
X140774426Y-75983203D01*
X140795250Y-75988419D01*
X140815462Y-75995651D01*
X140834868Y-76004830D01*
X140853281Y-76015866D01*
X140870524Y-76028654D01*
X140886430Y-76043070D01*
X140900846Y-76058976D01*
X140913634Y-76076219D01*
X140924670Y-76094632D01*
X140933849Y-76114038D01*
X140941081Y-76134250D01*
X140946297Y-76155074D01*
X140949447Y-76176309D01*
X140950500Y-76197750D01*
X140950500Y-76710250D01*
X140949447Y-76731691D01*
X140946297Y-76752926D01*
X140941081Y-76773750D01*
X140933849Y-76793962D01*
X140924670Y-76813368D01*
X140913634Y-76831781D01*
X140900846Y-76849024D01*
X140886430Y-76864930D01*
X140870524Y-76879346D01*
X140853281Y-76892134D01*
X140834868Y-76903170D01*
X140815462Y-76912349D01*
X140795250Y-76919581D01*
X140774426Y-76924797D01*
X140753191Y-76927947D01*
X140731750Y-76929000D01*
X140294250Y-76929000D01*
X140272809Y-76927947D01*
X140251574Y-76924797D01*
X140230750Y-76919581D01*
X140210538Y-76912349D01*
X140191132Y-76903170D01*
X140172719Y-76892134D01*
X140155476Y-76879346D01*
X140139570Y-76864930D01*
X140125154Y-76849024D01*
X140112366Y-76831781D01*
X140101330Y-76813368D01*
X140092151Y-76793962D01*
X140084919Y-76773750D01*
X140079703Y-76752926D01*
X140076553Y-76731691D01*
X140075500Y-76710250D01*
X140075500Y-76197750D01*
X140076553Y-76176309D01*
X140079703Y-76155074D01*
X140084919Y-76134250D01*
X140092151Y-76114038D01*
X140101330Y-76094632D01*
X140112366Y-76076219D01*
X140125154Y-76058976D01*
X140139570Y-76043070D01*
X140155476Y-76028654D01*
X140172719Y-76015866D01*
X140191132Y-76004830D01*
X140210538Y-75995651D01*
X140230750Y-75988419D01*
X140251574Y-75983203D01*
X140272809Y-75980053D01*
X140294250Y-75979000D01*
X140731750Y-75979000D01*
X140753191Y-75980053D01*
X140753191Y-75980053D01*
G37*
D11*
G04 #@! TD*
G04 #@! TO.P,R4,2*
G04 #@! TO.N,APHASE*
X140513000Y-76454000D03*
D12*
G04 #@! TO.P,C1,1*
G04 #@! TO.N,+BATT*
X162052000Y-85292000D03*
G04 #@! TO.P,C1,2*
G04 #@! TO.N,GND*
X162052000Y-78792000D03*
G04 #@! TD*
D10*
G04 #@! TO.N,GND*
G04 #@! TO.C,C2*
G36*
X165899191Y-88172053D02*
X165920426Y-88175203D01*
X165941250Y-88180419D01*
X165961462Y-88187651D01*
X165980868Y-88196830D01*
X165999281Y-88207866D01*
X166016524Y-88220654D01*
X166032430Y-88235070D01*
X166046846Y-88250976D01*
X166059634Y-88268219D01*
X166070670Y-88286632D01*
X166079849Y-88306038D01*
X166087081Y-88326250D01*
X166092297Y-88347074D01*
X166095447Y-88368309D01*
X166096500Y-88389750D01*
X166096500Y-88902250D01*
X166095447Y-88923691D01*
X166092297Y-88944926D01*
X166087081Y-88965750D01*
X166079849Y-88985962D01*
X166070670Y-89005368D01*
X166059634Y-89023781D01*
X166046846Y-89041024D01*
X166032430Y-89056930D01*
X166016524Y-89071346D01*
X165999281Y-89084134D01*
X165980868Y-89095170D01*
X165961462Y-89104349D01*
X165941250Y-89111581D01*
X165920426Y-89116797D01*
X165899191Y-89119947D01*
X165877750Y-89121000D01*
X165440250Y-89121000D01*
X165418809Y-89119947D01*
X165397574Y-89116797D01*
X165376750Y-89111581D01*
X165356538Y-89104349D01*
X165337132Y-89095170D01*
X165318719Y-89084134D01*
X165301476Y-89071346D01*
X165285570Y-89056930D01*
X165271154Y-89041024D01*
X165258366Y-89023781D01*
X165247330Y-89005368D01*
X165238151Y-88985962D01*
X165230919Y-88965750D01*
X165225703Y-88944926D01*
X165222553Y-88923691D01*
X165221500Y-88902250D01*
X165221500Y-88389750D01*
X165222553Y-88368309D01*
X165225703Y-88347074D01*
X165230919Y-88326250D01*
X165238151Y-88306038D01*
X165247330Y-88286632D01*
X165258366Y-88268219D01*
X165271154Y-88250976D01*
X165285570Y-88235070D01*
X165301476Y-88220654D01*
X165318719Y-88207866D01*
X165337132Y-88196830D01*
X165356538Y-88187651D01*
X165376750Y-88180419D01*
X165397574Y-88175203D01*
X165418809Y-88172053D01*
X165440250Y-88171000D01*
X165877750Y-88171000D01*
X165899191Y-88172053D01*
X165899191Y-88172053D01*
G37*
D11*
G04 #@! TD*
G04 #@! TO.P,C2,2*
G04 #@! TO.N,GND*
X165659000Y-88646000D03*
D10*
G04 #@! TO.N,+BATT*
G04 #@! TO.C,C2*
G36*
X164324191Y-88172053D02*
X164345426Y-88175203D01*
X164366250Y-88180419D01*
X164386462Y-88187651D01*
X164405868Y-88196830D01*
X164424281Y-88207866D01*
X164441524Y-88220654D01*
X164457430Y-88235070D01*
X164471846Y-88250976D01*
X164484634Y-88268219D01*
X164495670Y-88286632D01*
X164504849Y-88306038D01*
X164512081Y-88326250D01*
X164517297Y-88347074D01*
X164520447Y-88368309D01*
X164521500Y-88389750D01*
X164521500Y-88902250D01*
X164520447Y-88923691D01*
X164517297Y-88944926D01*
X164512081Y-88965750D01*
X164504849Y-88985962D01*
X164495670Y-89005368D01*
X164484634Y-89023781D01*
X164471846Y-89041024D01*
X164457430Y-89056930D01*
X164441524Y-89071346D01*
X164424281Y-89084134D01*
X164405868Y-89095170D01*
X164386462Y-89104349D01*
X164366250Y-89111581D01*
X164345426Y-89116797D01*
X164324191Y-89119947D01*
X164302750Y-89121000D01*
X163865250Y-89121000D01*
X163843809Y-89119947D01*
X163822574Y-89116797D01*
X163801750Y-89111581D01*
X163781538Y-89104349D01*
X163762132Y-89095170D01*
X163743719Y-89084134D01*
X163726476Y-89071346D01*
X163710570Y-89056930D01*
X163696154Y-89041024D01*
X163683366Y-89023781D01*
X163672330Y-89005368D01*
X163663151Y-88985962D01*
X163655919Y-88965750D01*
X163650703Y-88944926D01*
X163647553Y-88923691D01*
X163646500Y-88902250D01*
X163646500Y-88389750D01*
X163647553Y-88368309D01*
X163650703Y-88347074D01*
X163655919Y-88326250D01*
X163663151Y-88306038D01*
X163672330Y-88286632D01*
X163683366Y-88268219D01*
X163696154Y-88250976D01*
X163710570Y-88235070D01*
X163726476Y-88220654D01*
X163743719Y-88207866D01*
X163762132Y-88196830D01*
X163781538Y-88187651D01*
X163801750Y-88180419D01*
X163822574Y-88175203D01*
X163843809Y-88172053D01*
X163865250Y-88171000D01*
X164302750Y-88171000D01*
X164324191Y-88172053D01*
X164324191Y-88172053D01*
G37*
D11*
G04 #@! TD*
G04 #@! TO.P,C2,1*
G04 #@! TO.N,+BATT*
X164084000Y-88646000D03*
D10*
G04 #@! TO.N,Net-(C3-Pad1)*
G04 #@! TO.C,C3*
G36*
X124446191Y-71154053D02*
X124467426Y-71157203D01*
X124488250Y-71162419D01*
X124508462Y-71169651D01*
X124527868Y-71178830D01*
X124546281Y-71189866D01*
X124563524Y-71202654D01*
X124579430Y-71217070D01*
X124593846Y-71232976D01*
X124606634Y-71250219D01*
X124617670Y-71268632D01*
X124626849Y-71288038D01*
X124634081Y-71308250D01*
X124639297Y-71329074D01*
X124642447Y-71350309D01*
X124643500Y-71371750D01*
X124643500Y-71884250D01*
X124642447Y-71905691D01*
X124639297Y-71926926D01*
X124634081Y-71947750D01*
X124626849Y-71967962D01*
X124617670Y-71987368D01*
X124606634Y-72005781D01*
X124593846Y-72023024D01*
X124579430Y-72038930D01*
X124563524Y-72053346D01*
X124546281Y-72066134D01*
X124527868Y-72077170D01*
X124508462Y-72086349D01*
X124488250Y-72093581D01*
X124467426Y-72098797D01*
X124446191Y-72101947D01*
X124424750Y-72103000D01*
X123987250Y-72103000D01*
X123965809Y-72101947D01*
X123944574Y-72098797D01*
X123923750Y-72093581D01*
X123903538Y-72086349D01*
X123884132Y-72077170D01*
X123865719Y-72066134D01*
X123848476Y-72053346D01*
X123832570Y-72038930D01*
X123818154Y-72023024D01*
X123805366Y-72005781D01*
X123794330Y-71987368D01*
X123785151Y-71967962D01*
X123777919Y-71947750D01*
X123772703Y-71926926D01*
X123769553Y-71905691D01*
X123768500Y-71884250D01*
X123768500Y-71371750D01*
X123769553Y-71350309D01*
X123772703Y-71329074D01*
X123777919Y-71308250D01*
X123785151Y-71288038D01*
X123794330Y-71268632D01*
X123805366Y-71250219D01*
X123818154Y-71232976D01*
X123832570Y-71217070D01*
X123848476Y-71202654D01*
X123865719Y-71189866D01*
X123884132Y-71178830D01*
X123903538Y-71169651D01*
X123923750Y-71162419D01*
X123944574Y-71157203D01*
X123965809Y-71154053D01*
X123987250Y-71153000D01*
X124424750Y-71153000D01*
X124446191Y-71154053D01*
X124446191Y-71154053D01*
G37*
D11*
G04 #@! TD*
G04 #@! TO.P,C3,1*
G04 #@! TO.N,Net-(C3-Pad1)*
X124206000Y-71628000D03*
D10*
G04 #@! TO.N,GND*
G04 #@! TO.C,C3*
G36*
X126021191Y-71154053D02*
X126042426Y-71157203D01*
X126063250Y-71162419D01*
X126083462Y-71169651D01*
X126102868Y-71178830D01*
X126121281Y-71189866D01*
X126138524Y-71202654D01*
X126154430Y-71217070D01*
X126168846Y-71232976D01*
X126181634Y-71250219D01*
X126192670Y-71268632D01*
X126201849Y-71288038D01*
X126209081Y-71308250D01*
X126214297Y-71329074D01*
X126217447Y-71350309D01*
X126218500Y-71371750D01*
X126218500Y-71884250D01*
X126217447Y-71905691D01*
X126214297Y-71926926D01*
X126209081Y-71947750D01*
X126201849Y-71967962D01*
X126192670Y-71987368D01*
X126181634Y-72005781D01*
X126168846Y-72023024D01*
X126154430Y-72038930D01*
X126138524Y-72053346D01*
X126121281Y-72066134D01*
X126102868Y-72077170D01*
X126083462Y-72086349D01*
X126063250Y-72093581D01*
X126042426Y-72098797D01*
X126021191Y-72101947D01*
X125999750Y-72103000D01*
X125562250Y-72103000D01*
X125540809Y-72101947D01*
X125519574Y-72098797D01*
X125498750Y-72093581D01*
X125478538Y-72086349D01*
X125459132Y-72077170D01*
X125440719Y-72066134D01*
X125423476Y-72053346D01*
X125407570Y-72038930D01*
X125393154Y-72023024D01*
X125380366Y-72005781D01*
X125369330Y-71987368D01*
X125360151Y-71967962D01*
X125352919Y-71947750D01*
X125347703Y-71926926D01*
X125344553Y-71905691D01*
X125343500Y-71884250D01*
X125343500Y-71371750D01*
X125344553Y-71350309D01*
X125347703Y-71329074D01*
X125352919Y-71308250D01*
X125360151Y-71288038D01*
X125369330Y-71268632D01*
X125380366Y-71250219D01*
X125393154Y-71232976D01*
X125407570Y-71217070D01*
X125423476Y-71202654D01*
X125440719Y-71189866D01*
X125459132Y-71178830D01*
X125478538Y-71169651D01*
X125498750Y-71162419D01*
X125519574Y-71157203D01*
X125540809Y-71154053D01*
X125562250Y-71153000D01*
X125999750Y-71153000D01*
X126021191Y-71154053D01*
X126021191Y-71154053D01*
G37*
D11*
G04 #@! TD*
G04 #@! TO.P,C3,2*
G04 #@! TO.N,GND*
X125781000Y-71628000D03*
D10*
G04 #@! TO.N,GND*
G04 #@! TO.C,C4*
G36*
X129323191Y-71154053D02*
X129344426Y-71157203D01*
X129365250Y-71162419D01*
X129385462Y-71169651D01*
X129404868Y-71178830D01*
X129423281Y-71189866D01*
X129440524Y-71202654D01*
X129456430Y-71217070D01*
X129470846Y-71232976D01*
X129483634Y-71250219D01*
X129494670Y-71268632D01*
X129503849Y-71288038D01*
X129511081Y-71308250D01*
X129516297Y-71329074D01*
X129519447Y-71350309D01*
X129520500Y-71371750D01*
X129520500Y-71884250D01*
X129519447Y-71905691D01*
X129516297Y-71926926D01*
X129511081Y-71947750D01*
X129503849Y-71967962D01*
X129494670Y-71987368D01*
X129483634Y-72005781D01*
X129470846Y-72023024D01*
X129456430Y-72038930D01*
X129440524Y-72053346D01*
X129423281Y-72066134D01*
X129404868Y-72077170D01*
X129385462Y-72086349D01*
X129365250Y-72093581D01*
X129344426Y-72098797D01*
X129323191Y-72101947D01*
X129301750Y-72103000D01*
X128864250Y-72103000D01*
X128842809Y-72101947D01*
X128821574Y-72098797D01*
X128800750Y-72093581D01*
X128780538Y-72086349D01*
X128761132Y-72077170D01*
X128742719Y-72066134D01*
X128725476Y-72053346D01*
X128709570Y-72038930D01*
X128695154Y-72023024D01*
X128682366Y-72005781D01*
X128671330Y-71987368D01*
X128662151Y-71967962D01*
X128654919Y-71947750D01*
X128649703Y-71926926D01*
X128646553Y-71905691D01*
X128645500Y-71884250D01*
X128645500Y-71371750D01*
X128646553Y-71350309D01*
X128649703Y-71329074D01*
X128654919Y-71308250D01*
X128662151Y-71288038D01*
X128671330Y-71268632D01*
X128682366Y-71250219D01*
X128695154Y-71232976D01*
X128709570Y-71217070D01*
X128725476Y-71202654D01*
X128742719Y-71189866D01*
X128761132Y-71178830D01*
X128780538Y-71169651D01*
X128800750Y-71162419D01*
X128821574Y-71157203D01*
X128842809Y-71154053D01*
X128864250Y-71153000D01*
X129301750Y-71153000D01*
X129323191Y-71154053D01*
X129323191Y-71154053D01*
G37*
D11*
G04 #@! TD*
G04 #@! TO.P,C4,2*
G04 #@! TO.N,GND*
X129083000Y-71628000D03*
D10*
G04 #@! TO.N,+3V3*
G04 #@! TO.C,C4*
G36*
X127748191Y-71154053D02*
X127769426Y-71157203D01*
X127790250Y-71162419D01*
X127810462Y-71169651D01*
X127829868Y-71178830D01*
X127848281Y-71189866D01*
X127865524Y-71202654D01*
X127881430Y-71217070D01*
X127895846Y-71232976D01*
X127908634Y-71250219D01*
X127919670Y-71268632D01*
X127928849Y-71288038D01*
X127936081Y-71308250D01*
X127941297Y-71329074D01*
X127944447Y-71350309D01*
X127945500Y-71371750D01*
X127945500Y-71884250D01*
X127944447Y-71905691D01*
X127941297Y-71926926D01*
X127936081Y-71947750D01*
X127928849Y-71967962D01*
X127919670Y-71987368D01*
X127908634Y-72005781D01*
X127895846Y-72023024D01*
X127881430Y-72038930D01*
X127865524Y-72053346D01*
X127848281Y-72066134D01*
X127829868Y-72077170D01*
X127810462Y-72086349D01*
X127790250Y-72093581D01*
X127769426Y-72098797D01*
X127748191Y-72101947D01*
X127726750Y-72103000D01*
X127289250Y-72103000D01*
X127267809Y-72101947D01*
X127246574Y-72098797D01*
X127225750Y-72093581D01*
X127205538Y-72086349D01*
X127186132Y-72077170D01*
X127167719Y-72066134D01*
X127150476Y-72053346D01*
X127134570Y-72038930D01*
X127120154Y-72023024D01*
X127107366Y-72005781D01*
X127096330Y-71987368D01*
X127087151Y-71967962D01*
X127079919Y-71947750D01*
X127074703Y-71926926D01*
X127071553Y-71905691D01*
X127070500Y-71884250D01*
X127070500Y-71371750D01*
X127071553Y-71350309D01*
X127074703Y-71329074D01*
X127079919Y-71308250D01*
X127087151Y-71288038D01*
X127096330Y-71268632D01*
X127107366Y-71250219D01*
X127120154Y-71232976D01*
X127134570Y-71217070D01*
X127150476Y-71202654D01*
X127167719Y-71189866D01*
X127186132Y-71178830D01*
X127205538Y-71169651D01*
X127225750Y-71162419D01*
X127246574Y-71157203D01*
X127267809Y-71154053D01*
X127289250Y-71153000D01*
X127726750Y-71153000D01*
X127748191Y-71154053D01*
X127748191Y-71154053D01*
G37*
D11*
G04 #@! TD*
G04 #@! TO.P,C4,1*
G04 #@! TO.N,+3V3*
X127508000Y-71628000D03*
D10*
G04 #@! TO.N,GND*
G04 #@! TO.C,C5*
G36*
X165848191Y-90966053D02*
X165869426Y-90969203D01*
X165890250Y-90974419D01*
X165910462Y-90981651D01*
X165929868Y-90990830D01*
X165948281Y-91001866D01*
X165965524Y-91014654D01*
X165981430Y-91029070D01*
X165995846Y-91044976D01*
X166008634Y-91062219D01*
X166019670Y-91080632D01*
X166028849Y-91100038D01*
X166036081Y-91120250D01*
X166041297Y-91141074D01*
X166044447Y-91162309D01*
X166045500Y-91183750D01*
X166045500Y-91696250D01*
X166044447Y-91717691D01*
X166041297Y-91738926D01*
X166036081Y-91759750D01*
X166028849Y-91779962D01*
X166019670Y-91799368D01*
X166008634Y-91817781D01*
X165995846Y-91835024D01*
X165981430Y-91850930D01*
X165965524Y-91865346D01*
X165948281Y-91878134D01*
X165929868Y-91889170D01*
X165910462Y-91898349D01*
X165890250Y-91905581D01*
X165869426Y-91910797D01*
X165848191Y-91913947D01*
X165826750Y-91915000D01*
X165389250Y-91915000D01*
X165367809Y-91913947D01*
X165346574Y-91910797D01*
X165325750Y-91905581D01*
X165305538Y-91898349D01*
X165286132Y-91889170D01*
X165267719Y-91878134D01*
X165250476Y-91865346D01*
X165234570Y-91850930D01*
X165220154Y-91835024D01*
X165207366Y-91817781D01*
X165196330Y-91799368D01*
X165187151Y-91779962D01*
X165179919Y-91759750D01*
X165174703Y-91738926D01*
X165171553Y-91717691D01*
X165170500Y-91696250D01*
X165170500Y-91183750D01*
X165171553Y-91162309D01*
X165174703Y-91141074D01*
X165179919Y-91120250D01*
X165187151Y-91100038D01*
X165196330Y-91080632D01*
X165207366Y-91062219D01*
X165220154Y-91044976D01*
X165234570Y-91029070D01*
X165250476Y-91014654D01*
X165267719Y-91001866D01*
X165286132Y-90990830D01*
X165305538Y-90981651D01*
X165325750Y-90974419D01*
X165346574Y-90969203D01*
X165367809Y-90966053D01*
X165389250Y-90965000D01*
X165826750Y-90965000D01*
X165848191Y-90966053D01*
X165848191Y-90966053D01*
G37*
D11*
G04 #@! TD*
G04 #@! TO.P,C5,1*
G04 #@! TO.N,GND*
X165608000Y-91440000D03*
D10*
G04 #@! TO.N,+3V3*
G04 #@! TO.C,C5*
G36*
X164273191Y-90966053D02*
X164294426Y-90969203D01*
X164315250Y-90974419D01*
X164335462Y-90981651D01*
X164354868Y-90990830D01*
X164373281Y-91001866D01*
X164390524Y-91014654D01*
X164406430Y-91029070D01*
X164420846Y-91044976D01*
X164433634Y-91062219D01*
X164444670Y-91080632D01*
X164453849Y-91100038D01*
X164461081Y-91120250D01*
X164466297Y-91141074D01*
X164469447Y-91162309D01*
X164470500Y-91183750D01*
X164470500Y-91696250D01*
X164469447Y-91717691D01*
X164466297Y-91738926D01*
X164461081Y-91759750D01*
X164453849Y-91779962D01*
X164444670Y-91799368D01*
X164433634Y-91817781D01*
X164420846Y-91835024D01*
X164406430Y-91850930D01*
X164390524Y-91865346D01*
X164373281Y-91878134D01*
X164354868Y-91889170D01*
X164335462Y-91898349D01*
X164315250Y-91905581D01*
X164294426Y-91910797D01*
X164273191Y-91913947D01*
X164251750Y-91915000D01*
X163814250Y-91915000D01*
X163792809Y-91913947D01*
X163771574Y-91910797D01*
X163750750Y-91905581D01*
X163730538Y-91898349D01*
X163711132Y-91889170D01*
X163692719Y-91878134D01*
X163675476Y-91865346D01*
X163659570Y-91850930D01*
X163645154Y-91835024D01*
X163632366Y-91817781D01*
X163621330Y-91799368D01*
X163612151Y-91779962D01*
X163604919Y-91759750D01*
X163599703Y-91738926D01*
X163596553Y-91717691D01*
X163595500Y-91696250D01*
X163595500Y-91183750D01*
X163596553Y-91162309D01*
X163599703Y-91141074D01*
X163604919Y-91120250D01*
X163612151Y-91100038D01*
X163621330Y-91080632D01*
X163632366Y-91062219D01*
X163645154Y-91044976D01*
X163659570Y-91029070D01*
X163675476Y-91014654D01*
X163692719Y-91001866D01*
X163711132Y-90990830D01*
X163730538Y-90981651D01*
X163750750Y-90974419D01*
X163771574Y-90969203D01*
X163792809Y-90966053D01*
X163814250Y-90965000D01*
X164251750Y-90965000D01*
X164273191Y-90966053D01*
X164273191Y-90966053D01*
G37*
D11*
G04 #@! TD*
G04 #@! TO.P,C5,2*
G04 #@! TO.N,+3V3*
X164033000Y-91440000D03*
D10*
G04 #@! TO.N,+3V3*
G04 #@! TO.C,C6*
G36*
X145248691Y-63788053D02*
X145269926Y-63791203D01*
X145290750Y-63796419D01*
X145310962Y-63803651D01*
X145330368Y-63812830D01*
X145348781Y-63823866D01*
X145366024Y-63836654D01*
X145381930Y-63851070D01*
X145396346Y-63866976D01*
X145409134Y-63884219D01*
X145420170Y-63902632D01*
X145429349Y-63922038D01*
X145436581Y-63942250D01*
X145441797Y-63963074D01*
X145444947Y-63984309D01*
X145446000Y-64005750D01*
X145446000Y-64518250D01*
X145444947Y-64539691D01*
X145441797Y-64560926D01*
X145436581Y-64581750D01*
X145429349Y-64601962D01*
X145420170Y-64621368D01*
X145409134Y-64639781D01*
X145396346Y-64657024D01*
X145381930Y-64672930D01*
X145366024Y-64687346D01*
X145348781Y-64700134D01*
X145330368Y-64711170D01*
X145310962Y-64720349D01*
X145290750Y-64727581D01*
X145269926Y-64732797D01*
X145248691Y-64735947D01*
X145227250Y-64737000D01*
X144789750Y-64737000D01*
X144768309Y-64735947D01*
X144747074Y-64732797D01*
X144726250Y-64727581D01*
X144706038Y-64720349D01*
X144686632Y-64711170D01*
X144668219Y-64700134D01*
X144650976Y-64687346D01*
X144635070Y-64672930D01*
X144620654Y-64657024D01*
X144607866Y-64639781D01*
X144596830Y-64621368D01*
X144587651Y-64601962D01*
X144580419Y-64581750D01*
X144575203Y-64560926D01*
X144572053Y-64539691D01*
X144571000Y-64518250D01*
X144571000Y-64005750D01*
X144572053Y-63984309D01*
X144575203Y-63963074D01*
X144580419Y-63942250D01*
X144587651Y-63922038D01*
X144596830Y-63902632D01*
X144607866Y-63884219D01*
X144620654Y-63866976D01*
X144635070Y-63851070D01*
X144650976Y-63836654D01*
X144668219Y-63823866D01*
X144686632Y-63812830D01*
X144706038Y-63803651D01*
X144726250Y-63796419D01*
X144747074Y-63791203D01*
X144768309Y-63788053D01*
X144789750Y-63787000D01*
X145227250Y-63787000D01*
X145248691Y-63788053D01*
X145248691Y-63788053D01*
G37*
D11*
G04 #@! TD*
G04 #@! TO.P,C6,1*
G04 #@! TO.N,+3V3*
X145008500Y-64262000D03*
D10*
G04 #@! TO.N,GND*
G04 #@! TO.C,C6*
G36*
X146823691Y-63788053D02*
X146844926Y-63791203D01*
X146865750Y-63796419D01*
X146885962Y-63803651D01*
X146905368Y-63812830D01*
X146923781Y-63823866D01*
X146941024Y-63836654D01*
X146956930Y-63851070D01*
X146971346Y-63866976D01*
X146984134Y-63884219D01*
X146995170Y-63902632D01*
X147004349Y-63922038D01*
X147011581Y-63942250D01*
X147016797Y-63963074D01*
X147019947Y-63984309D01*
X147021000Y-64005750D01*
X147021000Y-64518250D01*
X147019947Y-64539691D01*
X147016797Y-64560926D01*
X147011581Y-64581750D01*
X147004349Y-64601962D01*
X146995170Y-64621368D01*
X146984134Y-64639781D01*
X146971346Y-64657024D01*
X146956930Y-64672930D01*
X146941024Y-64687346D01*
X146923781Y-64700134D01*
X146905368Y-64711170D01*
X146885962Y-64720349D01*
X146865750Y-64727581D01*
X146844926Y-64732797D01*
X146823691Y-64735947D01*
X146802250Y-64737000D01*
X146364750Y-64737000D01*
X146343309Y-64735947D01*
X146322074Y-64732797D01*
X146301250Y-64727581D01*
X146281038Y-64720349D01*
X146261632Y-64711170D01*
X146243219Y-64700134D01*
X146225976Y-64687346D01*
X146210070Y-64672930D01*
X146195654Y-64657024D01*
X146182866Y-64639781D01*
X146171830Y-64621368D01*
X146162651Y-64601962D01*
X146155419Y-64581750D01*
X146150203Y-64560926D01*
X146147053Y-64539691D01*
X146146000Y-64518250D01*
X146146000Y-64005750D01*
X146147053Y-63984309D01*
X146150203Y-63963074D01*
X146155419Y-63942250D01*
X146162651Y-63922038D01*
X146171830Y-63902632D01*
X146182866Y-63884219D01*
X146195654Y-63866976D01*
X146210070Y-63851070D01*
X146225976Y-63836654D01*
X146243219Y-63823866D01*
X146261632Y-63812830D01*
X146281038Y-63803651D01*
X146301250Y-63796419D01*
X146322074Y-63791203D01*
X146343309Y-63788053D01*
X146364750Y-63787000D01*
X146802250Y-63787000D01*
X146823691Y-63788053D01*
X146823691Y-63788053D01*
G37*
D11*
G04 #@! TD*
G04 #@! TO.P,C6,2*
G04 #@! TO.N,GND*
X146583500Y-64262000D03*
D10*
G04 #@! TO.N,GND*
G04 #@! TO.C,C7*
G36*
X139723691Y-82875553D02*
X139744926Y-82878703D01*
X139765750Y-82883919D01*
X139785962Y-82891151D01*
X139805368Y-82900330D01*
X139823781Y-82911366D01*
X139841024Y-82924154D01*
X139856930Y-82938570D01*
X139871346Y-82954476D01*
X139884134Y-82971719D01*
X139895170Y-82990132D01*
X139904349Y-83009538D01*
X139911581Y-83029750D01*
X139916797Y-83050574D01*
X139919947Y-83071809D01*
X139921000Y-83093250D01*
X139921000Y-83530750D01*
X139919947Y-83552191D01*
X139916797Y-83573426D01*
X139911581Y-83594250D01*
X139904349Y-83614462D01*
X139895170Y-83633868D01*
X139884134Y-83652281D01*
X139871346Y-83669524D01*
X139856930Y-83685430D01*
X139841024Y-83699846D01*
X139823781Y-83712634D01*
X139805368Y-83723670D01*
X139785962Y-83732849D01*
X139765750Y-83740081D01*
X139744926Y-83745297D01*
X139723691Y-83748447D01*
X139702250Y-83749500D01*
X139189750Y-83749500D01*
X139168309Y-83748447D01*
X139147074Y-83745297D01*
X139126250Y-83740081D01*
X139106038Y-83732849D01*
X139086632Y-83723670D01*
X139068219Y-83712634D01*
X139050976Y-83699846D01*
X139035070Y-83685430D01*
X139020654Y-83669524D01*
X139007866Y-83652281D01*
X138996830Y-83633868D01*
X138987651Y-83614462D01*
X138980419Y-83594250D01*
X138975203Y-83573426D01*
X138972053Y-83552191D01*
X138971000Y-83530750D01*
X138971000Y-83093250D01*
X138972053Y-83071809D01*
X138975203Y-83050574D01*
X138980419Y-83029750D01*
X138987651Y-83009538D01*
X138996830Y-82990132D01*
X139007866Y-82971719D01*
X139020654Y-82954476D01*
X139035070Y-82938570D01*
X139050976Y-82924154D01*
X139068219Y-82911366D01*
X139086632Y-82900330D01*
X139106038Y-82891151D01*
X139126250Y-82883919D01*
X139147074Y-82878703D01*
X139168309Y-82875553D01*
X139189750Y-82874500D01*
X139702250Y-82874500D01*
X139723691Y-82875553D01*
X139723691Y-82875553D01*
G37*
D11*
G04 #@! TD*
G04 #@! TO.P,C7,2*
G04 #@! TO.N,GND*
X139446000Y-83312000D03*
D10*
G04 #@! TO.N,+5V*
G04 #@! TO.C,C7*
G36*
X139723691Y-84450553D02*
X139744926Y-84453703D01*
X139765750Y-84458919D01*
X139785962Y-84466151D01*
X139805368Y-84475330D01*
X139823781Y-84486366D01*
X139841024Y-84499154D01*
X139856930Y-84513570D01*
X139871346Y-84529476D01*
X139884134Y-84546719D01*
X139895170Y-84565132D01*
X139904349Y-84584538D01*
X139911581Y-84604750D01*
X139916797Y-84625574D01*
X139919947Y-84646809D01*
X139921000Y-84668250D01*
X139921000Y-85105750D01*
X139919947Y-85127191D01*
X139916797Y-85148426D01*
X139911581Y-85169250D01*
X139904349Y-85189462D01*
X139895170Y-85208868D01*
X139884134Y-85227281D01*
X139871346Y-85244524D01*
X139856930Y-85260430D01*
X139841024Y-85274846D01*
X139823781Y-85287634D01*
X139805368Y-85298670D01*
X139785962Y-85307849D01*
X139765750Y-85315081D01*
X139744926Y-85320297D01*
X139723691Y-85323447D01*
X139702250Y-85324500D01*
X139189750Y-85324500D01*
X139168309Y-85323447D01*
X139147074Y-85320297D01*
X139126250Y-85315081D01*
X139106038Y-85307849D01*
X139086632Y-85298670D01*
X139068219Y-85287634D01*
X139050976Y-85274846D01*
X139035070Y-85260430D01*
X139020654Y-85244524D01*
X139007866Y-85227281D01*
X138996830Y-85208868D01*
X138987651Y-85189462D01*
X138980419Y-85169250D01*
X138975203Y-85148426D01*
X138972053Y-85127191D01*
X138971000Y-85105750D01*
X138971000Y-84668250D01*
X138972053Y-84646809D01*
X138975203Y-84625574D01*
X138980419Y-84604750D01*
X138987651Y-84584538D01*
X138996830Y-84565132D01*
X139007866Y-84546719D01*
X139020654Y-84529476D01*
X139035070Y-84513570D01*
X139050976Y-84499154D01*
X139068219Y-84486366D01*
X139086632Y-84475330D01*
X139106038Y-84466151D01*
X139126250Y-84458919D01*
X139147074Y-84453703D01*
X139168309Y-84450553D01*
X139189750Y-84449500D01*
X139702250Y-84449500D01*
X139723691Y-84450553D01*
X139723691Y-84450553D01*
G37*
D11*
G04 #@! TD*
G04 #@! TO.P,C7,1*
G04 #@! TO.N,+5V*
X139446000Y-84887000D03*
D10*
G04 #@! TO.N,GND*
G04 #@! TO.C,C8*
G36*
X139432191Y-100872053D02*
X139453426Y-100875203D01*
X139474250Y-100880419D01*
X139494462Y-100887651D01*
X139513868Y-100896830D01*
X139532281Y-100907866D01*
X139549524Y-100920654D01*
X139565430Y-100935070D01*
X139579846Y-100950976D01*
X139592634Y-100968219D01*
X139603670Y-100986632D01*
X139612849Y-101006038D01*
X139620081Y-101026250D01*
X139625297Y-101047074D01*
X139628447Y-101068309D01*
X139629500Y-101089750D01*
X139629500Y-101602250D01*
X139628447Y-101623691D01*
X139625297Y-101644926D01*
X139620081Y-101665750D01*
X139612849Y-101685962D01*
X139603670Y-101705368D01*
X139592634Y-101723781D01*
X139579846Y-101741024D01*
X139565430Y-101756930D01*
X139549524Y-101771346D01*
X139532281Y-101784134D01*
X139513868Y-101795170D01*
X139494462Y-101804349D01*
X139474250Y-101811581D01*
X139453426Y-101816797D01*
X139432191Y-101819947D01*
X139410750Y-101821000D01*
X138973250Y-101821000D01*
X138951809Y-101819947D01*
X138930574Y-101816797D01*
X138909750Y-101811581D01*
X138889538Y-101804349D01*
X138870132Y-101795170D01*
X138851719Y-101784134D01*
X138834476Y-101771346D01*
X138818570Y-101756930D01*
X138804154Y-101741024D01*
X138791366Y-101723781D01*
X138780330Y-101705368D01*
X138771151Y-101685962D01*
X138763919Y-101665750D01*
X138758703Y-101644926D01*
X138755553Y-101623691D01*
X138754500Y-101602250D01*
X138754500Y-101089750D01*
X138755553Y-101068309D01*
X138758703Y-101047074D01*
X138763919Y-101026250D01*
X138771151Y-101006038D01*
X138780330Y-100986632D01*
X138791366Y-100968219D01*
X138804154Y-100950976D01*
X138818570Y-100935070D01*
X138834476Y-100920654D01*
X138851719Y-100907866D01*
X138870132Y-100896830D01*
X138889538Y-100887651D01*
X138909750Y-100880419D01*
X138930574Y-100875203D01*
X138951809Y-100872053D01*
X138973250Y-100871000D01*
X139410750Y-100871000D01*
X139432191Y-100872053D01*
X139432191Y-100872053D01*
G37*
D11*
G04 #@! TD*
G04 #@! TO.P,C8,1*
G04 #@! TO.N,GND*
X139192000Y-101346000D03*
D10*
G04 #@! TO.N,+3V3*
G04 #@! TO.C,C8*
G36*
X141007191Y-100872053D02*
X141028426Y-100875203D01*
X141049250Y-100880419D01*
X141069462Y-100887651D01*
X141088868Y-100896830D01*
X141107281Y-100907866D01*
X141124524Y-100920654D01*
X141140430Y-100935070D01*
X141154846Y-100950976D01*
X141167634Y-100968219D01*
X141178670Y-100986632D01*
X141187849Y-101006038D01*
X141195081Y-101026250D01*
X141200297Y-101047074D01*
X141203447Y-101068309D01*
X141204500Y-101089750D01*
X141204500Y-101602250D01*
X141203447Y-101623691D01*
X141200297Y-101644926D01*
X141195081Y-101665750D01*
X141187849Y-101685962D01*
X141178670Y-101705368D01*
X141167634Y-101723781D01*
X141154846Y-101741024D01*
X141140430Y-101756930D01*
X141124524Y-101771346D01*
X141107281Y-101784134D01*
X141088868Y-101795170D01*
X141069462Y-101804349D01*
X141049250Y-101811581D01*
X141028426Y-101816797D01*
X141007191Y-101819947D01*
X140985750Y-101821000D01*
X140548250Y-101821000D01*
X140526809Y-101819947D01*
X140505574Y-101816797D01*
X140484750Y-101811581D01*
X140464538Y-101804349D01*
X140445132Y-101795170D01*
X140426719Y-101784134D01*
X140409476Y-101771346D01*
X140393570Y-101756930D01*
X140379154Y-101741024D01*
X140366366Y-101723781D01*
X140355330Y-101705368D01*
X140346151Y-101685962D01*
X140338919Y-101665750D01*
X140333703Y-101644926D01*
X140330553Y-101623691D01*
X140329500Y-101602250D01*
X140329500Y-101089750D01*
X140330553Y-101068309D01*
X140333703Y-101047074D01*
X140338919Y-101026250D01*
X140346151Y-101006038D01*
X140355330Y-100986632D01*
X140366366Y-100968219D01*
X140379154Y-100950976D01*
X140393570Y-100935070D01*
X140409476Y-100920654D01*
X140426719Y-100907866D01*
X140445132Y-100896830D01*
X140464538Y-100887651D01*
X140484750Y-100880419D01*
X140505574Y-100875203D01*
X140526809Y-100872053D01*
X140548250Y-100871000D01*
X140985750Y-100871000D01*
X141007191Y-100872053D01*
X141007191Y-100872053D01*
G37*
D11*
G04 #@! TD*
G04 #@! TO.P,C8,2*
G04 #@! TO.N,+3V3*
X140767000Y-101346000D03*
D10*
G04 #@! TO.N,+3V3*
G04 #@! TO.C,C9*
G36*
X156233691Y-88946053D02*
X156254926Y-88949203D01*
X156275750Y-88954419D01*
X156295962Y-88961651D01*
X156315368Y-88970830D01*
X156333781Y-88981866D01*
X156351024Y-88994654D01*
X156366930Y-89009070D01*
X156381346Y-89024976D01*
X156394134Y-89042219D01*
X156405170Y-89060632D01*
X156414349Y-89080038D01*
X156421581Y-89100250D01*
X156426797Y-89121074D01*
X156429947Y-89142309D01*
X156431000Y-89163750D01*
X156431000Y-89601250D01*
X156429947Y-89622691D01*
X156426797Y-89643926D01*
X156421581Y-89664750D01*
X156414349Y-89684962D01*
X156405170Y-89704368D01*
X156394134Y-89722781D01*
X156381346Y-89740024D01*
X156366930Y-89755930D01*
X156351024Y-89770346D01*
X156333781Y-89783134D01*
X156315368Y-89794170D01*
X156295962Y-89803349D01*
X156275750Y-89810581D01*
X156254926Y-89815797D01*
X156233691Y-89818947D01*
X156212250Y-89820000D01*
X155699750Y-89820000D01*
X155678309Y-89818947D01*
X155657074Y-89815797D01*
X155636250Y-89810581D01*
X155616038Y-89803349D01*
X155596632Y-89794170D01*
X155578219Y-89783134D01*
X155560976Y-89770346D01*
X155545070Y-89755930D01*
X155530654Y-89740024D01*
X155517866Y-89722781D01*
X155506830Y-89704368D01*
X155497651Y-89684962D01*
X155490419Y-89664750D01*
X155485203Y-89643926D01*
X155482053Y-89622691D01*
X155481000Y-89601250D01*
X155481000Y-89163750D01*
X155482053Y-89142309D01*
X155485203Y-89121074D01*
X155490419Y-89100250D01*
X155497651Y-89080038D01*
X155506830Y-89060632D01*
X155517866Y-89042219D01*
X155530654Y-89024976D01*
X155545070Y-89009070D01*
X155560976Y-88994654D01*
X155578219Y-88981866D01*
X155596632Y-88970830D01*
X155616038Y-88961651D01*
X155636250Y-88954419D01*
X155657074Y-88949203D01*
X155678309Y-88946053D01*
X155699750Y-88945000D01*
X156212250Y-88945000D01*
X156233691Y-88946053D01*
X156233691Y-88946053D01*
G37*
D11*
G04 #@! TD*
G04 #@! TO.P,C9,2*
G04 #@! TO.N,+3V3*
X155956000Y-89382500D03*
D10*
G04 #@! TO.N,GND*
G04 #@! TO.C,C9*
G36*
X156233691Y-90521053D02*
X156254926Y-90524203D01*
X156275750Y-90529419D01*
X156295962Y-90536651D01*
X156315368Y-90545830D01*
X156333781Y-90556866D01*
X156351024Y-90569654D01*
X156366930Y-90584070D01*
X156381346Y-90599976D01*
X156394134Y-90617219D01*
X156405170Y-90635632D01*
X156414349Y-90655038D01*
X156421581Y-90675250D01*
X156426797Y-90696074D01*
X156429947Y-90717309D01*
X156431000Y-90738750D01*
X156431000Y-91176250D01*
X156429947Y-91197691D01*
X156426797Y-91218926D01*
X156421581Y-91239750D01*
X156414349Y-91259962D01*
X156405170Y-91279368D01*
X156394134Y-91297781D01*
X156381346Y-91315024D01*
X156366930Y-91330930D01*
X156351024Y-91345346D01*
X156333781Y-91358134D01*
X156315368Y-91369170D01*
X156295962Y-91378349D01*
X156275750Y-91385581D01*
X156254926Y-91390797D01*
X156233691Y-91393947D01*
X156212250Y-91395000D01*
X155699750Y-91395000D01*
X155678309Y-91393947D01*
X155657074Y-91390797D01*
X155636250Y-91385581D01*
X155616038Y-91378349D01*
X155596632Y-91369170D01*
X155578219Y-91358134D01*
X155560976Y-91345346D01*
X155545070Y-91330930D01*
X155530654Y-91315024D01*
X155517866Y-91297781D01*
X155506830Y-91279368D01*
X155497651Y-91259962D01*
X155490419Y-91239750D01*
X155485203Y-91218926D01*
X155482053Y-91197691D01*
X155481000Y-91176250D01*
X155481000Y-90738750D01*
X155482053Y-90717309D01*
X155485203Y-90696074D01*
X155490419Y-90675250D01*
X155497651Y-90655038D01*
X155506830Y-90635632D01*
X155517866Y-90617219D01*
X155530654Y-90599976D01*
X155545070Y-90584070D01*
X155560976Y-90569654D01*
X155578219Y-90556866D01*
X155596632Y-90545830D01*
X155616038Y-90536651D01*
X155636250Y-90529419D01*
X155657074Y-90524203D01*
X155678309Y-90521053D01*
X155699750Y-90520000D01*
X156212250Y-90520000D01*
X156233691Y-90521053D01*
X156233691Y-90521053D01*
G37*
D11*
G04 #@! TD*
G04 #@! TO.P,C9,1*
G04 #@! TO.N,GND*
X155956000Y-90957500D03*
D10*
G04 #@! TO.N,+3V3*
G04 #@! TO.C,FB1*
G36*
X122705691Y-75535053D02*
X122726926Y-75538203D01*
X122747750Y-75543419D01*
X122767962Y-75550651D01*
X122787368Y-75559830D01*
X122805781Y-75570866D01*
X122823024Y-75583654D01*
X122838930Y-75598070D01*
X122853346Y-75613976D01*
X122866134Y-75631219D01*
X122877170Y-75649632D01*
X122886349Y-75669038D01*
X122893581Y-75689250D01*
X122898797Y-75710074D01*
X122901947Y-75731309D01*
X122903000Y-75752750D01*
X122903000Y-76190250D01*
X122901947Y-76211691D01*
X122898797Y-76232926D01*
X122893581Y-76253750D01*
X122886349Y-76273962D01*
X122877170Y-76293368D01*
X122866134Y-76311781D01*
X122853346Y-76329024D01*
X122838930Y-76344930D01*
X122823024Y-76359346D01*
X122805781Y-76372134D01*
X122787368Y-76383170D01*
X122767962Y-76392349D01*
X122747750Y-76399581D01*
X122726926Y-76404797D01*
X122705691Y-76407947D01*
X122684250Y-76409000D01*
X122171750Y-76409000D01*
X122150309Y-76407947D01*
X122129074Y-76404797D01*
X122108250Y-76399581D01*
X122088038Y-76392349D01*
X122068632Y-76383170D01*
X122050219Y-76372134D01*
X122032976Y-76359346D01*
X122017070Y-76344930D01*
X122002654Y-76329024D01*
X121989866Y-76311781D01*
X121978830Y-76293368D01*
X121969651Y-76273962D01*
X121962419Y-76253750D01*
X121957203Y-76232926D01*
X121954053Y-76211691D01*
X121953000Y-76190250D01*
X121953000Y-75752750D01*
X121954053Y-75731309D01*
X121957203Y-75710074D01*
X121962419Y-75689250D01*
X121969651Y-75669038D01*
X121978830Y-75649632D01*
X121989866Y-75631219D01*
X122002654Y-75613976D01*
X122017070Y-75598070D01*
X122032976Y-75583654D01*
X122050219Y-75570866D01*
X122068632Y-75559830D01*
X122088038Y-75550651D01*
X122108250Y-75543419D01*
X122129074Y-75538203D01*
X122150309Y-75535053D01*
X122171750Y-75534000D01*
X122684250Y-75534000D01*
X122705691Y-75535053D01*
X122705691Y-75535053D01*
G37*
D11*
G04 #@! TD*
G04 #@! TO.P,FB1,1*
G04 #@! TO.N,+3V3*
X122428000Y-75971500D03*
D10*
G04 #@! TO.N,Net-(C3-Pad1)*
G04 #@! TO.C,FB1*
G36*
X122705691Y-73960053D02*
X122726926Y-73963203D01*
X122747750Y-73968419D01*
X122767962Y-73975651D01*
X122787368Y-73984830D01*
X122805781Y-73995866D01*
X122823024Y-74008654D01*
X122838930Y-74023070D01*
X122853346Y-74038976D01*
X122866134Y-74056219D01*
X122877170Y-74074632D01*
X122886349Y-74094038D01*
X122893581Y-74114250D01*
X122898797Y-74135074D01*
X122901947Y-74156309D01*
X122903000Y-74177750D01*
X122903000Y-74615250D01*
X122901947Y-74636691D01*
X122898797Y-74657926D01*
X122893581Y-74678750D01*
X122886349Y-74698962D01*
X122877170Y-74718368D01*
X122866134Y-74736781D01*
X122853346Y-74754024D01*
X122838930Y-74769930D01*
X122823024Y-74784346D01*
X122805781Y-74797134D01*
X122787368Y-74808170D01*
X122767962Y-74817349D01*
X122747750Y-74824581D01*
X122726926Y-74829797D01*
X122705691Y-74832947D01*
X122684250Y-74834000D01*
X122171750Y-74834000D01*
X122150309Y-74832947D01*
X122129074Y-74829797D01*
X122108250Y-74824581D01*
X122088038Y-74817349D01*
X122068632Y-74808170D01*
X122050219Y-74797134D01*
X122032976Y-74784346D01*
X122017070Y-74769930D01*
X122002654Y-74754024D01*
X121989866Y-74736781D01*
X121978830Y-74718368D01*
X121969651Y-74698962D01*
X121962419Y-74678750D01*
X121957203Y-74657926D01*
X121954053Y-74636691D01*
X121953000Y-74615250D01*
X121953000Y-74177750D01*
X121954053Y-74156309D01*
X121957203Y-74135074D01*
X121962419Y-74114250D01*
X121969651Y-74094038D01*
X121978830Y-74074632D01*
X121989866Y-74056219D01*
X122002654Y-74038976D01*
X122017070Y-74023070D01*
X122032976Y-74008654D01*
X122050219Y-73995866D01*
X122068632Y-73984830D01*
X122088038Y-73975651D01*
X122108250Y-73968419D01*
X122129074Y-73963203D01*
X122150309Y-73960053D01*
X122171750Y-73959000D01*
X122684250Y-73959000D01*
X122705691Y-73960053D01*
X122705691Y-73960053D01*
G37*
D11*
G04 #@! TD*
G04 #@! TO.P,FB1,2*
G04 #@! TO.N,Net-(C3-Pad1)*
X122428000Y-74396500D03*
D10*
G04 #@! TO.N,Net-(J1-Pad1)*
G04 #@! TO.C,J1*
G36*
X157850504Y-105960204D02*
X157874773Y-105963804D01*
X157898571Y-105969765D01*
X157921671Y-105978030D01*
X157943849Y-105988520D01*
X157964893Y-106001133D01*
X157984598Y-106015747D01*
X158002777Y-106032223D01*
X158019253Y-106050402D01*
X158033867Y-106070107D01*
X158046480Y-106091151D01*
X158056970Y-106113329D01*
X158065235Y-106136429D01*
X158071196Y-106160227D01*
X158074796Y-106184496D01*
X158076000Y-106209000D01*
X158076000Y-107659000D01*
X158074796Y-107683504D01*
X158071196Y-107707773D01*
X158065235Y-107731571D01*
X158056970Y-107754671D01*
X158046480Y-107776849D01*
X158033867Y-107797893D01*
X158019253Y-107817598D01*
X158002777Y-107835777D01*
X157984598Y-107852253D01*
X157964893Y-107866867D01*
X157943849Y-107879480D01*
X157921671Y-107889970D01*
X157898571Y-107898235D01*
X157874773Y-107904196D01*
X157850504Y-107907796D01*
X157826000Y-107909000D01*
X156626000Y-107909000D01*
X156601496Y-107907796D01*
X156577227Y-107904196D01*
X156553429Y-107898235D01*
X156530329Y-107889970D01*
X156508151Y-107879480D01*
X156487107Y-107866867D01*
X156467402Y-107852253D01*
X156449223Y-107835777D01*
X156432747Y-107817598D01*
X156418133Y-107797893D01*
X156405520Y-107776849D01*
X156395030Y-107754671D01*
X156386765Y-107731571D01*
X156380804Y-107707773D01*
X156377204Y-107683504D01*
X156376000Y-107659000D01*
X156376000Y-106209000D01*
X156377204Y-106184496D01*
X156380804Y-106160227D01*
X156386765Y-106136429D01*
X156395030Y-106113329D01*
X156405520Y-106091151D01*
X156418133Y-106070107D01*
X156432747Y-106050402D01*
X156449223Y-106032223D01*
X156467402Y-106015747D01*
X156487107Y-106001133D01*
X156508151Y-105988520D01*
X156530329Y-105978030D01*
X156553429Y-105969765D01*
X156577227Y-105963804D01*
X156601496Y-105960204D01*
X156626000Y-105959000D01*
X157826000Y-105959000D01*
X157850504Y-105960204D01*
X157850504Y-105960204D01*
G37*
D13*
G04 #@! TD*
G04 #@! TO.P,J1,1*
G04 #@! TO.N,Net-(J1-Pad1)*
X157226000Y-106934000D03*
D14*
G04 #@! TO.P,J1,2*
G04 #@! TO.N,Net-(J1-Pad2)*
X154726000Y-106934000D03*
G04 #@! TO.P,J1,3*
G04 #@! TO.N,Net-(J1-Pad3)*
X152226000Y-106934000D03*
G04 #@! TO.P,J1,4*
G04 #@! TO.N,Net-(J1-Pad4)*
X149726000Y-106934000D03*
G04 #@! TD*
D10*
G04 #@! TO.N,+BATT*
G04 #@! TO.C,J2*
G36*
X164350504Y-67985204D02*
X164374773Y-67988804D01*
X164398571Y-67994765D01*
X164421671Y-68003030D01*
X164443849Y-68013520D01*
X164464893Y-68026133D01*
X164484598Y-68040747D01*
X164502777Y-68057223D01*
X164519253Y-68075402D01*
X164533867Y-68095107D01*
X164546480Y-68116151D01*
X164556970Y-68138329D01*
X164565235Y-68161429D01*
X164571196Y-68185227D01*
X164574796Y-68209496D01*
X164576000Y-68234000D01*
X164576000Y-69434000D01*
X164574796Y-69458504D01*
X164571196Y-69482773D01*
X164565235Y-69506571D01*
X164556970Y-69529671D01*
X164546480Y-69551849D01*
X164533867Y-69572893D01*
X164519253Y-69592598D01*
X164502777Y-69610777D01*
X164484598Y-69627253D01*
X164464893Y-69641867D01*
X164443849Y-69654480D01*
X164421671Y-69664970D01*
X164398571Y-69673235D01*
X164374773Y-69679196D01*
X164350504Y-69682796D01*
X164326000Y-69684000D01*
X162826000Y-69684000D01*
X162801496Y-69682796D01*
X162777227Y-69679196D01*
X162753429Y-69673235D01*
X162730329Y-69664970D01*
X162708151Y-69654480D01*
X162687107Y-69641867D01*
X162667402Y-69627253D01*
X162649223Y-69610777D01*
X162632747Y-69592598D01*
X162618133Y-69572893D01*
X162605520Y-69551849D01*
X162595030Y-69529671D01*
X162586765Y-69506571D01*
X162580804Y-69482773D01*
X162577204Y-69458504D01*
X162576000Y-69434000D01*
X162576000Y-68234000D01*
X162577204Y-68209496D01*
X162580804Y-68185227D01*
X162586765Y-68161429D01*
X162595030Y-68138329D01*
X162605520Y-68116151D01*
X162618133Y-68095107D01*
X162632747Y-68075402D01*
X162649223Y-68057223D01*
X162667402Y-68040747D01*
X162687107Y-68026133D01*
X162708151Y-68013520D01*
X162730329Y-68003030D01*
X162753429Y-67994765D01*
X162777227Y-67988804D01*
X162801496Y-67985204D01*
X162826000Y-67984000D01*
X164326000Y-67984000D01*
X164350504Y-67985204D01*
X164350504Y-67985204D01*
G37*
D13*
G04 #@! TD*
G04 #@! TO.P,J2,1*
G04 #@! TO.N,+BATT*
X163576000Y-68834000D03*
D15*
G04 #@! TO.P,J2,2*
G04 #@! TO.N,GND*
X163576000Y-71334000D03*
G04 #@! TD*
D10*
G04 #@! TO.N,+5V*
G04 #@! TO.C,J3*
G36*
X130164504Y-105960204D02*
X130188773Y-105963804D01*
X130212571Y-105969765D01*
X130235671Y-105978030D01*
X130257849Y-105988520D01*
X130278893Y-106001133D01*
X130298598Y-106015747D01*
X130316777Y-106032223D01*
X130333253Y-106050402D01*
X130347867Y-106070107D01*
X130360480Y-106091151D01*
X130370970Y-106113329D01*
X130379235Y-106136429D01*
X130385196Y-106160227D01*
X130388796Y-106184496D01*
X130390000Y-106209000D01*
X130390000Y-107659000D01*
X130388796Y-107683504D01*
X130385196Y-107707773D01*
X130379235Y-107731571D01*
X130370970Y-107754671D01*
X130360480Y-107776849D01*
X130347867Y-107797893D01*
X130333253Y-107817598D01*
X130316777Y-107835777D01*
X130298598Y-107852253D01*
X130278893Y-107866867D01*
X130257849Y-107879480D01*
X130235671Y-107889970D01*
X130212571Y-107898235D01*
X130188773Y-107904196D01*
X130164504Y-107907796D01*
X130140000Y-107909000D01*
X128940000Y-107909000D01*
X128915496Y-107907796D01*
X128891227Y-107904196D01*
X128867429Y-107898235D01*
X128844329Y-107889970D01*
X128822151Y-107879480D01*
X128801107Y-107866867D01*
X128781402Y-107852253D01*
X128763223Y-107835777D01*
X128746747Y-107817598D01*
X128732133Y-107797893D01*
X128719520Y-107776849D01*
X128709030Y-107754671D01*
X128700765Y-107731571D01*
X128694804Y-107707773D01*
X128691204Y-107683504D01*
X128690000Y-107659000D01*
X128690000Y-106209000D01*
X128691204Y-106184496D01*
X128694804Y-106160227D01*
X128700765Y-106136429D01*
X128709030Y-106113329D01*
X128719520Y-106091151D01*
X128732133Y-106070107D01*
X128746747Y-106050402D01*
X128763223Y-106032223D01*
X128781402Y-106015747D01*
X128801107Y-106001133D01*
X128822151Y-105988520D01*
X128844329Y-105978030D01*
X128867429Y-105969765D01*
X128891227Y-105963804D01*
X128915496Y-105960204D01*
X128940000Y-105959000D01*
X130140000Y-105959000D01*
X130164504Y-105960204D01*
X130164504Y-105960204D01*
G37*
D13*
G04 #@! TD*
G04 #@! TO.P,J3,1*
G04 #@! TO.N,+5V*
X129540000Y-106934000D03*
D14*
G04 #@! TO.P,J3,2*
G04 #@! TO.N,Net-(J3-Pad2)*
X127040000Y-106934000D03*
G04 #@! TO.P,J3,3*
G04 #@! TO.N,GND*
X124540000Y-106934000D03*
G04 #@! TD*
G04 #@! TO.P,J4,4*
G04 #@! TO.N,GND*
X135756000Y-106934000D03*
G04 #@! TO.P,J4,3*
G04 #@! TO.N,IO0*
X138256000Y-106934000D03*
G04 #@! TO.P,J4,2*
G04 #@! TO.N,IO2*
X140756000Y-106934000D03*
D10*
G04 #@! TD*
G04 #@! TO.N,+3V3*
G04 #@! TO.C,J4*
G36*
X143880504Y-105960204D02*
X143904773Y-105963804D01*
X143928571Y-105969765D01*
X143951671Y-105978030D01*
X143973849Y-105988520D01*
X143994893Y-106001133D01*
X144014598Y-106015747D01*
X144032777Y-106032223D01*
X144049253Y-106050402D01*
X144063867Y-106070107D01*
X144076480Y-106091151D01*
X144086970Y-106113329D01*
X144095235Y-106136429D01*
X144101196Y-106160227D01*
X144104796Y-106184496D01*
X144106000Y-106209000D01*
X144106000Y-107659000D01*
X144104796Y-107683504D01*
X144101196Y-107707773D01*
X144095235Y-107731571D01*
X144086970Y-107754671D01*
X144076480Y-107776849D01*
X144063867Y-107797893D01*
X144049253Y-107817598D01*
X144032777Y-107835777D01*
X144014598Y-107852253D01*
X143994893Y-107866867D01*
X143973849Y-107879480D01*
X143951671Y-107889970D01*
X143928571Y-107898235D01*
X143904773Y-107904196D01*
X143880504Y-107907796D01*
X143856000Y-107909000D01*
X142656000Y-107909000D01*
X142631496Y-107907796D01*
X142607227Y-107904196D01*
X142583429Y-107898235D01*
X142560329Y-107889970D01*
X142538151Y-107879480D01*
X142517107Y-107866867D01*
X142497402Y-107852253D01*
X142479223Y-107835777D01*
X142462747Y-107817598D01*
X142448133Y-107797893D01*
X142435520Y-107776849D01*
X142425030Y-107754671D01*
X142416765Y-107731571D01*
X142410804Y-107707773D01*
X142407204Y-107683504D01*
X142406000Y-107659000D01*
X142406000Y-106209000D01*
X142407204Y-106184496D01*
X142410804Y-106160227D01*
X142416765Y-106136429D01*
X142425030Y-106113329D01*
X142435520Y-106091151D01*
X142448133Y-106070107D01*
X142462747Y-106050402D01*
X142479223Y-106032223D01*
X142497402Y-106015747D01*
X142517107Y-106001133D01*
X142538151Y-105988520D01*
X142560329Y-105978030D01*
X142583429Y-105969765D01*
X142607227Y-105963804D01*
X142631496Y-105960204D01*
X142656000Y-105959000D01*
X143856000Y-105959000D01*
X143880504Y-105960204D01*
X143880504Y-105960204D01*
G37*
D13*
G04 #@! TO.P,J4,1*
G04 #@! TO.N,+3V3*
X143256000Y-106934000D03*
G04 #@! TD*
D10*
G04 #@! TO.N,+3V3*
G04 #@! TO.C,J5*
G36*
X151625504Y-88305204D02*
X151649773Y-88308804D01*
X151673571Y-88314765D01*
X151696671Y-88323030D01*
X151718849Y-88333520D01*
X151739893Y-88346133D01*
X151759598Y-88360747D01*
X151777777Y-88377223D01*
X151794253Y-88395402D01*
X151808867Y-88415107D01*
X151821480Y-88436151D01*
X151831970Y-88458329D01*
X151840235Y-88481429D01*
X151846196Y-88505227D01*
X151849796Y-88529496D01*
X151851000Y-88554000D01*
X151851000Y-89754000D01*
X151849796Y-89778504D01*
X151846196Y-89802773D01*
X151840235Y-89826571D01*
X151831970Y-89849671D01*
X151821480Y-89871849D01*
X151808867Y-89892893D01*
X151794253Y-89912598D01*
X151777777Y-89930777D01*
X151759598Y-89947253D01*
X151739893Y-89961867D01*
X151718849Y-89974480D01*
X151696671Y-89984970D01*
X151673571Y-89993235D01*
X151649773Y-89999196D01*
X151625504Y-90002796D01*
X151601000Y-90004000D01*
X150151000Y-90004000D01*
X150126496Y-90002796D01*
X150102227Y-89999196D01*
X150078429Y-89993235D01*
X150055329Y-89984970D01*
X150033151Y-89974480D01*
X150012107Y-89961867D01*
X149992402Y-89947253D01*
X149974223Y-89930777D01*
X149957747Y-89912598D01*
X149943133Y-89892893D01*
X149930520Y-89871849D01*
X149920030Y-89849671D01*
X149911765Y-89826571D01*
X149905804Y-89802773D01*
X149902204Y-89778504D01*
X149901000Y-89754000D01*
X149901000Y-88554000D01*
X149902204Y-88529496D01*
X149905804Y-88505227D01*
X149911765Y-88481429D01*
X149920030Y-88458329D01*
X149930520Y-88436151D01*
X149943133Y-88415107D01*
X149957747Y-88395402D01*
X149974223Y-88377223D01*
X149992402Y-88360747D01*
X150012107Y-88346133D01*
X150033151Y-88333520D01*
X150055329Y-88323030D01*
X150078429Y-88314765D01*
X150102227Y-88308804D01*
X150126496Y-88305204D01*
X150151000Y-88304000D01*
X151601000Y-88304000D01*
X151625504Y-88305204D01*
X151625504Y-88305204D01*
G37*
D13*
G04 #@! TD*
G04 #@! TO.P,J5,1*
G04 #@! TO.N,+3V3*
X150876000Y-89154000D03*
D16*
G04 #@! TO.P,J5,2*
G04 #@! TO.N,IO4*
X150876000Y-86654000D03*
G04 #@! TO.P,J5,3*
G04 #@! TO.N,IO17*
X150876000Y-84154000D03*
G04 #@! TO.P,J5,4*
G04 #@! TO.N,GND*
X150876000Y-81654000D03*
G04 #@! TD*
D10*
G04 #@! TO.N,+5V*
G04 #@! TO.C,J6*
G36*
X125338504Y-53382204D02*
X125362773Y-53385804D01*
X125386571Y-53391765D01*
X125409671Y-53400030D01*
X125431849Y-53410520D01*
X125452893Y-53423133D01*
X125472598Y-53437747D01*
X125490777Y-53454223D01*
X125507253Y-53472402D01*
X125521867Y-53492107D01*
X125534480Y-53513151D01*
X125544970Y-53535329D01*
X125553235Y-53558429D01*
X125559196Y-53582227D01*
X125562796Y-53606496D01*
X125564000Y-53631000D01*
X125564000Y-55081000D01*
X125562796Y-55105504D01*
X125559196Y-55129773D01*
X125553235Y-55153571D01*
X125544970Y-55176671D01*
X125534480Y-55198849D01*
X125521867Y-55219893D01*
X125507253Y-55239598D01*
X125490777Y-55257777D01*
X125472598Y-55274253D01*
X125452893Y-55288867D01*
X125431849Y-55301480D01*
X125409671Y-55311970D01*
X125386571Y-55320235D01*
X125362773Y-55326196D01*
X125338504Y-55329796D01*
X125314000Y-55331000D01*
X124114000Y-55331000D01*
X124089496Y-55329796D01*
X124065227Y-55326196D01*
X124041429Y-55320235D01*
X124018329Y-55311970D01*
X123996151Y-55301480D01*
X123975107Y-55288867D01*
X123955402Y-55274253D01*
X123937223Y-55257777D01*
X123920747Y-55239598D01*
X123906133Y-55219893D01*
X123893520Y-55198849D01*
X123883030Y-55176671D01*
X123874765Y-55153571D01*
X123868804Y-55129773D01*
X123865204Y-55105504D01*
X123864000Y-55081000D01*
X123864000Y-53631000D01*
X123865204Y-53606496D01*
X123868804Y-53582227D01*
X123874765Y-53558429D01*
X123883030Y-53535329D01*
X123893520Y-53513151D01*
X123906133Y-53492107D01*
X123920747Y-53472402D01*
X123937223Y-53454223D01*
X123955402Y-53437747D01*
X123975107Y-53423133D01*
X123996151Y-53410520D01*
X124018329Y-53400030D01*
X124041429Y-53391765D01*
X124065227Y-53385804D01*
X124089496Y-53382204D01*
X124114000Y-53381000D01*
X125314000Y-53381000D01*
X125338504Y-53382204D01*
X125338504Y-53382204D01*
G37*
D13*
G04 #@! TD*
G04 #@! TO.P,J6,1*
G04 #@! TO.N,+5V*
X124714000Y-54356000D03*
D14*
G04 #@! TO.P,J6,2*
G04 #@! TO.N,+3V3*
X127214000Y-54356000D03*
G04 #@! TO.P,J6,3*
G04 #@! TO.N,IO35*
X129714000Y-54356000D03*
G04 #@! TO.P,J6,4*
G04 #@! TO.N,IO26*
X132214000Y-54356000D03*
G04 #@! TO.P,J6,5*
G04 #@! TO.N,RXD*
X134714000Y-54356000D03*
G04 #@! TO.P,J6,6*
G04 #@! TO.N,TXD*
X137214000Y-54356000D03*
G04 #@! TO.P,J6,7*
G04 #@! TO.N,GND*
X139714000Y-54356000D03*
G04 #@! TD*
D10*
G04 #@! TO.N,+BATT*
G04 #@! TO.C,R1*
G36*
X148830191Y-77250053D02*
X148851426Y-77253203D01*
X148872250Y-77258419D01*
X148892462Y-77265651D01*
X148911868Y-77274830D01*
X148930281Y-77285866D01*
X148947524Y-77298654D01*
X148963430Y-77313070D01*
X148977846Y-77328976D01*
X148990634Y-77346219D01*
X149001670Y-77364632D01*
X149010849Y-77384038D01*
X149018081Y-77404250D01*
X149023297Y-77425074D01*
X149026447Y-77446309D01*
X149027500Y-77467750D01*
X149027500Y-77980250D01*
X149026447Y-78001691D01*
X149023297Y-78022926D01*
X149018081Y-78043750D01*
X149010849Y-78063962D01*
X149001670Y-78083368D01*
X148990634Y-78101781D01*
X148977846Y-78119024D01*
X148963430Y-78134930D01*
X148947524Y-78149346D01*
X148930281Y-78162134D01*
X148911868Y-78173170D01*
X148892462Y-78182349D01*
X148872250Y-78189581D01*
X148851426Y-78194797D01*
X148830191Y-78197947D01*
X148808750Y-78199000D01*
X148371250Y-78199000D01*
X148349809Y-78197947D01*
X148328574Y-78194797D01*
X148307750Y-78189581D01*
X148287538Y-78182349D01*
X148268132Y-78173170D01*
X148249719Y-78162134D01*
X148232476Y-78149346D01*
X148216570Y-78134930D01*
X148202154Y-78119024D01*
X148189366Y-78101781D01*
X148178330Y-78083368D01*
X148169151Y-78063962D01*
X148161919Y-78043750D01*
X148156703Y-78022926D01*
X148153553Y-78001691D01*
X148152500Y-77980250D01*
X148152500Y-77467750D01*
X148153553Y-77446309D01*
X148156703Y-77425074D01*
X148161919Y-77404250D01*
X148169151Y-77384038D01*
X148178330Y-77364632D01*
X148189366Y-77346219D01*
X148202154Y-77328976D01*
X148216570Y-77313070D01*
X148232476Y-77298654D01*
X148249719Y-77285866D01*
X148268132Y-77274830D01*
X148287538Y-77265651D01*
X148307750Y-77258419D01*
X148328574Y-77253203D01*
X148349809Y-77250053D01*
X148371250Y-77249000D01*
X148808750Y-77249000D01*
X148830191Y-77250053D01*
X148830191Y-77250053D01*
G37*
D11*
G04 #@! TD*
G04 #@! TO.P,R1,1*
G04 #@! TO.N,+BATT*
X148590000Y-77724000D03*
D10*
G04 #@! TO.N,IO32*
G04 #@! TO.C,R1*
G36*
X150405191Y-77250053D02*
X150426426Y-77253203D01*
X150447250Y-77258419D01*
X150467462Y-77265651D01*
X150486868Y-77274830D01*
X150505281Y-77285866D01*
X150522524Y-77298654D01*
X150538430Y-77313070D01*
X150552846Y-77328976D01*
X150565634Y-77346219D01*
X150576670Y-77364632D01*
X150585849Y-77384038D01*
X150593081Y-77404250D01*
X150598297Y-77425074D01*
X150601447Y-77446309D01*
X150602500Y-77467750D01*
X150602500Y-77980250D01*
X150601447Y-78001691D01*
X150598297Y-78022926D01*
X150593081Y-78043750D01*
X150585849Y-78063962D01*
X150576670Y-78083368D01*
X150565634Y-78101781D01*
X150552846Y-78119024D01*
X150538430Y-78134930D01*
X150522524Y-78149346D01*
X150505281Y-78162134D01*
X150486868Y-78173170D01*
X150467462Y-78182349D01*
X150447250Y-78189581D01*
X150426426Y-78194797D01*
X150405191Y-78197947D01*
X150383750Y-78199000D01*
X149946250Y-78199000D01*
X149924809Y-78197947D01*
X149903574Y-78194797D01*
X149882750Y-78189581D01*
X149862538Y-78182349D01*
X149843132Y-78173170D01*
X149824719Y-78162134D01*
X149807476Y-78149346D01*
X149791570Y-78134930D01*
X149777154Y-78119024D01*
X149764366Y-78101781D01*
X149753330Y-78083368D01*
X149744151Y-78063962D01*
X149736919Y-78043750D01*
X149731703Y-78022926D01*
X149728553Y-78001691D01*
X149727500Y-77980250D01*
X149727500Y-77467750D01*
X149728553Y-77446309D01*
X149731703Y-77425074D01*
X149736919Y-77404250D01*
X149744151Y-77384038D01*
X149753330Y-77364632D01*
X149764366Y-77346219D01*
X149777154Y-77328976D01*
X149791570Y-77313070D01*
X149807476Y-77298654D01*
X149824719Y-77285866D01*
X149843132Y-77274830D01*
X149862538Y-77265651D01*
X149882750Y-77258419D01*
X149903574Y-77253203D01*
X149924809Y-77250053D01*
X149946250Y-77249000D01*
X150383750Y-77249000D01*
X150405191Y-77250053D01*
X150405191Y-77250053D01*
G37*
D11*
G04 #@! TD*
G04 #@! TO.P,R1,2*
G04 #@! TO.N,IO32*
X150165000Y-77724000D03*
D10*
G04 #@! TO.N,GND*
G04 #@! TO.C,R2*
G36*
X154469191Y-77250053D02*
X154490426Y-77253203D01*
X154511250Y-77258419D01*
X154531462Y-77265651D01*
X154550868Y-77274830D01*
X154569281Y-77285866D01*
X154586524Y-77298654D01*
X154602430Y-77313070D01*
X154616846Y-77328976D01*
X154629634Y-77346219D01*
X154640670Y-77364632D01*
X154649849Y-77384038D01*
X154657081Y-77404250D01*
X154662297Y-77425074D01*
X154665447Y-77446309D01*
X154666500Y-77467750D01*
X154666500Y-77980250D01*
X154665447Y-78001691D01*
X154662297Y-78022926D01*
X154657081Y-78043750D01*
X154649849Y-78063962D01*
X154640670Y-78083368D01*
X154629634Y-78101781D01*
X154616846Y-78119024D01*
X154602430Y-78134930D01*
X154586524Y-78149346D01*
X154569281Y-78162134D01*
X154550868Y-78173170D01*
X154531462Y-78182349D01*
X154511250Y-78189581D01*
X154490426Y-78194797D01*
X154469191Y-78197947D01*
X154447750Y-78199000D01*
X154010250Y-78199000D01*
X153988809Y-78197947D01*
X153967574Y-78194797D01*
X153946750Y-78189581D01*
X153926538Y-78182349D01*
X153907132Y-78173170D01*
X153888719Y-78162134D01*
X153871476Y-78149346D01*
X153855570Y-78134930D01*
X153841154Y-78119024D01*
X153828366Y-78101781D01*
X153817330Y-78083368D01*
X153808151Y-78063962D01*
X153800919Y-78043750D01*
X153795703Y-78022926D01*
X153792553Y-78001691D01*
X153791500Y-77980250D01*
X153791500Y-77467750D01*
X153792553Y-77446309D01*
X153795703Y-77425074D01*
X153800919Y-77404250D01*
X153808151Y-77384038D01*
X153817330Y-77364632D01*
X153828366Y-77346219D01*
X153841154Y-77328976D01*
X153855570Y-77313070D01*
X153871476Y-77298654D01*
X153888719Y-77285866D01*
X153907132Y-77274830D01*
X153926538Y-77265651D01*
X153946750Y-77258419D01*
X153967574Y-77253203D01*
X153988809Y-77250053D01*
X154010250Y-77249000D01*
X154447750Y-77249000D01*
X154469191Y-77250053D01*
X154469191Y-77250053D01*
G37*
D11*
G04 #@! TD*
G04 #@! TO.P,R2,2*
G04 #@! TO.N,GND*
X154229000Y-77724000D03*
D10*
G04 #@! TO.N,IO32*
G04 #@! TO.C,R2*
G36*
X152894191Y-77250053D02*
X152915426Y-77253203D01*
X152936250Y-77258419D01*
X152956462Y-77265651D01*
X152975868Y-77274830D01*
X152994281Y-77285866D01*
X153011524Y-77298654D01*
X153027430Y-77313070D01*
X153041846Y-77328976D01*
X153054634Y-77346219D01*
X153065670Y-77364632D01*
X153074849Y-77384038D01*
X153082081Y-77404250D01*
X153087297Y-77425074D01*
X153090447Y-77446309D01*
X153091500Y-77467750D01*
X153091500Y-77980250D01*
X153090447Y-78001691D01*
X153087297Y-78022926D01*
X153082081Y-78043750D01*
X153074849Y-78063962D01*
X153065670Y-78083368D01*
X153054634Y-78101781D01*
X153041846Y-78119024D01*
X153027430Y-78134930D01*
X153011524Y-78149346D01*
X152994281Y-78162134D01*
X152975868Y-78173170D01*
X152956462Y-78182349D01*
X152936250Y-78189581D01*
X152915426Y-78194797D01*
X152894191Y-78197947D01*
X152872750Y-78199000D01*
X152435250Y-78199000D01*
X152413809Y-78197947D01*
X152392574Y-78194797D01*
X152371750Y-78189581D01*
X152351538Y-78182349D01*
X152332132Y-78173170D01*
X152313719Y-78162134D01*
X152296476Y-78149346D01*
X152280570Y-78134930D01*
X152266154Y-78119024D01*
X152253366Y-78101781D01*
X152242330Y-78083368D01*
X152233151Y-78063962D01*
X152225919Y-78043750D01*
X152220703Y-78022926D01*
X152217553Y-78001691D01*
X152216500Y-77980250D01*
X152216500Y-77467750D01*
X152217553Y-77446309D01*
X152220703Y-77425074D01*
X152225919Y-77404250D01*
X152233151Y-77384038D01*
X152242330Y-77364632D01*
X152253366Y-77346219D01*
X152266154Y-77328976D01*
X152280570Y-77313070D01*
X152296476Y-77298654D01*
X152313719Y-77285866D01*
X152332132Y-77274830D01*
X152351538Y-77265651D01*
X152371750Y-77258419D01*
X152392574Y-77253203D01*
X152413809Y-77250053D01*
X152435250Y-77249000D01*
X152872750Y-77249000D01*
X152894191Y-77250053D01*
X152894191Y-77250053D01*
G37*
D11*
G04 #@! TD*
G04 #@! TO.P,R2,1*
G04 #@! TO.N,IO32*
X152654000Y-77724000D03*
D10*
G04 #@! TO.N,Net-(R3-Pad1)*
G04 #@! TO.C,R3*
G36*
X127531691Y-89733553D02*
X127552926Y-89736703D01*
X127573750Y-89741919D01*
X127593962Y-89749151D01*
X127613368Y-89758330D01*
X127631781Y-89769366D01*
X127649024Y-89782154D01*
X127664930Y-89796570D01*
X127679346Y-89812476D01*
X127692134Y-89829719D01*
X127703170Y-89848132D01*
X127712349Y-89867538D01*
X127719581Y-89887750D01*
X127724797Y-89908574D01*
X127727947Y-89929809D01*
X127729000Y-89951250D01*
X127729000Y-90388750D01*
X127727947Y-90410191D01*
X127724797Y-90431426D01*
X127719581Y-90452250D01*
X127712349Y-90472462D01*
X127703170Y-90491868D01*
X127692134Y-90510281D01*
X127679346Y-90527524D01*
X127664930Y-90543430D01*
X127649024Y-90557846D01*
X127631781Y-90570634D01*
X127613368Y-90581670D01*
X127593962Y-90590849D01*
X127573750Y-90598081D01*
X127552926Y-90603297D01*
X127531691Y-90606447D01*
X127510250Y-90607500D01*
X126997750Y-90607500D01*
X126976309Y-90606447D01*
X126955074Y-90603297D01*
X126934250Y-90598081D01*
X126914038Y-90590849D01*
X126894632Y-90581670D01*
X126876219Y-90570634D01*
X126858976Y-90557846D01*
X126843070Y-90543430D01*
X126828654Y-90527524D01*
X126815866Y-90510281D01*
X126804830Y-90491868D01*
X126795651Y-90472462D01*
X126788419Y-90452250D01*
X126783203Y-90431426D01*
X126780053Y-90410191D01*
X126779000Y-90388750D01*
X126779000Y-89951250D01*
X126780053Y-89929809D01*
X126783203Y-89908574D01*
X126788419Y-89887750D01*
X126795651Y-89867538D01*
X126804830Y-89848132D01*
X126815866Y-89829719D01*
X126828654Y-89812476D01*
X126843070Y-89796570D01*
X126858976Y-89782154D01*
X126876219Y-89769366D01*
X126894632Y-89758330D01*
X126914038Y-89749151D01*
X126934250Y-89741919D01*
X126955074Y-89736703D01*
X126976309Y-89733553D01*
X126997750Y-89732500D01*
X127510250Y-89732500D01*
X127531691Y-89733553D01*
X127531691Y-89733553D01*
G37*
D11*
G04 #@! TD*
G04 #@! TO.P,R3,1*
G04 #@! TO.N,Net-(R3-Pad1)*
X127254000Y-90170000D03*
D10*
G04 #@! TO.N,Net-(J3-Pad2)*
G04 #@! TO.C,R3*
G36*
X127531691Y-91308553D02*
X127552926Y-91311703D01*
X127573750Y-91316919D01*
X127593962Y-91324151D01*
X127613368Y-91333330D01*
X127631781Y-91344366D01*
X127649024Y-91357154D01*
X127664930Y-91371570D01*
X127679346Y-91387476D01*
X127692134Y-91404719D01*
X127703170Y-91423132D01*
X127712349Y-91442538D01*
X127719581Y-91462750D01*
X127724797Y-91483574D01*
X127727947Y-91504809D01*
X127729000Y-91526250D01*
X127729000Y-91963750D01*
X127727947Y-91985191D01*
X127724797Y-92006426D01*
X127719581Y-92027250D01*
X127712349Y-92047462D01*
X127703170Y-92066868D01*
X127692134Y-92085281D01*
X127679346Y-92102524D01*
X127664930Y-92118430D01*
X127649024Y-92132846D01*
X127631781Y-92145634D01*
X127613368Y-92156670D01*
X127593962Y-92165849D01*
X127573750Y-92173081D01*
X127552926Y-92178297D01*
X127531691Y-92181447D01*
X127510250Y-92182500D01*
X126997750Y-92182500D01*
X126976309Y-92181447D01*
X126955074Y-92178297D01*
X126934250Y-92173081D01*
X126914038Y-92165849D01*
X126894632Y-92156670D01*
X126876219Y-92145634D01*
X126858976Y-92132846D01*
X126843070Y-92118430D01*
X126828654Y-92102524D01*
X126815866Y-92085281D01*
X126804830Y-92066868D01*
X126795651Y-92047462D01*
X126788419Y-92027250D01*
X126783203Y-92006426D01*
X126780053Y-91985191D01*
X126779000Y-91963750D01*
X126779000Y-91526250D01*
X126780053Y-91504809D01*
X126783203Y-91483574D01*
X126788419Y-91462750D01*
X126795651Y-91442538D01*
X126804830Y-91423132D01*
X126815866Y-91404719D01*
X126828654Y-91387476D01*
X126843070Y-91371570D01*
X126858976Y-91357154D01*
X126876219Y-91344366D01*
X126894632Y-91333330D01*
X126914038Y-91324151D01*
X126934250Y-91316919D01*
X126955074Y-91311703D01*
X126976309Y-91308553D01*
X126997750Y-91307500D01*
X127510250Y-91307500D01*
X127531691Y-91308553D01*
X127531691Y-91308553D01*
G37*
D11*
G04 #@! TD*
G04 #@! TO.P,R3,2*
G04 #@! TO.N,Net-(J3-Pad2)*
X127254000Y-91745000D03*
D10*
G04 #@! TO.N,AENBL*
G04 #@! TO.C,R5*
G36*
X140727691Y-72424053D02*
X140748926Y-72427203D01*
X140769750Y-72432419D01*
X140789962Y-72439651D01*
X140809368Y-72448830D01*
X140827781Y-72459866D01*
X140845024Y-72472654D01*
X140860930Y-72487070D01*
X140875346Y-72502976D01*
X140888134Y-72520219D01*
X140899170Y-72538632D01*
X140908349Y-72558038D01*
X140915581Y-72578250D01*
X140920797Y-72599074D01*
X140923947Y-72620309D01*
X140925000Y-72641750D01*
X140925000Y-73154250D01*
X140923947Y-73175691D01*
X140920797Y-73196926D01*
X140915581Y-73217750D01*
X140908349Y-73237962D01*
X140899170Y-73257368D01*
X140888134Y-73275781D01*
X140875346Y-73293024D01*
X140860930Y-73308930D01*
X140845024Y-73323346D01*
X140827781Y-73336134D01*
X140809368Y-73347170D01*
X140789962Y-73356349D01*
X140769750Y-73363581D01*
X140748926Y-73368797D01*
X140727691Y-73371947D01*
X140706250Y-73373000D01*
X140268750Y-73373000D01*
X140247309Y-73371947D01*
X140226074Y-73368797D01*
X140205250Y-73363581D01*
X140185038Y-73356349D01*
X140165632Y-73347170D01*
X140147219Y-73336134D01*
X140129976Y-73323346D01*
X140114070Y-73308930D01*
X140099654Y-73293024D01*
X140086866Y-73275781D01*
X140075830Y-73257368D01*
X140066651Y-73237962D01*
X140059419Y-73217750D01*
X140054203Y-73196926D01*
X140051053Y-73175691D01*
X140050000Y-73154250D01*
X140050000Y-72641750D01*
X140051053Y-72620309D01*
X140054203Y-72599074D01*
X140059419Y-72578250D01*
X140066651Y-72558038D01*
X140075830Y-72538632D01*
X140086866Y-72520219D01*
X140099654Y-72502976D01*
X140114070Y-72487070D01*
X140129976Y-72472654D01*
X140147219Y-72459866D01*
X140165632Y-72448830D01*
X140185038Y-72439651D01*
X140205250Y-72432419D01*
X140226074Y-72427203D01*
X140247309Y-72424053D01*
X140268750Y-72423000D01*
X140706250Y-72423000D01*
X140727691Y-72424053D01*
X140727691Y-72424053D01*
G37*
D11*
G04 #@! TD*
G04 #@! TO.P,R5,1*
G04 #@! TO.N,AENBL*
X140487500Y-72898000D03*
D10*
G04 #@! TO.N,GND*
G04 #@! TO.C,R5*
G36*
X139152691Y-72424053D02*
X139173926Y-72427203D01*
X139194750Y-72432419D01*
X139214962Y-72439651D01*
X139234368Y-72448830D01*
X139252781Y-72459866D01*
X139270024Y-72472654D01*
X139285930Y-72487070D01*
X139300346Y-72502976D01*
X139313134Y-72520219D01*
X139324170Y-72538632D01*
X139333349Y-72558038D01*
X139340581Y-72578250D01*
X139345797Y-72599074D01*
X139348947Y-72620309D01*
X139350000Y-72641750D01*
X139350000Y-73154250D01*
X139348947Y-73175691D01*
X139345797Y-73196926D01*
X139340581Y-73217750D01*
X139333349Y-73237962D01*
X139324170Y-73257368D01*
X139313134Y-73275781D01*
X139300346Y-73293024D01*
X139285930Y-73308930D01*
X139270024Y-73323346D01*
X139252781Y-73336134D01*
X139234368Y-73347170D01*
X139214962Y-73356349D01*
X139194750Y-73363581D01*
X139173926Y-73368797D01*
X139152691Y-73371947D01*
X139131250Y-73373000D01*
X138693750Y-73373000D01*
X138672309Y-73371947D01*
X138651074Y-73368797D01*
X138630250Y-73363581D01*
X138610038Y-73356349D01*
X138590632Y-73347170D01*
X138572219Y-73336134D01*
X138554976Y-73323346D01*
X138539070Y-73308930D01*
X138524654Y-73293024D01*
X138511866Y-73275781D01*
X138500830Y-73257368D01*
X138491651Y-73237962D01*
X138484419Y-73217750D01*
X138479203Y-73196926D01*
X138476053Y-73175691D01*
X138475000Y-73154250D01*
X138475000Y-72641750D01*
X138476053Y-72620309D01*
X138479203Y-72599074D01*
X138484419Y-72578250D01*
X138491651Y-72558038D01*
X138500830Y-72538632D01*
X138511866Y-72520219D01*
X138524654Y-72502976D01*
X138539070Y-72487070D01*
X138554976Y-72472654D01*
X138572219Y-72459866D01*
X138590632Y-72448830D01*
X138610038Y-72439651D01*
X138630250Y-72432419D01*
X138651074Y-72427203D01*
X138672309Y-72424053D01*
X138693750Y-72423000D01*
X139131250Y-72423000D01*
X139152691Y-72424053D01*
X139152691Y-72424053D01*
G37*
D11*
G04 #@! TD*
G04 #@! TO.P,R5,2*
G04 #@! TO.N,GND*
X138912500Y-72898000D03*
D10*
G04 #@! TO.N,BPHASE*
G04 #@! TO.C,R6*
G36*
X140727691Y-74202053D02*
X140748926Y-74205203D01*
X140769750Y-74210419D01*
X140789962Y-74217651D01*
X140809368Y-74226830D01*
X140827781Y-74237866D01*
X140845024Y-74250654D01*
X140860930Y-74265070D01*
X140875346Y-74280976D01*
X140888134Y-74298219D01*
X140899170Y-74316632D01*
X140908349Y-74336038D01*
X140915581Y-74356250D01*
X140920797Y-74377074D01*
X140923947Y-74398309D01*
X140925000Y-74419750D01*
X140925000Y-74932250D01*
X140923947Y-74953691D01*
X140920797Y-74974926D01*
X140915581Y-74995750D01*
X140908349Y-75015962D01*
X140899170Y-75035368D01*
X140888134Y-75053781D01*
X140875346Y-75071024D01*
X140860930Y-75086930D01*
X140845024Y-75101346D01*
X140827781Y-75114134D01*
X140809368Y-75125170D01*
X140789962Y-75134349D01*
X140769750Y-75141581D01*
X140748926Y-75146797D01*
X140727691Y-75149947D01*
X140706250Y-75151000D01*
X140268750Y-75151000D01*
X140247309Y-75149947D01*
X140226074Y-75146797D01*
X140205250Y-75141581D01*
X140185038Y-75134349D01*
X140165632Y-75125170D01*
X140147219Y-75114134D01*
X140129976Y-75101346D01*
X140114070Y-75086930D01*
X140099654Y-75071024D01*
X140086866Y-75053781D01*
X140075830Y-75035368D01*
X140066651Y-75015962D01*
X140059419Y-74995750D01*
X140054203Y-74974926D01*
X140051053Y-74953691D01*
X140050000Y-74932250D01*
X140050000Y-74419750D01*
X140051053Y-74398309D01*
X140054203Y-74377074D01*
X140059419Y-74356250D01*
X140066651Y-74336038D01*
X140075830Y-74316632D01*
X140086866Y-74298219D01*
X140099654Y-74280976D01*
X140114070Y-74265070D01*
X140129976Y-74250654D01*
X140147219Y-74237866D01*
X140165632Y-74226830D01*
X140185038Y-74217651D01*
X140205250Y-74210419D01*
X140226074Y-74205203D01*
X140247309Y-74202053D01*
X140268750Y-74201000D01*
X140706250Y-74201000D01*
X140727691Y-74202053D01*
X140727691Y-74202053D01*
G37*
D11*
G04 #@! TD*
G04 #@! TO.P,R6,2*
G04 #@! TO.N,BPHASE*
X140487500Y-74676000D03*
D10*
G04 #@! TO.N,+3V3*
G04 #@! TO.C,R6*
G36*
X139152691Y-74202053D02*
X139173926Y-74205203D01*
X139194750Y-74210419D01*
X139214962Y-74217651D01*
X139234368Y-74226830D01*
X139252781Y-74237866D01*
X139270024Y-74250654D01*
X139285930Y-74265070D01*
X139300346Y-74280976D01*
X139313134Y-74298219D01*
X139324170Y-74316632D01*
X139333349Y-74336038D01*
X139340581Y-74356250D01*
X139345797Y-74377074D01*
X139348947Y-74398309D01*
X139350000Y-74419750D01*
X139350000Y-74932250D01*
X139348947Y-74953691D01*
X139345797Y-74974926D01*
X139340581Y-74995750D01*
X139333349Y-75015962D01*
X139324170Y-75035368D01*
X139313134Y-75053781D01*
X139300346Y-75071024D01*
X139285930Y-75086930D01*
X139270024Y-75101346D01*
X139252781Y-75114134D01*
X139234368Y-75125170D01*
X139214962Y-75134349D01*
X139194750Y-75141581D01*
X139173926Y-75146797D01*
X139152691Y-75149947D01*
X139131250Y-75151000D01*
X138693750Y-75151000D01*
X138672309Y-75149947D01*
X138651074Y-75146797D01*
X138630250Y-75141581D01*
X138610038Y-75134349D01*
X138590632Y-75125170D01*
X138572219Y-75114134D01*
X138554976Y-75101346D01*
X138539070Y-75086930D01*
X138524654Y-75071024D01*
X138511866Y-75053781D01*
X138500830Y-75035368D01*
X138491651Y-75015962D01*
X138484419Y-74995750D01*
X138479203Y-74974926D01*
X138476053Y-74953691D01*
X138475000Y-74932250D01*
X138475000Y-74419750D01*
X138476053Y-74398309D01*
X138479203Y-74377074D01*
X138484419Y-74356250D01*
X138491651Y-74336038D01*
X138500830Y-74316632D01*
X138511866Y-74298219D01*
X138524654Y-74280976D01*
X138539070Y-74265070D01*
X138554976Y-74250654D01*
X138572219Y-74237866D01*
X138590632Y-74226830D01*
X138610038Y-74217651D01*
X138630250Y-74210419D01*
X138651074Y-74205203D01*
X138672309Y-74202053D01*
X138693750Y-74201000D01*
X139131250Y-74201000D01*
X139152691Y-74202053D01*
X139152691Y-74202053D01*
G37*
D11*
G04 #@! TD*
G04 #@! TO.P,R6,1*
G04 #@! TO.N,+3V3*
X138912500Y-74676000D03*
D10*
G04 #@! TO.N,GND*
G04 #@! TO.C,R7*
G36*
X139152691Y-70646053D02*
X139173926Y-70649203D01*
X139194750Y-70654419D01*
X139214962Y-70661651D01*
X139234368Y-70670830D01*
X139252781Y-70681866D01*
X139270024Y-70694654D01*
X139285930Y-70709070D01*
X139300346Y-70724976D01*
X139313134Y-70742219D01*
X139324170Y-70760632D01*
X139333349Y-70780038D01*
X139340581Y-70800250D01*
X139345797Y-70821074D01*
X139348947Y-70842309D01*
X139350000Y-70863750D01*
X139350000Y-71376250D01*
X139348947Y-71397691D01*
X139345797Y-71418926D01*
X139340581Y-71439750D01*
X139333349Y-71459962D01*
X139324170Y-71479368D01*
X139313134Y-71497781D01*
X139300346Y-71515024D01*
X139285930Y-71530930D01*
X139270024Y-71545346D01*
X139252781Y-71558134D01*
X139234368Y-71569170D01*
X139214962Y-71578349D01*
X139194750Y-71585581D01*
X139173926Y-71590797D01*
X139152691Y-71593947D01*
X139131250Y-71595000D01*
X138693750Y-71595000D01*
X138672309Y-71593947D01*
X138651074Y-71590797D01*
X138630250Y-71585581D01*
X138610038Y-71578349D01*
X138590632Y-71569170D01*
X138572219Y-71558134D01*
X138554976Y-71545346D01*
X138539070Y-71530930D01*
X138524654Y-71515024D01*
X138511866Y-71497781D01*
X138500830Y-71479368D01*
X138491651Y-71459962D01*
X138484419Y-71439750D01*
X138479203Y-71418926D01*
X138476053Y-71397691D01*
X138475000Y-71376250D01*
X138475000Y-70863750D01*
X138476053Y-70842309D01*
X138479203Y-70821074D01*
X138484419Y-70800250D01*
X138491651Y-70780038D01*
X138500830Y-70760632D01*
X138511866Y-70742219D01*
X138524654Y-70724976D01*
X138539070Y-70709070D01*
X138554976Y-70694654D01*
X138572219Y-70681866D01*
X138590632Y-70670830D01*
X138610038Y-70661651D01*
X138630250Y-70654419D01*
X138651074Y-70649203D01*
X138672309Y-70646053D01*
X138693750Y-70645000D01*
X139131250Y-70645000D01*
X139152691Y-70646053D01*
X139152691Y-70646053D01*
G37*
D11*
G04 #@! TD*
G04 #@! TO.P,R7,2*
G04 #@! TO.N,GND*
X138912500Y-71120000D03*
D10*
G04 #@! TO.N,BENBL*
G04 #@! TO.C,R7*
G36*
X140727691Y-70646053D02*
X140748926Y-70649203D01*
X140769750Y-70654419D01*
X140789962Y-70661651D01*
X140809368Y-70670830D01*
X140827781Y-70681866D01*
X140845024Y-70694654D01*
X140860930Y-70709070D01*
X140875346Y-70724976D01*
X140888134Y-70742219D01*
X140899170Y-70760632D01*
X140908349Y-70780038D01*
X140915581Y-70800250D01*
X140920797Y-70821074D01*
X140923947Y-70842309D01*
X140925000Y-70863750D01*
X140925000Y-71376250D01*
X140923947Y-71397691D01*
X140920797Y-71418926D01*
X140915581Y-71439750D01*
X140908349Y-71459962D01*
X140899170Y-71479368D01*
X140888134Y-71497781D01*
X140875346Y-71515024D01*
X140860930Y-71530930D01*
X140845024Y-71545346D01*
X140827781Y-71558134D01*
X140809368Y-71569170D01*
X140789962Y-71578349D01*
X140769750Y-71585581D01*
X140748926Y-71590797D01*
X140727691Y-71593947D01*
X140706250Y-71595000D01*
X140268750Y-71595000D01*
X140247309Y-71593947D01*
X140226074Y-71590797D01*
X140205250Y-71585581D01*
X140185038Y-71578349D01*
X140165632Y-71569170D01*
X140147219Y-71558134D01*
X140129976Y-71545346D01*
X140114070Y-71530930D01*
X140099654Y-71515024D01*
X140086866Y-71497781D01*
X140075830Y-71479368D01*
X140066651Y-71459962D01*
X140059419Y-71439750D01*
X140054203Y-71418926D01*
X140051053Y-71397691D01*
X140050000Y-71376250D01*
X140050000Y-70863750D01*
X140051053Y-70842309D01*
X140054203Y-70821074D01*
X140059419Y-70800250D01*
X140066651Y-70780038D01*
X140075830Y-70760632D01*
X140086866Y-70742219D01*
X140099654Y-70724976D01*
X140114070Y-70709070D01*
X140129976Y-70694654D01*
X140147219Y-70681866D01*
X140165632Y-70670830D01*
X140185038Y-70661651D01*
X140205250Y-70654419D01*
X140226074Y-70649203D01*
X140247309Y-70646053D01*
X140268750Y-70645000D01*
X140706250Y-70645000D01*
X140727691Y-70646053D01*
X140727691Y-70646053D01*
G37*
D11*
G04 #@! TD*
G04 #@! TO.P,R7,1*
G04 #@! TO.N,BENBL*
X140487500Y-71120000D03*
D17*
G04 #@! TO.P,U1,8*
G04 #@! TO.N,Net-(C3-Pad1)*
X124280000Y-74136000D03*
G04 #@! TO.P,U1,9*
G04 #@! TO.N,N/C*
X124280000Y-74636000D03*
G04 #@! TO.P,U1,10*
X124280000Y-75136000D03*
G04 #@! TO.P,U1,11*
X124280000Y-75636000D03*
D18*
G04 #@! TO.P,U1,12*
G04 #@! TO.N,+3V3*
X125230000Y-76086000D03*
G04 #@! TO.P,U1,14*
G04 #@! TO.N,IO19*
X126230000Y-76086000D03*
G04 #@! TO.P,U1,13*
G04 #@! TO.N,IO18*
X125730000Y-76086000D03*
G04 #@! TO.P,U1,7*
G04 #@! TO.N,GND*
X125230000Y-73686000D03*
G04 #@! TO.P,U1,5*
G04 #@! TO.N,+3V3*
X126230000Y-73686000D03*
G04 #@! TO.P,U1,6*
G04 #@! TO.N,GND*
X125730000Y-73686000D03*
D17*
G04 #@! TO.P,U1,4*
G04 #@! TO.N,IO26*
X127180000Y-74136000D03*
G04 #@! TO.P,U1,3*
G04 #@! TO.N,GND*
X127180000Y-74636000D03*
G04 #@! TO.P,U1,2*
X127180000Y-75136000D03*
G04 #@! TO.P,U1,1*
X127180000Y-75636000D03*
G04 #@! TD*
D19*
G04 #@! TO.P,U2,13*
G04 #@! TO.N,GND*
X159396000Y-90932000D03*
X158496000Y-90932000D03*
D20*
G04 #@! TO.P,U2,12*
G04 #@! TO.N,+3V3*
X157246000Y-89882000D03*
G04 #@! TO.P,U2,11*
X157746000Y-89882000D03*
G04 #@! TO.P,U2,10*
G04 #@! TO.N,APHASE*
X158246000Y-89882000D03*
G04 #@! TO.P,U2,9*
G04 #@! TO.N,AENBL*
X158746000Y-89882000D03*
G04 #@! TO.P,U2,8*
G04 #@! TO.N,BPHASE*
X159246000Y-89882000D03*
G04 #@! TO.P,U2,7*
G04 #@! TO.N,BENBL*
X159746000Y-89882000D03*
G04 #@! TO.P,U2,6*
G04 #@! TO.N,GND*
X159746000Y-91982000D03*
G04 #@! TO.P,U2,5*
G04 #@! TO.N,Net-(J1-Pad1)*
X159246000Y-91982000D03*
G04 #@! TO.P,U2,4*
G04 #@! TO.N,Net-(J1-Pad2)*
X158746000Y-91982000D03*
G04 #@! TO.P,U2,3*
G04 #@! TO.N,Net-(J1-Pad3)*
X158246000Y-91982000D03*
G04 #@! TO.P,U2,2*
G04 #@! TO.N,Net-(J1-Pad4)*
X157746000Y-91982000D03*
G04 #@! TO.P,U2,1*
G04 #@! TO.N,+BATT*
X157246000Y-91982000D03*
D19*
G04 #@! TO.P,U2,13*
G04 #@! TO.N,GND*
X157596000Y-90932000D03*
G04 #@! TD*
D10*
G04 #@! TO.N,IO32*
G04 #@! TO.C,C10*
G36*
X156487691Y-78811553D02*
X156508926Y-78814703D01*
X156529750Y-78819919D01*
X156549962Y-78827151D01*
X156569368Y-78836330D01*
X156587781Y-78847366D01*
X156605024Y-78860154D01*
X156620930Y-78874570D01*
X156635346Y-78890476D01*
X156648134Y-78907719D01*
X156659170Y-78926132D01*
X156668349Y-78945538D01*
X156675581Y-78965750D01*
X156680797Y-78986574D01*
X156683947Y-79007809D01*
X156685000Y-79029250D01*
X156685000Y-79466750D01*
X156683947Y-79488191D01*
X156680797Y-79509426D01*
X156675581Y-79530250D01*
X156668349Y-79550462D01*
X156659170Y-79569868D01*
X156648134Y-79588281D01*
X156635346Y-79605524D01*
X156620930Y-79621430D01*
X156605024Y-79635846D01*
X156587781Y-79648634D01*
X156569368Y-79659670D01*
X156549962Y-79668849D01*
X156529750Y-79676081D01*
X156508926Y-79681297D01*
X156487691Y-79684447D01*
X156466250Y-79685500D01*
X155953750Y-79685500D01*
X155932309Y-79684447D01*
X155911074Y-79681297D01*
X155890250Y-79676081D01*
X155870038Y-79668849D01*
X155850632Y-79659670D01*
X155832219Y-79648634D01*
X155814976Y-79635846D01*
X155799070Y-79621430D01*
X155784654Y-79605524D01*
X155771866Y-79588281D01*
X155760830Y-79569868D01*
X155751651Y-79550462D01*
X155744419Y-79530250D01*
X155739203Y-79509426D01*
X155736053Y-79488191D01*
X155735000Y-79466750D01*
X155735000Y-79029250D01*
X155736053Y-79007809D01*
X155739203Y-78986574D01*
X155744419Y-78965750D01*
X155751651Y-78945538D01*
X155760830Y-78926132D01*
X155771866Y-78907719D01*
X155784654Y-78890476D01*
X155799070Y-78874570D01*
X155814976Y-78860154D01*
X155832219Y-78847366D01*
X155850632Y-78836330D01*
X155870038Y-78827151D01*
X155890250Y-78819919D01*
X155911074Y-78814703D01*
X155932309Y-78811553D01*
X155953750Y-78810500D01*
X156466250Y-78810500D01*
X156487691Y-78811553D01*
X156487691Y-78811553D01*
G37*
D11*
G04 #@! TD*
G04 #@! TO.P,C10,1*
G04 #@! TO.N,IO32*
X156210000Y-79248000D03*
D10*
G04 #@! TO.N,GND*
G04 #@! TO.C,C10*
G36*
X156487691Y-77236553D02*
X156508926Y-77239703D01*
X156529750Y-77244919D01*
X156549962Y-77252151D01*
X156569368Y-77261330D01*
X156587781Y-77272366D01*
X156605024Y-77285154D01*
X156620930Y-77299570D01*
X156635346Y-77315476D01*
X156648134Y-77332719D01*
X156659170Y-77351132D01*
X156668349Y-77370538D01*
X156675581Y-77390750D01*
X156680797Y-77411574D01*
X156683947Y-77432809D01*
X156685000Y-77454250D01*
X156685000Y-77891750D01*
X156683947Y-77913191D01*
X156680797Y-77934426D01*
X156675581Y-77955250D01*
X156668349Y-77975462D01*
X156659170Y-77994868D01*
X156648134Y-78013281D01*
X156635346Y-78030524D01*
X156620930Y-78046430D01*
X156605024Y-78060846D01*
X156587781Y-78073634D01*
X156569368Y-78084670D01*
X156549962Y-78093849D01*
X156529750Y-78101081D01*
X156508926Y-78106297D01*
X156487691Y-78109447D01*
X156466250Y-78110500D01*
X155953750Y-78110500D01*
X155932309Y-78109447D01*
X155911074Y-78106297D01*
X155890250Y-78101081D01*
X155870038Y-78093849D01*
X155850632Y-78084670D01*
X155832219Y-78073634D01*
X155814976Y-78060846D01*
X155799070Y-78046430D01*
X155784654Y-78030524D01*
X155771866Y-78013281D01*
X155760830Y-77994868D01*
X155751651Y-77975462D01*
X155744419Y-77955250D01*
X155739203Y-77934426D01*
X155736053Y-77913191D01*
X155735000Y-77891750D01*
X155735000Y-77454250D01*
X155736053Y-77432809D01*
X155739203Y-77411574D01*
X155744419Y-77390750D01*
X155751651Y-77370538D01*
X155760830Y-77351132D01*
X155771866Y-77332719D01*
X155784654Y-77315476D01*
X155799070Y-77299570D01*
X155814976Y-77285154D01*
X155832219Y-77272366D01*
X155850632Y-77261330D01*
X155870038Y-77252151D01*
X155890250Y-77244919D01*
X155911074Y-77239703D01*
X155932309Y-77236553D01*
X155953750Y-77235500D01*
X156466250Y-77235500D01*
X156487691Y-77236553D01*
X156487691Y-77236553D01*
G37*
D11*
G04 #@! TD*
G04 #@! TO.P,C10,2*
G04 #@! TO.N,GND*
X156210000Y-77673000D03*
D21*
G04 #@! TO.P,U4,IN-*
G04 #@! TO.N,GND*
X149098000Y-75692000D03*
G04 #@! TO.P,U4,OUT-*
X149098000Y-60452000D03*
G04 #@! TO.P,U4,OUT+*
G04 #@! TO.N,+5V*
X158242000Y-60452000D03*
G04 #@! TO.P,U4,IN+*
G04 #@! TO.N,+BATT*
X158242000Y-75692000D03*
G04 #@! TD*
D22*
G04 #@! TO.P,U3,40*
G04 #@! TO.N,N/C*
X145288000Y-90678000D03*
G04 #@! TO.P,U3,39*
X142748000Y-90678000D03*
G04 #@! TO.P,U3,38*
X145288000Y-88138000D03*
G04 #@! TO.P,U3,37*
X142748000Y-88138000D03*
G04 #@! TO.P,U3,36*
G04 #@! TO.N,IO2*
X145288000Y-85598000D03*
G04 #@! TO.P,U3,35*
G04 #@! TO.N,+5V*
X142748000Y-85598000D03*
G04 #@! TO.P,U3,34*
G04 #@! TO.N,IO0*
X145288000Y-83058000D03*
G04 #@! TO.P,U3,33*
G04 #@! TO.N,GND*
X142748000Y-83058000D03*
G04 #@! TO.P,U3,32*
G04 #@! TO.N,IO4*
X145288000Y-80518000D03*
G04 #@! TO.P,U3,31*
G04 #@! TO.N,Net-(R3-Pad1)*
X142748000Y-80518000D03*
G04 #@! TO.P,U3,30*
G04 #@! TO.N,N/C*
X145288000Y-77978000D03*
G04 #@! TO.P,U3,29*
G04 #@! TO.N,IO17*
X142748000Y-77978000D03*
G04 #@! TO.P,U3,28*
G04 #@! TO.N,IO32*
X145288000Y-75438000D03*
G04 #@! TO.P,U3,27*
G04 #@! TO.N,APHASE*
X142748000Y-75438000D03*
G04 #@! TO.P,U3,26*
G04 #@! TO.N,BPHASE*
X145288000Y-72898000D03*
G04 #@! TO.P,U3,25*
G04 #@! TO.N,AENBL*
X142748000Y-72898000D03*
G04 #@! TO.P,U3,24*
G04 #@! TO.N,BENBL*
X145288000Y-70358000D03*
G04 #@! TO.P,U3,23*
G04 #@! TO.N,RXD*
X142748000Y-70358000D03*
G04 #@! TO.P,U3,22*
G04 #@! TO.N,GND*
X145288000Y-67818000D03*
G04 #@! TO.P,U3,21*
G04 #@! TO.N,TXD*
X142748000Y-67818000D03*
G04 #@! TO.P,U3,20*
G04 #@! TO.N,N/C*
X119888000Y-90678000D03*
G04 #@! TO.P,U3,19*
X117348000Y-90678000D03*
G04 #@! TO.P,U3,18*
X119888000Y-88138000D03*
G04 #@! TO.P,U3,17*
X117348000Y-88138000D03*
G04 #@! TO.P,U3,16*
G04 #@! TO.N,+3V3*
X119888000Y-85598000D03*
G04 #@! TO.P,U3,15*
G04 #@! TO.N,N/C*
X117348000Y-85598000D03*
G04 #@! TO.P,U3,14*
X119888000Y-83058000D03*
G04 #@! TO.P,U3,13*
X117348000Y-83058000D03*
G04 #@! TO.P,U3,12*
X119888000Y-80518000D03*
G04 #@! TO.P,U3,11*
X117348000Y-80518000D03*
G04 #@! TO.P,U3,10*
G04 #@! TO.N,IO19*
X119888000Y-77978000D03*
G04 #@! TO.P,U3,9*
G04 #@! TO.N,N/C*
X117348000Y-77978000D03*
G04 #@! TO.P,U3,8*
G04 #@! TO.N,IO18*
X119888000Y-75438000D03*
G04 #@! TO.P,U3,7*
G04 #@! TO.N,IO35*
X117348000Y-75438000D03*
G04 #@! TO.P,U3,6*
G04 #@! TO.N,IO26*
X119888000Y-72898000D03*
G04 #@! TO.P,U3,5*
G04 #@! TO.N,N/C*
X117348000Y-72898000D03*
G04 #@! TO.P,U3,4*
X119888000Y-70358000D03*
G04 #@! TO.P,U3,3*
X117348000Y-70358000D03*
G04 #@! TO.P,U3,2*
X119888000Y-67818000D03*
D23*
G04 #@! TO.P,U3,1*
G04 #@! TO.N,GND*
X117348000Y-67818000D03*
G04 #@! TD*
D24*
G04 #@! TO.N,+BATT*
X156210000Y-92202000D03*
X162814000Y-90170000D03*
G04 #@! TO.N,GND*
X157734000Y-72644000D03*
X160782000Y-75692000D03*
G04 #@! TO.N,+3V3*
X162306000Y-92202000D03*
X126492000Y-68326000D03*
X127000000Y-70358000D03*
X152986565Y-90232490D03*
X129540000Y-76200000D03*
X123444000Y-77470000D03*
X147574000Y-94234000D03*
X133858000Y-87630000D03*
X136906000Y-79502000D03*
G04 #@! TO.N,+5V*
X134620000Y-76200000D03*
X137414000Y-67310000D03*
X140716000Y-64262000D03*
G04 #@! TO.N,Net-(R3-Pad1)*
X134874000Y-84582000D03*
G04 #@! TO.N,APHASE*
X157226000Y-84328000D03*
G04 #@! TO.N,AENBL*
X157226000Y-83312000D03*
G04 #@! TO.N,BPHASE*
X157226000Y-82296000D03*
G04 #@! TO.N,BENBL*
X157230660Y-81275340D03*
G04 #@! TO.N,IO17*
X128778000Y-72898000D03*
X147828000Y-83058000D03*
G04 #@! TO.N,IO4*
X147574000Y-84836000D03*
G04 #@! TO.N,IO26*
X127508000Y-73152000D03*
G04 #@! TD*
D25*
G04 #@! TO.N,+BATT*
X158242000Y-74168000D02*
X158242000Y-75692000D01*
X163576000Y-68834000D02*
X158242000Y-74168000D01*
X163552000Y-85292000D02*
X162052000Y-85292000D01*
X164084000Y-85824000D02*
X163552000Y-85292000D01*
X164084000Y-88646000D02*
X164084000Y-85824000D01*
X158242000Y-76769630D02*
X158242000Y-75692000D01*
X157246000Y-91982000D02*
X156430000Y-91982000D01*
X156430000Y-91982000D02*
X156210000Y-92202000D01*
X162814000Y-89916000D02*
X164084000Y-88646000D01*
X162814000Y-90170000D02*
X162814000Y-89916000D01*
X151130000Y-80264000D02*
X158242000Y-80264000D01*
X148590000Y-77724000D02*
X151130000Y-80264000D01*
X158242000Y-80264000D02*
X158242000Y-76769630D01*
X158242000Y-80982000D02*
X158242000Y-80264000D01*
X162052000Y-85292000D02*
X162052000Y-84792000D01*
X162052000Y-84792000D02*
X158242000Y-80982000D01*
G04 #@! TO.N,GND*
X125355000Y-73686000D02*
X125730000Y-73686000D01*
X125319388Y-73650388D02*
X125355000Y-73686000D01*
X125319388Y-72089612D02*
X125319388Y-73650388D01*
X125781000Y-71628000D02*
X125319388Y-72089612D01*
X127180000Y-74636000D02*
X127180000Y-75136000D01*
X127180000Y-75136000D02*
X127180000Y-75636000D01*
X129544612Y-72089612D02*
X129083000Y-71628000D01*
X127180000Y-74636000D02*
X128113004Y-74636000D01*
X129544612Y-73204392D02*
X129544612Y-72089612D01*
X128113004Y-74636000D02*
X129544612Y-73204392D01*
X117348000Y-68918000D02*
X117348000Y-67818000D01*
X117612999Y-69182999D02*
X117348000Y-68918000D01*
X123335999Y-69182999D02*
X117612999Y-69182999D01*
X125781000Y-71628000D02*
X123335999Y-69182999D01*
X142494000Y-83312000D02*
X142748000Y-83058000D01*
X139446000Y-83312000D02*
X142494000Y-83312000D01*
X146583500Y-66522500D02*
X146583500Y-64262000D01*
X145288000Y-67818000D02*
X146583500Y-66522500D01*
X149098000Y-64008000D02*
X149098000Y-60452000D01*
X145288000Y-67818000D02*
X149098000Y-64008000D01*
X129083000Y-71628000D02*
X129083000Y-70351996D01*
X129083000Y-70351996D02*
X127856002Y-69124998D01*
X125781000Y-71053000D02*
X125781000Y-71628000D01*
X127159998Y-69124998D02*
X125781000Y-70503996D01*
X125781000Y-70503996D02*
X125781000Y-71053000D01*
X127856002Y-69124998D02*
X127159998Y-69124998D01*
X127180000Y-75511000D02*
X127180000Y-75136000D01*
X134981000Y-83312000D02*
X127180000Y-75511000D01*
X139446000Y-83312000D02*
X134981000Y-83312000D01*
X163576000Y-78768000D02*
X163552000Y-78792000D01*
X163576000Y-71334000D02*
X163576000Y-78768000D01*
X165608000Y-88697000D02*
X165659000Y-88646000D01*
X165608000Y-91440000D02*
X165608000Y-88697000D01*
X163552000Y-78792000D02*
X162052000Y-78792000D01*
X165659000Y-80899000D02*
X163552000Y-78792000D01*
X165659000Y-88646000D02*
X165659000Y-80899000D01*
X157570500Y-90957500D02*
X157596000Y-90932000D01*
X155956000Y-90957500D02*
X157570500Y-90957500D01*
X159746000Y-91282000D02*
X159746000Y-91982000D01*
X159396000Y-90932000D02*
X159746000Y-91282000D01*
X117348000Y-66718000D02*
X117348000Y-67818000D01*
X117348000Y-59583810D02*
X117348000Y-66718000D01*
X123875820Y-53055990D02*
X117348000Y-59583810D01*
X138538990Y-53055990D02*
X123875820Y-53055990D01*
X139714000Y-54231000D02*
X138538990Y-53055990D01*
X139714000Y-54356000D02*
X139714000Y-54231000D01*
X149098000Y-71628000D02*
X149098000Y-75692000D01*
X145288000Y-67818000D02*
X149098000Y-71628000D01*
X154280000Y-77673000D02*
X154229000Y-77724000D01*
X156210000Y-77673000D02*
X154280000Y-77673000D01*
X150175630Y-75692000D02*
X149098000Y-75692000D01*
X152772000Y-75692000D02*
X150175630Y-75692000D01*
X154229000Y-77149000D02*
X152772000Y-75692000D01*
X154229000Y-77724000D02*
X154229000Y-77149000D01*
X156210000Y-74168000D02*
X157734000Y-72644000D01*
X156210000Y-77673000D02*
X156210000Y-74168000D01*
X162052000Y-76962000D02*
X162052000Y-78792000D01*
X160782000Y-75692000D02*
X162052000Y-76962000D01*
X155381000Y-90957500D02*
X155956000Y-90957500D01*
X150541310Y-90957500D02*
X155381000Y-90957500D01*
X149575990Y-89992180D02*
X150541310Y-90957500D01*
X149651000Y-81654000D02*
X149575990Y-81729010D01*
X149575990Y-81729010D02*
X149575990Y-89992180D01*
X150876000Y-81654000D02*
X149651000Y-81654000D01*
X138912500Y-71120000D02*
X138912500Y-72898000D01*
X139374112Y-70658388D02*
X138912500Y-71120000D01*
X141039499Y-68993001D02*
X139374112Y-70658388D01*
X144112999Y-68993001D02*
X141039499Y-68993001D01*
X145288000Y-67818000D02*
X144112999Y-68993001D01*
X134656000Y-106934000D02*
X135756000Y-106934000D01*
X133355990Y-108234010D02*
X134656000Y-106934000D01*
X124615010Y-108234010D02*
X133355990Y-108234010D01*
X124540000Y-108159000D02*
X124615010Y-108234010D01*
X124540000Y-106934000D02*
X124540000Y-108159000D01*
X135756000Y-106809000D02*
X135756000Y-106934000D01*
X136856000Y-105709000D02*
X135756000Y-106809000D01*
X136981000Y-105709000D02*
X136856000Y-105709000D01*
X139192000Y-103498000D02*
X136981000Y-105709000D01*
X139192000Y-101346000D02*
X139192000Y-103498000D01*
X143002000Y-54356000D02*
X149098000Y-60452000D01*
X139714000Y-54356000D02*
X143002000Y-54356000D01*
X139714000Y-54356000D02*
X139714000Y-63232000D01*
X124540000Y-105709000D02*
X124540000Y-106934000D01*
X116172999Y-67893001D02*
X116172999Y-97341999D01*
X116248000Y-67818000D02*
X116172999Y-67893001D01*
X116172999Y-97341999D02*
X124540000Y-105709000D01*
X117348000Y-67818000D02*
X116248000Y-67818000D01*
X158470500Y-90957500D02*
X158496000Y-90932000D01*
X155956000Y-90957500D02*
X158470500Y-90957500D01*
X159746000Y-91332000D02*
X159746000Y-91982000D01*
X159346000Y-90932000D02*
X159746000Y-91332000D01*
X157596000Y-90932000D02*
X159346000Y-90932000D01*
G04 #@! TO.N,Net-(C3-Pad1)*
X124280000Y-71702000D02*
X124206000Y-71628000D01*
X124280000Y-74136000D02*
X124280000Y-71702000D01*
X122688500Y-74136000D02*
X122428000Y-74396500D01*
X124280000Y-74136000D02*
X122688500Y-74136000D01*
G04 #@! TO.N,+3V3*
X126230000Y-72906000D02*
X127508000Y-71628000D01*
X126230000Y-73686000D02*
X126230000Y-72906000D01*
X125230000Y-75436000D02*
X125230000Y-76086000D01*
X126230000Y-74436000D02*
X125230000Y-75436000D01*
X126230000Y-73686000D02*
X126230000Y-74436000D01*
X124487000Y-76454000D02*
X122682000Y-76454000D01*
X124855000Y-76086000D02*
X124487000Y-76454000D01*
X125230000Y-76086000D02*
X124855000Y-76086000D01*
X156746500Y-89382500D02*
X157246000Y-89882000D01*
X155956000Y-89382500D02*
X156746500Y-89382500D01*
X157746000Y-89882000D02*
X157246000Y-89882000D01*
X151104500Y-89382500D02*
X150876000Y-89154000D01*
X155956000Y-89382500D02*
X151104500Y-89382500D01*
X163068000Y-91440000D02*
X162306000Y-92202000D01*
X164033000Y-91440000D02*
X163068000Y-91440000D01*
X127214000Y-67604000D02*
X126492000Y-68326000D01*
X127214000Y-54356000D02*
X127214000Y-67604000D01*
X127000000Y-71120000D02*
X127508000Y-71628000D01*
X127000000Y-70358000D02*
X127000000Y-71120000D01*
X150876000Y-89154000D02*
X151954490Y-90232490D01*
X151954490Y-90232490D02*
X152420880Y-90232490D01*
X152420880Y-90232490D02*
X152986565Y-90232490D01*
X138912500Y-76428500D02*
X138938000Y-76454000D01*
X138912500Y-74676000D02*
X138912500Y-76428500D01*
X131064000Y-74676000D02*
X129540000Y-76200000D01*
X138912500Y-74676000D02*
X131064000Y-74676000D01*
X123444000Y-76987500D02*
X122428000Y-75971500D01*
X123444000Y-77470000D02*
X123444000Y-76987500D01*
X122428000Y-76200000D02*
X122682000Y-76454000D01*
X122428000Y-75971500D02*
X122428000Y-76200000D01*
X140767000Y-104445000D02*
X143256000Y-106934000D01*
X140767000Y-101346000D02*
X140767000Y-104445000D01*
X138450888Y-74214388D02*
X138912500Y-74676000D01*
X138149990Y-70583010D02*
X138149990Y-73913490D01*
X144471000Y-64262000D02*
X138149990Y-70583010D01*
X138149990Y-73913490D02*
X138450888Y-74214388D01*
X145008500Y-64262000D02*
X144471000Y-64262000D01*
X140462000Y-94234000D02*
X133858000Y-87630000D01*
X147574000Y-94234000D02*
X140462000Y-94234000D01*
X138938000Y-77470000D02*
X138938000Y-76454000D01*
X136906000Y-79502000D02*
X138938000Y-77470000D01*
G04 #@! TO.N,+5V*
X140157000Y-85598000D02*
X142748000Y-85598000D01*
X139446000Y-84887000D02*
X140157000Y-85598000D01*
X143122003Y-81693001D02*
X136811001Y-81693001D01*
X143923001Y-82493999D02*
X143122003Y-81693001D01*
X143923001Y-84422999D02*
X143923001Y-82493999D01*
X142748000Y-85598000D02*
X143923001Y-84422999D01*
X134620000Y-79502000D02*
X134620000Y-76200000D01*
X136811001Y-81693001D02*
X134620000Y-79502000D01*
X137445979Y-67278021D02*
X137414000Y-67310000D01*
X137699979Y-67278021D02*
X137445979Y-67278021D01*
X140716000Y-64262000D02*
X137699979Y-67278021D01*
G04 #@! TO.N,Net-(J1-Pad1)*
X159246000Y-92632000D02*
X159766000Y-93152000D01*
X159766000Y-93152000D02*
X159766000Y-93152000D01*
X159246000Y-91982000D02*
X159246000Y-92632000D01*
D26*
X159766000Y-93152000D02*
X159766000Y-104394000D01*
X159766000Y-104394000D02*
X157226000Y-106934000D01*
D25*
G04 #@! TO.N,Net-(J1-Pad2)*
X158746000Y-91982000D02*
X158746000Y-92960000D01*
D26*
X154726000Y-104862000D02*
X154726000Y-106934000D01*
X159004000Y-100584000D02*
X154726000Y-104862000D01*
X159004000Y-93218000D02*
X159004000Y-100584000D01*
D25*
X158746000Y-92960000D02*
X159004000Y-93218000D01*
G04 #@! TO.N,Net-(J1-Pad3)*
X158246000Y-92960000D02*
X157988000Y-93345000D01*
D26*
X152226000Y-106934000D02*
X152226000Y-104060000D01*
X157988000Y-98298000D02*
X152226000Y-104060000D01*
X157988000Y-93345000D02*
X157988000Y-98298000D01*
D25*
X158246000Y-92960000D02*
X158246000Y-91982000D01*
G04 #@! TO.N,Net-(J1-Pad4)*
X157746000Y-91982000D02*
X157746000Y-92698000D01*
D26*
X149726000Y-103512000D02*
X149726000Y-106934000D01*
X156972000Y-96266000D02*
X149726000Y-103512000D01*
X156972000Y-93472000D02*
X156972000Y-96266000D01*
D25*
X157746000Y-92698000D02*
X156972000Y-93472000D01*
G04 #@! TO.N,Net-(J3-Pad2)*
X127254000Y-106720000D02*
X127040000Y-106934000D01*
X127254000Y-91745000D02*
X127254000Y-106720000D01*
G04 #@! TO.N,Net-(R3-Pad1)*
X129286000Y-90170000D02*
X134874000Y-84582000D01*
X127254000Y-90170000D02*
X129286000Y-90170000D01*
G04 #@! TO.N,APHASE*
X158246000Y-85348000D02*
X157226000Y-84328000D01*
X158246000Y-89882000D02*
X158246000Y-85348000D01*
X141529000Y-75438000D02*
X140513000Y-76454000D01*
X142748000Y-75438000D02*
X141529000Y-75438000D01*
G04 #@! TO.N,AENBL*
X157625999Y-83711999D02*
X157226000Y-83312000D01*
X158746000Y-84774996D02*
X157683003Y-83711999D01*
X158746000Y-89882000D02*
X158746000Y-84774996D01*
X157683003Y-83711999D02*
X157625999Y-83711999D01*
X140487500Y-72898000D02*
X142748000Y-72898000D01*
G04 #@! TO.N,BPHASE*
X157625999Y-82695999D02*
X157226000Y-82296000D01*
X157683003Y-82695999D02*
X157625999Y-82695999D01*
X159246000Y-89882000D02*
X159246000Y-84258996D01*
X159246000Y-84258996D02*
X157683003Y-82695999D01*
X143971612Y-74214388D02*
X144438001Y-73747999D01*
X140949112Y-74214388D02*
X143971612Y-74214388D01*
X144438001Y-73747999D02*
X145288000Y-72898000D01*
X140487500Y-74676000D02*
X140949112Y-74214388D01*
G04 #@! TO.N,BENBL*
X159746000Y-89882000D02*
X159746000Y-83790680D01*
X159746000Y-83790680D02*
X157630659Y-81675339D01*
X157630659Y-81675339D02*
X157230660Y-81275340D01*
X140949112Y-71581612D02*
X140487500Y-71120000D01*
X144064388Y-71581612D02*
X140949112Y-71581612D01*
X145288000Y-70358000D02*
X144064388Y-71581612D01*
G04 #@! TO.N,IO19*
X126651013Y-77257013D02*
X126651013Y-78766402D01*
X126230000Y-76086000D02*
X126230000Y-76836000D01*
X126651013Y-78766402D02*
X126010402Y-79407013D01*
X126010402Y-79407013D02*
X121317013Y-79407013D01*
X120737999Y-78827999D02*
X119888000Y-77978000D01*
X121317013Y-79407013D02*
X120737999Y-78827999D01*
X126230000Y-76836000D02*
X126651013Y-77257013D01*
G04 #@! TO.N,IO18*
X126201002Y-77883998D02*
X126201002Y-78580002D01*
X123407002Y-78957002D02*
X120737999Y-76287999D01*
X125730000Y-76086000D02*
X125730000Y-77412996D01*
X126201002Y-78580002D02*
X125824002Y-78957002D01*
X120737999Y-76287999D02*
X119888000Y-75438000D01*
X125824002Y-78957002D02*
X123407002Y-78957002D01*
X125730000Y-77412996D02*
X126201002Y-77883998D01*
G04 #@! TO.N,IO17*
X143597999Y-78827999D02*
X142748000Y-77978000D01*
X144112999Y-79342999D02*
X143597999Y-78827999D01*
X145852001Y-79342999D02*
X144112999Y-79342999D01*
X147828000Y-81318998D02*
X145852001Y-79342999D01*
X147828000Y-83058000D02*
X147828000Y-81318998D01*
G04 #@! TO.N,IO4*
X146137999Y-81367999D02*
X145288000Y-80518000D01*
X146463001Y-81693001D02*
X146137999Y-81367999D01*
X146463001Y-83159316D02*
X146463001Y-81693001D01*
X147574000Y-84270315D02*
X146463001Y-83159316D01*
X147574000Y-84836000D02*
X147574000Y-84270315D01*
G04 #@! TO.N,IO26*
X127180000Y-73480000D02*
X127508000Y-73152000D01*
X127180000Y-74136000D02*
X127180000Y-73480000D01*
G04 #@! TO.N,IO32*
X152654000Y-77724000D02*
X150165000Y-77724000D01*
X146773990Y-76923990D02*
X146137999Y-76287999D01*
X146137999Y-76287999D02*
X145288000Y-75438000D01*
X149364990Y-76923990D02*
X146773990Y-76923990D01*
X150165000Y-77724000D02*
X149364990Y-76923990D01*
X154178000Y-79248000D02*
X152654000Y-77724000D01*
X156210000Y-79248000D02*
X154178000Y-79248000D01*
G04 #@! TD*
D27*
G04 #@! TO.N,GND*
G36*
X166290000Y-87563832D02*
X166222809Y-87536000D01*
X165944750Y-87536000D01*
X165786000Y-87694750D01*
X165786000Y-88519000D01*
X165806000Y-88519000D01*
X165806000Y-88773000D01*
X165786000Y-88773000D01*
X165786000Y-89597250D01*
X165944750Y-89756000D01*
X166222809Y-89756000D01*
X166290000Y-89728168D01*
X166290000Y-90378957D01*
X166171809Y-90330000D01*
X165893750Y-90330000D01*
X165735000Y-90488750D01*
X165735000Y-91313000D01*
X165755000Y-91313000D01*
X165755000Y-91567000D01*
X165735000Y-91567000D01*
X165735000Y-92391250D01*
X165893750Y-92550000D01*
X166171809Y-92550000D01*
X166290000Y-92501044D01*
X166290000Y-109290000D01*
X115910000Y-109290000D01*
X115910000Y-105625050D01*
X116615000Y-105625050D01*
X116615000Y-106374950D01*
X116901974Y-107067767D01*
X117432233Y-107598026D01*
X118125050Y-107885000D01*
X118874950Y-107885000D01*
X119567767Y-107598026D01*
X119872526Y-107293267D01*
X123073680Y-107293267D01*
X123274947Y-107836571D01*
X123668807Y-108261497D01*
X124183110Y-108500476D01*
X124413000Y-108379155D01*
X124413000Y-107061000D01*
X123213835Y-107061000D01*
X123073680Y-107293267D01*
X119872526Y-107293267D01*
X120098026Y-107067767D01*
X120302247Y-106574733D01*
X123073680Y-106574733D01*
X123213835Y-106807000D01*
X124413000Y-106807000D01*
X124413000Y-105488845D01*
X124667000Y-105488845D01*
X124667000Y-106807000D01*
X124687000Y-106807000D01*
X124687000Y-107061000D01*
X124667000Y-107061000D01*
X124667000Y-108379155D01*
X124896890Y-108500476D01*
X125411193Y-108261497D01*
X125786754Y-107856313D01*
X125969375Y-108129625D01*
X126460582Y-108457839D01*
X127040000Y-108573092D01*
X127619417Y-108457839D01*
X128110625Y-108129625D01*
X128153242Y-108065844D01*
X128305414Y-108293586D01*
X128596565Y-108488126D01*
X128940000Y-108556440D01*
X130140000Y-108556440D01*
X130483435Y-108488126D01*
X130774586Y-108293586D01*
X130969126Y-108002435D01*
X131037440Y-107659000D01*
X131037440Y-107293267D01*
X134289680Y-107293267D01*
X134490947Y-107836571D01*
X134884807Y-108261497D01*
X135399110Y-108500476D01*
X135629000Y-108379155D01*
X135629000Y-107061000D01*
X134429835Y-107061000D01*
X134289680Y-107293267D01*
X131037440Y-107293267D01*
X131037440Y-106574733D01*
X134289680Y-106574733D01*
X134429835Y-106807000D01*
X135629000Y-106807000D01*
X135629000Y-105488845D01*
X135883000Y-105488845D01*
X135883000Y-106807000D01*
X135903000Y-106807000D01*
X135903000Y-107061000D01*
X135883000Y-107061000D01*
X135883000Y-108379155D01*
X136112890Y-108500476D01*
X136627193Y-108261497D01*
X137002754Y-107856313D01*
X137185375Y-108129625D01*
X137676582Y-108457839D01*
X138256000Y-108573092D01*
X138835417Y-108457839D01*
X139326625Y-108129625D01*
X139506000Y-107861171D01*
X139685375Y-108129625D01*
X140176582Y-108457839D01*
X140756000Y-108573092D01*
X141335417Y-108457839D01*
X141826625Y-108129625D01*
X141869242Y-108065844D01*
X142021414Y-108293586D01*
X142312565Y-108488126D01*
X142656000Y-108556440D01*
X143856000Y-108556440D01*
X144199435Y-108488126D01*
X144490586Y-108293586D01*
X144685126Y-108002435D01*
X144753440Y-107659000D01*
X144753440Y-106209000D01*
X144685126Y-105865565D01*
X144490586Y-105574414D01*
X144199435Y-105379874D01*
X143856000Y-105311560D01*
X142708362Y-105311560D01*
X141527000Y-104130199D01*
X141527000Y-102262339D01*
X141598239Y-102214739D01*
X141786005Y-101933727D01*
X141851940Y-101602250D01*
X141851940Y-101089750D01*
X141786005Y-100758273D01*
X141598239Y-100477261D01*
X141317227Y-100289495D01*
X140985750Y-100223560D01*
X140548250Y-100223560D01*
X140216773Y-100289495D01*
X140054469Y-100397943D01*
X139989198Y-100332673D01*
X139755809Y-100236000D01*
X139477750Y-100236000D01*
X139319000Y-100394750D01*
X139319000Y-101219000D01*
X139339000Y-101219000D01*
X139339000Y-101473000D01*
X139319000Y-101473000D01*
X139319000Y-102297250D01*
X139477750Y-102456000D01*
X139755809Y-102456000D01*
X139989198Y-102359327D01*
X140007000Y-102341525D01*
X140007001Y-104370148D01*
X139992112Y-104445000D01*
X140007001Y-104519852D01*
X140051097Y-104741537D01*
X140219072Y-104992929D01*
X140282528Y-105035329D01*
X140577594Y-105330395D01*
X140176583Y-105410161D01*
X139685375Y-105738375D01*
X139506000Y-106006829D01*
X139326625Y-105738375D01*
X138835418Y-105410161D01*
X138256000Y-105294908D01*
X137676583Y-105410161D01*
X137185375Y-105738375D01*
X137002754Y-106011687D01*
X136627193Y-105606503D01*
X136112890Y-105367524D01*
X135883000Y-105488845D01*
X135629000Y-105488845D01*
X135399110Y-105367524D01*
X134884807Y-105606503D01*
X134490947Y-106031429D01*
X134289680Y-106574733D01*
X131037440Y-106574733D01*
X131037440Y-106209000D01*
X130969126Y-105865565D01*
X130774586Y-105574414D01*
X130483435Y-105379874D01*
X130140000Y-105311560D01*
X128940000Y-105311560D01*
X128596565Y-105379874D01*
X128305414Y-105574414D01*
X128153242Y-105802156D01*
X128110625Y-105738375D01*
X128014000Y-105673812D01*
X128014000Y-101631750D01*
X138119500Y-101631750D01*
X138119500Y-101947310D01*
X138216173Y-102180699D01*
X138394802Y-102359327D01*
X138628191Y-102456000D01*
X138906250Y-102456000D01*
X139065000Y-102297250D01*
X139065000Y-101473000D01*
X138278250Y-101473000D01*
X138119500Y-101631750D01*
X128014000Y-101631750D01*
X128014000Y-100744690D01*
X138119500Y-100744690D01*
X138119500Y-101060250D01*
X138278250Y-101219000D01*
X139065000Y-101219000D01*
X139065000Y-100394750D01*
X138906250Y-100236000D01*
X138628191Y-100236000D01*
X138394802Y-100332673D01*
X138216173Y-100511301D01*
X138119500Y-100744690D01*
X128014000Y-100744690D01*
X128014000Y-92648896D01*
X128122739Y-92576239D01*
X128310505Y-92295227D01*
X128376440Y-91963750D01*
X128376440Y-91526250D01*
X128310505Y-91194773D01*
X128151964Y-90957500D01*
X128170339Y-90930000D01*
X129211153Y-90930000D01*
X129286000Y-90944888D01*
X129360847Y-90930000D01*
X129360852Y-90930000D01*
X129582537Y-90885904D01*
X129833929Y-90717929D01*
X129876331Y-90654470D01*
X132823000Y-87707802D01*
X132823000Y-87835874D01*
X132980569Y-88216280D01*
X133271720Y-88507431D01*
X133652126Y-88665000D01*
X133818199Y-88665000D01*
X139871673Y-94718476D01*
X139914071Y-94781929D01*
X139977524Y-94824327D01*
X139977526Y-94824329D01*
X140102902Y-94908102D01*
X140165463Y-94949904D01*
X140387148Y-94994000D01*
X140387152Y-94994000D01*
X140461999Y-95008888D01*
X140536846Y-94994000D01*
X146870289Y-94994000D01*
X146987720Y-95111431D01*
X147368126Y-95269000D01*
X147779874Y-95269000D01*
X148160280Y-95111431D01*
X148451431Y-94820280D01*
X148609000Y-94439874D01*
X148609000Y-94028126D01*
X148451431Y-93647720D01*
X148160280Y-93356569D01*
X147779874Y-93199000D01*
X147368126Y-93199000D01*
X146987720Y-93356569D01*
X146870289Y-93474000D01*
X140776803Y-93474000D01*
X134893000Y-87590199D01*
X134893000Y-87424126D01*
X134735431Y-87043720D01*
X134444280Y-86752569D01*
X134063874Y-86595000D01*
X133935802Y-86595000D01*
X134913803Y-85617000D01*
X135079874Y-85617000D01*
X135460280Y-85459431D01*
X135751431Y-85168280D01*
X135909000Y-84787874D01*
X135909000Y-84376126D01*
X135751431Y-83995720D01*
X135460280Y-83704569D01*
X135079874Y-83547000D01*
X134668126Y-83547000D01*
X134287720Y-83704569D01*
X133996569Y-83995720D01*
X133839000Y-84376126D01*
X133839000Y-84542197D01*
X128971199Y-89410000D01*
X128170339Y-89410000D01*
X128122739Y-89338761D01*
X127841727Y-89150995D01*
X127510250Y-89085060D01*
X126997750Y-89085060D01*
X126666273Y-89150995D01*
X126385261Y-89338761D01*
X126197495Y-89619773D01*
X126131560Y-89951250D01*
X126131560Y-90388750D01*
X126197495Y-90720227D01*
X126356036Y-90957500D01*
X126197495Y-91194773D01*
X126131560Y-91526250D01*
X126131560Y-91963750D01*
X126197495Y-92295227D01*
X126385261Y-92576239D01*
X126494000Y-92648896D01*
X126494001Y-105403514D01*
X126460583Y-105410161D01*
X125969375Y-105738375D01*
X125786754Y-106011687D01*
X125411193Y-105606503D01*
X124896890Y-105367524D01*
X124667000Y-105488845D01*
X124413000Y-105488845D01*
X124183110Y-105367524D01*
X123668807Y-105606503D01*
X123274947Y-106031429D01*
X123073680Y-106574733D01*
X120302247Y-106574733D01*
X120385000Y-106374950D01*
X120385000Y-105625050D01*
X120098026Y-104932233D01*
X119567767Y-104401974D01*
X118874950Y-104115000D01*
X118125050Y-104115000D01*
X117432233Y-104401974D01*
X116901974Y-104932233D01*
X116615000Y-105625050D01*
X115910000Y-105625050D01*
X115910000Y-91060542D01*
X115949161Y-91257418D01*
X116277375Y-91748625D01*
X116768582Y-92076839D01*
X117201744Y-92163000D01*
X117494256Y-92163000D01*
X117927418Y-92076839D01*
X118418625Y-91748625D01*
X118618000Y-91450239D01*
X118817375Y-91748625D01*
X119308582Y-92076839D01*
X119741744Y-92163000D01*
X120034256Y-92163000D01*
X120467418Y-92076839D01*
X120958625Y-91748625D01*
X121286839Y-91257418D01*
X121402092Y-90678000D01*
X121286839Y-90098582D01*
X120958625Y-89607375D01*
X120660239Y-89408000D01*
X120958625Y-89208625D01*
X121286839Y-88717418D01*
X121402092Y-88138000D01*
X121286839Y-87558582D01*
X120958625Y-87067375D01*
X120660239Y-86868000D01*
X120958625Y-86668625D01*
X121286839Y-86177418D01*
X121402092Y-85598000D01*
X121286839Y-85018582D01*
X120958625Y-84527375D01*
X120660239Y-84328000D01*
X120958625Y-84128625D01*
X121286839Y-83637418D01*
X121402092Y-83058000D01*
X121286839Y-82478582D01*
X120958625Y-81987375D01*
X120660239Y-81788000D01*
X120958625Y-81588625D01*
X121286839Y-81097418D01*
X121402092Y-80518000D01*
X121334544Y-80178414D01*
X121391859Y-80167013D01*
X125935555Y-80167013D01*
X126010402Y-80181901D01*
X126085249Y-80167013D01*
X126085254Y-80167013D01*
X126306939Y-80122917D01*
X126558331Y-79954942D01*
X126600733Y-79891483D01*
X127135486Y-79356731D01*
X127198942Y-79314331D01*
X127243264Y-79247999D01*
X127366917Y-79062940D01*
X127395548Y-78919000D01*
X127411013Y-78841254D01*
X127411013Y-78841250D01*
X127425901Y-78766402D01*
X127411013Y-78691554D01*
X127411013Y-77331859D01*
X127425901Y-77257012D01*
X127411013Y-77182165D01*
X127411013Y-77182161D01*
X127366917Y-76960476D01*
X127198942Y-76709084D01*
X127135486Y-76666684D01*
X127002440Y-76533638D01*
X127002440Y-76287810D01*
X127053000Y-76237250D01*
X127053000Y-75511000D01*
X127307000Y-75511000D01*
X127307000Y-76237250D01*
X127465750Y-76396000D01*
X127806310Y-76396000D01*
X128039699Y-76299327D01*
X128218327Y-76120698D01*
X128270754Y-75994126D01*
X128505000Y-75994126D01*
X128505000Y-76405874D01*
X128662569Y-76786280D01*
X128953720Y-77077431D01*
X129334126Y-77235000D01*
X129745874Y-77235000D01*
X130126280Y-77077431D01*
X130417431Y-76786280D01*
X130575000Y-76405874D01*
X130575000Y-76239802D01*
X131378803Y-75436000D01*
X133920289Y-75436000D01*
X133742569Y-75613720D01*
X133585000Y-75994126D01*
X133585000Y-76405874D01*
X133742569Y-76786280D01*
X133860001Y-76903712D01*
X133860000Y-79427153D01*
X133845112Y-79502000D01*
X133860000Y-79576847D01*
X133860000Y-79576851D01*
X133904096Y-79798536D01*
X134072071Y-80049929D01*
X134135530Y-80092331D01*
X136220674Y-82177477D01*
X136263072Y-82240930D01*
X136326525Y-82283328D01*
X136326527Y-82283330D01*
X136366951Y-82310340D01*
X136514464Y-82408905D01*
X136736149Y-82453001D01*
X136736153Y-82453001D01*
X136811000Y-82467889D01*
X136885847Y-82453001D01*
X138494474Y-82453001D01*
X138432673Y-82514802D01*
X138336000Y-82748191D01*
X138336000Y-83026250D01*
X138494750Y-83185000D01*
X139319000Y-83185000D01*
X139319000Y-83165000D01*
X139573000Y-83165000D01*
X139573000Y-83185000D01*
X140397250Y-83185000D01*
X140556000Y-83026250D01*
X140556000Y-82748191D01*
X140459327Y-82514802D01*
X140397526Y-82453001D01*
X141409288Y-82453001D01*
X141306524Y-82701110D01*
X141427845Y-82931000D01*
X142621000Y-82931000D01*
X142621000Y-82911000D01*
X142875000Y-82911000D01*
X142875000Y-82931000D01*
X142895000Y-82931000D01*
X142895000Y-83185000D01*
X142875000Y-83185000D01*
X142875000Y-83205000D01*
X142621000Y-83205000D01*
X142621000Y-83185000D01*
X141427845Y-83185000D01*
X141306524Y-83414890D01*
X141476355Y-83824924D01*
X141866642Y-84253183D01*
X141996478Y-84314157D01*
X141677375Y-84527375D01*
X141469822Y-84838000D01*
X140568440Y-84838000D01*
X140568440Y-84668250D01*
X140502505Y-84336773D01*
X140394057Y-84174469D01*
X140459327Y-84109198D01*
X140556000Y-83875809D01*
X140556000Y-83597750D01*
X140397250Y-83439000D01*
X139573000Y-83439000D01*
X139573000Y-83459000D01*
X139319000Y-83459000D01*
X139319000Y-83439000D01*
X138494750Y-83439000D01*
X138336000Y-83597750D01*
X138336000Y-83875809D01*
X138432673Y-84109198D01*
X138497943Y-84174469D01*
X138389495Y-84336773D01*
X138323560Y-84668250D01*
X138323560Y-85105750D01*
X138389495Y-85437227D01*
X138577261Y-85718239D01*
X138858273Y-85906005D01*
X139189750Y-85971940D01*
X139456138Y-85971940D01*
X139566671Y-86082473D01*
X139609071Y-86145929D01*
X139672527Y-86188329D01*
X139860462Y-86313904D01*
X139908605Y-86323480D01*
X140082148Y-86358000D01*
X140082152Y-86358000D01*
X140157000Y-86372888D01*
X140231848Y-86358000D01*
X141469822Y-86358000D01*
X141677375Y-86668625D01*
X141975761Y-86868000D01*
X141677375Y-87067375D01*
X141349161Y-87558582D01*
X141233908Y-88138000D01*
X141349161Y-88717418D01*
X141677375Y-89208625D01*
X141975761Y-89408000D01*
X141677375Y-89607375D01*
X141349161Y-90098582D01*
X141233908Y-90678000D01*
X141349161Y-91257418D01*
X141677375Y-91748625D01*
X142168582Y-92076839D01*
X142601744Y-92163000D01*
X142894256Y-92163000D01*
X143327418Y-92076839D01*
X143818625Y-91748625D01*
X144018000Y-91450239D01*
X144217375Y-91748625D01*
X144708582Y-92076839D01*
X145141744Y-92163000D01*
X145434256Y-92163000D01*
X145867418Y-92076839D01*
X146358625Y-91748625D01*
X146686839Y-91257418D01*
X146802092Y-90678000D01*
X146686839Y-90098582D01*
X146358625Y-89607375D01*
X146060239Y-89408000D01*
X146358625Y-89208625D01*
X146686839Y-88717418D01*
X146802092Y-88138000D01*
X146686839Y-87558582D01*
X146358625Y-87067375D01*
X146060239Y-86868000D01*
X146358625Y-86668625D01*
X146686839Y-86177418D01*
X146802092Y-85598000D01*
X146784662Y-85510373D01*
X146987720Y-85713431D01*
X147368126Y-85871000D01*
X147779874Y-85871000D01*
X148160280Y-85713431D01*
X148451431Y-85422280D01*
X148609000Y-85041874D01*
X148609000Y-84630126D01*
X148451431Y-84249720D01*
X148318314Y-84116603D01*
X148299480Y-84021920D01*
X148292325Y-83985946D01*
X148414280Y-83935431D01*
X148705431Y-83644280D01*
X148863000Y-83263874D01*
X148863000Y-82852126D01*
X148705431Y-82471720D01*
X148588000Y-82354289D01*
X148588000Y-81393846D01*
X148602888Y-81318998D01*
X148588000Y-81244150D01*
X148588000Y-81244146D01*
X148543904Y-81022461D01*
X148375929Y-80771069D01*
X148312473Y-80728669D01*
X146468295Y-78884492D01*
X146686839Y-78557418D01*
X146802092Y-77978000D01*
X146745442Y-77693200D01*
X146773989Y-77698878D01*
X146848836Y-77683990D01*
X147505060Y-77683990D01*
X147505060Y-77980250D01*
X147570995Y-78311727D01*
X147758761Y-78592739D01*
X148039773Y-78780505D01*
X148371250Y-78846440D01*
X148637639Y-78846440D01*
X150124267Y-80333069D01*
X149973429Y-80388947D01*
X149548503Y-80782807D01*
X149309524Y-81297110D01*
X149430845Y-81527000D01*
X150749000Y-81527000D01*
X150749000Y-81507000D01*
X151003000Y-81507000D01*
X151003000Y-81527000D01*
X152321155Y-81527000D01*
X152442476Y-81297110D01*
X152315571Y-81024000D01*
X156214493Y-81024000D01*
X156195660Y-81069466D01*
X156195660Y-81481214D01*
X156319440Y-81780045D01*
X156191000Y-82090126D01*
X156191000Y-82501874D01*
X156316144Y-82804000D01*
X156191000Y-83106126D01*
X156191000Y-83517874D01*
X156316144Y-83820000D01*
X156191000Y-84122126D01*
X156191000Y-84533874D01*
X156348569Y-84914280D01*
X156639720Y-85205431D01*
X157020126Y-85363000D01*
X157186199Y-85363000D01*
X157486001Y-85662803D01*
X157486000Y-88857435D01*
X157371000Y-88834560D01*
X157294413Y-88834560D01*
X157043037Y-88666596D01*
X156880155Y-88634197D01*
X156824739Y-88551261D01*
X156543727Y-88363495D01*
X156212250Y-88297560D01*
X155699750Y-88297560D01*
X155368273Y-88363495D01*
X155087261Y-88551261D01*
X155039661Y-88622500D01*
X152498440Y-88622500D01*
X152498440Y-88554000D01*
X152430126Y-88210565D01*
X152235586Y-87919414D01*
X152007844Y-87767242D01*
X152071625Y-87724625D01*
X152399839Y-87233418D01*
X152515092Y-86654000D01*
X152399839Y-86074582D01*
X152071625Y-85583375D01*
X151803171Y-85404000D01*
X152071625Y-85224625D01*
X152399839Y-84733418D01*
X152515092Y-84154000D01*
X152399839Y-83574582D01*
X152071625Y-83083375D01*
X151798313Y-82900754D01*
X152203497Y-82525193D01*
X152442476Y-82010890D01*
X152321155Y-81781000D01*
X151003000Y-81781000D01*
X151003000Y-81801000D01*
X150749000Y-81801000D01*
X150749000Y-81781000D01*
X149430845Y-81781000D01*
X149309524Y-82010890D01*
X149548503Y-82525193D01*
X149953687Y-82900754D01*
X149680375Y-83083375D01*
X149352161Y-83574582D01*
X149236908Y-84154000D01*
X149352161Y-84733418D01*
X149680375Y-85224625D01*
X149948829Y-85404000D01*
X149680375Y-85583375D01*
X149352161Y-86074582D01*
X149236908Y-86654000D01*
X149352161Y-87233418D01*
X149680375Y-87724625D01*
X149744156Y-87767242D01*
X149516414Y-87919414D01*
X149321874Y-88210565D01*
X149253560Y-88554000D01*
X149253560Y-89754000D01*
X149321874Y-90097435D01*
X149516414Y-90388586D01*
X149807565Y-90583126D01*
X150151000Y-90651440D01*
X151298638Y-90651440D01*
X151364161Y-90716963D01*
X151406561Y-90780419D01*
X151657953Y-90948394D01*
X151879638Y-90992490D01*
X151879642Y-90992490D01*
X151954489Y-91007378D01*
X152029336Y-90992490D01*
X152282854Y-90992490D01*
X152400285Y-91109921D01*
X152780691Y-91267490D01*
X153192439Y-91267490D01*
X153572845Y-91109921D01*
X153863996Y-90818770D01*
X154021565Y-90438364D01*
X154021565Y-90142500D01*
X154960475Y-90142500D01*
X154942673Y-90160302D01*
X154846000Y-90393691D01*
X154846000Y-90671750D01*
X155004750Y-90830500D01*
X155829000Y-90830500D01*
X155829000Y-90810500D01*
X156083000Y-90810500D01*
X156083000Y-90830500D01*
X156103000Y-90830500D01*
X156103000Y-91084500D01*
X156083000Y-91084500D01*
X156083000Y-91104500D01*
X155829000Y-91104500D01*
X155829000Y-91084500D01*
X155004750Y-91084500D01*
X154846000Y-91243250D01*
X154846000Y-91521309D01*
X154942673Y-91754698D01*
X155121301Y-91933327D01*
X155189339Y-91961509D01*
X155175000Y-91996126D01*
X155175000Y-92407874D01*
X155332569Y-92788280D01*
X155623720Y-93079431D01*
X156004126Y-93237000D01*
X156116406Y-93237000D01*
X156087000Y-93384836D01*
X156087001Y-95899420D01*
X149161847Y-102824575D01*
X149087951Y-102873951D01*
X148892348Y-103166691D01*
X148841000Y-103424836D01*
X148841000Y-103424839D01*
X148823663Y-103512000D01*
X148841000Y-103599161D01*
X148841001Y-105614344D01*
X148655375Y-105738375D01*
X148327161Y-106229582D01*
X148241000Y-106662744D01*
X148241000Y-107205255D01*
X148327161Y-107638417D01*
X148655375Y-108129625D01*
X149146582Y-108457839D01*
X149726000Y-108573092D01*
X150305417Y-108457839D01*
X150796625Y-108129625D01*
X150976000Y-107861171D01*
X151155375Y-108129625D01*
X151646582Y-108457839D01*
X152226000Y-108573092D01*
X152805417Y-108457839D01*
X153296625Y-108129625D01*
X153476000Y-107861171D01*
X153655375Y-108129625D01*
X154146582Y-108457839D01*
X154726000Y-108573092D01*
X155305417Y-108457839D01*
X155796625Y-108129625D01*
X155839242Y-108065844D01*
X155991414Y-108293586D01*
X156282565Y-108488126D01*
X156626000Y-108556440D01*
X157826000Y-108556440D01*
X158169435Y-108488126D01*
X158460586Y-108293586D01*
X158655126Y-108002435D01*
X158723440Y-107659000D01*
X158723440Y-106688138D01*
X159786528Y-105625050D01*
X162115000Y-105625050D01*
X162115000Y-106374950D01*
X162401974Y-107067767D01*
X162932233Y-107598026D01*
X163625050Y-107885000D01*
X164374950Y-107885000D01*
X165067767Y-107598026D01*
X165598026Y-107067767D01*
X165885000Y-106374950D01*
X165885000Y-105625050D01*
X165598026Y-104932233D01*
X165067767Y-104401974D01*
X164374950Y-104115000D01*
X163625050Y-104115000D01*
X162932233Y-104401974D01*
X162401974Y-104932233D01*
X162115000Y-105625050D01*
X159786528Y-105625050D01*
X160330156Y-105081423D01*
X160404049Y-105032049D01*
X160470745Y-104932233D01*
X160599651Y-104739311D01*
X160599652Y-104739310D01*
X160651000Y-104481165D01*
X160651000Y-104481161D01*
X160668337Y-104394001D01*
X160651000Y-104306841D01*
X160651000Y-93064835D01*
X160599652Y-92806690D01*
X160465542Y-92605982D01*
X160506000Y-92508309D01*
X160506000Y-92267750D01*
X160347250Y-92109000D01*
X160018440Y-92109000D01*
X160018440Y-91997892D01*
X160205699Y-91920327D01*
X160271026Y-91855000D01*
X160347250Y-91855000D01*
X160506000Y-91696250D01*
X160506000Y-91455691D01*
X160481000Y-91395336D01*
X160481000Y-91217750D01*
X160322250Y-91059000D01*
X160246026Y-91059000D01*
X160230699Y-91043673D01*
X159997310Y-90947000D01*
X159967250Y-90947000D01*
X159855250Y-91059000D01*
X159731245Y-91059000D01*
X159618765Y-90983843D01*
X159547397Y-90969647D01*
X159524750Y-90947000D01*
X159494690Y-90947000D01*
X159474852Y-90955217D01*
X159371000Y-90934560D01*
X159121000Y-90934560D01*
X158996000Y-90959424D01*
X158871000Y-90934560D01*
X158621000Y-90934560D01*
X158496000Y-90959424D01*
X158371000Y-90934560D01*
X158121000Y-90934560D01*
X157996000Y-90959424D01*
X157871000Y-90934560D01*
X157621000Y-90934560D01*
X157496000Y-90959424D01*
X157371000Y-90934560D01*
X157121000Y-90934560D01*
X157066000Y-90945500D01*
X157066000Y-90918500D01*
X157121000Y-90929440D01*
X157371000Y-90929440D01*
X157496000Y-90904576D01*
X157621000Y-90929440D01*
X157871000Y-90929440D01*
X157996000Y-90904576D01*
X158121000Y-90929440D01*
X158371000Y-90929440D01*
X158496000Y-90904576D01*
X158621000Y-90929440D01*
X158871000Y-90929440D01*
X158996000Y-90904576D01*
X159121000Y-90929440D01*
X159371000Y-90929440D01*
X159496000Y-90904576D01*
X159621000Y-90929440D01*
X159871000Y-90929440D01*
X160118765Y-90880157D01*
X160231245Y-90805000D01*
X160322250Y-90805000D01*
X160481000Y-90646250D01*
X160481000Y-90470226D01*
X160518440Y-90282000D01*
X160518440Y-89482000D01*
X160506000Y-89419459D01*
X160506000Y-87607927D01*
X160554235Y-87640157D01*
X160802000Y-87689440D01*
X163302000Y-87689440D01*
X163324000Y-87685064D01*
X163324000Y-87729660D01*
X163252761Y-87777261D01*
X163064995Y-88058273D01*
X162999060Y-88389750D01*
X162999060Y-88656138D01*
X162458025Y-89197174D01*
X162227720Y-89292569D01*
X161936569Y-89583720D01*
X161779000Y-89964126D01*
X161779000Y-90375874D01*
X161936569Y-90756280D01*
X162227720Y-91047431D01*
X162339476Y-91093722D01*
X162266198Y-91167000D01*
X162100126Y-91167000D01*
X161719720Y-91324569D01*
X161428569Y-91615720D01*
X161271000Y-91996126D01*
X161271000Y-92407874D01*
X161428569Y-92788280D01*
X161719720Y-93079431D01*
X162100126Y-93237000D01*
X162511874Y-93237000D01*
X162892280Y-93079431D01*
X163183431Y-92788280D01*
X163341000Y-92407874D01*
X163341000Y-92401775D01*
X163482773Y-92496505D01*
X163814250Y-92562440D01*
X164251750Y-92562440D01*
X164583227Y-92496505D01*
X164745531Y-92388057D01*
X164810802Y-92453327D01*
X165044191Y-92550000D01*
X165322250Y-92550000D01*
X165481000Y-92391250D01*
X165481000Y-91567000D01*
X165461000Y-91567000D01*
X165461000Y-91313000D01*
X165481000Y-91313000D01*
X165481000Y-90488750D01*
X165322250Y-90330000D01*
X165044191Y-90330000D01*
X164810802Y-90426673D01*
X164745531Y-90491943D01*
X164583227Y-90383495D01*
X164251750Y-90317560D01*
X163849000Y-90317560D01*
X163849000Y-89964126D01*
X163846562Y-89958240D01*
X164036362Y-89768440D01*
X164302750Y-89768440D01*
X164634227Y-89702505D01*
X164796531Y-89594057D01*
X164861802Y-89659327D01*
X165095191Y-89756000D01*
X165373250Y-89756000D01*
X165532000Y-89597250D01*
X165532000Y-88773000D01*
X165512000Y-88773000D01*
X165512000Y-88519000D01*
X165532000Y-88519000D01*
X165532000Y-87694750D01*
X165373250Y-87536000D01*
X165095191Y-87536000D01*
X164861802Y-87632673D01*
X164844000Y-87650475D01*
X164844000Y-85898848D01*
X164858888Y-85824000D01*
X164844000Y-85749152D01*
X164844000Y-85749148D01*
X164799904Y-85527463D01*
X164631929Y-85276071D01*
X164568472Y-85233671D01*
X164142331Y-84807530D01*
X164099929Y-84744071D01*
X163949440Y-84643517D01*
X163949440Y-83542000D01*
X163900157Y-83294235D01*
X163759809Y-83084191D01*
X163549765Y-82943843D01*
X163302000Y-82894560D01*
X161229362Y-82894560D01*
X159002000Y-80667199D01*
X159002000Y-80338851D01*
X159016889Y-80264000D01*
X159002000Y-80189148D01*
X159002000Y-79077750D01*
X160167000Y-79077750D01*
X160167000Y-80668309D01*
X160263673Y-80901698D01*
X160442301Y-81080327D01*
X160675690Y-81177000D01*
X161766250Y-81177000D01*
X161925000Y-81018250D01*
X161925000Y-78919000D01*
X162179000Y-78919000D01*
X162179000Y-81018250D01*
X162337750Y-81177000D01*
X163428310Y-81177000D01*
X163661699Y-81080327D01*
X163840327Y-80901698D01*
X163937000Y-80668309D01*
X163937000Y-79077750D01*
X163778250Y-78919000D01*
X162179000Y-78919000D01*
X161925000Y-78919000D01*
X160325750Y-78919000D01*
X160167000Y-79077750D01*
X159002000Y-79077750D01*
X159002000Y-76915691D01*
X160167000Y-76915691D01*
X160167000Y-78506250D01*
X160325750Y-78665000D01*
X161925000Y-78665000D01*
X161925000Y-76565750D01*
X162179000Y-76565750D01*
X162179000Y-78665000D01*
X163778250Y-78665000D01*
X163937000Y-78506250D01*
X163937000Y-76915691D01*
X163840327Y-76682302D01*
X163661699Y-76503673D01*
X163428310Y-76407000D01*
X162337750Y-76407000D01*
X162179000Y-76565750D01*
X161925000Y-76565750D01*
X161766250Y-76407000D01*
X160675690Y-76407000D01*
X160442301Y-76503673D01*
X160263673Y-76682302D01*
X160167000Y-76915691D01*
X159002000Y-76915691D01*
X159002000Y-76889300D01*
X159033337Y-76876320D01*
X159426320Y-76483337D01*
X159639000Y-75969881D01*
X159639000Y-75414119D01*
X159426320Y-74900663D01*
X159033337Y-74507680D01*
X159002000Y-74494700D01*
X159002000Y-74482801D01*
X162023800Y-71461002D01*
X162105844Y-71461002D01*
X161984524Y-71690890D01*
X161986447Y-71703260D01*
X162237336Y-72226045D01*
X162669188Y-72613024D01*
X163216258Y-72805284D01*
X163449000Y-72661231D01*
X163449000Y-71461000D01*
X163703000Y-71461000D01*
X163703000Y-72661231D01*
X163935742Y-72805284D01*
X164482812Y-72613024D01*
X164914664Y-72226045D01*
X165165553Y-71703260D01*
X165167476Y-71690890D01*
X165046155Y-71461000D01*
X163703000Y-71461000D01*
X163449000Y-71461000D01*
X163429000Y-71461000D01*
X163429000Y-71207000D01*
X163449000Y-71207000D01*
X163449000Y-71187000D01*
X163703000Y-71187000D01*
X163703000Y-71207000D01*
X165046155Y-71207000D01*
X165167476Y-70977110D01*
X165165553Y-70964740D01*
X164914664Y-70441955D01*
X164695593Y-70245648D01*
X164960586Y-70068586D01*
X165155126Y-69777435D01*
X165223440Y-69434000D01*
X165223440Y-68234000D01*
X165155126Y-67890565D01*
X164960586Y-67599414D01*
X164669435Y-67404874D01*
X164326000Y-67336560D01*
X162826000Y-67336560D01*
X162482565Y-67404874D01*
X162191414Y-67599414D01*
X161996874Y-67890565D01*
X161928560Y-68234000D01*
X161928560Y-69406638D01*
X157757530Y-73577669D01*
X157694071Y-73620071D01*
X157526096Y-73871464D01*
X157482000Y-74093149D01*
X157482000Y-74093153D01*
X157467112Y-74168000D01*
X157482000Y-74242847D01*
X157482000Y-74494700D01*
X157450663Y-74507680D01*
X157057680Y-74900663D01*
X156845000Y-75414119D01*
X156845000Y-75969881D01*
X157057680Y-76483337D01*
X157450663Y-76876320D01*
X157482001Y-76889301D01*
X157482000Y-79504000D01*
X157325031Y-79504000D01*
X157332440Y-79466750D01*
X157332440Y-79029250D01*
X157266505Y-78697773D01*
X157158057Y-78535469D01*
X157223327Y-78470198D01*
X157320000Y-78236809D01*
X157320000Y-77958750D01*
X157161250Y-77800000D01*
X156337000Y-77800000D01*
X156337000Y-77820000D01*
X156083000Y-77820000D01*
X156083000Y-77800000D01*
X155258750Y-77800000D01*
X155175250Y-77883500D01*
X155142750Y-77851000D01*
X154356000Y-77851000D01*
X154356000Y-77871000D01*
X154102000Y-77871000D01*
X154102000Y-77851000D01*
X154082000Y-77851000D01*
X154082000Y-77597000D01*
X154102000Y-77597000D01*
X154102000Y-76772750D01*
X154356000Y-76772750D01*
X154356000Y-77597000D01*
X155142750Y-77597000D01*
X155226250Y-77513500D01*
X155258750Y-77546000D01*
X156083000Y-77546000D01*
X156083000Y-76759250D01*
X156337000Y-76759250D01*
X156337000Y-77546000D01*
X157161250Y-77546000D01*
X157320000Y-77387250D01*
X157320000Y-77109191D01*
X157223327Y-76875802D01*
X157044699Y-76697173D01*
X156811310Y-76600500D01*
X156495750Y-76600500D01*
X156337000Y-76759250D01*
X156083000Y-76759250D01*
X155924250Y-76600500D01*
X155608690Y-76600500D01*
X155375301Y-76697173D01*
X155196673Y-76875802D01*
X155195107Y-76879582D01*
X155026198Y-76710673D01*
X154792809Y-76614000D01*
X154514750Y-76614000D01*
X154356000Y-76772750D01*
X154102000Y-76772750D01*
X153943250Y-76614000D01*
X153665191Y-76614000D01*
X153431802Y-76710673D01*
X153366531Y-76775943D01*
X153204227Y-76667495D01*
X152872750Y-76601560D01*
X152435250Y-76601560D01*
X152103773Y-76667495D01*
X151822761Y-76855261D01*
X151750104Y-76964000D01*
X151068896Y-76964000D01*
X150996239Y-76855261D01*
X150715227Y-76667495D01*
X150383750Y-76601560D01*
X150187168Y-76601560D01*
X150078215Y-76492607D01*
X150320397Y-76423143D01*
X150507144Y-75899698D01*
X150479362Y-75344632D01*
X150320397Y-74960857D01*
X150078213Y-74891392D01*
X149277605Y-75692000D01*
X149291748Y-75706143D01*
X149112143Y-75885748D01*
X149098000Y-75871605D01*
X149083858Y-75885748D01*
X148904253Y-75706143D01*
X148918395Y-75692000D01*
X148117787Y-74891392D01*
X147875603Y-74960857D01*
X147688856Y-75484302D01*
X147716638Y-76039368D01*
X147768258Y-76163990D01*
X147088792Y-76163990D01*
X146729209Y-75804408D01*
X146802092Y-75438000D01*
X146686839Y-74858582D01*
X146588754Y-74711787D01*
X148297392Y-74711787D01*
X149098000Y-75512395D01*
X149898608Y-74711787D01*
X149829143Y-74469603D01*
X149305698Y-74282856D01*
X148750632Y-74310638D01*
X148366857Y-74469603D01*
X148297392Y-74711787D01*
X146588754Y-74711787D01*
X146358625Y-74367375D01*
X146060239Y-74168000D01*
X146358625Y-73968625D01*
X146686839Y-73477418D01*
X146802092Y-72898000D01*
X146686839Y-72318582D01*
X146358625Y-71827375D01*
X146060239Y-71628000D01*
X146358625Y-71428625D01*
X146686839Y-70937418D01*
X146802092Y-70358000D01*
X146686839Y-69778582D01*
X146358625Y-69287375D01*
X146039522Y-69074157D01*
X146169358Y-69013183D01*
X146559645Y-68584924D01*
X146729476Y-68174890D01*
X146608155Y-67945000D01*
X145415000Y-67945000D01*
X145415000Y-67965000D01*
X145161000Y-67965000D01*
X145161000Y-67945000D01*
X145141000Y-67945000D01*
X145141000Y-67691000D01*
X145161000Y-67691000D01*
X145161000Y-66497181D01*
X145415000Y-66497181D01*
X145415000Y-67691000D01*
X146608155Y-67691000D01*
X146729476Y-67461110D01*
X146559645Y-67051076D01*
X146169358Y-66622817D01*
X145644892Y-66376514D01*
X145415000Y-66497181D01*
X145161000Y-66497181D01*
X144931108Y-66376514D01*
X144406642Y-66622817D01*
X144019353Y-67047786D01*
X143818625Y-66747375D01*
X143364118Y-66443683D01*
X144484150Y-65323652D01*
X144789750Y-65384440D01*
X145227250Y-65384440D01*
X145558727Y-65318505D01*
X145721031Y-65210057D01*
X145786302Y-65275327D01*
X146019691Y-65372000D01*
X146297750Y-65372000D01*
X146456500Y-65213250D01*
X146456500Y-64389000D01*
X146710500Y-64389000D01*
X146710500Y-65213250D01*
X146869250Y-65372000D01*
X147147309Y-65372000D01*
X147380698Y-65275327D01*
X147559327Y-65096699D01*
X147656000Y-64863310D01*
X147656000Y-64547750D01*
X147497250Y-64389000D01*
X146710500Y-64389000D01*
X146456500Y-64389000D01*
X146436500Y-64389000D01*
X146436500Y-64135000D01*
X146456500Y-64135000D01*
X146456500Y-63310750D01*
X146710500Y-63310750D01*
X146710500Y-64135000D01*
X147497250Y-64135000D01*
X147656000Y-63976250D01*
X147656000Y-63660690D01*
X147559327Y-63427301D01*
X147380698Y-63248673D01*
X147147309Y-63152000D01*
X146869250Y-63152000D01*
X146710500Y-63310750D01*
X146456500Y-63310750D01*
X146297750Y-63152000D01*
X146019691Y-63152000D01*
X145786302Y-63248673D01*
X145721031Y-63313943D01*
X145558727Y-63205495D01*
X145227250Y-63139560D01*
X144789750Y-63139560D01*
X144458273Y-63205495D01*
X144177261Y-63393261D01*
X143995030Y-63665990D01*
X143923071Y-63714071D01*
X143880671Y-63777527D01*
X137665520Y-69992679D01*
X137602061Y-70035081D01*
X137434086Y-70286474D01*
X137389990Y-70508159D01*
X137389990Y-70508163D01*
X137375102Y-70583010D01*
X137389990Y-70657857D01*
X137389991Y-73838638D01*
X137375102Y-73913490D01*
X137375601Y-73916000D01*
X131138846Y-73916000D01*
X131063999Y-73901112D01*
X130989152Y-73916000D01*
X130989148Y-73916000D01*
X130767463Y-73960096D01*
X130733879Y-73982536D01*
X130579526Y-74085671D01*
X130579524Y-74085673D01*
X130516071Y-74128071D01*
X130473673Y-74191524D01*
X129500198Y-75165000D01*
X129334126Y-75165000D01*
X128953720Y-75322569D01*
X128662569Y-75613720D01*
X128505000Y-75994126D01*
X128270754Y-75994126D01*
X128315000Y-75887309D01*
X128315000Y-75857250D01*
X128156250Y-75698500D01*
X128140525Y-75698500D01*
X128218327Y-75620698D01*
X128295596Y-75434154D01*
X128315000Y-75414750D01*
X128315000Y-75357250D01*
X128295596Y-75337846D01*
X128218327Y-75151302D01*
X128203025Y-75136000D01*
X128218327Y-75120698D01*
X128295596Y-74934154D01*
X128315000Y-74914750D01*
X128315000Y-74857250D01*
X128295596Y-74837846D01*
X128218327Y-74651302D01*
X128197100Y-74630075D01*
X128278157Y-74508765D01*
X128292353Y-74437397D01*
X128315000Y-74414750D01*
X128315000Y-74384691D01*
X128306783Y-74364853D01*
X128327440Y-74261000D01*
X128327440Y-74011000D01*
X128291814Y-73831897D01*
X128302425Y-73821286D01*
X128572126Y-73933000D01*
X128983874Y-73933000D01*
X129364280Y-73775431D01*
X129655431Y-73484280D01*
X129813000Y-73103874D01*
X129813000Y-72692126D01*
X129804881Y-72672524D01*
X129880198Y-72641327D01*
X130058827Y-72462699D01*
X130155500Y-72229310D01*
X130155500Y-71913750D01*
X129996750Y-71755000D01*
X129210000Y-71755000D01*
X129210000Y-71775000D01*
X128956000Y-71775000D01*
X128956000Y-71755000D01*
X128936000Y-71755000D01*
X128936000Y-71501000D01*
X128956000Y-71501000D01*
X128956000Y-70676750D01*
X129210000Y-70676750D01*
X129210000Y-71501000D01*
X129996750Y-71501000D01*
X130155500Y-71342250D01*
X130155500Y-71026690D01*
X130058827Y-70793301D01*
X129880198Y-70614673D01*
X129646809Y-70518000D01*
X129368750Y-70518000D01*
X129210000Y-70676750D01*
X128956000Y-70676750D01*
X128797250Y-70518000D01*
X128519191Y-70518000D01*
X128285802Y-70614673D01*
X128220531Y-70679943D01*
X128058227Y-70571495D01*
X128033852Y-70566646D01*
X128035000Y-70563874D01*
X128035000Y-70152126D01*
X127877431Y-69771720D01*
X127586280Y-69480569D01*
X127205874Y-69323000D01*
X126794126Y-69323000D01*
X126413720Y-69480569D01*
X126122569Y-69771720D01*
X125965000Y-70152126D01*
X125965000Y-70563874D01*
X125981366Y-70603384D01*
X125908000Y-70676750D01*
X125908000Y-71501000D01*
X125928000Y-71501000D01*
X125928000Y-71755000D01*
X125908000Y-71755000D01*
X125908000Y-71775000D01*
X125654000Y-71775000D01*
X125654000Y-71755000D01*
X125634000Y-71755000D01*
X125634000Y-71501000D01*
X125654000Y-71501000D01*
X125654000Y-70676750D01*
X125495250Y-70518000D01*
X125217191Y-70518000D01*
X124983802Y-70614673D01*
X124918531Y-70679943D01*
X124756227Y-70571495D01*
X124424750Y-70505560D01*
X123987250Y-70505560D01*
X123655773Y-70571495D01*
X123374761Y-70759261D01*
X123186995Y-71040273D01*
X123121060Y-71371750D01*
X123121060Y-71884250D01*
X123186995Y-72215727D01*
X123374761Y-72496739D01*
X123520001Y-72593785D01*
X123520000Y-73376000D01*
X123008211Y-73376000D01*
X122684250Y-73311560D01*
X122171750Y-73311560D01*
X121840273Y-73377495D01*
X121559261Y-73565261D01*
X121371495Y-73846273D01*
X121305560Y-74177750D01*
X121305560Y-74615250D01*
X121371495Y-74946727D01*
X121530036Y-75184000D01*
X121392509Y-75389823D01*
X121286839Y-74858582D01*
X120958625Y-74367375D01*
X120660239Y-74168000D01*
X120958625Y-73968625D01*
X121286839Y-73477418D01*
X121402092Y-72898000D01*
X121286839Y-72318582D01*
X120958625Y-71827375D01*
X120660239Y-71628000D01*
X120958625Y-71428625D01*
X121286839Y-70937418D01*
X121402092Y-70358000D01*
X121286839Y-69778582D01*
X120958625Y-69287375D01*
X120660239Y-69088000D01*
X120958625Y-68888625D01*
X121286839Y-68397418D01*
X121402092Y-67818000D01*
X121286839Y-67238582D01*
X120958625Y-66747375D01*
X120467418Y-66419161D01*
X120034256Y-66333000D01*
X119741744Y-66333000D01*
X119308582Y-66419161D01*
X118817375Y-66747375D01*
X118802904Y-66769032D01*
X118736327Y-66608301D01*
X118557698Y-66429673D01*
X118324309Y-66333000D01*
X117633750Y-66333000D01*
X117475000Y-66491750D01*
X117475000Y-67691000D01*
X117495000Y-67691000D01*
X117495000Y-67945000D01*
X117475000Y-67945000D01*
X117475000Y-67965000D01*
X117221000Y-67965000D01*
X117221000Y-67945000D01*
X117201000Y-67945000D01*
X117201000Y-67691000D01*
X117221000Y-67691000D01*
X117221000Y-66491750D01*
X117062250Y-66333000D01*
X116371691Y-66333000D01*
X116138302Y-66429673D01*
X115959673Y-66608301D01*
X115910000Y-66728222D01*
X115910000Y-54625050D01*
X116615000Y-54625050D01*
X116615000Y-55374950D01*
X116901974Y-56067767D01*
X117432233Y-56598026D01*
X118125050Y-56885000D01*
X118874950Y-56885000D01*
X119567767Y-56598026D01*
X120098026Y-56067767D01*
X120385000Y-55374950D01*
X120385000Y-54625050D01*
X120098026Y-53932233D01*
X119796793Y-53631000D01*
X123216560Y-53631000D01*
X123216560Y-55081000D01*
X123284874Y-55424435D01*
X123479414Y-55715586D01*
X123770565Y-55910126D01*
X124114000Y-55978440D01*
X125314000Y-55978440D01*
X125657435Y-55910126D01*
X125948586Y-55715586D01*
X126100758Y-55487844D01*
X126143375Y-55551625D01*
X126454000Y-55759178D01*
X126454001Y-67289197D01*
X126452198Y-67291000D01*
X126286126Y-67291000D01*
X125905720Y-67448569D01*
X125614569Y-67739720D01*
X125457000Y-68120126D01*
X125457000Y-68531874D01*
X125614569Y-68912280D01*
X125905720Y-69203431D01*
X126286126Y-69361000D01*
X126697874Y-69361000D01*
X127078280Y-69203431D01*
X127369431Y-68912280D01*
X127527000Y-68531874D01*
X127527000Y-68365802D01*
X127698473Y-68194329D01*
X127761929Y-68151929D01*
X127929904Y-67900537D01*
X127974000Y-67678852D01*
X127974000Y-67678848D01*
X127988888Y-67604001D01*
X127974000Y-67529154D01*
X127974000Y-67104126D01*
X136379000Y-67104126D01*
X136379000Y-67515874D01*
X136536569Y-67896280D01*
X136827720Y-68187431D01*
X137208126Y-68345000D01*
X137619874Y-68345000D01*
X138000280Y-68187431D01*
X138291431Y-67896280D01*
X138386826Y-67665975D01*
X140755802Y-65297000D01*
X140921874Y-65297000D01*
X141302280Y-65139431D01*
X141593431Y-64848280D01*
X141751000Y-64467874D01*
X141751000Y-64056126D01*
X141593431Y-63675720D01*
X141302280Y-63384569D01*
X140921874Y-63227000D01*
X140510126Y-63227000D01*
X140129720Y-63384569D01*
X139838569Y-63675720D01*
X139681000Y-64056126D01*
X139681000Y-64222198D01*
X137625761Y-66277438D01*
X137619874Y-66275000D01*
X137208126Y-66275000D01*
X136827720Y-66432569D01*
X136536569Y-66723720D01*
X136379000Y-67104126D01*
X127974000Y-67104126D01*
X127974000Y-61432213D01*
X148297392Y-61432213D01*
X148366857Y-61674397D01*
X148890302Y-61861144D01*
X149445368Y-61833362D01*
X149829143Y-61674397D01*
X149898608Y-61432213D01*
X149098000Y-60631605D01*
X148297392Y-61432213D01*
X127974000Y-61432213D01*
X127974000Y-60244302D01*
X147688856Y-60244302D01*
X147716638Y-60799368D01*
X147875603Y-61183143D01*
X148117787Y-61252608D01*
X148918395Y-60452000D01*
X149277605Y-60452000D01*
X150078213Y-61252608D01*
X150320397Y-61183143D01*
X150507144Y-60659698D01*
X150482840Y-60174119D01*
X156845000Y-60174119D01*
X156845000Y-60729881D01*
X157057680Y-61243337D01*
X157450663Y-61636320D01*
X157964119Y-61849000D01*
X158519881Y-61849000D01*
X159033337Y-61636320D01*
X159426320Y-61243337D01*
X159639000Y-60729881D01*
X159639000Y-60174119D01*
X159426320Y-59660663D01*
X159033337Y-59267680D01*
X158519881Y-59055000D01*
X157964119Y-59055000D01*
X157450663Y-59267680D01*
X157057680Y-59660663D01*
X156845000Y-60174119D01*
X150482840Y-60174119D01*
X150479362Y-60104632D01*
X150320397Y-59720857D01*
X150078213Y-59651392D01*
X149277605Y-60452000D01*
X148918395Y-60452000D01*
X148117787Y-59651392D01*
X147875603Y-59720857D01*
X147688856Y-60244302D01*
X127974000Y-60244302D01*
X127974000Y-59471787D01*
X148297392Y-59471787D01*
X149098000Y-60272395D01*
X149898608Y-59471787D01*
X149829143Y-59229603D01*
X149305698Y-59042856D01*
X148750632Y-59070638D01*
X148366857Y-59229603D01*
X148297392Y-59471787D01*
X127974000Y-59471787D01*
X127974000Y-55759178D01*
X128284625Y-55551625D01*
X128464000Y-55283171D01*
X128643375Y-55551625D01*
X129134583Y-55879839D01*
X129714000Y-55995092D01*
X130293418Y-55879839D01*
X130784625Y-55551625D01*
X130964000Y-55283171D01*
X131143375Y-55551625D01*
X131634583Y-55879839D01*
X132214000Y-55995092D01*
X132793418Y-55879839D01*
X133284625Y-55551625D01*
X133464000Y-55283171D01*
X133643375Y-55551625D01*
X134134583Y-55879839D01*
X134714000Y-55995092D01*
X135293418Y-55879839D01*
X135784625Y-55551625D01*
X135964000Y-55283171D01*
X136143375Y-55551625D01*
X136634583Y-55879839D01*
X137214000Y-55995092D01*
X137793418Y-55879839D01*
X138284625Y-55551625D01*
X138467246Y-55278313D01*
X138842807Y-55683497D01*
X139357110Y-55922476D01*
X139587000Y-55801155D01*
X139587000Y-54483000D01*
X139841000Y-54483000D01*
X139841000Y-55801155D01*
X140070890Y-55922476D01*
X140585193Y-55683497D01*
X140979053Y-55258571D01*
X141180320Y-54715267D01*
X141125882Y-54625050D01*
X162115000Y-54625050D01*
X162115000Y-55374950D01*
X162401974Y-56067767D01*
X162932233Y-56598026D01*
X163625050Y-56885000D01*
X164374950Y-56885000D01*
X165067767Y-56598026D01*
X165598026Y-56067767D01*
X165885000Y-55374950D01*
X165885000Y-54625050D01*
X165598026Y-53932233D01*
X165067767Y-53401974D01*
X164374950Y-53115000D01*
X163625050Y-53115000D01*
X162932233Y-53401974D01*
X162401974Y-53932233D01*
X162115000Y-54625050D01*
X141125882Y-54625050D01*
X141040165Y-54483000D01*
X139841000Y-54483000D01*
X139587000Y-54483000D01*
X139567000Y-54483000D01*
X139567000Y-54229000D01*
X139587000Y-54229000D01*
X139587000Y-52910845D01*
X139841000Y-52910845D01*
X139841000Y-54229000D01*
X141040165Y-54229000D01*
X141180320Y-53996733D01*
X140979053Y-53453429D01*
X140585193Y-53028503D01*
X140070890Y-52789524D01*
X139841000Y-52910845D01*
X139587000Y-52910845D01*
X139357110Y-52789524D01*
X138842807Y-53028503D01*
X138467246Y-53433687D01*
X138284625Y-53160375D01*
X137793417Y-52832161D01*
X137214000Y-52716908D01*
X136634582Y-52832161D01*
X136143375Y-53160375D01*
X135964000Y-53428829D01*
X135784625Y-53160375D01*
X135293417Y-52832161D01*
X134714000Y-52716908D01*
X134134582Y-52832161D01*
X133643375Y-53160375D01*
X133464000Y-53428829D01*
X133284625Y-53160375D01*
X132793417Y-52832161D01*
X132214000Y-52716908D01*
X131634582Y-52832161D01*
X131143375Y-53160375D01*
X130964000Y-53428829D01*
X130784625Y-53160375D01*
X130293417Y-52832161D01*
X129714000Y-52716908D01*
X129134582Y-52832161D01*
X128643375Y-53160375D01*
X128464000Y-53428829D01*
X128284625Y-53160375D01*
X127793417Y-52832161D01*
X127214000Y-52716908D01*
X126634582Y-52832161D01*
X126143375Y-53160375D01*
X126100758Y-53224156D01*
X125948586Y-52996414D01*
X125657435Y-52801874D01*
X125314000Y-52733560D01*
X124114000Y-52733560D01*
X123770565Y-52801874D01*
X123479414Y-52996414D01*
X123284874Y-53287565D01*
X123216560Y-53631000D01*
X119796793Y-53631000D01*
X119567767Y-53401974D01*
X118874950Y-53115000D01*
X118125050Y-53115000D01*
X117432233Y-53401974D01*
X116901974Y-53932233D01*
X116615000Y-54625050D01*
X115910000Y-54625050D01*
X115910000Y-52210000D01*
X166290001Y-52210000D01*
X166290000Y-87563832D01*
X166290000Y-87563832D01*
G37*
X166290000Y-87563832D02*
X166222809Y-87536000D01*
X165944750Y-87536000D01*
X165786000Y-87694750D01*
X165786000Y-88519000D01*
X165806000Y-88519000D01*
X165806000Y-88773000D01*
X165786000Y-88773000D01*
X165786000Y-89597250D01*
X165944750Y-89756000D01*
X166222809Y-89756000D01*
X166290000Y-89728168D01*
X166290000Y-90378957D01*
X166171809Y-90330000D01*
X165893750Y-90330000D01*
X165735000Y-90488750D01*
X165735000Y-91313000D01*
X165755000Y-91313000D01*
X165755000Y-91567000D01*
X165735000Y-91567000D01*
X165735000Y-92391250D01*
X165893750Y-92550000D01*
X166171809Y-92550000D01*
X166290000Y-92501044D01*
X166290000Y-109290000D01*
X115910000Y-109290000D01*
X115910000Y-105625050D01*
X116615000Y-105625050D01*
X116615000Y-106374950D01*
X116901974Y-107067767D01*
X117432233Y-107598026D01*
X118125050Y-107885000D01*
X118874950Y-107885000D01*
X119567767Y-107598026D01*
X119872526Y-107293267D01*
X123073680Y-107293267D01*
X123274947Y-107836571D01*
X123668807Y-108261497D01*
X124183110Y-108500476D01*
X124413000Y-108379155D01*
X124413000Y-107061000D01*
X123213835Y-107061000D01*
X123073680Y-107293267D01*
X119872526Y-107293267D01*
X120098026Y-107067767D01*
X120302247Y-106574733D01*
X123073680Y-106574733D01*
X123213835Y-106807000D01*
X124413000Y-106807000D01*
X124413000Y-105488845D01*
X124667000Y-105488845D01*
X124667000Y-106807000D01*
X124687000Y-106807000D01*
X124687000Y-107061000D01*
X124667000Y-107061000D01*
X124667000Y-108379155D01*
X124896890Y-108500476D01*
X125411193Y-108261497D01*
X125786754Y-107856313D01*
X125969375Y-108129625D01*
X126460582Y-108457839D01*
X127040000Y-108573092D01*
X127619417Y-108457839D01*
X128110625Y-108129625D01*
X128153242Y-108065844D01*
X128305414Y-108293586D01*
X128596565Y-108488126D01*
X128940000Y-108556440D01*
X130140000Y-108556440D01*
X130483435Y-108488126D01*
X130774586Y-108293586D01*
X130969126Y-108002435D01*
X131037440Y-107659000D01*
X131037440Y-107293267D01*
X134289680Y-107293267D01*
X134490947Y-107836571D01*
X134884807Y-108261497D01*
X135399110Y-108500476D01*
X135629000Y-108379155D01*
X135629000Y-107061000D01*
X134429835Y-107061000D01*
X134289680Y-107293267D01*
X131037440Y-107293267D01*
X131037440Y-106574733D01*
X134289680Y-106574733D01*
X134429835Y-106807000D01*
X135629000Y-106807000D01*
X135629000Y-105488845D01*
X135883000Y-105488845D01*
X135883000Y-106807000D01*
X135903000Y-106807000D01*
X135903000Y-107061000D01*
X135883000Y-107061000D01*
X135883000Y-108379155D01*
X136112890Y-108500476D01*
X136627193Y-108261497D01*
X137002754Y-107856313D01*
X137185375Y-108129625D01*
X137676582Y-108457839D01*
X138256000Y-108573092D01*
X138835417Y-108457839D01*
X139326625Y-108129625D01*
X139506000Y-107861171D01*
X139685375Y-108129625D01*
X140176582Y-108457839D01*
X140756000Y-108573092D01*
X141335417Y-108457839D01*
X141826625Y-108129625D01*
X141869242Y-108065844D01*
X142021414Y-108293586D01*
X142312565Y-108488126D01*
X142656000Y-108556440D01*
X143856000Y-108556440D01*
X144199435Y-108488126D01*
X144490586Y-108293586D01*
X144685126Y-108002435D01*
X144753440Y-107659000D01*
X144753440Y-106209000D01*
X144685126Y-105865565D01*
X144490586Y-105574414D01*
X144199435Y-105379874D01*
X143856000Y-105311560D01*
X142708362Y-105311560D01*
X141527000Y-104130199D01*
X141527000Y-102262339D01*
X141598239Y-102214739D01*
X141786005Y-101933727D01*
X141851940Y-101602250D01*
X141851940Y-101089750D01*
X141786005Y-100758273D01*
X141598239Y-100477261D01*
X141317227Y-100289495D01*
X140985750Y-100223560D01*
X140548250Y-100223560D01*
X140216773Y-100289495D01*
X140054469Y-100397943D01*
X139989198Y-100332673D01*
X139755809Y-100236000D01*
X139477750Y-100236000D01*
X139319000Y-100394750D01*
X139319000Y-101219000D01*
X139339000Y-101219000D01*
X139339000Y-101473000D01*
X139319000Y-101473000D01*
X139319000Y-102297250D01*
X139477750Y-102456000D01*
X139755809Y-102456000D01*
X139989198Y-102359327D01*
X140007000Y-102341525D01*
X140007001Y-104370148D01*
X139992112Y-104445000D01*
X140007001Y-104519852D01*
X140051097Y-104741537D01*
X140219072Y-104992929D01*
X140282528Y-105035329D01*
X140577594Y-105330395D01*
X140176583Y-105410161D01*
X139685375Y-105738375D01*
X139506000Y-106006829D01*
X139326625Y-105738375D01*
X138835418Y-105410161D01*
X138256000Y-105294908D01*
X137676583Y-105410161D01*
X137185375Y-105738375D01*
X137002754Y-106011687D01*
X136627193Y-105606503D01*
X136112890Y-105367524D01*
X135883000Y-105488845D01*
X135629000Y-105488845D01*
X135399110Y-105367524D01*
X134884807Y-105606503D01*
X134490947Y-106031429D01*
X134289680Y-106574733D01*
X131037440Y-106574733D01*
X131037440Y-106209000D01*
X130969126Y-105865565D01*
X130774586Y-105574414D01*
X130483435Y-105379874D01*
X130140000Y-105311560D01*
X128940000Y-105311560D01*
X128596565Y-105379874D01*
X128305414Y-105574414D01*
X128153242Y-105802156D01*
X128110625Y-105738375D01*
X128014000Y-105673812D01*
X128014000Y-101631750D01*
X138119500Y-101631750D01*
X138119500Y-101947310D01*
X138216173Y-102180699D01*
X138394802Y-102359327D01*
X138628191Y-102456000D01*
X138906250Y-102456000D01*
X139065000Y-102297250D01*
X139065000Y-101473000D01*
X138278250Y-101473000D01*
X138119500Y-101631750D01*
X128014000Y-101631750D01*
X128014000Y-100744690D01*
X138119500Y-100744690D01*
X138119500Y-101060250D01*
X138278250Y-101219000D01*
X139065000Y-101219000D01*
X139065000Y-100394750D01*
X138906250Y-100236000D01*
X138628191Y-100236000D01*
X138394802Y-100332673D01*
X138216173Y-100511301D01*
X138119500Y-100744690D01*
X128014000Y-100744690D01*
X128014000Y-92648896D01*
X128122739Y-92576239D01*
X128310505Y-92295227D01*
X128376440Y-91963750D01*
X128376440Y-91526250D01*
X128310505Y-91194773D01*
X128151964Y-90957500D01*
X128170339Y-90930000D01*
X129211153Y-90930000D01*
X129286000Y-90944888D01*
X129360847Y-90930000D01*
X129360852Y-90930000D01*
X129582537Y-90885904D01*
X129833929Y-90717929D01*
X129876331Y-90654470D01*
X132823000Y-87707802D01*
X132823000Y-87835874D01*
X132980569Y-88216280D01*
X133271720Y-88507431D01*
X133652126Y-88665000D01*
X133818199Y-88665000D01*
X139871673Y-94718476D01*
X139914071Y-94781929D01*
X139977524Y-94824327D01*
X139977526Y-94824329D01*
X140102902Y-94908102D01*
X140165463Y-94949904D01*
X140387148Y-94994000D01*
X140387152Y-94994000D01*
X140461999Y-95008888D01*
X140536846Y-94994000D01*
X146870289Y-94994000D01*
X146987720Y-95111431D01*
X147368126Y-95269000D01*
X147779874Y-95269000D01*
X148160280Y-95111431D01*
X148451431Y-94820280D01*
X148609000Y-94439874D01*
X148609000Y-94028126D01*
X148451431Y-93647720D01*
X148160280Y-93356569D01*
X147779874Y-93199000D01*
X147368126Y-93199000D01*
X146987720Y-93356569D01*
X146870289Y-93474000D01*
X140776803Y-93474000D01*
X134893000Y-87590199D01*
X134893000Y-87424126D01*
X134735431Y-87043720D01*
X134444280Y-86752569D01*
X134063874Y-86595000D01*
X133935802Y-86595000D01*
X134913803Y-85617000D01*
X135079874Y-85617000D01*
X135460280Y-85459431D01*
X135751431Y-85168280D01*
X135909000Y-84787874D01*
X135909000Y-84376126D01*
X135751431Y-83995720D01*
X135460280Y-83704569D01*
X135079874Y-83547000D01*
X134668126Y-83547000D01*
X134287720Y-83704569D01*
X133996569Y-83995720D01*
X133839000Y-84376126D01*
X133839000Y-84542197D01*
X128971199Y-89410000D01*
X128170339Y-89410000D01*
X128122739Y-89338761D01*
X127841727Y-89150995D01*
X127510250Y-89085060D01*
X126997750Y-89085060D01*
X126666273Y-89150995D01*
X126385261Y-89338761D01*
X126197495Y-89619773D01*
X126131560Y-89951250D01*
X126131560Y-90388750D01*
X126197495Y-90720227D01*
X126356036Y-90957500D01*
X126197495Y-91194773D01*
X126131560Y-91526250D01*
X126131560Y-91963750D01*
X126197495Y-92295227D01*
X126385261Y-92576239D01*
X126494000Y-92648896D01*
X126494001Y-105403514D01*
X126460583Y-105410161D01*
X125969375Y-105738375D01*
X125786754Y-106011687D01*
X125411193Y-105606503D01*
X124896890Y-105367524D01*
X124667000Y-105488845D01*
X124413000Y-105488845D01*
X124183110Y-105367524D01*
X123668807Y-105606503D01*
X123274947Y-106031429D01*
X123073680Y-106574733D01*
X120302247Y-106574733D01*
X120385000Y-106374950D01*
X120385000Y-105625050D01*
X120098026Y-104932233D01*
X119567767Y-104401974D01*
X118874950Y-104115000D01*
X118125050Y-104115000D01*
X117432233Y-104401974D01*
X116901974Y-104932233D01*
X116615000Y-105625050D01*
X115910000Y-105625050D01*
X115910000Y-91060542D01*
X115949161Y-91257418D01*
X116277375Y-91748625D01*
X116768582Y-92076839D01*
X117201744Y-92163000D01*
X117494256Y-92163000D01*
X117927418Y-92076839D01*
X118418625Y-91748625D01*
X118618000Y-91450239D01*
X118817375Y-91748625D01*
X119308582Y-92076839D01*
X119741744Y-92163000D01*
X120034256Y-92163000D01*
X120467418Y-92076839D01*
X120958625Y-91748625D01*
X121286839Y-91257418D01*
X121402092Y-90678000D01*
X121286839Y-90098582D01*
X120958625Y-89607375D01*
X120660239Y-89408000D01*
X120958625Y-89208625D01*
X121286839Y-88717418D01*
X121402092Y-88138000D01*
X121286839Y-87558582D01*
X120958625Y-87067375D01*
X120660239Y-86868000D01*
X120958625Y-86668625D01*
X121286839Y-86177418D01*
X121402092Y-85598000D01*
X121286839Y-85018582D01*
X120958625Y-84527375D01*
X120660239Y-84328000D01*
X120958625Y-84128625D01*
X121286839Y-83637418D01*
X121402092Y-83058000D01*
X121286839Y-82478582D01*
X120958625Y-81987375D01*
X120660239Y-81788000D01*
X120958625Y-81588625D01*
X121286839Y-81097418D01*
X121402092Y-80518000D01*
X121334544Y-80178414D01*
X121391859Y-80167013D01*
X125935555Y-80167013D01*
X126010402Y-80181901D01*
X126085249Y-80167013D01*
X126085254Y-80167013D01*
X126306939Y-80122917D01*
X126558331Y-79954942D01*
X126600733Y-79891483D01*
X127135486Y-79356731D01*
X127198942Y-79314331D01*
X127243264Y-79247999D01*
X127366917Y-79062940D01*
X127395548Y-78919000D01*
X127411013Y-78841254D01*
X127411013Y-78841250D01*
X127425901Y-78766402D01*
X127411013Y-78691554D01*
X127411013Y-77331859D01*
X127425901Y-77257012D01*
X127411013Y-77182165D01*
X127411013Y-77182161D01*
X127366917Y-76960476D01*
X127198942Y-76709084D01*
X127135486Y-76666684D01*
X127002440Y-76533638D01*
X127002440Y-76287810D01*
X127053000Y-76237250D01*
X127053000Y-75511000D01*
X127307000Y-75511000D01*
X127307000Y-76237250D01*
X127465750Y-76396000D01*
X127806310Y-76396000D01*
X128039699Y-76299327D01*
X128218327Y-76120698D01*
X128270754Y-75994126D01*
X128505000Y-75994126D01*
X128505000Y-76405874D01*
X128662569Y-76786280D01*
X128953720Y-77077431D01*
X129334126Y-77235000D01*
X129745874Y-77235000D01*
X130126280Y-77077431D01*
X130417431Y-76786280D01*
X130575000Y-76405874D01*
X130575000Y-76239802D01*
X131378803Y-75436000D01*
X133920289Y-75436000D01*
X133742569Y-75613720D01*
X133585000Y-75994126D01*
X133585000Y-76405874D01*
X133742569Y-76786280D01*
X133860001Y-76903712D01*
X133860000Y-79427153D01*
X133845112Y-79502000D01*
X133860000Y-79576847D01*
X133860000Y-79576851D01*
X133904096Y-79798536D01*
X134072071Y-80049929D01*
X134135530Y-80092331D01*
X136220674Y-82177477D01*
X136263072Y-82240930D01*
X136326525Y-82283328D01*
X136326527Y-82283330D01*
X136366951Y-82310340D01*
X136514464Y-82408905D01*
X136736149Y-82453001D01*
X136736153Y-82453001D01*
X136811000Y-82467889D01*
X136885847Y-82453001D01*
X138494474Y-82453001D01*
X138432673Y-82514802D01*
X138336000Y-82748191D01*
X138336000Y-83026250D01*
X138494750Y-83185000D01*
X139319000Y-83185000D01*
X139319000Y-83165000D01*
X139573000Y-83165000D01*
X139573000Y-83185000D01*
X140397250Y-83185000D01*
X140556000Y-83026250D01*
X140556000Y-82748191D01*
X140459327Y-82514802D01*
X140397526Y-82453001D01*
X141409288Y-82453001D01*
X141306524Y-82701110D01*
X141427845Y-82931000D01*
X142621000Y-82931000D01*
X142621000Y-82911000D01*
X142875000Y-82911000D01*
X142875000Y-82931000D01*
X142895000Y-82931000D01*
X142895000Y-83185000D01*
X142875000Y-83185000D01*
X142875000Y-83205000D01*
X142621000Y-83205000D01*
X142621000Y-83185000D01*
X141427845Y-83185000D01*
X141306524Y-83414890D01*
X141476355Y-83824924D01*
X141866642Y-84253183D01*
X141996478Y-84314157D01*
X141677375Y-84527375D01*
X141469822Y-84838000D01*
X140568440Y-84838000D01*
X140568440Y-84668250D01*
X140502505Y-84336773D01*
X140394057Y-84174469D01*
X140459327Y-84109198D01*
X140556000Y-83875809D01*
X140556000Y-83597750D01*
X140397250Y-83439000D01*
X139573000Y-83439000D01*
X139573000Y-83459000D01*
X139319000Y-83459000D01*
X139319000Y-83439000D01*
X138494750Y-83439000D01*
X138336000Y-83597750D01*
X138336000Y-83875809D01*
X138432673Y-84109198D01*
X138497943Y-84174469D01*
X138389495Y-84336773D01*
X138323560Y-84668250D01*
X138323560Y-85105750D01*
X138389495Y-85437227D01*
X138577261Y-85718239D01*
X138858273Y-85906005D01*
X139189750Y-85971940D01*
X139456138Y-85971940D01*
X139566671Y-86082473D01*
X139609071Y-86145929D01*
X139672527Y-86188329D01*
X139860462Y-86313904D01*
X139908605Y-86323480D01*
X140082148Y-86358000D01*
X140082152Y-86358000D01*
X140157000Y-86372888D01*
X140231848Y-86358000D01*
X141469822Y-86358000D01*
X141677375Y-86668625D01*
X141975761Y-86868000D01*
X141677375Y-87067375D01*
X141349161Y-87558582D01*
X141233908Y-88138000D01*
X141349161Y-88717418D01*
X141677375Y-89208625D01*
X141975761Y-89408000D01*
X141677375Y-89607375D01*
X141349161Y-90098582D01*
X141233908Y-90678000D01*
X141349161Y-91257418D01*
X141677375Y-91748625D01*
X142168582Y-92076839D01*
X142601744Y-92163000D01*
X142894256Y-92163000D01*
X143327418Y-92076839D01*
X143818625Y-91748625D01*
X144018000Y-91450239D01*
X144217375Y-91748625D01*
X144708582Y-92076839D01*
X145141744Y-92163000D01*
X145434256Y-92163000D01*
X145867418Y-92076839D01*
X146358625Y-91748625D01*
X146686839Y-91257418D01*
X146802092Y-90678000D01*
X146686839Y-90098582D01*
X146358625Y-89607375D01*
X146060239Y-89408000D01*
X146358625Y-89208625D01*
X146686839Y-88717418D01*
X146802092Y-88138000D01*
X146686839Y-87558582D01*
X146358625Y-87067375D01*
X146060239Y-86868000D01*
X146358625Y-86668625D01*
X146686839Y-86177418D01*
X146802092Y-85598000D01*
X146784662Y-85510373D01*
X146987720Y-85713431D01*
X147368126Y-85871000D01*
X147779874Y-85871000D01*
X148160280Y-85713431D01*
X148451431Y-85422280D01*
X148609000Y-85041874D01*
X148609000Y-84630126D01*
X148451431Y-84249720D01*
X148318314Y-84116603D01*
X148299480Y-84021920D01*
X148292325Y-83985946D01*
X148414280Y-83935431D01*
X148705431Y-83644280D01*
X148863000Y-83263874D01*
X148863000Y-82852126D01*
X148705431Y-82471720D01*
X148588000Y-82354289D01*
X148588000Y-81393846D01*
X148602888Y-81318998D01*
X148588000Y-81244150D01*
X148588000Y-81244146D01*
X148543904Y-81022461D01*
X148375929Y-80771069D01*
X148312473Y-80728669D01*
X146468295Y-78884492D01*
X146686839Y-78557418D01*
X146802092Y-77978000D01*
X146745442Y-77693200D01*
X146773989Y-77698878D01*
X146848836Y-77683990D01*
X147505060Y-77683990D01*
X147505060Y-77980250D01*
X147570995Y-78311727D01*
X147758761Y-78592739D01*
X148039773Y-78780505D01*
X148371250Y-78846440D01*
X148637639Y-78846440D01*
X150124267Y-80333069D01*
X149973429Y-80388947D01*
X149548503Y-80782807D01*
X149309524Y-81297110D01*
X149430845Y-81527000D01*
X150749000Y-81527000D01*
X150749000Y-81507000D01*
X151003000Y-81507000D01*
X151003000Y-81527000D01*
X152321155Y-81527000D01*
X152442476Y-81297110D01*
X152315571Y-81024000D01*
X156214493Y-81024000D01*
X156195660Y-81069466D01*
X156195660Y-81481214D01*
X156319440Y-81780045D01*
X156191000Y-82090126D01*
X156191000Y-82501874D01*
X156316144Y-82804000D01*
X156191000Y-83106126D01*
X156191000Y-83517874D01*
X156316144Y-83820000D01*
X156191000Y-84122126D01*
X156191000Y-84533874D01*
X156348569Y-84914280D01*
X156639720Y-85205431D01*
X157020126Y-85363000D01*
X157186199Y-85363000D01*
X157486001Y-85662803D01*
X157486000Y-88857435D01*
X157371000Y-88834560D01*
X157294413Y-88834560D01*
X157043037Y-88666596D01*
X156880155Y-88634197D01*
X156824739Y-88551261D01*
X156543727Y-88363495D01*
X156212250Y-88297560D01*
X155699750Y-88297560D01*
X155368273Y-88363495D01*
X155087261Y-88551261D01*
X155039661Y-88622500D01*
X152498440Y-88622500D01*
X152498440Y-88554000D01*
X152430126Y-88210565D01*
X152235586Y-87919414D01*
X152007844Y-87767242D01*
X152071625Y-87724625D01*
X152399839Y-87233418D01*
X152515092Y-86654000D01*
X152399839Y-86074582D01*
X152071625Y-85583375D01*
X151803171Y-85404000D01*
X152071625Y-85224625D01*
X152399839Y-84733418D01*
X152515092Y-84154000D01*
X152399839Y-83574582D01*
X152071625Y-83083375D01*
X151798313Y-82900754D01*
X152203497Y-82525193D01*
X152442476Y-82010890D01*
X152321155Y-81781000D01*
X151003000Y-81781000D01*
X151003000Y-81801000D01*
X150749000Y-81801000D01*
X150749000Y-81781000D01*
X149430845Y-81781000D01*
X149309524Y-82010890D01*
X149548503Y-82525193D01*
X149953687Y-82900754D01*
X149680375Y-83083375D01*
X149352161Y-83574582D01*
X149236908Y-84154000D01*
X149352161Y-84733418D01*
X149680375Y-85224625D01*
X149948829Y-85404000D01*
X149680375Y-85583375D01*
X149352161Y-86074582D01*
X149236908Y-86654000D01*
X149352161Y-87233418D01*
X149680375Y-87724625D01*
X149744156Y-87767242D01*
X149516414Y-87919414D01*
X149321874Y-88210565D01*
X149253560Y-88554000D01*
X149253560Y-89754000D01*
X149321874Y-90097435D01*
X149516414Y-90388586D01*
X149807565Y-90583126D01*
X150151000Y-90651440D01*
X151298638Y-90651440D01*
X151364161Y-90716963D01*
X151406561Y-90780419D01*
X151657953Y-90948394D01*
X151879638Y-90992490D01*
X151879642Y-90992490D01*
X151954489Y-91007378D01*
X152029336Y-90992490D01*
X152282854Y-90992490D01*
X152400285Y-91109921D01*
X152780691Y-91267490D01*
X153192439Y-91267490D01*
X153572845Y-91109921D01*
X153863996Y-90818770D01*
X154021565Y-90438364D01*
X154021565Y-90142500D01*
X154960475Y-90142500D01*
X154942673Y-90160302D01*
X154846000Y-90393691D01*
X154846000Y-90671750D01*
X155004750Y-90830500D01*
X155829000Y-90830500D01*
X155829000Y-90810500D01*
X156083000Y-90810500D01*
X156083000Y-90830500D01*
X156103000Y-90830500D01*
X156103000Y-91084500D01*
X156083000Y-91084500D01*
X156083000Y-91104500D01*
X155829000Y-91104500D01*
X155829000Y-91084500D01*
X155004750Y-91084500D01*
X154846000Y-91243250D01*
X154846000Y-91521309D01*
X154942673Y-91754698D01*
X155121301Y-91933327D01*
X155189339Y-91961509D01*
X155175000Y-91996126D01*
X155175000Y-92407874D01*
X155332569Y-92788280D01*
X155623720Y-93079431D01*
X156004126Y-93237000D01*
X156116406Y-93237000D01*
X156087000Y-93384836D01*
X156087001Y-95899420D01*
X149161847Y-102824575D01*
X149087951Y-102873951D01*
X148892348Y-103166691D01*
X148841000Y-103424836D01*
X148841000Y-103424839D01*
X148823663Y-103512000D01*
X148841000Y-103599161D01*
X148841001Y-105614344D01*
X148655375Y-105738375D01*
X148327161Y-106229582D01*
X148241000Y-106662744D01*
X148241000Y-107205255D01*
X148327161Y-107638417D01*
X148655375Y-108129625D01*
X149146582Y-108457839D01*
X149726000Y-108573092D01*
X150305417Y-108457839D01*
X150796625Y-108129625D01*
X150976000Y-107861171D01*
X151155375Y-108129625D01*
X151646582Y-108457839D01*
X152226000Y-108573092D01*
X152805417Y-108457839D01*
X153296625Y-108129625D01*
X153476000Y-107861171D01*
X153655375Y-108129625D01*
X154146582Y-108457839D01*
X154726000Y-108573092D01*
X155305417Y-108457839D01*
X155796625Y-108129625D01*
X155839242Y-108065844D01*
X155991414Y-108293586D01*
X156282565Y-108488126D01*
X156626000Y-108556440D01*
X157826000Y-108556440D01*
X158169435Y-108488126D01*
X158460586Y-108293586D01*
X158655126Y-108002435D01*
X158723440Y-107659000D01*
X158723440Y-106688138D01*
X159786528Y-105625050D01*
X162115000Y-105625050D01*
X162115000Y-106374950D01*
X162401974Y-107067767D01*
X162932233Y-107598026D01*
X163625050Y-107885000D01*
X164374950Y-107885000D01*
X165067767Y-107598026D01*
X165598026Y-107067767D01*
X165885000Y-106374950D01*
X165885000Y-105625050D01*
X165598026Y-104932233D01*
X165067767Y-104401974D01*
X164374950Y-104115000D01*
X163625050Y-104115000D01*
X162932233Y-104401974D01*
X162401974Y-104932233D01*
X162115000Y-105625050D01*
X159786528Y-105625050D01*
X160330156Y-105081423D01*
X160404049Y-105032049D01*
X160470745Y-104932233D01*
X160599651Y-104739311D01*
X160599652Y-104739310D01*
X160651000Y-104481165D01*
X160651000Y-104481161D01*
X160668337Y-104394001D01*
X160651000Y-104306841D01*
X160651000Y-93064835D01*
X160599652Y-92806690D01*
X160465542Y-92605982D01*
X160506000Y-92508309D01*
X160506000Y-92267750D01*
X160347250Y-92109000D01*
X160018440Y-92109000D01*
X160018440Y-91997892D01*
X160205699Y-91920327D01*
X160271026Y-91855000D01*
X160347250Y-91855000D01*
X160506000Y-91696250D01*
X160506000Y-91455691D01*
X160481000Y-91395336D01*
X160481000Y-91217750D01*
X160322250Y-91059000D01*
X160246026Y-91059000D01*
X160230699Y-91043673D01*
X159997310Y-90947000D01*
X159967250Y-90947000D01*
X159855250Y-91059000D01*
X159731245Y-91059000D01*
X159618765Y-90983843D01*
X159547397Y-90969647D01*
X159524750Y-90947000D01*
X159494690Y-90947000D01*
X159474852Y-90955217D01*
X159371000Y-90934560D01*
X159121000Y-90934560D01*
X158996000Y-90959424D01*
X158871000Y-90934560D01*
X158621000Y-90934560D01*
X158496000Y-90959424D01*
X158371000Y-90934560D01*
X158121000Y-90934560D01*
X157996000Y-90959424D01*
X157871000Y-90934560D01*
X157621000Y-90934560D01*
X157496000Y-90959424D01*
X157371000Y-90934560D01*
X157121000Y-90934560D01*
X157066000Y-90945500D01*
X157066000Y-90918500D01*
X157121000Y-90929440D01*
X157371000Y-90929440D01*
X157496000Y-90904576D01*
X157621000Y-90929440D01*
X157871000Y-90929440D01*
X157996000Y-90904576D01*
X158121000Y-90929440D01*
X158371000Y-90929440D01*
X158496000Y-90904576D01*
X158621000Y-90929440D01*
X158871000Y-90929440D01*
X158996000Y-90904576D01*
X159121000Y-90929440D01*
X159371000Y-90929440D01*
X159496000Y-90904576D01*
X159621000Y-90929440D01*
X159871000Y-90929440D01*
X160118765Y-90880157D01*
X160231245Y-90805000D01*
X160322250Y-90805000D01*
X160481000Y-90646250D01*
X160481000Y-90470226D01*
X160518440Y-90282000D01*
X160518440Y-89482000D01*
X160506000Y-89419459D01*
X160506000Y-87607927D01*
X160554235Y-87640157D01*
X160802000Y-87689440D01*
X163302000Y-87689440D01*
X163324000Y-87685064D01*
X163324000Y-87729660D01*
X163252761Y-87777261D01*
X163064995Y-88058273D01*
X162999060Y-88389750D01*
X162999060Y-88656138D01*
X162458025Y-89197174D01*
X162227720Y-89292569D01*
X161936569Y-89583720D01*
X161779000Y-89964126D01*
X161779000Y-90375874D01*
X161936569Y-90756280D01*
X162227720Y-91047431D01*
X162339476Y-91093722D01*
X162266198Y-91167000D01*
X162100126Y-91167000D01*
X161719720Y-91324569D01*
X161428569Y-91615720D01*
X161271000Y-91996126D01*
X161271000Y-92407874D01*
X161428569Y-92788280D01*
X161719720Y-93079431D01*
X162100126Y-93237000D01*
X162511874Y-93237000D01*
X162892280Y-93079431D01*
X163183431Y-92788280D01*
X163341000Y-92407874D01*
X163341000Y-92401775D01*
X163482773Y-92496505D01*
X163814250Y-92562440D01*
X164251750Y-92562440D01*
X164583227Y-92496505D01*
X164745531Y-92388057D01*
X164810802Y-92453327D01*
X165044191Y-92550000D01*
X165322250Y-92550000D01*
X165481000Y-92391250D01*
X165481000Y-91567000D01*
X165461000Y-91567000D01*
X165461000Y-91313000D01*
X165481000Y-91313000D01*
X165481000Y-90488750D01*
X165322250Y-90330000D01*
X165044191Y-90330000D01*
X164810802Y-90426673D01*
X164745531Y-90491943D01*
X164583227Y-90383495D01*
X164251750Y-90317560D01*
X163849000Y-90317560D01*
X163849000Y-89964126D01*
X163846562Y-89958240D01*
X164036362Y-89768440D01*
X164302750Y-89768440D01*
X164634227Y-89702505D01*
X164796531Y-89594057D01*
X164861802Y-89659327D01*
X165095191Y-89756000D01*
X165373250Y-89756000D01*
X165532000Y-89597250D01*
X165532000Y-88773000D01*
X165512000Y-88773000D01*
X165512000Y-88519000D01*
X165532000Y-88519000D01*
X165532000Y-87694750D01*
X165373250Y-87536000D01*
X165095191Y-87536000D01*
X164861802Y-87632673D01*
X164844000Y-87650475D01*
X164844000Y-85898848D01*
X164858888Y-85824000D01*
X164844000Y-85749152D01*
X164844000Y-85749148D01*
X164799904Y-85527463D01*
X164631929Y-85276071D01*
X164568472Y-85233671D01*
X164142331Y-84807530D01*
X164099929Y-84744071D01*
X163949440Y-84643517D01*
X163949440Y-83542000D01*
X163900157Y-83294235D01*
X163759809Y-83084191D01*
X163549765Y-82943843D01*
X163302000Y-82894560D01*
X161229362Y-82894560D01*
X159002000Y-80667199D01*
X159002000Y-80338851D01*
X159016889Y-80264000D01*
X159002000Y-80189148D01*
X159002000Y-79077750D01*
X160167000Y-79077750D01*
X160167000Y-80668309D01*
X160263673Y-80901698D01*
X160442301Y-81080327D01*
X160675690Y-81177000D01*
X161766250Y-81177000D01*
X161925000Y-81018250D01*
X161925000Y-78919000D01*
X162179000Y-78919000D01*
X162179000Y-81018250D01*
X162337750Y-81177000D01*
X163428310Y-81177000D01*
X163661699Y-81080327D01*
X163840327Y-80901698D01*
X163937000Y-80668309D01*
X163937000Y-79077750D01*
X163778250Y-78919000D01*
X162179000Y-78919000D01*
X161925000Y-78919000D01*
X160325750Y-78919000D01*
X160167000Y-79077750D01*
X159002000Y-79077750D01*
X159002000Y-76915691D01*
X160167000Y-76915691D01*
X160167000Y-78506250D01*
X160325750Y-78665000D01*
X161925000Y-78665000D01*
X161925000Y-76565750D01*
X162179000Y-76565750D01*
X162179000Y-78665000D01*
X163778250Y-78665000D01*
X163937000Y-78506250D01*
X163937000Y-76915691D01*
X163840327Y-76682302D01*
X163661699Y-76503673D01*
X163428310Y-76407000D01*
X162337750Y-76407000D01*
X162179000Y-76565750D01*
X161925000Y-76565750D01*
X161766250Y-76407000D01*
X160675690Y-76407000D01*
X160442301Y-76503673D01*
X160263673Y-76682302D01*
X160167000Y-76915691D01*
X159002000Y-76915691D01*
X159002000Y-76889300D01*
X159033337Y-76876320D01*
X159426320Y-76483337D01*
X159639000Y-75969881D01*
X159639000Y-75414119D01*
X159426320Y-74900663D01*
X159033337Y-74507680D01*
X159002000Y-74494700D01*
X159002000Y-74482801D01*
X162023800Y-71461002D01*
X162105844Y-71461002D01*
X161984524Y-71690890D01*
X161986447Y-71703260D01*
X162237336Y-72226045D01*
X162669188Y-72613024D01*
X163216258Y-72805284D01*
X163449000Y-72661231D01*
X163449000Y-71461000D01*
X163703000Y-71461000D01*
X163703000Y-72661231D01*
X163935742Y-72805284D01*
X164482812Y-72613024D01*
X164914664Y-72226045D01*
X165165553Y-71703260D01*
X165167476Y-71690890D01*
X165046155Y-71461000D01*
X163703000Y-71461000D01*
X163449000Y-71461000D01*
X163429000Y-71461000D01*
X163429000Y-71207000D01*
X163449000Y-71207000D01*
X163449000Y-71187000D01*
X163703000Y-71187000D01*
X163703000Y-71207000D01*
X165046155Y-71207000D01*
X165167476Y-70977110D01*
X165165553Y-70964740D01*
X164914664Y-70441955D01*
X164695593Y-70245648D01*
X164960586Y-70068586D01*
X165155126Y-69777435D01*
X165223440Y-69434000D01*
X165223440Y-68234000D01*
X165155126Y-67890565D01*
X164960586Y-67599414D01*
X164669435Y-67404874D01*
X164326000Y-67336560D01*
X162826000Y-67336560D01*
X162482565Y-67404874D01*
X162191414Y-67599414D01*
X161996874Y-67890565D01*
X161928560Y-68234000D01*
X161928560Y-69406638D01*
X157757530Y-73577669D01*
X157694071Y-73620071D01*
X157526096Y-73871464D01*
X157482000Y-74093149D01*
X157482000Y-74093153D01*
X157467112Y-74168000D01*
X157482000Y-74242847D01*
X157482000Y-74494700D01*
X157450663Y-74507680D01*
X157057680Y-74900663D01*
X156845000Y-75414119D01*
X156845000Y-75969881D01*
X157057680Y-76483337D01*
X157450663Y-76876320D01*
X157482001Y-76889301D01*
X157482000Y-79504000D01*
X157325031Y-79504000D01*
X157332440Y-79466750D01*
X157332440Y-79029250D01*
X157266505Y-78697773D01*
X157158057Y-78535469D01*
X157223327Y-78470198D01*
X157320000Y-78236809D01*
X157320000Y-77958750D01*
X157161250Y-77800000D01*
X156337000Y-77800000D01*
X156337000Y-77820000D01*
X156083000Y-77820000D01*
X156083000Y-77800000D01*
X155258750Y-77800000D01*
X155175250Y-77883500D01*
X155142750Y-77851000D01*
X154356000Y-77851000D01*
X154356000Y-77871000D01*
X154102000Y-77871000D01*
X154102000Y-77851000D01*
X154082000Y-77851000D01*
X154082000Y-77597000D01*
X154102000Y-77597000D01*
X154102000Y-76772750D01*
X154356000Y-76772750D01*
X154356000Y-77597000D01*
X155142750Y-77597000D01*
X155226250Y-77513500D01*
X155258750Y-77546000D01*
X156083000Y-77546000D01*
X156083000Y-76759250D01*
X156337000Y-76759250D01*
X156337000Y-77546000D01*
X157161250Y-77546000D01*
X157320000Y-77387250D01*
X157320000Y-77109191D01*
X157223327Y-76875802D01*
X157044699Y-76697173D01*
X156811310Y-76600500D01*
X156495750Y-76600500D01*
X156337000Y-76759250D01*
X156083000Y-76759250D01*
X155924250Y-76600500D01*
X155608690Y-76600500D01*
X155375301Y-76697173D01*
X155196673Y-76875802D01*
X155195107Y-76879582D01*
X155026198Y-76710673D01*
X154792809Y-76614000D01*
X154514750Y-76614000D01*
X154356000Y-76772750D01*
X154102000Y-76772750D01*
X153943250Y-76614000D01*
X153665191Y-76614000D01*
X153431802Y-76710673D01*
X153366531Y-76775943D01*
X153204227Y-76667495D01*
X152872750Y-76601560D01*
X152435250Y-76601560D01*
X152103773Y-76667495D01*
X151822761Y-76855261D01*
X151750104Y-76964000D01*
X151068896Y-76964000D01*
X150996239Y-76855261D01*
X150715227Y-76667495D01*
X150383750Y-76601560D01*
X150187168Y-76601560D01*
X150078215Y-76492607D01*
X150320397Y-76423143D01*
X150507144Y-75899698D01*
X150479362Y-75344632D01*
X150320397Y-74960857D01*
X150078213Y-74891392D01*
X149277605Y-75692000D01*
X149291748Y-75706143D01*
X149112143Y-75885748D01*
X149098000Y-75871605D01*
X149083858Y-75885748D01*
X148904253Y-75706143D01*
X148918395Y-75692000D01*
X148117787Y-74891392D01*
X147875603Y-74960857D01*
X147688856Y-75484302D01*
X147716638Y-76039368D01*
X147768258Y-76163990D01*
X147088792Y-76163990D01*
X146729209Y-75804408D01*
X146802092Y-75438000D01*
X146686839Y-74858582D01*
X146588754Y-74711787D01*
X148297392Y-74711787D01*
X149098000Y-75512395D01*
X149898608Y-74711787D01*
X149829143Y-74469603D01*
X149305698Y-74282856D01*
X148750632Y-74310638D01*
X148366857Y-74469603D01*
X148297392Y-74711787D01*
X146588754Y-74711787D01*
X146358625Y-74367375D01*
X146060239Y-74168000D01*
X146358625Y-73968625D01*
X146686839Y-73477418D01*
X146802092Y-72898000D01*
X146686839Y-72318582D01*
X146358625Y-71827375D01*
X146060239Y-71628000D01*
X146358625Y-71428625D01*
X146686839Y-70937418D01*
X146802092Y-70358000D01*
X146686839Y-69778582D01*
X146358625Y-69287375D01*
X146039522Y-69074157D01*
X146169358Y-69013183D01*
X146559645Y-68584924D01*
X146729476Y-68174890D01*
X146608155Y-67945000D01*
X145415000Y-67945000D01*
X145415000Y-67965000D01*
X145161000Y-67965000D01*
X145161000Y-67945000D01*
X145141000Y-67945000D01*
X145141000Y-67691000D01*
X145161000Y-67691000D01*
X145161000Y-66497181D01*
X145415000Y-66497181D01*
X145415000Y-67691000D01*
X146608155Y-67691000D01*
X146729476Y-67461110D01*
X146559645Y-67051076D01*
X146169358Y-66622817D01*
X145644892Y-66376514D01*
X145415000Y-66497181D01*
X145161000Y-66497181D01*
X144931108Y-66376514D01*
X144406642Y-66622817D01*
X144019353Y-67047786D01*
X143818625Y-66747375D01*
X143364118Y-66443683D01*
X144484150Y-65323652D01*
X144789750Y-65384440D01*
X145227250Y-65384440D01*
X145558727Y-65318505D01*
X145721031Y-65210057D01*
X145786302Y-65275327D01*
X146019691Y-65372000D01*
X146297750Y-65372000D01*
X146456500Y-65213250D01*
X146456500Y-64389000D01*
X146710500Y-64389000D01*
X146710500Y-65213250D01*
X146869250Y-65372000D01*
X147147309Y-65372000D01*
X147380698Y-65275327D01*
X147559327Y-65096699D01*
X147656000Y-64863310D01*
X147656000Y-64547750D01*
X147497250Y-64389000D01*
X146710500Y-64389000D01*
X146456500Y-64389000D01*
X146436500Y-64389000D01*
X146436500Y-64135000D01*
X146456500Y-64135000D01*
X146456500Y-63310750D01*
X146710500Y-63310750D01*
X146710500Y-64135000D01*
X147497250Y-64135000D01*
X147656000Y-63976250D01*
X147656000Y-63660690D01*
X147559327Y-63427301D01*
X147380698Y-63248673D01*
X147147309Y-63152000D01*
X146869250Y-63152000D01*
X146710500Y-63310750D01*
X146456500Y-63310750D01*
X146297750Y-63152000D01*
X146019691Y-63152000D01*
X145786302Y-63248673D01*
X145721031Y-63313943D01*
X145558727Y-63205495D01*
X145227250Y-63139560D01*
X144789750Y-63139560D01*
X144458273Y-63205495D01*
X144177261Y-63393261D01*
X143995030Y-63665990D01*
X143923071Y-63714071D01*
X143880671Y-63777527D01*
X137665520Y-69992679D01*
X137602061Y-70035081D01*
X137434086Y-70286474D01*
X137389990Y-70508159D01*
X137389990Y-70508163D01*
X137375102Y-70583010D01*
X137389990Y-70657857D01*
X137389991Y-73838638D01*
X137375102Y-73913490D01*
X137375601Y-73916000D01*
X131138846Y-73916000D01*
X131063999Y-73901112D01*
X130989152Y-73916000D01*
X130989148Y-73916000D01*
X130767463Y-73960096D01*
X130733879Y-73982536D01*
X130579526Y-74085671D01*
X130579524Y-74085673D01*
X130516071Y-74128071D01*
X130473673Y-74191524D01*
X129500198Y-75165000D01*
X129334126Y-75165000D01*
X128953720Y-75322569D01*
X128662569Y-75613720D01*
X128505000Y-75994126D01*
X128270754Y-75994126D01*
X128315000Y-75887309D01*
X128315000Y-75857250D01*
X128156250Y-75698500D01*
X128140525Y-75698500D01*
X128218327Y-75620698D01*
X128295596Y-75434154D01*
X128315000Y-75414750D01*
X128315000Y-75357250D01*
X128295596Y-75337846D01*
X128218327Y-75151302D01*
X128203025Y-75136000D01*
X128218327Y-75120698D01*
X128295596Y-74934154D01*
X128315000Y-74914750D01*
X128315000Y-74857250D01*
X128295596Y-74837846D01*
X128218327Y-74651302D01*
X128197100Y-74630075D01*
X128278157Y-74508765D01*
X128292353Y-74437397D01*
X128315000Y-74414750D01*
X128315000Y-74384691D01*
X128306783Y-74364853D01*
X128327440Y-74261000D01*
X128327440Y-74011000D01*
X128291814Y-73831897D01*
X128302425Y-73821286D01*
X128572126Y-73933000D01*
X128983874Y-73933000D01*
X129364280Y-73775431D01*
X129655431Y-73484280D01*
X129813000Y-73103874D01*
X129813000Y-72692126D01*
X129804881Y-72672524D01*
X129880198Y-72641327D01*
X130058827Y-72462699D01*
X130155500Y-72229310D01*
X130155500Y-71913750D01*
X129996750Y-71755000D01*
X129210000Y-71755000D01*
X129210000Y-71775000D01*
X128956000Y-71775000D01*
X128956000Y-71755000D01*
X128936000Y-71755000D01*
X128936000Y-71501000D01*
X128956000Y-71501000D01*
X128956000Y-70676750D01*
X129210000Y-70676750D01*
X129210000Y-71501000D01*
X129996750Y-71501000D01*
X130155500Y-71342250D01*
X130155500Y-71026690D01*
X130058827Y-70793301D01*
X129880198Y-70614673D01*
X129646809Y-70518000D01*
X129368750Y-70518000D01*
X129210000Y-70676750D01*
X128956000Y-70676750D01*
X128797250Y-70518000D01*
X128519191Y-70518000D01*
X128285802Y-70614673D01*
X128220531Y-70679943D01*
X128058227Y-70571495D01*
X128033852Y-70566646D01*
X128035000Y-70563874D01*
X128035000Y-70152126D01*
X127877431Y-69771720D01*
X127586280Y-69480569D01*
X127205874Y-69323000D01*
X126794126Y-69323000D01*
X126413720Y-69480569D01*
X126122569Y-69771720D01*
X125965000Y-70152126D01*
X125965000Y-70563874D01*
X125981366Y-70603384D01*
X125908000Y-70676750D01*
X125908000Y-71501000D01*
X125928000Y-71501000D01*
X125928000Y-71755000D01*
X125908000Y-71755000D01*
X125908000Y-71775000D01*
X125654000Y-71775000D01*
X125654000Y-71755000D01*
X125634000Y-71755000D01*
X125634000Y-71501000D01*
X125654000Y-71501000D01*
X125654000Y-70676750D01*
X125495250Y-70518000D01*
X125217191Y-70518000D01*
X124983802Y-70614673D01*
X124918531Y-70679943D01*
X124756227Y-70571495D01*
X124424750Y-70505560D01*
X123987250Y-70505560D01*
X123655773Y-70571495D01*
X123374761Y-70759261D01*
X123186995Y-71040273D01*
X123121060Y-71371750D01*
X123121060Y-71884250D01*
X123186995Y-72215727D01*
X123374761Y-72496739D01*
X123520001Y-72593785D01*
X123520000Y-73376000D01*
X123008211Y-73376000D01*
X122684250Y-73311560D01*
X122171750Y-73311560D01*
X121840273Y-73377495D01*
X121559261Y-73565261D01*
X121371495Y-73846273D01*
X121305560Y-74177750D01*
X121305560Y-74615250D01*
X121371495Y-74946727D01*
X121530036Y-75184000D01*
X121392509Y-75389823D01*
X121286839Y-74858582D01*
X120958625Y-74367375D01*
X120660239Y-74168000D01*
X120958625Y-73968625D01*
X121286839Y-73477418D01*
X121402092Y-72898000D01*
X121286839Y-72318582D01*
X120958625Y-71827375D01*
X120660239Y-71628000D01*
X120958625Y-71428625D01*
X121286839Y-70937418D01*
X121402092Y-70358000D01*
X121286839Y-69778582D01*
X120958625Y-69287375D01*
X120660239Y-69088000D01*
X120958625Y-68888625D01*
X121286839Y-68397418D01*
X121402092Y-67818000D01*
X121286839Y-67238582D01*
X120958625Y-66747375D01*
X120467418Y-66419161D01*
X120034256Y-66333000D01*
X119741744Y-66333000D01*
X119308582Y-66419161D01*
X118817375Y-66747375D01*
X118802904Y-66769032D01*
X118736327Y-66608301D01*
X118557698Y-66429673D01*
X118324309Y-66333000D01*
X117633750Y-66333000D01*
X117475000Y-66491750D01*
X117475000Y-67691000D01*
X117495000Y-67691000D01*
X117495000Y-67945000D01*
X117475000Y-67945000D01*
X117475000Y-67965000D01*
X117221000Y-67965000D01*
X117221000Y-67945000D01*
X117201000Y-67945000D01*
X117201000Y-67691000D01*
X117221000Y-67691000D01*
X117221000Y-66491750D01*
X117062250Y-66333000D01*
X116371691Y-66333000D01*
X116138302Y-66429673D01*
X115959673Y-66608301D01*
X115910000Y-66728222D01*
X115910000Y-54625050D01*
X116615000Y-54625050D01*
X116615000Y-55374950D01*
X116901974Y-56067767D01*
X117432233Y-56598026D01*
X118125050Y-56885000D01*
X118874950Y-56885000D01*
X119567767Y-56598026D01*
X120098026Y-56067767D01*
X120385000Y-55374950D01*
X120385000Y-54625050D01*
X120098026Y-53932233D01*
X119796793Y-53631000D01*
X123216560Y-53631000D01*
X123216560Y-55081000D01*
X123284874Y-55424435D01*
X123479414Y-55715586D01*
X123770565Y-55910126D01*
X124114000Y-55978440D01*
X125314000Y-55978440D01*
X125657435Y-55910126D01*
X125948586Y-55715586D01*
X126100758Y-55487844D01*
X126143375Y-55551625D01*
X126454000Y-55759178D01*
X126454001Y-67289197D01*
X126452198Y-67291000D01*
X126286126Y-67291000D01*
X125905720Y-67448569D01*
X125614569Y-67739720D01*
X125457000Y-68120126D01*
X125457000Y-68531874D01*
X125614569Y-68912280D01*
X125905720Y-69203431D01*
X126286126Y-69361000D01*
X126697874Y-69361000D01*
X127078280Y-69203431D01*
X127369431Y-68912280D01*
X127527000Y-68531874D01*
X127527000Y-68365802D01*
X127698473Y-68194329D01*
X127761929Y-68151929D01*
X127929904Y-67900537D01*
X127974000Y-67678852D01*
X127974000Y-67678848D01*
X127988888Y-67604001D01*
X127974000Y-67529154D01*
X127974000Y-67104126D01*
X136379000Y-67104126D01*
X136379000Y-67515874D01*
X136536569Y-67896280D01*
X136827720Y-68187431D01*
X137208126Y-68345000D01*
X137619874Y-68345000D01*
X138000280Y-68187431D01*
X138291431Y-67896280D01*
X138386826Y-67665975D01*
X140755802Y-65297000D01*
X140921874Y-65297000D01*
X141302280Y-65139431D01*
X141593431Y-64848280D01*
X141751000Y-64467874D01*
X141751000Y-64056126D01*
X141593431Y-63675720D01*
X141302280Y-63384569D01*
X140921874Y-63227000D01*
X140510126Y-63227000D01*
X140129720Y-63384569D01*
X139838569Y-63675720D01*
X139681000Y-64056126D01*
X139681000Y-64222198D01*
X137625761Y-66277438D01*
X137619874Y-66275000D01*
X137208126Y-66275000D01*
X136827720Y-66432569D01*
X136536569Y-66723720D01*
X136379000Y-67104126D01*
X127974000Y-67104126D01*
X127974000Y-61432213D01*
X148297392Y-61432213D01*
X148366857Y-61674397D01*
X148890302Y-61861144D01*
X149445368Y-61833362D01*
X149829143Y-61674397D01*
X149898608Y-61432213D01*
X149098000Y-60631605D01*
X148297392Y-61432213D01*
X127974000Y-61432213D01*
X127974000Y-60244302D01*
X147688856Y-60244302D01*
X147716638Y-60799368D01*
X147875603Y-61183143D01*
X148117787Y-61252608D01*
X148918395Y-60452000D01*
X149277605Y-60452000D01*
X150078213Y-61252608D01*
X150320397Y-61183143D01*
X150507144Y-60659698D01*
X150482840Y-60174119D01*
X156845000Y-60174119D01*
X156845000Y-60729881D01*
X157057680Y-61243337D01*
X157450663Y-61636320D01*
X157964119Y-61849000D01*
X158519881Y-61849000D01*
X159033337Y-61636320D01*
X159426320Y-61243337D01*
X159639000Y-60729881D01*
X159639000Y-60174119D01*
X159426320Y-59660663D01*
X159033337Y-59267680D01*
X158519881Y-59055000D01*
X157964119Y-59055000D01*
X157450663Y-59267680D01*
X157057680Y-59660663D01*
X156845000Y-60174119D01*
X150482840Y-60174119D01*
X150479362Y-60104632D01*
X150320397Y-59720857D01*
X150078213Y-59651392D01*
X149277605Y-60452000D01*
X148918395Y-60452000D01*
X148117787Y-59651392D01*
X147875603Y-59720857D01*
X147688856Y-60244302D01*
X127974000Y-60244302D01*
X127974000Y-59471787D01*
X148297392Y-59471787D01*
X149098000Y-60272395D01*
X149898608Y-59471787D01*
X149829143Y-59229603D01*
X149305698Y-59042856D01*
X148750632Y-59070638D01*
X148366857Y-59229603D01*
X148297392Y-59471787D01*
X127974000Y-59471787D01*
X127974000Y-55759178D01*
X128284625Y-55551625D01*
X128464000Y-55283171D01*
X128643375Y-55551625D01*
X129134583Y-55879839D01*
X129714000Y-55995092D01*
X130293418Y-55879839D01*
X130784625Y-55551625D01*
X130964000Y-55283171D01*
X131143375Y-55551625D01*
X131634583Y-55879839D01*
X132214000Y-55995092D01*
X132793418Y-55879839D01*
X133284625Y-55551625D01*
X133464000Y-55283171D01*
X133643375Y-55551625D01*
X134134583Y-55879839D01*
X134714000Y-55995092D01*
X135293418Y-55879839D01*
X135784625Y-55551625D01*
X135964000Y-55283171D01*
X136143375Y-55551625D01*
X136634583Y-55879839D01*
X137214000Y-55995092D01*
X137793418Y-55879839D01*
X138284625Y-55551625D01*
X138467246Y-55278313D01*
X138842807Y-55683497D01*
X139357110Y-55922476D01*
X139587000Y-55801155D01*
X139587000Y-54483000D01*
X139841000Y-54483000D01*
X139841000Y-55801155D01*
X140070890Y-55922476D01*
X140585193Y-55683497D01*
X140979053Y-55258571D01*
X141180320Y-54715267D01*
X141125882Y-54625050D01*
X162115000Y-54625050D01*
X162115000Y-55374950D01*
X162401974Y-56067767D01*
X162932233Y-56598026D01*
X163625050Y-56885000D01*
X164374950Y-56885000D01*
X165067767Y-56598026D01*
X165598026Y-56067767D01*
X165885000Y-55374950D01*
X165885000Y-54625050D01*
X165598026Y-53932233D01*
X165067767Y-53401974D01*
X164374950Y-53115000D01*
X163625050Y-53115000D01*
X162932233Y-53401974D01*
X162401974Y-53932233D01*
X162115000Y-54625050D01*
X141125882Y-54625050D01*
X141040165Y-54483000D01*
X139841000Y-54483000D01*
X139587000Y-54483000D01*
X139567000Y-54483000D01*
X139567000Y-54229000D01*
X139587000Y-54229000D01*
X139587000Y-52910845D01*
X139841000Y-52910845D01*
X139841000Y-54229000D01*
X141040165Y-54229000D01*
X141180320Y-53996733D01*
X140979053Y-53453429D01*
X140585193Y-53028503D01*
X140070890Y-52789524D01*
X139841000Y-52910845D01*
X139587000Y-52910845D01*
X139357110Y-52789524D01*
X138842807Y-53028503D01*
X138467246Y-53433687D01*
X138284625Y-53160375D01*
X137793417Y-52832161D01*
X137214000Y-52716908D01*
X136634582Y-52832161D01*
X136143375Y-53160375D01*
X135964000Y-53428829D01*
X135784625Y-53160375D01*
X135293417Y-52832161D01*
X134714000Y-52716908D01*
X134134582Y-52832161D01*
X133643375Y-53160375D01*
X133464000Y-53428829D01*
X133284625Y-53160375D01*
X132793417Y-52832161D01*
X132214000Y-52716908D01*
X131634582Y-52832161D01*
X131143375Y-53160375D01*
X130964000Y-53428829D01*
X130784625Y-53160375D01*
X130293417Y-52832161D01*
X129714000Y-52716908D01*
X129134582Y-52832161D01*
X128643375Y-53160375D01*
X128464000Y-53428829D01*
X128284625Y-53160375D01*
X127793417Y-52832161D01*
X127214000Y-52716908D01*
X126634582Y-52832161D01*
X126143375Y-53160375D01*
X126100758Y-53224156D01*
X125948586Y-52996414D01*
X125657435Y-52801874D01*
X125314000Y-52733560D01*
X124114000Y-52733560D01*
X123770565Y-52801874D01*
X123479414Y-52996414D01*
X123284874Y-53287565D01*
X123216560Y-53631000D01*
X119796793Y-53631000D01*
X119567767Y-53401974D01*
X118874950Y-53115000D01*
X118125050Y-53115000D01*
X117432233Y-53401974D01*
X116901974Y-53932233D01*
X116615000Y-54625050D01*
X115910000Y-54625050D01*
X115910000Y-52210000D01*
X166290001Y-52210000D01*
X166290000Y-87563832D01*
G36*
X139039500Y-70993000D02*
X139059500Y-70993000D01*
X139059500Y-71247000D01*
X139039500Y-71247000D01*
X139039500Y-72771000D01*
X139059500Y-72771000D01*
X139059500Y-73025000D01*
X139039500Y-73025000D01*
X139039500Y-73045000D01*
X138909990Y-73045000D01*
X138909990Y-70973000D01*
X139039500Y-70973000D01*
X139039500Y-70993000D01*
X139039500Y-70993000D01*
G37*
X139039500Y-70993000D02*
X139059500Y-70993000D01*
X139059500Y-71247000D01*
X139039500Y-71247000D01*
X139039500Y-72771000D01*
X139059500Y-72771000D01*
X139059500Y-73025000D01*
X139039500Y-73025000D01*
X139039500Y-73045000D01*
X138909990Y-73045000D01*
X138909990Y-70973000D01*
X139039500Y-70973000D01*
X139039500Y-70993000D01*
G36*
X141677375Y-68888625D02*
X141975761Y-69088000D01*
X141677375Y-69287375D01*
X141349161Y-69778582D01*
X141262601Y-70213751D01*
X141037727Y-70063495D01*
X140706250Y-69997560D01*
X140268750Y-69997560D01*
X139937273Y-70063495D01*
X139774969Y-70171943D01*
X139709698Y-70106673D01*
X139703638Y-70104163D01*
X141373683Y-68434118D01*
X141677375Y-68888625D01*
X141677375Y-68888625D01*
G37*
X141677375Y-68888625D02*
X141975761Y-69088000D01*
X141677375Y-69287375D01*
X141349161Y-69778582D01*
X141262601Y-70213751D01*
X141037727Y-70063495D01*
X140706250Y-69997560D01*
X140268750Y-69997560D01*
X139937273Y-70063495D01*
X139774969Y-70171943D01*
X139709698Y-70106673D01*
X139703638Y-70104163D01*
X141373683Y-68434118D01*
X141677375Y-68888625D01*
G36*
X144406642Y-69013183D02*
X144536478Y-69074157D01*
X144217375Y-69287375D01*
X144018000Y-69585761D01*
X143818625Y-69287375D01*
X143520239Y-69088000D01*
X143818625Y-68888625D01*
X144019353Y-68588214D01*
X144406642Y-69013183D01*
X144406642Y-69013183D01*
G37*
X144406642Y-69013183D02*
X144536478Y-69074157D01*
X144217375Y-69287375D01*
X144018000Y-69585761D01*
X143818625Y-69287375D01*
X143520239Y-69088000D01*
X143818625Y-68888625D01*
X144019353Y-68588214D01*
X144406642Y-69013183D01*
G36*
X115910000Y-68056750D02*
X115910000Y-67945002D01*
X116021748Y-67945002D01*
X115910000Y-68056750D01*
X115910000Y-68056750D01*
G37*
X115910000Y-68056750D02*
X115910000Y-67945002D01*
X116021748Y-67945002D01*
X115910000Y-68056750D01*
G36*
X116021748Y-67690998D02*
X115910000Y-67690998D01*
X115910000Y-67579250D01*
X116021748Y-67690998D01*
X116021748Y-67690998D01*
G37*
X116021748Y-67690998D02*
X115910000Y-67690998D01*
X115910000Y-67579250D01*
X116021748Y-67690998D01*
G04 #@! TD*
M02*
