M48
INCH,TZ
T1C0.0118
T2C0.0157
T3C0.0300
T4C0.0374
T5C0.0394
T6C0.0984
%
G90
G05
T1
X62046Y-35800
X62400Y-35800
X62754Y-35800
T2
X48600Y-30500
X49800Y-26900
X50000Y-27700
X50200Y-28800
X50700Y-28700
X51000Y-30000
X52700Y-34500
X53000Y-30000
X53100Y-33300
X53900Y-31300
X54100Y-26500
X55400Y-25300
X58100Y-33400
X58100Y-37100
X58200Y-32700
X60231Y-35525
X61500Y-36300
X61900Y-32400
X61900Y-32800
X61900Y-33200
X61902Y-31998
X62100Y-28600
X63300Y-29800
X63900Y-36300
X64100Y-35500
T3
X58700Y-23800
X58700Y-29800
X62300Y-23800
X62300Y-29800
T4
X58947Y-42100
X59931Y-42100
X60916Y-42100
X61900Y-42100
X53447Y-42100
X54431Y-42100
X55416Y-42100
X56400Y-42100
X49031Y-42100
X50016Y-42100
X51000Y-42100
X49100Y-21400
X50084Y-21400
X51069Y-21400
X52053Y-21400
X53037Y-21400
X54021Y-21400
X55006Y-21400
X59400Y-32147
X59400Y-33131
X59400Y-34116
X59400Y-35100
T5
X46200Y-26700
X46200Y-27700
X46200Y-28700
X46200Y-29700
X46200Y-30700
X46200Y-31700
X46200Y-32700
X46200Y-33700
X46200Y-34700
X46200Y-35700
X47200Y-26700
X47200Y-27700
X47200Y-28700
X47200Y-29700
X47200Y-30700
X47200Y-31700
X47200Y-32700
X47200Y-33700
X47200Y-34700
X47200Y-35700
X56200Y-26700
X56200Y-27700
X56200Y-28700
X56200Y-29700
X56200Y-30700
X56200Y-31700
X56200Y-32700
X56200Y-33700
X56200Y-34700
X56200Y-35700
X57200Y-26700
X57200Y-27700
X57200Y-28700
X57200Y-29700
X57200Y-30700
X57200Y-31700
X57200Y-32700
X57200Y-33700
X57200Y-34700
X57200Y-35700
X64400Y-27100
X64400Y-28084
T6
X46654Y-41732
X46654Y-21654
X64567Y-21654
X64567Y-41732
T0
M30
